<?xml version="1.0" encoding="utf-8"?>
<!-- Generator: Adobe Illustrator 20.1.0, SVG Export Plug-In . SVG Version: 6.00 Build 0)  -->
<svg version="1.1" id="Calque_1" xmlns="http://www.w3.org/2000/svg" xmlns:xlink="http://www.w3.org/1999/xlink" x="0px" y="0px"
	 viewBox="0 0 141.7 141.7" enable-background="new 0 0 141.7 141.7" xml:space="preserve">
<polygon fill="#A5192A" points="32.4,19.9 23.6,98.5 76,133.5 102.2,92.7 130.6,63.9 121.3,52.2 102.2,40.3 81.9,8.3 "/>
<polygon fill="#0071BC" points="81.9,8.3 102.2,40.3 76,60.7 "/>
<polygon fill="#300609" points="32.4,19.9 76,60.7 23.6,98.5 "/>
<polygon fill="#840F1D" points="76,133.5 76,60.7 102.2,92.7 "/>
<polygon fill="#0071BC" points="102.2,40.3 121.3,52.2 102.2,92.7 "/>
<polygon fill="#0071BC" points="130.6,63.9 121.3,52.2 102.2,92.7 "/>
<polygon fill="#840F1D" points="81.9,8.3 102.2,40.3 76,60.7 "/>
<polygon fill="#590E18" points="102.2,40.3 121.3,52.2 102.2,92.7 "/>
<polygon fill="#300609" points="130.6,63.9 121.3,52.2 102.2,92.7 "/>
<polygon fill="#590E18" points="23.6,98.5 76,60.7 76,133.5 "/>
</svg>
