<?xml version="1.0" encoding="utf-8"?>
<!-- Generator: Adobe Illustrator 20.1.0, SVG Export Plug-In . SVG Version: 6.00 Build 0)  -->
<svg version="1.1" id="Calque_3" xmlns="http://www.w3.org/2000/svg" xmlns:xlink="http://www.w3.org/1999/xlink" x="0px" y="0px"
	 viewBox="0 0 141.7 141.7" enable-background="new 0 0 141.7 141.7" xml:space="preserve">
<polygon fill="#300609" points="84.5,138.5 88.8,103.7 48,120.1 "/>
<polygon fill="#A5192A" points="2.6,60.5 48,120.1 28.2,78.1 "/>
<polygon fill="none" points="28.2,78.1 88.8,103.7 139.1,69.2 116.8,38.2 74,26 79.7,52.1 39.3,35 "/>
<polygon fill="#A5192A" points="28.2,78.1 79.7,52.1 88.8,103.7 "/>
<polygon fill="#300609" points="74,26 116.8,38.2 79.7,52.1 "/>
<polygon fill="#840F1D" points="139.1,69.2 79.7,52.1 116.8,38.2 "/>
<polygon fill="#590E18" points="28.2,78.1 2.6,60.5 39.3,35 "/>
<polygon fill="#590E18" points="39.3,35 74,26 79.7,52.1 "/>
<polygon fill="#300609" points="39.3,35 28.2,78.1 79.7,52.1 "/>
<polygon fill="#590E18" points="88.8,103.7 79.7,52.1 139.1,69.2 "/>
<polygon fill="#840F1D" points="28.2,78.1 48,120.1 88.8,103.7 "/>
<polygon fill="#A5192A" points="84.5,138.5 139.1,69.2 88.8,103.7 "/>
</svg>
