<?xml version="1.0" encoding="utf-8"?>
<!-- Generator: Adobe Illustrator 20.1.0, SVG Export Plug-In . SVG Version: 6.00 Build 0)  -->
<svg version="1.1" id="Calque_1" xmlns="http://www.w3.org/2000/svg" xmlns:xlink="http://www.w3.org/1999/xlink" x="0px" y="0px"
	 viewBox="0 0 841.9 595.3" enable-background="new 0 0 841.9 595.3" xml:space="preserve">
<polygon fill="#010E16" points="58.6,242 86.9,318.6 89.9,243 "/>
<polygon fill="#010E16" points="-0.1,204.6 1.4,205.9 1.4,203.1 "/>
<polygon fill="#010E16" points="29.7,174.7 1.4,203.1 1.4,205.9 25.4,225.8 "/>
<polygon fill="#010A0F" points="86.9,318.6 1.4,374.3 1.4,422.7 41.8,456.3 "/>
<polygon fill="#010E16" points="1.4,294.7 1.4,340.4 27.4,296.4 "/>
<polygon fill="#010E16" points="63.5,200.7 47.9,183.8 25.4,225.8 "/>
<polygon fill="#010A0F" points="243.5,573.9 195.4,531.8 188.6,595.3 222.6,595.3 244.6,579.7 "/>
<polygon fill="#010E16" points="188.6,595.3 188.5,595.8 222,595.8 222.6,595.3 "/>
<polygon fill="#010E16" points="329.9,325.5 332.5,299.5 282.4,310.5 "/>
<polygon fill="#010A0F" points="209.9,320.6 205.2,256.6 143.3,281.3 "/>
<polygon fill="#010A0F" points="131.1,196.8 85.6,189 89.9,243 "/>
<polygon fill="#010E16" points="77.3,595.8 111.6,595.8 122.5,518.8 "/>
<polygon fill="#010E16" points="425.6,403.3 424.8,399.5 412.5,409.2 "/>
<polygon fill="#010A0F" points="268.3,503.1 305.6,412.3 135.5,468 "/>
<polygon fill="#010E16" points="282.4,310.5 209.9,320.6 258.2,374 "/>
<polygon fill="#010E16" points="254.5,152.6 232.5,157.8 251.9,176 "/>
<polygon fill="#010E16" points="276.3,177.5 272.2,172.2 263.6,190.3 "/>
<polygon fill="#010E16" points="251.9,176 228.6,192.9 251.9,208.5 "/>
<polygon fill="#010E16" points="263.6,190.3 263.6,166.9 251.9,176 "/>
<polygon fill="#032A3F" points="303.9,282.6 205.2,256.6 282.4,310.5 "/>
<polygon fill="#013757" points="133.2,361.9 86.9,318.6 135.5,468 "/>
<polygon fill="#010E16" points="153.5,595.3 188.6,595.3 195.4,531.8 142.6,595.8 188.5,595.8 188.6,595.3 "/>
<polygon fill="#013B5B" points="263.6,166.9 254.5,152.6 251.9,176 "/>
<polygon fill="#03202D" points="232.5,157.8 228.6,192.9 251.9,176 "/>
<polygon fill="#013B5B" points="251.9,208.5 263.6,190.3 251.9,176 "/>
<polygon fill="#013B5B" points="272.2,172.2 263.6,166.9 263.6,190.3 "/>
<polygon fill="#012230" points="47.9,183.8 29.7,174.7 25.4,225.8 "/>
<polygon fill="#032A3F" points="58.6,242 63.5,200.7 25.4,225.8 "/>
<polygon fill="#012230" points="85.6,189 63.5,200.7 89.9,243 "/>
<polygon fill="#013757" points="89.9,243 63.5,200.7 58.6,242 "/>
<polygon fill="#013757" points="141.5,224.1 131.1,196.8 89.9,243 "/>
<polygon fill="#032A3F" points="196.1,216.3 141.5,224.1 143.3,281.3 "/>
<polygon fill="#012230" points="205.2,256.6 196.1,216.3 143.3,281.3 "/>
<polygon fill="#012E47" points="143.3,281.3 141.5,224.1 89.9,243 "/>
<polygon fill="#012230" points="252.8,224.3 205.2,256.6 303.9,282.6 "/>
<polygon fill="#012230" points="332.5,299.5 303.9,282.6 282.4,310.5 "/>
<polygon fill="#010E16" points="313,356.7 329.9,325.5 282.4,310.5 "/>
<polygon fill="#012230" stroke="#000000" stroke-width="0.25" stroke-miterlimit="10" points="350.7,389.1 313,356.7 305.6,412.3 
	"/>
<polygon fill="#031921" points="354.6,363.2 313,356.7 350.7,389.1 "/>
<polygon fill="#001D2D" points="370.2,402.1 350.7,389.1 305.6,412.3 "/>
<polygon fill="#010E16" points="377.9,424.7 412.5,409.2 424.8,399.5 370.2,402.1 375.1,431.2 "/>
<polygon fill="#031921" points="372.9,436.4 375.1,431.2 370.2,402.1 305.6,412.3 "/>
<polygon fill="#000B11" points="360.1,466.4 346.6,490.9 350.5,489 "/>
<polygon fill="#010A0F" points="346.6,490.9 360.1,466.4 372.9,436.4 305.6,412.3 332,497.6 "/>
<polygon fill="#012230" points="258.2,374 313,356.7 282.4,310.5 "/>
<polygon fill="#031921" points="305.6,412.3 313,356.7 258.2,374 "/>
<polygon fill="#031921" points="282.4,310.5 205.2,256.6 209.9,320.6 "/>
<polygon fill="#013757" points="209.9,320.6 143.3,281.3 133.2,361.9 "/>
<polygon fill="#032A3F" points="258.2,374 209.9,320.6 204.8,386.1 "/>
<polygon fill="#012E47" points="204.8,386.1 209.9,320.6 133.2,361.9 "/>
<polygon fill="#013757" points="1.4,205.9 1.4,243 25.4,225.8 "/>
<polygon fill="#013757" points="25.4,225.8 27.4,296.4 58.6,242 "/>
<polygon fill="#013757" points="89.9,243 86.9,318.6 143.3,281.3 "/>
<polygon fill="#012E47" points="27.4,296.4 86.9,318.6 58.6,242 "/>
<polygon fill="#012230" points="143.3,281.3 86.9,318.6 133.2,361.9 "/>
<polygon fill="#031921" points="133.2,361.9 135.5,468 204.8,386.1 "/>
<polygon fill="#001D2D" stroke="#000000" stroke-width="0.25" stroke-miterlimit="10" points="305.6,412.3 258.2,374 204.8,386.1 
	"/>
<polygon fill="#010E16" points="135.5,468 305.6,412.3 204.8,386.1 "/>
<polygon fill="#010E16" points="310.8,507.5 332,497.6 305.6,412.3 268.3,503.1 "/>
<polygon fill="#010E16" points="135.5,468 195.4,531.8 268.3,503.1 "/>
<polygon fill="#012230" points="25.4,225.8 1.4,243 1.4,294.7 27.4,296.4 "/>
<polygon fill="#012230" points="27.4,296.4 1.4,340.4 1.4,374.3 86.9,318.6 "/>
<polygon fill="#032A3F" points="86.9,318.6 41.8,456.3 135.5,468 "/>
<polygon fill="#001D2D" stroke="#000000" stroke-width="0.25" stroke-miterlimit="10" points="122.5,518.8 195.4,531.8 135.5,468 
	"/>
<polygon fill="#011723" points="268.3,503.1 274.3,524.5 310.8,507.5 "/>
<polygon fill="#031921" points="237.5,541.7 274.3,524.5 268.3,503.1 195.4,531.8 243.5,573.9 "/>
<polygon fill="#010A0F" points="122.5,518.8 111.6,595.8 142.6,595.8 195.4,531.8 "/>
<polygon fill="#012E47" points="41.8,456.3 122.5,518.8 135.5,468 "/>
<polygon fill="#013757" points="1.4,422.7 1.4,459.6 41.8,456.3 "/>
<polygon fill="#012230" points="1.4,459.6 1.4,526 41.8,456.3 "/>
<polygon fill="#013757" points="1.4,526 1.4,595.8 33.4,595.8 41.8,456.3 "/>
<polygon fill="#031921" points="41.8,456.3 33.4,595.8 77.3,595.8 122.5,518.8 "/>
<polygon fill="none" points="386.8,595.3 385.5,595.8 311.2,595.8 294.2,595.8 268.5,595.8 222,595.8 160,639.7 871.5,685.6 
	871.5,595.3 "/>
<polygon fill="#010E16" points="268,595.3 222.6,595.3 222,595.8 268.5,595.8 "/>
<polygon fill="#010E16" points="244.6,579.7 222.6,595.3 268,595.3 243.5,573.9 "/>
<polyline fill="none" points="160,639.7 264.6,595.3 244.6,579.7 "/>
<polygon fill="#991D26" points="499.6,133.1 501.5,103.6 532.6,111.9 "/>
<polygon fill="#991D26" points="529.6,80.9 501.5,103.6 505.6,83.6 "/>
<polygon fill="#28070D" points="485.6,81.8 484,89 505.6,83.6 "/>
<polygon fill="#23090C" points="499.6,133.1 501.5,103.6 532.6,111.9 "/>
<polygon fill="#330000" points="529.6,80.9 501.5,103.6 505.6,83.6 "/>
<g>
	<polygon fill="#3D0E13" points="481.9,140.5 515.3,139.3 499.6,133.1 	"/>
	<polygon fill="#3D0E13" points="529.6,80.9 505.6,83.6 512.1,68.6 	"/>
	<polygon fill="#3D0E13" points="515.3,139.3 538.4,119.7 532.6,111.9 	"/>
	<polygon fill="#3D0E13" points="529.6,80.9 540.5,65.7 545.3,93.3 	"/>
</g>
<polygon fill="#23090C" points="529.6,80.9 532.6,111.9 545.3,93.3 "/>
<polygon fill="#23090C" points="540.5,65.7 512.1,68.6 529.6,80.9 "/>
<polygon fill="#330000" points="499.6,133.1 515.3,139.3 532.6,111.9 "/>
<polygon fill="#330000" points="485.6,81.8 512.1,68.6 505.6,83.6 "/>
<polygon fill="#541119" points="514.6,62.8 540.5,65.7 512.1,68.6 "/>
<polygon fill="#28070D" points="545.3,93.3 538.4,119.7 532.6,111.9 "/>
<polygon fill="#541119" points="499.6,133.1 481.9,140.5 479.5,117.8 "/>
<polygon fill="#330000" points="479.5,117.8 485.4,100 501.5,103.6 "/>
<polygon fill="#541119" points="485.4,100 484,89 505.6,83.6 "/>
<polygon fill="#23090C" points="485.4,100 505.6,83.6 501.5,103.6 "/>
<polygon fill="#440202" points="532.6,111.9 529.6,80.9 501.5,103.6 "/>
<polygon fill="#440202" points="499.6,133.1 479.5,117.8 501.5,103.6 "/>
<polygon fill="#031921" points="237.5,541.7 350.5,489 372.5,595.6 268,595.3 243.5,573.9 "/>
<polygon fill="#010E16" points="424.8,399.5 460,405.9 401.6,595.9 372.5,595.6 350.5,489 377.9,424.7 425.6,403.3 "/>
</svg>
