<?xml version="1.0" encoding="utf-8"?>
<!-- Generator: Adobe Illustrator 20.1.0, SVG Export Plug-In . SVG Version: 6.00 Build 0)  -->
<svg version="1.1" id="Calque_1" xmlns="http://www.w3.org/2000/svg" xmlns:xlink="http://www.w3.org/1999/xlink" x="0px" y="0px"
	 viewBox="0 0 56.7 56.7" enable-background="new 0 0 56.7 56.7" xml:space="preserve">
<g>
	<path fill="none" d="M30.7,34.3c0.2,0,0.3-0.1,0.5-0.1C31,34.2,30.8,34.2,30.7,34.3L30.7,34.3z"/>
	<path fill="none" d="M37.2,45.8c0.1-0.2,0.3-0.3,0.5-0.4c0.2-0.1,0.3-0.2,0.5-0.3c-0.2,0.1-0.3,0.2-0.5,0.3
		C37.5,45.5,37.3,45.6,37.2,45.8z"/>
	<polygon fill="none" points="28.1,47.5 28.1,47.6 28.1,47.5 	"/>
	<path fill="#F76C3B" d="M37.3,42.9c1.8-0.6,2.4-2.4,1.9-3.6c0,0,0-0.1-0.1-0.1c-0.6-0.5-1.5-0.7-2.2-1.2c0.9,0.1,0.7-0.4,0.8-0.9
		c0.2-1.8-2.5-3.3-3.9-2.3c-0.1-0.6-0.4-0.8-1.2-0.9c-0.5-0.1-1,0.1-1.5,0.2c-0.2,0-0.3,0.1-0.5,0.1c0.1,0.5,0.2,0.9,0.3,1.4
		c0.1,0.3,0.2,0.5,0.6,0.5c0.2,0,0.4-0.1,0.5,0.2c0.1,0.2-0.2,0.2-0.3,0.3c-0.1,0.1-0.2,0.2-0.2,0.2c0,0.2-0.1,0.5,0.1,0.6
		c0.2,0.1,0.4-0.1,0.5-0.3c0.5-0.7,0.8-1.5,1.4-2.2c-0.2,0.6-0.2,1.1,0.3,1.5c-0.4-0.1-0.7-0.1-0.8,0.4c-0.1,0.5-0.2,1.1,0.1,1.5
		c0.1,0.2,0.2,0,0.4-0.1c0.2-0.1,0.4-0.1,0.6,0.1c0.2,0.2,0.1,0.4,0,0.6c-0.4,0.4,0,0.4,0.3,0.5c0.4,0.2,0.9-0.2,1.6,0.3
		c-0.9-0.1-1.2,0.8-1.8,0.9c0.3,0.3,0.6,0.6,1.1,1c-0.6,0.1-0.8,0.6-1.1,0.9c-0.3,0.5,0.5,0.7,0.4,1.2c-0.4,0-0.6-0.4-0.8-0.6
		c-0.2-0.1-0.5-0.5-0.6-0.3c-0.3,0.4-1,0.3-0.9,1c0.1,0.4,0.1,0.9,0,1.4c-0.1,0-0.1,0-0.2,0c-0.2-0.2-0.1-0.7-0.4-0.8
		c-0.4-0.1-0.9-0.1-1.3-0.2c-0.3-0.1-0.4,0.3-0.3,0.6c0,0.1,0.3,0.1,0.3,0.4c-1.1-0.3-0.8,1-1.7,1.3c0.3-0.9,0.5-1.7,0.8-2.5
		c0.1-0.4,0.1-0.5-0.2-0.8c-0.3-0.3-0.5-0.5-0.9-0.2c-0.2,0.1-0.4,0.2-0.5,0c-0.1-0.2,0.1-0.3,0.3-0.4c0.4-0.3,0.2-0.6,0.1-0.9
		c-0.1-0.3-0.4-0.6-0.8-0.5c-0.5,0.1-0.9,0.1-1.5,0c0.1-0.4,0.4-0.4,0.7-0.4c0.7-0.1,1.4-0.2,1.9-0.8c0.3-0.3,0.3-0.4,0-0.6
		c-0.2-0.2-0.4-0.3-0.6-0.4c-0.2-0.1-0.4-0.2-0.3-0.4c0.1-0.2,0.4-0.1,0.5,0c0.3,0.1,0.5,0.2,0.8,0.3c0.3,0.1,0.6,0.2,0.7,0
		c0.2-0.2,0-0.5-0.2-0.7c-0.2-0.3-0.5-0.5-0.4-0.9c0.4,0,0.5,0.3,0.7,0.5c0.2,0.2,0.3,0.4,0.6,0.2c0.3-0.1,0.4-0.3,0.4-0.7
		c0-0.8-0.3-1.6-0.2-2.4c-0.9-0.2-1.8-0.4-2.8-0.1c-0.7,0.2-1.3,0.5-1.6,1.2c-0.2,0.4-0.4,0.6-0.8,0.5c-0.2-0.1-0.4,0-0.6,0.1
		c-1,0.7-1.4,2.4-0.7,3.4c0.2,0.3,0.3,0.6,0.2,0.9c-0.1,0.4,0,0.9,0,1.4c-0.5-0.1-0.4-0.5-0.7-0.7c0.5,1-0.1,2,0.2,3
		c0.1-0.5,0.3-0.9,0.4-1.4c0.1-0.2,0.1-0.6,0.4-0.5c0.3,0.1,0,0.4-0.1,0.6c-0.4,0.9-0.5,1.8,0.1,2.7c0.8,1.2,1.7,1.5,3,0.9
		c0.2-0.1,0.5-0.3,0.7-0.1c0.2,0.2,0.1,0.4,0.1,0.7c0,0.1-0.1,0.3-0.1,0.5l0,0c0.4-0.5,0.9-0.5,1.4-0.2c0.9,0.4,1.7,0.1,2.6-0.1
		c0.4-0.1,0.6-0.1,0.9,0.2c0.9,0.9,2.9-0.2,3-1.5c0-0.7,0.3-0.8,0.9-0.6c0.3,0.1,0.6,0.1,0.9,0.1c0.2-0.1,0.3-0.2,0.5-0.3
		C38.5,44.2,38.4,43.4,37.3,42.9z"/>
	<path fill="#B63C2D" d="M28.1,47.1c0.1-0.2,0.1-0.5-0.1-0.7c-0.2-0.2-0.5,0-0.7,0.1c-1.3,0.5-2.2,0.2-3-0.9
		c-0.6-0.9-0.5-1.8-0.1-2.7c0.1-0.2,0.4-0.5,0.1-0.6c-0.3-0.1-0.3,0.3-0.4,0.5c-0.2,0.4-0.3,0.9-0.4,1.4c-0.3-1,0.3-2-0.2-3
		c0.4,0.2,0.3,0.6,0.7,0.7c0-0.5-0.1-0.9,0-1.4c0.1-0.4,0-0.6-0.2-0.9c-0.7-1-0.3-2.7,0.7-3.4c0.2-0.1,0.4-0.2,0.6-0.1
		c0.4,0.1,0.6-0.1,0.8-0.5c0.3-0.7,0.9-1,1.6-1.2c0.9-0.3,1.8-0.1,2.8,0.1c0.1-0.1-0.1-0.3,0.1-0.4c0,0,0.1,0.1,0.1,0.2
		c0.2,0,0.3-0.1,0.5-0.1c0.5-0.1,0.9-0.3,1.5-0.2c0.8,0.1,1.1,0.3,1.2,0.9c1.4-1,4.1,0.4,3.9,2.3c-0.1,0.5,0.1,1-0.8,0.9
		c0.8,0.5,1.6,0.6,2.2,1.2c0-0.2-0.2-0.4-0.3-0.5c-0.6-0.3-0.6-0.7-0.5-1.4c0.4-2-1.4-3.7-3.4-3.4c-0.4,0.1-0.7,0-1.1-0.3
		C33,33,32.1,33,31.1,33.4c-0.6,0.2-1.1,0.5-1.9,0.2c-1.4-0.6-3.1,0.2-3.8,1.5c-0.2,0.4-0.5,0.7-1,0.8c-1.2,0.3-2.1,1.6-1.9,2.8
		c0.1,0.8,0.5,1.6,0.2,2.5c-0.1,0.3,0.1,0.6,0.3,0.8c0.2,0.3,0.2,0.5,0.1,0.8c-0.8,2.4,0.8,4.4,3.3,4.2c0.3,0,0.6,0,0.9,0.1
		c0.2,0.1,0.5,0.2,0.7,0.5l0,0l0,0C28.1,47.4,28.1,47.2,28.1,47.1z"/>
	<path fill="#B63C2D" d="M27.4,47.1c0.2,0.1,0.5,0.2,0.7,0.5l0,0C27.9,47.3,27.7,47.2,27.4,47.1z"/>
	<path fill="#B63C2D" d="M36.8,45.4c-0.6-0.2-0.8-0.2-0.9,0.6c-0.1,1.3-2,2.3-3,1.5c-0.2-0.2-0.5-0.2-0.9-0.2
		c-0.9,0.2-1.7,0.6-2.6,0.1c-0.6-0.3-1-0.3-1.4,0.2c0.9,1.1,2.6,1.2,3.8,0.2c0.3-0.3,0.6-0.5,1-0.2c1.4,0.9,3.3,0.3,3.9-1.2
		c0.1-0.2,0.2-0.4,0.3-0.5c0.1-0.2,0.3-0.3,0.5-0.4C37.4,45.4,37.1,45.4,36.8,45.4z"/>
	<path fill="#B63C2D" d="M37.3,42.9c1.1,0.5,1.2,1.3,0.9,2.2c0.5-0.2,0.7-0.7,0.7-1.1c-0.1-0.6,0.2-1.1,0.5-1.7c0.6-1,0.5-2.3-0.2-3
		C39.7,40.6,39.1,42.3,37.3,42.9z"/>
	<path fill="#FCD97B" d="M30.6,34.1c-0.2,0.1-0.1,0.3-0.1,0.4c0,0.8,0.3,1.6,0.2,2.4c0,0.3-0.1,0.5-0.4,0.7
		c-0.3,0.1-0.5-0.1-0.6-0.2c-0.2-0.2-0.3-0.5-0.7-0.5c-0.1,0.4,0.2,0.7,0.4,0.9c0.2,0.2,0.4,0.4,0.2,0.7c-0.2,0.3-0.5,0.1-0.7,0
		c-0.3-0.1-0.5-0.2-0.8-0.3c-0.2-0.1-0.4-0.2-0.5,0c-0.1,0.2,0.2,0.3,0.3,0.4c0.2,0.1,0.4,0.3,0.6,0.4c0.3,0.2,0.3,0.4,0,0.6
		c-0.5,0.6-1.2,0.7-1.9,0.8c-0.2,0-0.5,0-0.7,0.4c0.5,0.1,1,0.1,1.5,0c0.4-0.1,0.7,0.2,0.8,0.5c0.1,0.3,0.3,0.6-0.1,0.9
		c-0.2,0.1-0.4,0.2-0.3,0.4c0.1,0.2,0.4,0.1,0.5,0c0.4-0.3,0.6,0,0.9,0.2c0.3,0.3,0.3,0.4,0.2,0.8c-0.3,0.8-0.5,1.6-0.8,2.5
		c0.8-0.3,0.5-1.6,1.7-1.3c0-0.3-0.2-0.2-0.3-0.4c-0.1-0.3,0-0.7,0.3-0.6c0.4,0.1,0.9,0.1,1.3,0.2c0.3,0.1,0.2,0.6,0.4,0.8
		c0,0,0.1,0,0.2,0c0.1-0.5,0.1-0.9,0-1.4c-0.2-0.7,0.6-0.7,0.9-1c0.1-0.2,0.4,0.2,0.6,0.3c0.3,0.2,0.4,0.6,0.8,0.6
		c0.1-0.5-0.7-0.7-0.4-1.2c0.3-0.4,0.4-0.8,1.1-0.9c-0.4-0.4-0.8-0.7-1.1-1c0.6-0.1,0.9-1,1.8-0.9c-0.6-0.5-1.1-0.1-1.6-0.3
		c-0.2-0.1-0.6-0.1-0.3-0.5c0.1-0.2,0.2-0.4,0-0.6c-0.2-0.2-0.4-0.1-0.6-0.1c-0.1,0-0.3,0.2-0.4,0.1c-0.3-0.5-0.3-1-0.1-1.5
		c0.1-0.4,0.4-0.4,0.8-0.4c-0.5-0.4-0.5-0.8-0.3-1.5c-0.7,0.8-0.9,1.6-1.4,2.2c-0.1,0.2-0.3,0.4-0.5,0.3c-0.2-0.1-0.1-0.4-0.1-0.6
		c0-0.1,0.1-0.2,0.2-0.2c0.1-0.1,0.4-0.1,0.3-0.3c-0.1-0.2-0.3-0.2-0.5-0.2c-0.4,0.1-0.5-0.2-0.6-0.5c-0.1-0.5-0.2-0.9-0.3-1.4v0
		C30.6,34.2,30.6,34.1,30.6,34.1z"/>
</g>
<path fill="#522621" d="M41.9,23.4c-0.4-0.4-0.5-0.8-0.2-1.4c0.6-1.1,0.3-1.6-0.8-1.8c-0.6-0.1-0.7-0.3-0.8-0.9
	c-0.2-1.3-1.6-2.4-2.7-2.4c-1.6,0-2.6,1-3,2.6c-0.2,1.1,0.5,2.6,1.7,3.2c1.4,0.7,1.4,0.7,0.3,1.8c-0.4,0.5-0.5,1-0.2,1.5
	c0.3,0.5,0.7,0.7,1.3,0.4c0.4-0.2,0.7-0.1,1,0.1c0.4,0.3,0.9,0.3,1.4,0.4c0.3,0,0.7-0.1,1-0.2c1.2-0.3,1.3-1.3,1.7-2.1
	C43,24,42.3,23.8,41.9,23.4z"/>
<path fill="#522621" d="M41.2,14.8c-0.6-0.1-0.9-0.4-0.9-1c-0.1-1.2-0.6-1.6-1.7-1.2c-0.6,0.2-0.8,0.1-1.2-0.3
	c-0.8-1-2.6-1.3-3.5-0.7c-1.3,0.8-1.8,2.2-1.2,3.7c0.4,1.1,1.8,1.9,3.1,1.8c1.6-0.1,1.6-0.1,1.2,1.4c-0.1,0.6,0.1,1.1,0.6,1.4
	c0.5,0.3,1,0.2,1.4-0.3c0.2-0.3,0.6-0.4,1-0.4c0.5,0,0.9-0.1,1.4-0.4c0.3-0.2,0.5-0.4,0.8-0.6c0.9-0.8,0.4-1.8,0.3-2.7
	C42.4,14.8,41.8,14.9,41.2,14.8z"/>
<path fill="none" d="M27.8,19.1c0-0.2,0-0.4,0-0.6C27.7,18.7,27.7,18.9,27.8,19.1c0.1,0.4,0.1,0.8,0.2,1.2
	C27.9,19.9,27.9,19.5,27.8,19.1z"/>
<path fill="#F76C3B" d="M30.3,18.6c-0.8,0-1.5,0.4-2.2,0.5c0.3,1.4,0.4,2.8,1,4.1c0.1,0.3,0.3,0.4,0.5,0.2c0.3-0.2,0.6-0.3,0.7-0.7
	c0.4-0.9,0.9-1.7,1.5-2.6c-0.3,1-0.6,2-0.8,3c-0.1,0.2-0.2,0.4-0.1,0.6c0.1,0.4-0.1,0.9,0.8,0.7c0.8-0.2,1.6-0.4,2.2-0.9
	c0.1-0.1,0.3-0.2,0.4,0c0.1,0.1,0,0.2-0.1,0.3c-0.5,0.4-1,0.8-1.5,1.2c-0.2,0.1-0.5,0.3-0.4,0.5c0.2,0.3,0.5,0.5,0.9,0.4
	c1.4-0.2,2.9-0.1,4.4-0.4c0.1,0,0.2,0,0.3,0.2c-0.6,0-0.9,0.4-1.5,0.5c-0.9,0.1-1.8,0.2-2.6,0.3c-0.4,0.1-0.9,0.3-0.9,0.7
	c-0.1,0.4,0.3,0.8,0.7,1c0.3,0.2,0.6,0.3,0.9,0.5c0.1,0.1,0.3,0.2,0.2,0.3c-0.1,0.2-0.3,0.1-0.4,0.1c-0.1,0-0.1,0-0.2-0.1
	c-0.7-0.4-1.2-0.2-1.8,0.3c-0.3,0.3-0.3,0.4-0.1,0.7c0.3,0.4,0.6,0.7,0.9,1c0.1,0.2,0.3,0.4,0,0.6c-0.2,0.1-0.4-0.1-0.5-0.2
	c-0.3-0.4-0.7-0.7-1-1.1c-0.2-0.2-0.3-0.6-0.6-0.4c-0.4,0.3-1,0.4-0.7,1.1c0.3,0.9-0.1,1.9,0.1,2.8c-0.1,0-0.2,0-0.2,0
	c-0.1-0.4-0.3-0.8-0.4-1.2c-0.1-0.9-0.8-1-1.5-1.1c-0.6-0.1-0.7,0.4-1,0.8c-0.4,0.7-0.7,1.4-1.1,2.1c0,0.1-0.1,0.2-0.1,0.3
	c-0.1,0.1-0.2,0.1-0.4-0.1c-0.2,0.2-0.3,0.5-0.4,0.8c-0.1,0.3-0.1,0.6-0.2,0.8c0,0,0,0,0.1,0.1c0.5-0.9,1.2-0.7,2-0.3
	c1.1,0.6,2.2-0.1,3.2-0.2c0.1,0,0.2-0.1,0.3-0.3c0-0.2-0.1-0.4,0.1-0.4c0.2,0,0.3,0.1,0.4,0.3c0.6,0.7,1.3,1.3,2.4,0.9
	c1.2-0.4,2-1.2,2.1-2.4c0-0.9,0.3-0.8,0.9-0.6c0.7,0.2,1.7-0.1,2-0.6c0.4-0.7,0.2-1.4-0.4-2.1c-0.2-0.2-0.4-0.4-0.8-0.6
	c1.2-0.2,1.9-0.9,2.4-1.9c1-2.1-0.3-3.9-2.6-4c-0.6,0-1.1,0.3-1.6,0.1c-0.2-0.1-0.4-0.1-0.4-0.3c0-0.2,0.2-0.2,0.4-0.2
	c0.5-0.1,1-0.1,1.5,0c0.7,0.2,0.8-0.3,0.9-0.7c0.3-2-1.6-4.4-4.4-3.4c-0.3,0.1-0.6,0.3-0.9,0.4c-0.2-0.7,0.4-1,0.6-1.5
	c0,0-0.1-0.1-0.1-0.1l0,0C31.9,19,31.1,18.5,30.3,18.6z"/>
<polygon fill="#F76C3B" points="32.7,18.6 32.7,18.6 32.7,18.6 "/>
<path fill="#B63C2D" d="M25.5,34.8c-0.2,0.2-0.3,0.5-0.4,0.8C25.2,35.3,25.3,35,25.5,34.8L25.5,34.8z"/>
<path fill="#B63C2D" d="M32.2,20.2c0.3-0.1,0.6-0.3,0.9-0.4c2.9-1,4.7,1.4,4.4,3.4c-0.1,0.5-0.2,0.9-0.9,0.7c-0.5-0.1-1-0.1-1.5,0
	c-0.2,0-0.4,0-0.4,0.2c0,0.2,0.2,0.2,0.4,0.3c0.6,0.2,1.1-0.1,1.6-0.1c2.3,0,3.6,1.9,2.6,4c-0.5,1-1.2,1.7-2.4,1.9
	c0.3,0.2,0.5,0.4,0.8,0.6c0.7,0.6,0.8,1.4,0.4,2.1c-0.3,0.5-1.3,0.9-2,0.6c-0.6-0.2-0.9-0.3-0.9,0.6c0,1.2-0.9,2-2.1,2.4
	c-1,0.3-1.8-0.2-2.4-0.9c-0.1-0.1-0.2-0.3-0.4-0.3c-0.2,0.1-0.1,0.3-0.1,0.4c0,0.2-0.1,0.3-0.3,0.3c-1.1,0.1-2.1,0.8-3.2,0.2
	c-0.7-0.4-1.4-0.6-2,0.3c1.3,1.5,3.8,1.5,5.3-0.1c0.3-0.3,0.5-0.4,0.9-0.1c2,1.4,4.8,0.5,5.6-1.9c0.1-0.3,0.3-0.5,0.6-0.6
	c1.4-0.4,2-1.3,1.8-2.7c0-0.4,0.1-0.7,0.3-1c1.3-1.9,1.1-4-0.7-5.4c-0.5-0.4-0.6-0.7-0.4-1.3c0.7-2.7-1.6-5.1-4.4-4.8
	c-0.2,0-0.4,0.1-0.6,0.1c-0.2,0-0.4,0-0.6,0l0,0C32.6,19.2,32,19.5,32.2,20.2z"/>
<path fill="#B63C2D" d="M33.4,18.7c-0.2,0-0.4,0-0.6,0l0,0C33,18.7,33.2,18.7,33.4,18.7z"/>
<path fill="#522621" d="M20.8,34.9c-1.2-0.2-1.6-0.6-1.6-1.8c0-1-1.4-1.9-2.4-1.9c-1.1,0.1-1.8,0.8-1.8,2.1c0,0.1-0.1,0.5,0.1,0.7
	c0.6,0.8,0.9,1.7,1.2,2.6c0,0.1,0.2,0.2,0.3,0.3c0.8,0.7,1.4,1.4,1.9,2.3c0.4,0.8,1.2,0.9,2,0.8c1.3-0.2,2.3-1.4,2.4-2.7
	C22.9,36.4,22,35.1,20.8,34.9z"/>
<path fill="#522621" d="M18.6,20.2c-0.6-0.6-1.9-0.6-2.6,0.2c-1.1,1.3-2.4,2.3-3.3,3.7c-1.1,1.9,0.1,4.1,2.2,4.1
	c2.1,0,3.4-1.4,3.1-3.6C18,24,18,23.5,18.5,23C19.2,22.4,19.2,20.7,18.6,20.2z"/>
<path fill="#522621" d="M8.7,26c-0.8,0.3-1.3,1.5-0.8,2.5c0.8,1.4,1.2,3.1,2.2,4.4c1.3,1.7,3.9,1.5,4.7-0.4c0.8-1.9,0-3.6-2.2-4.2
	c-0.6-0.2-1.1-0.4-1.3-1.1C10.9,26.3,9.4,25.7,8.7,26z"/>
<path fill="#522621" d="M39.5,33c-1.1-0.6-2.8-0.4-3.4,0.6c-0.7,1.2-1.4,1.8-2.9,1.7c-0.9,0-1.4,0.9-1.5,1.8c0,0.6,0.1,1.3,0.9,1.4
	c0.9,0.2,1.8,0.3,2.5-0.2c0.8-0.5,1.6-1,2.6-0.7c0.7,0.2,1.2-0.1,1.6-0.7c0.1-0.2,0.5-0.4,0.7-0.3c0.6,0.2,0.6-0.3,0.7-0.6
	C41.2,34.9,40.7,33.6,39.5,33z"/>
<path fill="#522621" d="M35.3,47.5c-1.1-0.6-2.8-0.4-3.4,0.6c-0.7,1.2-1.4,1.8-2.9,1.7c-0.9,0-1.4,0.9-1.5,1.8
	c0,0.6,0.1,1.3,0.9,1.4c0.9,0.2,1.8,0.3,2.5-0.2c0.8-0.5,1.6-1,2.6-0.7c0.7,0.2,1.2-0.1,1.6-0.7c0.1-0.2,0.5-0.4,0.7-0.3
	c0.6,0.2,0.6-0.3,0.7-0.6C37,49.4,36.4,48.1,35.3,47.5z"/>
<path fill="#522621" d="M31.7,16.7c0-1.3-1.1-2.3-2.7-2.3c-2.1,0-2.4,0.3-2.4,2.4c0,1.4,0.9,2.2,2.4,2.2
	C30.5,19.1,31.7,18,31.7,16.7z"/>
<path fill="#B63C2D" d="M28.1,19.1c0.7-0.2,1.4-0.5,2.2-0.5c0.8,0,1.6,0.5,2.4,0c-0.2-0.3-0.4-0.5-0.7-0.7c-0.2-0.1-0.4-0.2-0.6-0.3
	c-0.9-0.3-1.9-0.1-2.8,0.5c-0.2,0.2-0.4,0.4-0.7,0.4l0,0C27.9,18.7,28.1,18.9,28.1,19.1z"/>
<path fill="#B63C2D" d="M32.7,18.6c-0.2-0.3-0.4-0.5-0.7-0.7C32.3,18.1,32.5,18.3,32.7,18.6L32.7,18.6z"/>
<path fill="#B63C2D" d="M28.6,18.1c-0.2,0.2-0.4,0.4-0.7,0.4l0,0C28.2,18.5,28.4,18.2,28.6,18.1z"/>
<path fill="#522621" d="M21.4,17.8c-1.2-0.1-2,0.4-2,1.4c0,1.3,0.5,2,1.7,2.1c1.2,0,2-0.6,2.1-1.7C23.3,18.5,22.6,17.8,21.4,17.8z"
	/>
<path fill="#522621" d="M23.6,34.6c-0.7,0-1.1,0.3-1.2,1c0,0.8,0.5,1.2,1.2,1.3c0.8,0.1,1-0.7,1.1-1.2
	C24.8,34.9,24.2,34.7,23.6,34.6z"/>
<path fill="#522621" d="M24.3,37.6c-0.7,0-1.1,0.3-1.2,1c0,0.8,0.5,1.2,1.2,1.3c0.8,0.1,1-0.7,1.1-1.2C25.5,38,24.9,37.7,24.3,37.6z
	"/>
<path fill="#522621" d="M20.1,40.9c-0.7,0-1.1,0.3-1.2,1c0,0.8,0.5,1.2,1.2,1.3c0.8,0.1,1-0.7,1.1-1.2C21.3,41.2,20.7,41,20.1,40.9z
	"/>
<path fill="#FCD97B" d="M27.8,19.1c0.1,0.4,0.1,0.8,0.2,1.2c0,0.4,0,0.8,0.1,1.2c0.1,0.3,0.1,0.6,0.1,0.8c0.1,0.8,0,1.1-0.8,1.3
	c-0.2,0.1-0.4,0-0.5-0.2c-0.2-0.2-0.4-0.4-0.7-0.5c-0.1,0.9,1,1.2,0.7,2c-0.8,0.1-1.6-0.2-2.3-0.5c-0.2-0.1-0.4-0.2-0.6,0.1
	c-0.1,0.2,0.1,0.3,0.3,0.4c0.1,0.1,0.2,0.1,0.2,0.2c0.3,0.3,1.2,0.5,1,0.9c-0.3,0.5-0.7,1.1-1.5,1.3c-1.2,0.3-2.4,0.4-3.8,0.9
	c1.1,0.2,1.9-0.1,2.7-0.1c0.4,0,0.9-0.1,0.9,0.8c0.4-0.6,0.6-1.1,1.1-0.7c0.4,0.3,0.4,1.1,0,1.5c-0.2,0.2-0.3,0.4-0.5,0.6
	c-0.1,0.1-0.5,0.1-0.3,0.4c0.1,0.2,0.4,0,0.5-0.1c0.3-0.1,0.6-0.3,0.9-0.5c0.4-0.3,0.8-0.1,1.1,0.1c0.4,0.2,0.2,0.5,0.1,0.8
	c-0.3,0.9-0.6,1.7-0.8,2.6c-0.1,0.4-0.3,0.7-0.4,1.1c0.2,0.2,0.3,0.2,0.4,0.1c0.1-0.1,0.1-0.3,0.1-0.3c0.4-0.7,0.7-1.4,1.1-2.1
	c0.2-0.4,0.4-0.9,1-0.8c0.7,0.1,1.3,0.3,1.5,1.1c0.1,0.4,0.2,0.8,0.4,1.2c0.1,0,0.2,0,0.2,0c-0.3-0.9,0.2-1.9-0.1-2.8
	c-0.2-0.7,0.4-0.8,0.7-1.1c0.4-0.3,0.5,0.2,0.6,0.4c0.3,0.4,0.7,0.8,1,1.1c0.1,0.1,0.3,0.3,0.5,0.2c0.2-0.2,0.1-0.4,0-0.6
	c-0.3-0.4-0.6-0.7-0.9-1c-0.2-0.2-0.2-0.4,0.1-0.7c0.6-0.5,1.1-0.7,1.8-0.3c0.1,0,0.1,0,0.2,0.1c0.2,0,0.3,0.1,0.4-0.1
	c0.1-0.2-0.1-0.3-0.2-0.3c-0.3-0.2-0.6-0.3-0.9-0.5c-0.4-0.2-0.7-0.6-0.7-1c0-0.4,0.5-0.6,0.9-0.7c0.9-0.2,1.8-0.2,2.6-0.3
	c0.6-0.1,1-0.5,1.5-0.5c-0.1-0.2-0.2-0.2-0.3-0.2c-1.4,0.3-2.9,0.2-4.4,0.4c-0.4,0.1-0.7-0.1-0.9-0.4c-0.2-0.3,0.2-0.4,0.4-0.5
	c0.5-0.4,1-0.8,1.5-1.2c0.1-0.1,0.2-0.1,0.1-0.3c-0.1-0.2-0.2-0.1-0.4,0c-0.7,0.5-1.4,0.7-2.2,0.9c-0.9,0.2-0.7-0.3-0.8-0.7
	c0-0.2,0.1-0.4,0.1-0.6c0.3-1,0.6-2,0.8-3c-0.6,0.8-1.1,1.7-1.5,2.6c-0.2,0.3-0.4,0.5-0.7,0.7c-0.3,0.1-0.4,0.1-0.5-0.2
	c-0.5-1.3-0.7-2.7-1-4.1c0-0.2-0.2-0.4-0.2-0.7c0-0.2-0.1-0.3-0.1-0.5c-0.1,0.2-0.1,0.4-0.1,0.6C27.7,18.7,27.7,18.9,27.8,19.1z"/>
<rect x="11.4" y="8.8" fill="none" width="33.1" height="30.3"/>
<path fill="none" d="M29.2,19.4c-0.2,0-0.4,0-0.6,0.3c0,0,0,0,0,0.1c0,0,0,0,0-0.1C28.8,19.4,29,19.3,29.2,19.4z"/>
<path fill="none" d="M37.1,34.5c0.2,0,0.3-0.1,0.5-0.1C37.4,34.4,37.3,34.4,37.1,34.5L37.1,34.5z"/>
<path fill="none" d="M32.3,20.8c0.1-0.1,0.1-0.1,0.1-0.2C32.4,20.7,32.4,20.7,32.3,20.8C32.3,20.8,32.3,20.8,32.3,20.8z"/>
<path fill="none" d="M32.1,19.4c0.3-0.3,0.6-0.6,1-0.8C32.7,18.8,32.4,19.1,32.1,19.4z"/>
<path fill="#B63C2D" d="M24.1,34.2c-0.2-0.2-0.4-0.5-0.4-0.7c0.1-1.3-1-2.1-1.2-3.3c0-0.2-0.1-0.4-0.2-0.5c-0.6-0.7-0.6-1.5-0.4-2.3
	c0.1-0.3,0.1-0.7,0-1c-0.6-2.1,0.7-3.8,2.9-3.7c0.4,0,0.7-0.1,0.8-0.4c0.3-0.8,1-1,1.8-1.1c0.8-0.1,1.2-0.6,1.2-1.4
	c-0.3,0.1-0.7,0.1-1,0.1c-0.3,0-0.7-0.1-1-0.3c-1.3-0.7-4.1,0-4.9,1.6c-0.2,0.5-0.5,0.9-0.8,1.4c-0.1,0.1-0.2,0.3-0.4,0.4
	c-0.3,1,0,2.1,0,3.1c0,0.2,0.2,0.4,0.1,0.6c-0.8,1-0.1,1.8,0.2,2.7c0.1,0.3,0.1,0.5-0.1,0.8c-1.2,1.9-0.9,3.4,0.9,4.8
	c0.2,0.2,0.5,0.4,0.7,0.5c0.3,0,0.6,0,0.8,0.1c0.1-0.1,0.2-0.2,0.4-0.1l0,0c0.4-0.1,0.7-0.2,1.1-0.4h0c0.1,0,0.2,0,0.3-0.1
	C24.7,34.7,24.4,34.4,24.1,34.2z"/>
<path fill="#B63C2D" d="M23.5,35.4L23.5,35.4L23.5,35.4c0.4-0.1,0.7-0.2,1.1-0.4h0C24.2,35.2,23.9,35.3,23.5,35.4z"/>
<path fill="#B63C2D" d="M36.5,21.5c0-1-0.6-1.7-1.4-2.2c-0.4-0.3-0.7-0.8-1.4-0.8c-0.2,0-0.5,0-0.6,0.1c-0.4,0.2-0.7,0.5-1,0.8
	c-0.1,0.1-0.2,0.2-0.4,0.3c0,0.1,0.1,0.2,0.2,0.3c0.1,0.1,0.2,0.1,0.3,0.2c0.1,0,0.1,0.1,0.1,0.1c0.1,0.1,0.1,0.2,0.1,0.3
	c0,0.1-0.1,0.1-0.1,0.2c0.1,0.2,0.1,0.4,0.2,0.6c0.4-0.1,0.8-0.1,1.2-0.2c0.9-0.1,2,0.4,2.5,1.2c0.3,0.5,0,0.9-0.1,1.4
	c0,0.4,0,0.5,0.5,0.6c1.1,0.1,1.3,0.4,1.2,1.5c-0.1,0.6,0.3,1.2,0.8,1.3c0.5-0.1,0.8-0.5,1.1-0.9c0.2-0.4,0.4-0.9,0.3-1.5
	c-0.1-0.6-0.3-1.2-0.6-1.7c-0.5-0.3-0.9-0.7-1.5-0.8c-0.2,0.1-0.3,0-0.4-0.1c0,0,0,0,0,0c-0.1,0-0.2,0-0.2,0
	C36.8,22.1,36.6,22,36.5,21.5z"/>
<path fill="#522621" d="M26.5,19.5c0.3,0.2,0.7,0.3,1,0.3c0.3,0,0.7,0,1-0.1c0,0,0,0,0,0c0,0,0,0,0-0.1c0.2-0.3,0.4-0.3,0.6-0.3
	c0.1,0,0.1,0,0.2,0c0.1,0,0.2,0.1,0.3,0.1c0.7-0.1,1.4,0,2,0.2c0.1-0.1,0.2-0.2,0.4-0.3c0.3-0.3,0.6-0.6,1-0.8
	c0.2-0.1,0.4-0.1,0.6-0.1c0.7,0,1,0.5,1.4,0.8c0.7,0.6,1.3,1.2,1.4,2.2c0,0.5,0.3,0.6,0.7,0.6c0-0.9,0-1.8-0.6-2.7
	c-1.3-1.7-3.8-1.8-5.1-0.8c-0.3,0.2-0.5,0.2-0.9,0c-1-0.6-2-0.5-2.9,0.2c-0.5,0.4-0.8,0.3-1.3,0.1c-1.3-0.7-2.6-0.7-3.8,0.1
	c-1.2,0.7-2.1,2.4-1.7,3.5c0.3-0.5,0.6-0.9,0.8-1.4C22.4,19.5,25.3,18.9,26.5,19.5z"/>
<path fill="#522621" d="M27.5,19.8c0.3,0,0.7,0,1-0.1v0C28.2,19.8,27.9,19.9,27.5,19.8z"/>
<path fill="#522621" d="M32.1,19.4c-0.1,0.1-0.2,0.2-0.4,0.3h0C31.9,19.6,32,19.5,32.1,19.4z"/>
<path fill="#522621" d="M21.5,30.1c0.2-0.3,0.2-0.5,0.1-0.9c-0.4-0.9-1.1-1.9-0.2-2.9c0.2-0.2-0.1-0.4-0.1-0.7
	c-0.1-1.1-0.3-2.2,0-3.3c-0.8,0.4-1.2,1.1-1.2,2c-0.1,1.3,0.2,2.6-0.1,3.9c-0.1,0.2,0,0.5,0.1,0.8c0.2,0.5,0.1,0.9-0.1,1.3
	c-0.7,1.6-0.5,3.1,0.6,4.4c0.7,0.8,1.5,1.4,2.7,1.2c-0.2-0.2-0.5-0.4-0.7-0.6C20.5,33.8,20.2,32.2,21.5,30.1z"/>
<path fill="#522621" d="M35.1,49.4c-0.1,0.5-0.4,0.8-0.7,1.1c-0.4,0.3-0.8,0.5-1.1,0.9c-0.8,0.9-2.2,1.1-3.2,0.4
	c0.2-0.2,0.5,0,0.6-0.2c0,0,0,0-0.1-0.1c-0.7-0.4-1.6-0.4-1.8-1.5c0-0.2-0.4-0.5-0.7-0.3c-0.2,0.2-0.4,0.2-0.6,0.3
	c-0.2,0-0.4,0-0.5,0c-0.3-0.1-0.6-0.3-1-0.4c0,0,0,0,0,0c-0.4,0.1-0.7,0-1.1,0c-0.4-0.1-0.7-0.1-1.1-0.3c-0.1,0-0.2,0-0.3,0.1h0
	c0.1,0,0.2,0.1,0.3,0.2c0.1,0.1,0.2,0.1,0.2,0.2c1,1.3,2.4,1.6,4,1.1c0.3-0.1,0.5,0,0.8,0.3c0.4,0.5,0.7,0.9,1.3,1.2
	c2.6,1.1,5,0,5.6-2.7c0.1-0.2,0.1-0.5,0.3-0.7c0,0,0-0.1,0.1-0.1l0,0C35.6,48.8,35.2,48.8,35.1,49.4z"/>
<path fill="#522621" d="M37.1,34.6c-0.2,0.2-0.2,0.4-0.3,0.7C36.8,35,36.9,34.7,37.1,34.6z"/>
<path fill="#522621" d="M24.9,35c-0.1,0-0.2,0-0.3,0.1h0C24.7,35,24.8,35,24.9,35z"/>
<path fill="#522621" d="M23.2,35.5c0.1,0,0.1,0,0.2,0s0.1-0.1,0.2-0.1C23.4,35.3,23.3,35.4,23.2,35.5z"/>
<path fill="#522621" d="M23.4,35.5c0.1,0,0.1-0.1,0.2-0.1h0C23.5,35.5,23.4,35.5,23.4,35.5z"/>
<path fill="#F76C3B" d="M38.6,27.2c-0.5-0.1-0.9-0.7-0.8-1.3c0.1-1.1-0.1-1.5-1.2-1.5c-0.4,0-0.5-0.2-0.5-0.6c0-0.5,0.4-0.9,0.1-1.4
	c-0.5-0.7-1.6-1.3-2.5-1.2c-0.4,0.1-0.8,0.1-1.2,0.2c-0.9,0.7-1.1,2.2-0.4,3c0.2,0.2,0.3,0.1,0.5,0c0.3-0.1,0.7-0.2,0.9,0
	c0.2,0.2,0,0.6-0.1,0.8c-0.3,0.4,0,0.6,0.3,0.7c0.6,0.3,1.2-0.2,1.9,0.1c-0.3,0.2-0.6,0.3-0.9,0.4c-0.7,0.4-1.5,0.1-2.2,0.4
	c-0.2,0.1-0.5,0-0.5,0.3c0,0.2,0.3,0.2,0.5,0.2c0.3,0.1,0.6,0.1,0.9,0.2c0.6,0.2,0.9,0.8,0.4,1.2c-0.9,0.9-0.9,1.7,0.1,2.5
	c0.1,0.1,0.2,0.2,0.2,0.6c-0.6-0.3-1-0.8-1.4-1.2c-0.2-0.2-0.4-0.6-0.7-0.5c-0.4,0.2-0.8,0.4-1,0.8c-0.5,1.3-0.5,1.3-1.7,1
	c-0.1,0-0.2-0.1-0.3-0.1c-0.3-0.1-0.5-0.6-1-0.4c-0.3,0.2-0.3,0.6-0.4,0.9c-0.2,0.7-0.8,1.2-0.8,1.9c0,0.2-0.3,0.4-0.5,0.3
	c-0.1-0.1-0.3-0.4-0.1-0.6c0.6-0.7,0.7-1.6,1.1-2.4c0.3-0.6,0-1.5-0.8-1.7c-0.8-0.2-0.9-0.7-0.9-1.2c0-0.7-0.4-0.8-1-0.8
	c-0.6,0-1.2,0-1.8,0c0,0-0.1-0.1-0.1-0.1c0.6-0.3,1.2-0.3,1.8-0.4c0.9-0.1,1.2-0.9,1.9-1.2c0.2-0.1,0-0.4-0.2-0.5
	c-0.3-0.2-0.6-0.4-1-0.7c0.8-0.1,1.3,0.2,1.8,0.3c0.6,0.1,0.5-0.1,0.5-0.5c0-0.4-0.1-0.7-0.4-1c-0.3-0.3-0.5-0.6-0.7-1.1
	c0.5,0.2,0.7,0.5,0.9,0.8c0.3,0.5,0.7,0.4,1.1,0.2c0.4-0.2,0.6-0.4,0.5-0.9c-0.1-0.5-0.1-1,0-1.5c0.4,0.4,0.5,0.9,0.5,1.4
	c0.1,0.5,0.2,0.5,0.7,0.4c1.1-0.3,1.4-1.1,1.5-2c0.1-0.5,0.4-0.3,0.6-0.3c0.1-0.1,0.1-0.1,0.1-0.2c0-0.1,0-0.2-0.1-0.3
	c0,0-0.1-0.1-0.1-0.1C32.1,20.1,32,20,31.9,20c-0.1-0.1-0.2-0.2-0.2-0.3l0,0c-0.7-0.2-1.3-0.3-2-0.2c-0.3,0.4-0.6,0.7-1.1,0.2
	c0,0,0,0,0,0.1c0,0,0,0,0,0c0,0.8-0.4,1.3-1.2,1.4c-0.8,0.1-1.5,0.3-1.8,1.1c-0.1,0.3-0.4,0.4-0.8,0.4c-2.3-0.1-3.6,1.6-2.9,3.7
	c0.1,0.3,0.1,0.7,0,1c-0.2,0.8-0.2,1.6,0.4,2.3c0.1,0.1,0.2,0.3,0.2,0.5c0.2,1.1,1.3,2,1.2,3.3c0,0.2,0.2,0.5,0.4,0.7
	c0.2,0.3,0.5,0.6,0.8,0.8h0c0.4,0.1,0.7,0.2,1.1,0.3c0.4,0.1,0.7,0.1,1.1,0c0,0,0,0,0,0c0.4-0.3,0.9-0.5,1.3-0.9
	c0.2-0.3,0.5-0.4,0.9-0.2c1,0.5,2,0.4,2.8-0.3c0.2-0.2,0.5-0.3,0.8-0.1c0.9,0.6,1.8,0.3,2.6-0.1c0.9-0.4,2-1.8,1.5-2.9
	c-0.2-0.3-0.2-0.6-0.1-0.7c0.1-0.2,0.3-0.3,0.6-0.3c0.1-0.1,0.1-0.3,0.2-0.4c0.1-0.1,0-0.3,0.2-0.3c0.3-0.1,0.6-0.1,0.7-0.2
	c0.1-0.1,0.2-0.2,0.3-0.2c0.1-0.1,0.1-0.2,0.1-0.3C39.1,27.8,38.9,27.5,38.6,27.2L38.6,27.2z"/>
<path fill="#F76C3B" d="M24.1,34.2c0.2,0.3,0.5,0.6,0.8,0.8h0C24.7,34.7,24.4,34.4,24.1,34.2z"/>
<path fill="#F76C3B" d="M37.6,29.6L37.6,29.6c-0.3,0.1-0.5,0.2-0.6,0.3C37.1,29.8,37.3,29.7,37.6,29.6z"/>
<path fill="#F76C3B" d="M31.9,20c-0.1-0.1-0.2-0.2-0.2-0.3h0l0,0C31.8,19.8,31.8,19.9,31.9,20z"/>
<path fill="#F76C3B" d="M32.4,20.3c0.1,0.1,0.1,0.2,0.1,0.3C32.5,20.5,32.4,20.4,32.4,20.3z"/>
<path fill="#F76C3B" d="M28.5,19.7L28.5,19.7C28.5,19.7,28.6,19.7,28.5,19.7C28.6,19.7,28.5,19.7,28.5,19.7z"/>
<path fill="#F76C3B" d="M26,35.3c0.4,0.1,0.7,0.1,1.1,0c0,0,0,0,0,0C26.7,35.3,26.4,35.3,26,35.3z"/>
<path fill="#FCD97B" d="M32.4,19c-0.1,1.2,0.4-1.8-1-1.5c-0.6,0.2-1.7,4.1-1.8,3.5c-0.1-0.6-0.9-12.3-1.3-12.8
	c-0.1,0.6,0.6,12.2,0.7,12.9c0.1,0.5-0.1,0.9-0.7,1.1c-0.5,0.2-1,0.3-1.4-0.3c-0.3-0.4-7.7-11.1-8.3-11.4c0.2,0.6,7.7,11.4,8,11.7
	c0.4,0.4,0.5,0.8,0.5,1.3c0,0.4,0.2,0.7-0.6,0.6C25.9,24,9.8,18.5,8.7,18.7c0.6,0.4,16.4,5.7,16.8,6c0.3,0.2-6.7-1.8-7-1.7
	c-0.8,0.4,5.9,3.8,4.8,3.9c-0.7,0.1-9.4-0.9-10.1-0.5c0.1,0.1,8,1.1,8,1.1c-5.3,1.1-11.7,2.4,2.3,0c0.7-0.1,1.2,0.1,1.2,1
	c0,0.6,0.2,1.3,1.1,1.6c1,0.2,1.4,1.4,1,2.2c-0.5,1-0.6,2.2-1.4,3c-0.2,0.2-0.1,0.6,0.1,0.8c0.2,0.1,0.6-0.1,0.6-0.3
	c0.1-0.9,0.7-1.6,1-2.5c0.1-0.4,0.1-0.9,0.5-1.2c0.5-0.3,0.8,0.4,1.2,0.5c0.1,0,0.2,0.1,0.4,0.1c1.6,0.4,4.3,8.2,4.9,6.6
	c0.2-0.6-1.9-8.6-1.5-8.9c0.5-0.2,0.7,0.3,0.9,0.6c0.6,0.5,1,1.2,1.8,1.6c0.1-0.4-0.1-0.6-0.3-0.7c-1.3-1-1.3-2-0.2-3.1
	c0.6-0.6,0.2-1.3-0.6-1.6c-0.4-0.1-0.8-0.2-1.2-0.3c-0.2-0.1-0.6,0-0.6-0.3c0-0.4,0.4-0.3,0.7-0.4c0.9-0.3,1.9,0.1,2.8-0.5
	c0.3-0.2,7.9-3,8.3-3.3c-0.9-0.3-8.8,3-9.6,2.7c-0.4-0.2,5.5-4.5,5.9-5c0.2-0.3-5.9,3.4-6.2,3.1c-0.3-0.4,6-6.6,5.6-6.5
	c-0.2,0.1-7.1,6.7-7.3,6.4c-0.9-1-0.6-2.9,0.5-3.8c-0.1-0.3-0.1-0.5-0.2-0.8c0,0,0,0,0,0l5.3-12.7C38.2,5.9,32.5,18.4,32.4,19z
	 M32,26.8c-0.3,0.5-0.4,1.3-1.3,1.3c-0.3,0-0.6,0.3-0.8,0.5c-0.3,0.5-0.8,0.6-1.3,0.5c-0.5,0.2-0.6,0-0.7-0.5
	c-0.1-0.8,0.1-1.6-0.1-2.4c-0.1-0.3,0.1-0.5,0.3-0.6c0.4-0.3,3.2-0.3,3.6,0C32.1,26,32.2,26.5,32,26.8z"/>
<path fill="#FCD97B" d="M32.5,21.4c-0.1-0.2-0.1-0.4-0.2-0.6l0,0C32.4,21,32.4,21.2,32.5,21.4z"/>
<path fill="#B63C2D" d="M28.6,19.6c0.5,0.6,0.8,0.3,1.1-0.2c-0.1,0-0.2-0.1-0.3-0.1c-0.1,0-0.1,0-0.2,0C29,19.3,28.8,19.4,28.6,19.6
	z"/>
<path fill="#29101D" d="M28.4,26.3c-0.1,0.1-0.3,0.3-0.2,0.5c0.2,0.6,0,1.2,0.1,1.9c0.1,0.4,0.1,0.5,0.5,0.4c0.4,0,0.8,0,1-0.4
	c0.1-0.2,0.4-0.4,0.6-0.4c0.7-0.1,0.7-0.6,1-1c0.2-0.3,0.1-0.6-0.2-0.9C30.9,26.1,28.7,26.1,28.4,26.3z"/>
<ellipse fill="#FCD97B" cx="7.1" cy="14.4" rx="0.8" ry="0.8"/>
<ellipse fill="#FCD97B" cx="18.8" cy="16" rx="0.8" ry="0.8"/>
<ellipse fill="#FCD97B" cx="45" cy="26.2" rx="0.7" ry="0.7"/>
<ellipse fill="#FCD97B" cx="43.9" cy="17.5" rx="0.6" ry="0.5"/>
<ellipse fill="#FCD97B" cx="42" cy="13.1" rx="0.3" ry="0.3"/>
<ellipse fill="#FCD97B" cx="10.5" cy="25.4" rx="0.3" ry="0.3"/>
<ellipse fill="#FCD97B" cx="30.1" cy="36.5" rx="0.8" ry="0.8"/>
<ellipse fill="#FCD97B" cx="20.5" cy="38.3" rx="0.5" ry="0.5"/>
<ellipse fill="#FCD97B" cx="36.5" cy="35.1" rx="0.6" ry="0.6"/>
<ellipse fill="#FCD97B" cx="22.7" cy="30.7" rx="0.7" ry="0.7"/>
<ellipse fill="#FCD97B" cx="38.8" cy="28.4" rx="0.7" ry="0.7"/>
<ellipse fill="#FCD97B" cx="41.4" cy="3.8" rx="0.4" ry="0.4"/>
<ellipse fill="#FCD97B" cx="30.9" cy="6.4" rx="0.5" ry="0.5"/>
<ellipse fill="#FCD97B" cx="43.3" cy="9.4" rx="0.6" ry="0.6"/>
<ellipse fill="#FCD97B" cx="48.5" cy="13.9" rx="0.5" ry="0.5"/>
</svg>
