<?xml version="1.0" encoding="utf-8"?>
<!-- Generator: Adobe Illustrator 20.1.0, SVG Export Plug-In . SVG Version: 6.00 Build 0)  -->
<svg version="1.1" id="Calque_3" xmlns="http://www.w3.org/2000/svg" xmlns:xlink="http://www.w3.org/1999/xlink" x="0px" y="0px"
	 viewBox="0 0 841.9 595.3" enable-background="new 0 0 841.9 595.3" xml:space="preserve">
<g>
	<path fill="#590E18" stroke="#A5192A" stroke-miterlimit="10" d="M274.2,152.5c-3.4,1.8-6.9,3-10.5,3.8s-7.4,1.2-11.2,1.2
		c-4,0-7.8-0.6-11.2-1.9c-3.4-1.3-6.4-3.1-8.8-5.4c-2.5-2.4-4.4-5.2-5.8-8.6s-2.1-7.1-2.1-11.2s0.7-7.9,2.1-11.2s3.3-6.2,5.8-8.6
		s5.4-4.2,8.8-5.4c3.4-1.3,7.1-1.9,11.2-1.9s7.9,0.5,11.4,1.5s6.5,2.7,9.2,5.1l-8,8.8c-1.6-1.6-3.3-2.8-5.3-3.6
		c-1.9-0.8-4.4-1.2-7.3-1.2c-2.4,0-4.6,0.4-6.6,1.2c-2,0.8-3.7,2-5.1,3.5c-1.4,1.5-2.5,3.2-3.2,5.3c-0.8,2-1.1,4.3-1.1,6.6
		c0,2.4,0.4,4.7,1.1,6.7c0.8,2,1.8,3.8,3.2,5.3s3.1,2.6,5.1,3.5c2,0.8,4.2,1.2,6.6,1.2c2.5,0,4.6-0.3,6.4-0.8
		c1.8-0.6,3.2-1.1,4.3-1.7V136H254v-10.5h20.2V152.5z"/>
	<path fill="#590E18" stroke="#A5192A" stroke-miterlimit="10" d="M305.1,151.7H305c-1.2,1.9-2.8,3.3-4.9,4.1
		c-2,0.8-4.1,1.2-6.4,1.2c-1.7,0-3.2-0.2-4.8-0.7c-1.5-0.5-2.9-1.2-4.1-2.1c-1.2-0.9-2.1-2.1-2.8-3.4c-0.7-1.4-1-2.9-1-4.7
		c0-2,0.4-3.8,1.1-5.2c0.8-1.4,1.8-2.6,3.1-3.5c1.3-0.9,2.8-1.6,4.4-2.2c1.7-0.5,3.4-0.9,5.1-1.1c1.8-0.2,3.6-0.4,5.3-0.4
		c1.8,0,3.4-0.1,4.9-0.1c0-1.9-0.7-3.5-2.1-4.6c-1.4-1.1-3-1.7-4.9-1.7c-1.8,0-3.4,0.4-4.9,1.1c-1.5,0.8-2.8,1.8-4,3.1l-5.8-6
		c2-1.9,4.4-3.3,7.2-4.3c2.7-0.9,5.5-1.4,8.5-1.4c3.2,0,5.9,0.4,7.9,1.2c2.1,0.8,3.7,2,5,3.5c1.2,1.6,2.1,3.5,2.6,5.7
		c0.5,2.3,0.7,4.9,0.7,7.8v18H305L305.1,151.7L305.1,151.7z M302.4,140.6c-0.8,0-1.9,0-3.1,0.1s-2.4,0.3-3.6,0.6
		c-1.1,0.3-2.1,0.9-2.9,1.5c-0.8,0.7-1.2,1.6-1.2,2.8c0,1.3,0.6,2.3,1.7,2.9c1.1,0.6,2.3,0.9,3.5,0.9c1.1,0,2.1-0.1,3.1-0.4
		c1-0.3,1.9-0.7,2.7-1.2c0.8-0.5,1.4-1.2,1.9-2s0.7-1.8,0.7-2.9v-2.3L302.4,140.6L302.4,140.6z"/>
	<path fill="#590E18" stroke="#A5192A" stroke-miterlimit="10" d="M322,120.7h10.5v4.8h0.1c0.3-0.7,0.8-1.4,1.5-2
		c0.6-0.7,1.4-1.3,2.3-1.8s1.9-1,3-1.3s2.3-0.5,3.6-0.5c2.5,0,4.7,0.5,6.6,1.5s3.4,2.6,4.3,4.8c1.3-2.3,2.8-3.9,4.6-4.9
		c1.8-1,4-1.5,6.6-1.5c2.4,0,4.4,0.4,6,1.2c1.6,0.8,2.9,1.9,3.9,3.3c0.9,1.4,1.6,3,2,4.9s0.6,3.9,0.6,6v21h-11v-20.7
		c0-1.7-0.4-3.1-1.1-4.3s-2-1.8-3.8-1.8c-1.3,0-2.3,0.2-3.2,0.6c-0.9,0.4-1.5,1-2,1.7s-0.9,1.6-1.1,2.6s-0.3,2-0.3,3.1v18.8h-11
		v-18.8c0-0.6,0-1.4-0.1-2.3c0-0.9-0.2-1.8-0.5-2.6s-0.8-1.5-1.4-2.1c-0.7-0.6-1.6-0.9-2.9-0.9c-1.4,0-2.6,0.3-3.4,0.8
		c-0.9,0.5-1.5,1.2-2,2c-0.5,0.9-0.8,1.8-0.9,2.9c-0.1,1.1-0.2,2.2-0.2,3.4v17.7H322V120.7z"/>
	<path fill="#590E18" stroke="#A5192A" stroke-miterlimit="10" d="M419.1,150c-1.8,2.2-4,4-6.6,5.2c-2.7,1.2-5.5,1.8-8.3,1.8
		c-2.7,0-5.3-0.4-7.7-1.3c-2.4-0.9-4.5-2.1-6.3-3.8c-1.8-1.6-3.2-3.6-4.2-5.9c-1-2.3-1.5-4.8-1.5-7.7c0-2.8,0.5-5.4,1.5-7.7
		s2.4-4.2,4.2-5.9c1.8-1.6,3.9-2.9,6.3-3.8s5-1.3,7.7-1.3c2.5,0,4.8,0.4,6.9,1.3s3.8,2.1,5.3,3.8c1.4,1.6,2.5,3.6,3.3,5.9
		s1.2,4.8,1.2,7.7v3.4h-25.4c0.4,2.1,1.4,3.8,2.8,5c1.5,1.2,3.3,1.9,5.4,1.9c1.8,0,3.3-0.4,4.6-1.2c1.2-0.8,2.3-1.8,3.2-3.1
		L419.1,150z M409.8,134.4c0-1.8-0.6-3.4-1.8-4.7c-1.3-1.3-2.9-2-4.9-2c-1.2,0-2.3,0.2-3.2,0.6c-0.9,0.4-1.7,0.9-2.4,1.5
		c-0.7,0.6-1.2,1.3-1.5,2.1c-0.4,0.8-0.6,1.6-0.6,2.5L409.8,134.4L409.8,134.4z"/>
	<path fill="#590E18" stroke="#A5192A" stroke-miterlimit="10" d="M447.6,130.3c0-4.1,0.7-7.9,2.1-11.2c1.4-3.4,3.3-6.2,5.8-8.6
		s5.4-4.2,8.8-5.4c3.4-1.3,7.1-1.9,11.2-1.9c4,0,7.8,0.6,11.2,1.9c3.4,1.3,6.4,3.1,8.8,5.4c2.5,2.4,4.4,5.2,5.8,8.6
		s2.1,7.1,2.1,11.2c0,4.1-0.7,7.9-2.1,11.2s-3.3,6.2-5.8,8.6c-2.5,2.4-5.4,4.2-8.8,5.4c-3.4,1.3-7.1,1.9-11.2,1.9
		c-4,0-7.8-0.6-11.2-1.9c-3.4-1.3-6.4-3.1-8.8-5.4c-2.5-2.4-4.4-5.2-5.8-8.6C448.3,138.2,447.6,134.5,447.6,130.3z M459.5,130.3
		c0,2.4,0.4,4.7,1.1,6.7c0.8,2,1.8,3.8,3.2,5.3c1.4,1.5,3.1,2.6,5.1,3.5c2,0.8,4.2,1.2,6.6,1.2s4.6-0.4,6.6-1.2s3.7-2,5.1-3.5
		s2.5-3.2,3.2-5.3c0.8-2,1.1-4.2,1.1-6.7c0-2.4-0.4-4.6-1.1-6.6c-0.8-2-1.8-3.8-3.2-5.3c-1.4-1.5-3.1-2.6-5.1-3.5
		c-2-0.8-4.2-1.2-6.6-1.2s-4.6,0.4-6.6,1.2c-2,0.8-3.7,2-5.1,3.5s-2.5,3.2-3.2,5.3C459.8,125.7,459.5,128,459.5,130.3z"/>
	<path fill="#590E18" stroke="#A5192A" stroke-miterlimit="10" d="M506,120.7h11.8l9,24.1h0.1l8.3-24.1h11l-14,35.5h-11.6L506,120.7
		z"/>
	<path fill="#590E18" stroke="#A5192A" stroke-miterlimit="10" d="M583.9,150c-1.8,2.2-4,4-6.6,5.2c-2.7,1.2-5.5,1.8-8.3,1.8
		c-2.7,0-5.3-0.4-7.7-1.3s-4.5-2.1-6.3-3.8c-1.8-1.6-3.2-3.6-4.2-5.9c-1-2.3-1.5-4.8-1.5-7.7c0-2.8,0.5-5.4,1.5-7.7s2.4-4.2,4.2-5.9
		c1.8-1.6,3.9-2.9,6.3-3.8s5-1.3,7.7-1.3c2.5,0,4.8,0.4,6.9,1.3c2.1,0.9,3.8,2.1,5.3,3.8c1.4,1.6,2.5,3.6,3.3,5.9s1.2,4.8,1.2,7.7
		v3.4h-25.4c0.4,2.1,1.4,3.8,2.8,5c1.5,1.2,3.3,1.9,5.4,1.9c1.8,0,3.3-0.4,4.6-1.2c1.2-0.8,2.3-1.8,3.2-3.1L583.9,150z M574.7,134.4
		c0-1.8-0.6-3.4-1.8-4.7s-2.9-2-4.9-2c-1.2,0-2.3,0.2-3.2,0.6c-0.9,0.4-1.7,0.9-2.4,1.5s-1.2,1.3-1.5,2.1c-0.4,0.8-0.6,1.6-0.6,2.5
		L574.7,134.4L574.7,134.4z"/>
	<path fill="#590E18" stroke="#A5192A" stroke-miterlimit="10" d="M592.3,120.7h11v5.7h0.1c1.2-2.2,2.6-3.8,4.2-4.9
		c1.6-1.1,3.6-1.6,6.1-1.6c0.6,0,1.3,0,1.9,0.1c0.6,0,1.2,0.1,1.8,0.3v10c-0.8-0.2-1.5-0.4-2.3-0.5s-1.5-0.2-2.4-0.2
		c-2.1,0-3.7,0.3-5,0.9c-1.2,0.6-2.2,1.4-2.8,2.4c-0.7,1-1.1,2.3-1.3,3.8s-0.3,3.1-0.3,4.8v14.8h-11V120.7z"/>
</g>
<g>
	<path fill="#A5192A" d="M436.9,506.4c0,6,0,12,0,18.1c0,1.3-0.1,2.5-0.2,3.8c-0.1,1.2-1.1,2.2-2.1,2.2c-3.5,0-6.9,0-10.4,0
		c-1.2,0-2.1-1.1-2.2-2.4c-0.2-1.8-0.1-3.6-0.1-5.4c0-5.8,0-11.6,0-17.4c0-0.2,0-0.4,0-0.6c-0.1-0.4-0.3-0.6-0.7-0.6
		c-1.7,0-3.3,0-4.9,0c-1.7,0.1-2.7-1-2.8-2.8c-0.3-5-0.1-10-0.1-15c0-0.7,0.1-1.4,0.2-2c0.2-1.1,1.2-2,2.4-2c1.3,0,2.5,0,3.8,0
		c4.8,0,9.5,0,14.3,0c1.2,0,1.8,0.6,2.4,1.5c0.4,0.6,0.4,1.3,0.5,1.9c0.1,0.6,0.1,1.1,0.1,1.7C436.9,493.7,436.9,500,436.9,506.4z
		 M436.2,505.5c0-6.8,0-13.7,0-20.5c0-1.5-0.7-2.2-2.1-2.2c-6.1,0-12.1,0-18.2,0c-1.4,0-2.1,0.7-2.1,2.2c0,4.8,0,9.7,0,14.5
		c0,1.5,0.7,2.2,2.1,2.2c2,0,3.8,0,5.8,0c0.7,0,0.7-0.1,0.7,0.7c0,7.8,0,15.6,0,23.4c0,1.7,0.7,2.4,2.2,2.4c3.2,0,6.3,0,9.5,0
		c1.4,0,2.1-0.7,2.1-2.3C436.2,519,436.2,512.3,436.2,505.5z M422.5,527.4c-0.1,1.5,0.6,2.5,1.8,2.5c3.5,0,6.8,0,10.3,0
		c1.2,0,2-1.2,1.7-2.4c-0.5,0.7-1.2,1-2.1,1c-3.1,0-6.3,0-9.3,0C423.9,528.4,423,528.3,422.5,527.4z M414,501.2
		c-0.3,1.2,0.5,2.3,1.6,2.3c2.1,0.1,4.1,0,6.2,0c0.1,0,0.3,0,0.4-0.1c0.3-0.6-0.1-1.2-0.7-1.2c-1.6,0-3.3,0-4.9,0
		C415.6,502.1,414.6,502,414,501.2z"/>
	<path fill="#A5192A" d="M422.9,495c-0.4-0.1-0.7-0.4-0.9-0.6c-0.7-0.5-1.2-1.1-2-1.5c-0.3-0.2-0.5-0.4-0.1-0.7
		c0.8-0.8,1.7-1.6,2.4-2.4c0.1-0.1,0.2-0.1,0.3-0.1c0.1,0.2-0.1,0.3-0.2,0.5c-0.6,0.6-1.1,1.1-1.6,1.7c-0.1,0.1-0.3,0.2-0.2,0.4
		c0.1,0.2,0.2,0.1,0.4,0.1c2.8,0,5.6,0,8.4,0c0.3,0,0.4-0.1,0.4-0.4c0-0.9,0-1.8,0-2.7c0-0.1,0-0.3,0-0.4s0-0.3,0.2-0.3
		s0.1,0.2,0.1,0.3c0,1.1,0,2.3,0,3.4c0,0.5-0.3,0.4-0.6,0.4c-2.6,0-5.2,0-7.8,0c-0.3,0-0.6,0-0.8,0c-0.1,0-0.3,0-0.3,0.2
		c0,0.1,0.1,0.2,0.2,0.3c0.6,0.5,1.1,0.9,1.6,1.4C422.7,494.5,422.9,494.6,422.9,495z"/>
</g>
<g>
	<path fill="#A5192A" d="M360.8,448.9h3c0.5,0,1,0.1,1.3,0.2c0.4,0.1,0.6,0.3,0.8,0.6c0.2,0.2,0.3,0.5,0.4,0.8
		c0.1,0.3,0.1,0.6,0.1,0.8s0,0.5-0.1,0.8c-0.1,0.3-0.2,0.5-0.4,0.8c-0.2,0.2-0.5,0.4-0.8,0.6c-0.4,0.1-0.8,0.2-1.3,0.2h-1.8v3.7
		h-1.2V448.9z M361.9,452.7h1.5c0.2,0,0.4,0,0.7-0.1s0.4-0.1,0.6-0.2c0.2-0.1,0.3-0.2,0.4-0.4s0.2-0.4,0.2-0.7s-0.1-0.5-0.2-0.7
		c-0.1-0.2-0.2-0.3-0.4-0.4c-0.2-0.1-0.4-0.2-0.6-0.2c-0.2,0-0.4-0.1-0.7-0.1h-1.5V452.7z"/>
	<path fill="#A5192A" d="M367.6,451.8h1.1v0.9h0c0.1-0.2,0.2-0.3,0.3-0.4s0.3-0.2,0.4-0.3s0.3-0.2,0.5-0.2c0.2-0.1,0.4-0.1,0.5-0.1
		c0.2,0,0.3,0,0.5,0.1l0,1.2c-0.1,0-0.2,0-0.3-0.1c-0.1,0-0.2,0-0.3,0c-0.5,0-0.9,0.1-1.2,0.4c-0.3,0.3-0.4,0.8-0.4,1.4v2.9h-1.1
		V451.8z"/>
	<path fill="#A5192A" d="M372.6,455c0,0.2,0.1,0.5,0.2,0.7c0.1,0.2,0.2,0.4,0.4,0.5c0.2,0.1,0.4,0.3,0.6,0.3s0.5,0.1,0.7,0.1
		c0.3,0,0.6-0.1,0.9-0.2c0.2-0.2,0.5-0.4,0.7-0.6l0.8,0.6c-0.6,0.8-1.4,1.2-2.5,1.2c-0.4,0-0.9-0.1-1.2-0.2
		c-0.4-0.2-0.7-0.4-0.9-0.6c-0.3-0.3-0.4-0.6-0.6-0.9c-0.1-0.4-0.2-0.8-0.2-1.2s0.1-0.8,0.2-1.2c0.1-0.4,0.4-0.7,0.6-0.9
		c0.3-0.3,0.6-0.5,0.9-0.6c0.4-0.2,0.8-0.2,1.2-0.2c0.5,0,0.9,0.1,1.3,0.3c0.3,0.2,0.6,0.4,0.9,0.7c0.2,0.3,0.4,0.6,0.5,1
		c0.1,0.4,0.1,0.7,0.1,1.1v0.4H372.6z M376,454.1c0-0.2,0-0.5-0.1-0.7s-0.2-0.4-0.3-0.5c-0.1-0.1-0.3-0.3-0.5-0.3s-0.4-0.1-0.7-0.1
		c-0.3,0-0.5,0-0.7,0.1c-0.2,0.1-0.4,0.2-0.6,0.4s-0.3,0.3-0.4,0.5c-0.1,0.2-0.1,0.4-0.1,0.6H376z"/>
	<path fill="#A5192A" d="M381.5,453.2c-0.1-0.2-0.3-0.3-0.5-0.4c-0.2-0.1-0.4-0.2-0.7-0.2c-0.3,0-0.5,0.1-0.7,0.2
		c-0.2,0.1-0.3,0.3-0.3,0.5c0,0.2,0.1,0.3,0.2,0.4c0.1,0.1,0.2,0.2,0.4,0.3c0.1,0.1,0.3,0.1,0.5,0.1s0.3,0.1,0.4,0.1
		c0.2,0.1,0.4,0.1,0.7,0.2s0.4,0.2,0.5,0.3s0.3,0.3,0.3,0.5c0.1,0.2,0.1,0.4,0.1,0.7c0,0.3-0.1,0.6-0.2,0.8
		c-0.1,0.2-0.3,0.4-0.5,0.6c-0.2,0.1-0.5,0.2-0.7,0.3c-0.3,0.1-0.6,0.1-0.8,0.1c-0.5,0-0.9-0.1-1.2-0.2c-0.4-0.1-0.7-0.4-1-0.8
		l0.8-0.7c0.2,0.2,0.4,0.3,0.6,0.5c0.2,0.1,0.5,0.2,0.8,0.2c0.1,0,0.3,0,0.4,0c0.1,0,0.3-0.1,0.4-0.1c0.1-0.1,0.2-0.1,0.3-0.2
		s0.1-0.2,0.1-0.3c0-0.2-0.1-0.3-0.1-0.4c-0.1-0.1-0.2-0.2-0.4-0.2c-0.1-0.1-0.3-0.1-0.4-0.1c-0.2,0-0.3-0.1-0.4-0.1
		c-0.2-0.1-0.5-0.1-0.7-0.2c-0.2-0.1-0.4-0.2-0.6-0.3c-0.2-0.1-0.3-0.3-0.4-0.5c-0.1-0.2-0.1-0.4-0.1-0.7c0-0.3,0.1-0.6,0.2-0.8
		c0.1-0.2,0.3-0.4,0.5-0.5c0.2-0.1,0.4-0.3,0.7-0.3c0.3-0.1,0.5-0.1,0.8-0.1c0.4,0,0.8,0.1,1.1,0.2c0.4,0.1,0.6,0.4,0.8,0.7
		L381.5,453.2z"/>
	<path fill="#A5192A" d="M386.8,453.2c-0.1-0.2-0.3-0.3-0.5-0.4c-0.2-0.1-0.4-0.2-0.7-0.2c-0.3,0-0.5,0.1-0.7,0.2
		c-0.2,0.1-0.3,0.3-0.3,0.5c0,0.2,0.1,0.3,0.2,0.4c0.1,0.1,0.2,0.2,0.4,0.3c0.1,0.1,0.3,0.1,0.5,0.1s0.3,0.1,0.4,0.1
		c0.2,0.1,0.4,0.1,0.7,0.2s0.4,0.2,0.5,0.3s0.3,0.3,0.3,0.5c0.1,0.2,0.1,0.4,0.1,0.7c0,0.3-0.1,0.6-0.2,0.8
		c-0.1,0.2-0.3,0.4-0.5,0.6c-0.2,0.1-0.5,0.2-0.7,0.3c-0.3,0.1-0.6,0.1-0.8,0.1c-0.5,0-0.9-0.1-1.2-0.2c-0.4-0.1-0.7-0.4-1-0.8
		l0.8-0.7c0.2,0.2,0.4,0.3,0.6,0.5c0.2,0.1,0.5,0.2,0.8,0.2c0.1,0,0.3,0,0.4,0c0.1,0,0.3-0.1,0.4-0.1c0.1-0.1,0.2-0.1,0.3-0.2
		s0.1-0.2,0.1-0.3c0-0.2-0.1-0.3-0.1-0.4c-0.1-0.1-0.2-0.2-0.4-0.2c-0.1-0.1-0.3-0.1-0.4-0.1c-0.2,0-0.3-0.1-0.4-0.1
		c-0.2-0.1-0.5-0.1-0.7-0.2c-0.2-0.1-0.4-0.2-0.6-0.3c-0.2-0.1-0.3-0.3-0.4-0.5c-0.1-0.2-0.1-0.4-0.1-0.7c0-0.3,0.1-0.6,0.2-0.8
		c0.1-0.2,0.3-0.4,0.5-0.5c0.2-0.1,0.4-0.3,0.7-0.3c0.3-0.1,0.5-0.1,0.8-0.1c0.4,0,0.8,0.1,1.1,0.2c0.4,0.1,0.6,0.4,0.8,0.7
		L386.8,453.2z"/>
	<path fill="#A5192A" d="M392.8,448.9h5.5v1.1h-4.3v2.5h4v1.1h-4v2.7h4.5v1.1h-5.7V448.9z"/>
	<path fill="#A5192A" d="M400.1,448.9h1.5l4.7,7h0v-7h1.2v8.5H406l-4.7-7h0v7h-1.2V448.9z"/>
	<path fill="#A5192A" d="M411.4,450h-2.7v-1.1h6.6v1.1h-2.7v7.4h-1.2V450z"/>
	<path fill="#A5192A" d="M416.5,448.9h5.5v1.1h-4.3v2.5h4v1.1h-4v2.7h4.5v1.1h-5.7V448.9z"/>
	<path fill="#A5192A" d="M423.9,448.9h3c0.5,0,1,0.1,1.3,0.2c0.4,0.1,0.6,0.3,0.8,0.6c0.2,0.2,0.3,0.5,0.4,0.8
		c0.1,0.3,0.1,0.6,0.1,0.8c0,0.3,0,0.5-0.1,0.8s-0.2,0.5-0.4,0.7c-0.2,0.2-0.4,0.4-0.7,0.5s-0.5,0.2-0.9,0.3l2.4,3.9h-1.4l-2.2-3.7
		H425v3.7h-1.2V448.9z M425,452.7h1.5c0.2,0,0.4,0,0.7-0.1c0.2,0,0.4-0.1,0.6-0.2c0.2-0.1,0.3-0.2,0.4-0.4c0.1-0.2,0.2-0.4,0.2-0.7
		s-0.1-0.5-0.2-0.7c-0.1-0.2-0.2-0.3-0.4-0.4c-0.2-0.1-0.4-0.2-0.6-0.2c-0.2,0-0.4-0.1-0.7-0.1H425V452.7z"/>
	<path fill="#A5192A" d="M437.3,452.7h-1.5v2.6c0,0.2,0,0.3,0,0.5c0,0.2,0,0.3,0.1,0.4s0.1,0.2,0.2,0.3c0.1,0.1,0.3,0.1,0.5,0.1
		c0.1,0,0.3,0,0.4,0c0.1,0,0.3-0.1,0.4-0.1v1c-0.1,0.1-0.3,0.1-0.5,0.1c-0.2,0-0.4,0-0.5,0c-0.4,0-0.7-0.1-1-0.2
		c-0.2-0.1-0.4-0.3-0.5-0.5c-0.1-0.2-0.2-0.4-0.2-0.6c0-0.2,0-0.5,0-0.7v-3h-1.2v-0.9h1.2v-1.6h1.1v1.6h1.5V452.7z"/>
	<path fill="#A5192A" d="M438.4,454.6c0-0.4,0.1-0.8,0.2-1.2c0.2-0.4,0.4-0.7,0.6-0.9c0.3-0.3,0.6-0.5,1-0.6
		c0.4-0.2,0.8-0.2,1.2-0.2s0.8,0.1,1.2,0.2c0.4,0.2,0.7,0.4,1,0.6c0.3,0.3,0.5,0.6,0.6,0.9c0.2,0.4,0.2,0.7,0.2,1.2
		s-0.1,0.8-0.2,1.2c-0.2,0.4-0.4,0.7-0.6,0.9c-0.3,0.3-0.6,0.5-1,0.6s-0.8,0.2-1.2,0.2s-0.8-0.1-1.2-0.2c-0.4-0.2-0.7-0.4-1-0.6
		c-0.3-0.3-0.5-0.6-0.6-0.9C438.5,455.4,438.4,455,438.4,454.6z M439.6,454.6c0,0.3,0,0.6,0.1,0.8c0.1,0.2,0.2,0.5,0.4,0.6
		s0.4,0.3,0.6,0.4c0.2,0.1,0.5,0.1,0.8,0.1s0.5,0,0.8-0.1c0.2-0.1,0.4-0.2,0.6-0.4s0.3-0.4,0.4-0.6s0.1-0.5,0.1-0.8s0-0.6-0.1-0.8
		s-0.2-0.5-0.4-0.6s-0.4-0.3-0.6-0.4c-0.2-0.1-0.5-0.2-0.8-0.2s-0.5,0-0.8,0.2c-0.2,0.1-0.4,0.2-0.6,0.4s-0.3,0.4-0.4,0.6
		C439.6,454,439.6,454.3,439.6,454.6z"/>
	<path fill="#A5192A" d="M449.2,451.8h1.1v0.8h0c0.2-0.3,0.5-0.5,0.9-0.7c0.4-0.2,0.7-0.3,1.1-0.3c0.4,0,0.8,0.1,1.2,0.2
		c0.4,0.2,0.7,0.4,0.9,0.6c0.3,0.3,0.4,0.6,0.6,1s0.2,0.8,0.2,1.2c0,0.4-0.1,0.8-0.2,1.2s-0.3,0.7-0.6,0.9c-0.3,0.3-0.6,0.5-0.9,0.6
		c-0.4,0.2-0.8,0.2-1.2,0.2c-0.4,0-0.8-0.1-1.2-0.3s-0.6-0.4-0.8-0.7h0v4.2h-1.1V451.8z M452.1,452.6c-0.3,0-0.5,0-0.8,0.2
		c-0.2,0.1-0.4,0.2-0.6,0.4c-0.2,0.2-0.3,0.4-0.4,0.6c-0.1,0.2-0.1,0.5-0.1,0.8s0,0.6,0.1,0.8c0.1,0.2,0.2,0.5,0.4,0.6
		c0.2,0.2,0.4,0.3,0.6,0.4c0.2,0.1,0.5,0.1,0.8,0.1c0.3,0,0.5,0,0.8-0.1c0.2-0.1,0.4-0.2,0.6-0.4s0.3-0.4,0.4-0.6s0.1-0.5,0.1-0.8
		s0-0.6-0.1-0.8s-0.2-0.5-0.4-0.6s-0.4-0.3-0.6-0.4C452.7,452.7,452.4,452.6,452.1,452.6z"/>
	<path fill="#A5192A" d="M456.6,448.4h1.1v9.1h-1.1V448.4z"/>
	<path fill="#A5192A" d="M459.4,452.5c0.3-0.3,0.7-0.5,1.1-0.6c0.4-0.1,0.8-0.2,1.2-0.2c0.4,0,0.8,0.1,1.1,0.2
		c0.3,0.1,0.5,0.2,0.7,0.4c0.2,0.2,0.3,0.4,0.4,0.6c0.1,0.2,0.1,0.5,0.1,0.7v2.9c0,0.2,0,0.4,0,0.6c0,0.2,0,0.3,0,0.5h-1
		c0-0.3,0-0.6,0-0.9h0c-0.2,0.4-0.5,0.6-0.9,0.8c-0.3,0.2-0.7,0.2-1.1,0.2c-0.3,0-0.5,0-0.8-0.1s-0.5-0.2-0.6-0.3
		c-0.2-0.1-0.3-0.3-0.4-0.5c-0.1-0.2-0.2-0.5-0.2-0.7c0-0.4,0.1-0.7,0.2-0.9c0.2-0.2,0.4-0.4,0.7-0.6s0.6-0.3,1-0.3
		c0.4-0.1,0.8-0.1,1.2-0.1h0.8v-0.2c0-0.1,0-0.3-0.1-0.4c-0.1-0.1-0.1-0.3-0.3-0.4s-0.3-0.2-0.4-0.3c-0.2-0.1-0.4-0.1-0.6-0.1
		c-0.2,0-0.4,0-0.5,0.1c-0.2,0-0.3,0.1-0.4,0.2c-0.1,0.1-0.2,0.1-0.3,0.2c-0.1,0.1-0.2,0.2-0.3,0.2L459.4,452.5z M462.4,454.7
		c-0.3,0-0.5,0-0.8,0c-0.3,0-0.5,0.1-0.7,0.2c-0.2,0.1-0.4,0.2-0.5,0.3c-0.1,0.1-0.2,0.3-0.2,0.6c0,0.3,0.1,0.6,0.3,0.7
		c0.2,0.1,0.5,0.2,0.9,0.2c0.3,0,0.5,0,0.8-0.2c0.2-0.1,0.4-0.2,0.5-0.4s0.2-0.3,0.3-0.5s0.1-0.4,0.1-0.6v-0.4H462.4z"/>
	<path fill="#A5192A" d="M464.9,451.8h1.2l1.7,4.4h0l1.6-4.4h1.2l-2.7,6.9c-0.1,0.2-0.2,0.5-0.3,0.7s-0.2,0.4-0.4,0.5
		c-0.1,0.1-0.3,0.3-0.5,0.3s-0.5,0.1-0.7,0.1c-0.2,0-0.3,0-0.5,0c-0.2,0-0.3-0.1-0.5-0.1l0.1-1c0.2,0.1,0.4,0.1,0.6,0.1
		c0.2,0,0.3,0,0.4-0.1s0.2-0.1,0.3-0.2c0.1-0.1,0.2-0.2,0.2-0.3c0.1-0.1,0.1-0.2,0.2-0.4l0.3-0.9L464.9,451.8z"/>
	<path fill="#A5192A" d="M475,452.5c0.3-0.3,0.7-0.5,1.1-0.6c0.4-0.1,0.8-0.2,1.2-0.2c0.4,0,0.8,0.1,1.1,0.2
		c0.3,0.1,0.5,0.2,0.7,0.4c0.2,0.2,0.3,0.4,0.4,0.6c0.1,0.2,0.1,0.5,0.1,0.7v2.9c0,0.2,0,0.4,0,0.6c0,0.2,0,0.3,0,0.5h-1
		c0-0.3,0-0.6,0-0.9h0c-0.2,0.4-0.5,0.6-0.9,0.8c-0.3,0.2-0.7,0.2-1.1,0.2c-0.3,0-0.5,0-0.8-0.1s-0.5-0.2-0.6-0.3
		c-0.2-0.1-0.3-0.3-0.4-0.5c-0.1-0.2-0.2-0.5-0.2-0.7c0-0.4,0.1-0.7,0.2-0.9c0.2-0.2,0.4-0.4,0.7-0.6s0.6-0.3,1-0.3
		c0.4-0.1,0.8-0.1,1.2-0.1h0.8v-0.2c0-0.1,0-0.3-0.1-0.4c-0.1-0.1-0.1-0.3-0.3-0.4s-0.3-0.2-0.4-0.3c-0.2-0.1-0.4-0.1-0.6-0.1
		c-0.2,0-0.4,0-0.5,0.1c-0.2,0-0.3,0.1-0.4,0.2c-0.1,0.1-0.2,0.1-0.3,0.2c-0.1,0.1-0.2,0.2-0.3,0.2L475,452.5z M478,454.7
		c-0.3,0-0.5,0-0.8,0c-0.3,0-0.5,0.1-0.7,0.2c-0.2,0.1-0.4,0.2-0.5,0.3c-0.1,0.1-0.2,0.3-0.2,0.6c0,0.3,0.1,0.6,0.3,0.7
		c0.2,0.1,0.5,0.2,0.9,0.2c0.3,0,0.5,0,0.8-0.2c0.2-0.1,0.4-0.2,0.5-0.4s0.2-0.3,0.3-0.5s0.1-0.4,0.1-0.6v-0.4H478z"/>
	<path fill="#A5192A" d="M486.9,457.4c0,0.4-0.1,0.8-0.2,1.2c-0.1,0.4-0.4,0.7-0.6,0.9c-0.3,0.3-0.6,0.5-1,0.6
		c-0.4,0.1-0.8,0.2-1.3,0.2c-0.5,0-1-0.1-1.5-0.2c-0.5-0.2-0.9-0.4-1.3-0.8l0.7-0.9c0.3,0.3,0.6,0.5,0.9,0.7
		c0.3,0.2,0.7,0.2,1.1,0.2c0.4,0,0.7-0.1,1-0.2c0.3-0.1,0.5-0.3,0.6-0.5c0.2-0.2,0.3-0.4,0.3-0.6c0.1-0.2,0.1-0.5,0.1-0.7v-0.8h0
		c-0.2,0.3-0.5,0.6-0.8,0.8c-0.4,0.2-0.7,0.2-1.1,0.2c-0.4,0-0.8-0.1-1.2-0.2c-0.4-0.1-0.7-0.4-0.9-0.6c-0.3-0.3-0.5-0.6-0.6-0.9
		c-0.1-0.4-0.2-0.7-0.2-1.2s0.1-0.8,0.2-1.2c0.1-0.4,0.3-0.7,0.6-1c0.3-0.3,0.6-0.5,0.9-0.6c0.4-0.2,0.8-0.2,1.2-0.2
		c0.4,0,0.8,0.1,1.1,0.3s0.7,0.4,0.9,0.7h0v-0.8h1.1V457.4z M483.9,452.6c-0.3,0-0.5,0-0.8,0.2c-0.2,0.1-0.4,0.2-0.6,0.4
		c-0.2,0.2-0.3,0.4-0.4,0.6s-0.1,0.5-0.1,0.8c0,0.6,0.2,1,0.5,1.4s0.8,0.5,1.4,0.5c0.6,0,1-0.2,1.4-0.5s0.5-0.8,0.5-1.4
		c0-0.3,0-0.6-0.1-0.8s-0.2-0.5-0.4-0.6s-0.4-0.3-0.6-0.4C484.5,452.7,484.2,452.6,483.9,452.6z"/>
	<path fill="#A5192A" d="M488.5,452.5c0.3-0.3,0.7-0.5,1.1-0.6c0.4-0.1,0.8-0.2,1.2-0.2c0.4,0,0.8,0.1,1.1,0.2
		c0.3,0.1,0.5,0.2,0.7,0.4c0.2,0.2,0.3,0.4,0.4,0.6c0.1,0.2,0.1,0.5,0.1,0.7v2.9c0,0.2,0,0.4,0,0.6c0,0.2,0,0.3,0,0.5h-1
		c0-0.3,0-0.6,0-0.9h0c-0.2,0.4-0.5,0.6-0.9,0.8c-0.3,0.2-0.7,0.2-1.1,0.2c-0.3,0-0.5,0-0.8-0.1s-0.5-0.2-0.6-0.3
		c-0.2-0.1-0.3-0.3-0.4-0.5c-0.1-0.2-0.2-0.5-0.2-0.7c0-0.4,0.1-0.7,0.2-0.9c0.2-0.2,0.4-0.4,0.7-0.6s0.6-0.3,1-0.3
		c0.4-0.1,0.8-0.1,1.2-0.1h0.8v-0.2c0-0.1,0-0.3-0.1-0.4c-0.1-0.1-0.1-0.3-0.3-0.4s-0.3-0.2-0.4-0.3c-0.2-0.1-0.4-0.1-0.6-0.1
		c-0.2,0-0.4,0-0.5,0.1c-0.2,0-0.3,0.1-0.4,0.2c-0.1,0.1-0.2,0.1-0.3,0.2c-0.1,0.1-0.2,0.2-0.3,0.2L488.5,452.5z M491.6,454.7
		c-0.3,0-0.5,0-0.8,0c-0.3,0-0.5,0.1-0.7,0.2c-0.2,0.1-0.4,0.2-0.5,0.3c-0.1,0.1-0.2,0.3-0.2,0.6c0,0.3,0.1,0.6,0.3,0.7
		c0.2,0.1,0.5,0.2,0.9,0.2c0.3,0,0.5,0,0.8-0.2c0.2-0.1,0.4-0.2,0.5-0.4s0.2-0.3,0.3-0.5s0.1-0.4,0.1-0.6v-0.4H491.6z"/>
	<path fill="#A5192A" d="M494.6,449.7c0-0.2,0.1-0.4,0.2-0.6s0.3-0.2,0.6-0.2c0.2,0,0.4,0.1,0.6,0.2s0.2,0.3,0.2,0.6
		c0,0.2-0.1,0.4-0.2,0.6s-0.3,0.2-0.6,0.2c-0.2,0-0.4-0.1-0.6-0.2S494.6,449.9,494.6,449.7z M494.8,451.8h1.1v5.7h-1.1V451.8z"/>
	<path fill="#A5192A" d="M497.6,451.8h1.1v0.9h0c0.1-0.3,0.4-0.6,0.7-0.7c0.3-0.2,0.7-0.3,1.2-0.3c0.3,0,0.5,0,0.8,0.1
		s0.5,0.2,0.7,0.4c0.2,0.2,0.3,0.4,0.5,0.7c0.1,0.3,0.2,0.6,0.2,1v3.7h-1.1v-3.4c0-0.3,0-0.5-0.1-0.7c-0.1-0.2-0.2-0.3-0.3-0.5
		s-0.3-0.2-0.4-0.3s-0.3-0.1-0.5-0.1c-0.2,0-0.4,0-0.6,0.1c-0.2,0.1-0.4,0.2-0.5,0.3c-0.1,0.2-0.3,0.4-0.3,0.6
		c-0.1,0.2-0.1,0.5-0.1,0.9v2.9h-1.1V451.8z"/>
</g>
<g>
	<g>
		<path fill="none" d="M379.2,264.5c0.4-0.1,0.9-0.2,1.2-0.3C380,264.4,379.6,264.5,379.2,264.5L379.2,264.5z"/>
		<path fill="none" d="M396.2,295c0.3-0.4,0.8-0.7,1.3-1c0.4-0.3,0.9-0.5,1.3-0.8c-0.4,0.3-0.9,0.5-1.3,0.8
			C396.9,294.2,396.6,294.5,396.2,295z"/>
		<path fill="none" d="M372.4,299.6L372.4,299.6L372.4,299.6z"/>
		<path fill="#F76C3B" d="M396.5,287.4c4.7-1.7,6.3-6.3,4.9-9.6c0-0.1-0.1-0.2-0.2-0.3c-1.6-1.4-3.8-1.7-5.7-3.1
			c2.3,0.3,1.9-1.1,2.1-2.4c0.5-4.8-6.4-8.7-10.1-5.9c-0.2-1.6-1-2.3-3.1-2.4c-1.3-0.2-2.5,0.3-3.8,0.5c-0.4,0.1-0.9,0.2-1.2,0.3
			c0.3,1.2,0.5,2.4,0.8,3.7c0.2,0.8,0.5,1.3,1.5,1.2c0.5-0.1,1-0.2,1.2,0.4c0.2,0.6-0.5,0.6-0.9,0.9c-0.3,0.2-0.5,0.4-0.5,0.6
			c-0.1,0.5-0.3,1.3,0.3,1.7c0.5,0.3,1-0.3,1.3-0.7c1.3-1.7,2-3.9,3.7-5.9c-0.5,1.7-0.5,2.9,0.8,3.9c-1-0.3-1.7-0.2-2,1
			c-0.3,1.5-0.5,2.8,0.3,4.1c0.3,0.4,0.6,0,1-0.2c0.5-0.2,1-0.3,1.5,0.2c0.4,0.4,0.3,1-0.1,1.5c-1,1,0,1,0.7,1.3
			c1.1,0.4,2.4-0.6,4.1,0.7c-2.4-0.2-3,2.1-4.7,2.4c0.8,0.7,1.7,1.5,2.8,2.5c-1.6,0.2-2.1,1.5-2.8,2.4c-0.9,1.2,1.4,1.7,1,3.1
			c-1.1-0.1-1.5-1.1-2.2-1.6c-0.5-0.3-1.1-1.3-1.6-0.8c-0.7,1-2.7,0.9-2.3,2.8c0.3,1.1,0.3,2.4,0,3.7c-0.2-0.1-0.3,0-0.4-0.1
			c-0.5-0.7-0.2-1.8-1-2.2c-1.1-0.3-2.3-0.3-3.5-0.6c-0.8-0.3-1,0.7-0.8,1.5c0.1,0.3,0.9,0.3,0.8,1c-2.9-0.8-2.2,2.7-4.3,3.4
			c0.7-2.3,1.3-4.5,2.1-6.6c0.3-1,0.3-1.5-0.4-2.1c-0.8-0.7-1.3-1.4-2.4-0.6c-0.4,0.3-1,0.6-1.4,0c-0.3-0.5,0.3-0.8,0.7-1
			c1-0.7,0.4-1.7,0.2-2.4c-0.3-0.9-1-1.6-2.2-1.4c-1.2,0.2-2.4,0.3-3.7,0c0.3-1,1.1-1,1.7-1c1.8-0.3,3.6-0.7,4.9-2.2
			c0.7-0.8,0.7-1.2,0-1.7c-0.5-0.4-1.1-0.7-1.7-1.1c-0.4-0.3-1.1-0.6-0.9-1.1c0.3-0.6,1-0.3,1.4-0.1c0.7,0.3,1.4,0.6,2.2,0.9
			c0.7,0.3,1.4,0.6,1.9-0.1c0.3-0.6-0.1-1.2-0.5-1.7c-0.6-0.7-1.4-1.3-1.1-2.5c1,0,1.3,0.8,1.8,1.2c0.4,0.4,0.9,1,1.7,0.6
			c0.8-0.3,1.1-0.9,1.1-1.7c0.1-2.2-0.7-4.2-0.6-6.3c-2.3-0.5-4.7-1-7.1-0.3c-1.9,0.5-3.4,1.5-4.3,3.2c-0.5,1-1,1.5-2.2,1.2
			c-0.5-0.2-1,0-1.5,0.3c-2.5,1.7-3.6,6.3-1.9,9c0.5,0.9,0.7,1.6,0.4,2.4c-0.3,1.2-0.1,2.4,0,3.7c-1.2-0.2-1-1.4-1.8-1.8
			c1.3,2.6-0.2,5.3,0.6,7.9c0.3-1.2,0.7-2.4,1.1-3.6c0.2-0.5,0.3-1.7,1-1.4c0.8,0.3,0,1.1-0.2,1.7c-1,2.4-1.2,4.8,0.3,7.1
			c2,3.1,4.5,3.8,7.8,2.4c0.5-0.3,1.2-0.8,1.8-0.3c0.5,0.4,0.3,1.2,0.2,1.8c-0.1,0.4-0.1,0.8-0.2,1.2l0.1,0.1c1-1.5,2.3-1.4,3.7-0.6
			c2.3,1.1,4.5,0.2,6.8-0.3c1-0.2,1.7-0.2,2.3,0.4c2.4,2.3,7.6-0.4,7.7-3.9c0.1-1.9,0.7-2,2.2-1.5c0.7,0.3,1.5,0.2,2.3,0.3
			c0.4-0.3,0.9-0.5,1.3-0.8C399.4,290.8,399.3,288.6,396.5,287.4z"/>
		<path fill="#B63C2D" d="M372.6,298.4c0.2-0.6,0.3-1.4-0.2-1.8c-0.6-0.5-1.2,0-1.8,0.3c-3.3,1.4-5.8,0.6-7.8-2.4
			c-1.5-2.3-1.2-4.7-0.3-7.1c0.2-0.5,1-1.3,0.2-1.7c-0.7-0.3-0.8,0.9-1,1.4c-0.4,1.2-0.8,2.4-1.1,3.6c-0.8-2.7,0.8-5.3-0.6-7.9
			c1,0.4,0.7,1.7,1.8,1.8c-0.1-1.2-0.3-2.5,0-3.7c0.3-1,0.1-1.7-0.4-2.4c-1.7-2.6-0.7-7.2,1.9-9c0.5-0.3,1-0.4,1.5-0.3
			c1.1,0.3,1.7-0.2,2.2-1.2c0.9-1.7,2.4-2.7,4.3-3.2c2.4-0.7,4.8-0.2,7.1,0.3c0.2-0.3-0.2-0.9,0.3-1c0.1,0,0.2,0.3,0.3,0.4
			c0.4-0.1,0.9-0.2,1.2-0.3c1.2-0.3,2.4-0.7,3.8-0.5c2.1,0.3,3,0.9,3.1,2.4c3.7-2.7,10.6,1.2,10.1,5.9c-0.2,1.3,0.2,2.6-2.1,2.4
			c1.9,1.4,4.2,1.7,5.7,3.1c0-0.6-0.4-1-0.9-1.3c-1.5-0.9-1.6-2-1.3-3.6c1-5.3-3.7-9.8-9-9c-1,0.2-1.8,0-2.7-0.7
			c-2.1-1.7-4.4-1.8-7-0.8c-1.5,0.6-3,1.2-4.9,0.5c-3.7-1.5-8,0.4-9.7,4c-0.6,1.2-1.3,1.8-2.5,2.2c-3,1-5.4,4.3-4.9,7.4
			c0.3,2.2,1.1,4.3,0.6,6.5c-0.2,0.7,0.3,1.5,0.7,2.2c0.4,0.7,0.5,1.4,0.3,2.2c-2,6.4,2,11.6,8.7,11.1c0.9-0.1,1.6-0.1,2.3,0.2
			c0.6,0.2,1.2,0.5,1.7,1.2l0,0l0,0C372.5,299.1,372.5,298.7,372.6,298.4z"/>
		<path fill="#B63C2D" d="M370.7,298.4c0.6,0.2,1.2,0.6,1.7,1.2l0,0C371.9,298.9,371.4,298.5,370.7,298.4z"/>
		<path fill="#B63C2D" d="M395.2,293.8c-1.5-0.5-2.1-0.4-2.2,1.5c-0.2,3.5-5.3,6.2-7.7,3.9c-0.6-0.6-1.4-0.6-2.3-0.4
			c-2.2,0.5-4.5,1.5-6.8,0.3c-1.5-0.8-2.7-0.8-3.7,0.6c2.3,3,6.8,3.2,10,0.4c0.9-0.8,1.5-1.2,2.7-0.4c3.7,2.3,8.5,0.8,10.2-3.2
			c0.3-0.5,0.5-1,0.8-1.5c0.3-0.4,0.8-0.7,1.3-1C396.7,293.9,395.9,294,395.2,293.8z"/>
		<path fill="#B63C2D" d="M396.5,287.4c2.9,1.2,3,3.4,2.3,5.8c1.3-0.6,1.8-1.7,1.7-3c-0.2-1.7,0.4-3,1.2-4.4
			c1.6-2.6,1.2-5.9-0.4-7.9C402.7,281.1,401.2,285.8,396.5,287.4z"/>
		<path fill="#FCD97B" d="M378.9,264c-0.6,0.2-0.3,0.7-0.3,1c-0.1,2.2,0.7,4.2,0.6,6.3c0,0.9-0.3,1.4-1.1,1.7
			c-0.8,0.3-1.2-0.2-1.7-0.6c-0.5-0.5-0.9-1.2-1.8-1.2c-0.3,1.2,0.4,1.8,1.1,2.5c0.4,0.5,1,1.1,0.5,1.7c-0.4,0.8-1.2,0.3-1.9,0.1
			c-0.7-0.3-1.4-0.6-2.2-0.9c-0.5-0.2-1.1-0.5-1.4,0.1c-0.3,0.6,0.5,0.9,0.9,1.1c0.5,0.4,1.1,0.7,1.7,1.1c0.7,0.5,0.7,1,0,1.7
			c-1.4,1.5-3,1.8-4.9,2.2c-0.6,0.1-1.4,0.1-1.7,1c1.3,0.3,2.6,0.2,3.7,0c1.1-0.2,1.9,0.5,2.2,1.4c0.3,0.7,0.9,1.7-0.2,2.4
			c-0.4,0.3-1,0.4-0.7,1c0.3,0.6,1,0.3,1.4,0c1-0.8,1.7-0.1,2.4,0.6c0.7,0.7,0.8,1.2,0.4,2.1c-0.8,2.1-1.4,4.3-2.1,6.6
			c2.1-0.7,1.4-4.3,4.3-3.4c0.1-0.8-0.6-0.6-0.8-1c-0.3-0.8,0-1.7,0.8-1.5c1.1,0.3,2.3,0.3,3.5,0.6c0.9,0.3,0.5,1.5,1,2.2
			c0.1,0.1,0.2,0.1,0.4,0.1c0.3-1.2,0.3-2.4,0-3.7c-0.4-1.9,1.6-1.7,2.3-2.8c0.3-0.5,1,0.4,1.6,0.8c0.7,0.5,1,1.6,2.2,1.6
			c0.3-1.4-1.9-1.9-1-3.1c0.7-1,1.1-2.2,2.8-2.4c-1.1-1-2-1.8-2.8-2.5c1.7-0.3,2.3-2.6,4.7-2.4c-1.7-1.3-3-0.3-4.1-0.7
			c-0.6-0.3-1.6-0.2-0.7-1.3c0.3-0.4,0.5-1,0.1-1.5s-1-0.3-1.5-0.2c-0.3,0.1-0.7,0.5-1,0.2c-0.9-1.3-0.7-2.6-0.3-4.1
			c0.3-1.1,1-1.1,2-1c-1.3-1-1.3-2.3-0.8-3.9c-1.7,2.1-2.4,4.2-3.7,5.9c-0.3,0.4-0.8,1-1.3,0.7c-0.6-0.3-0.3-1-0.3-1.7
			c0.1-0.3,0.3-0.4,0.5-0.6c0.3-0.3,1-0.3,0.9-0.9c-0.2-0.6-0.7-0.5-1.2-0.4c-1,0.2-1.3-0.4-1.5-1.2c-0.3-1.2-0.5-2.4-0.8-3.7l0,0
			C379.1,264.4,378.9,264,378.9,264z"/>
	</g>
	<path fill="#522621" d="M408.4,235.9c-1.1-1-1.4-2.1-0.6-3.6c1.5-2.9,0.9-4.3-2.2-4.9c-1.6-0.3-1.9-0.7-2.2-2.3
		c-0.5-3.4-4-6.3-7-6.3c-4.1,0.1-6.9,2.6-7.7,6.9c-0.6,3,1.4,6.8,4.5,8.3c3.7,1.8,3.7,1.8,0.9,4.7c-1.1,1.2-1.2,2.6-0.5,4
		c0.8,1.4,1.9,1.8,3.4,1.2c1-0.4,1.8-0.3,2.7,0.3c1,0.8,2.3,1,3.7,1c0.9-0.2,1.7-0.2,2.6-0.4c3-0.7,3.4-3.4,4.3-5.6
		C411.1,237.3,409.4,236.7,408.4,235.9z"/>
	<path fill="#522621" d="M406.6,213.2c-1.5-0.3-2.3-1.1-2.3-2.8c-0.2-3.2-1.5-4.2-4.3-3c-1.5,0.5-2,0.3-3-0.9
		c-2.2-2.6-6.7-3.4-9.2-1.8c-3.4,2.2-4.6,5.7-3.2,9.8c1,2.9,4.7,5.1,8.1,4.9c4.1-0.3,4.1-0.3,3.2,3.6c-0.3,1.7,0.3,2.9,1.6,3.7
		c1.3,0.8,2.6,0.6,3.6-0.7c0.6-0.9,1.5-1.1,2.5-1c1.3,0.1,2.4-0.4,3.6-1c0.7-0.5,1.4-1,2-1.7c2.2-2.1,1.1-4.7,0.9-7.1
		C409.7,213.1,408,213.4,406.6,213.2z"/>
	<path fill="none" d="M371.6,224.5c0-0.5,0-1,0-1.5C371.5,223.5,371.5,224,371.6,224.5c0.3,1,0.3,2.2,0.4,3.2
		C372,226.6,372,225.5,371.6,224.5z"/>
	<path fill="#F76C3B" d="M378.2,223.1c-2,0.1-3.8,1-5.7,1.5c0.7,3.7,1.1,7.3,2.5,10.8c0.3,0.8,0.7,1,1.4,0.6
		c0.8-0.4,1.4-0.9,1.8-1.7c1.1-2.3,2.3-4.6,3.9-6.8c-0.7,2.6-1.5,5.2-2.2,7.9c-0.2,0.5-0.4,1.1-0.3,1.7c0.2,1-0.3,2.3,2.1,1.8
		c2.1-0.5,4.1-1,5.8-2.3c0.3-0.3,0.7-0.4,1,0c0.3,0.3-0.1,0.5-0.3,0.7c-1.3,1-2.6,2.1-3.9,3.2c-0.4,0.3-1.4,0.7-1,1.3
		c0.4,0.8,1.2,1.3,2.3,1.1c3.7-0.6,7.6-0.3,11.4-1c0.3,0,0.5,0,0.7,0.6c-1.5,0-2.4,1-4,1.2c-2.3,0.3-4.6,0.4-6.9,0.9
		c-1.1,0.2-2.3,0.7-2.4,1.7c-0.2,1,0.7,2.1,1.8,2.7c0.8,0.4,1.6,0.9,2.3,1.3c0.3,0.2,0.7,0.4,0.6,0.9c-0.3,0.6-0.7,0.3-1.1,0.2
		c-0.2,0-0.3-0.1-0.5-0.2c-1.7-1-3.1-0.6-4.6,0.9c-0.8,0.8-0.7,1.1-0.2,1.8c0.7,1,1.6,1.8,2.3,2.8c0.3,0.4,0.7,1.1,0.1,1.5
		c-0.5,0.3-1-0.3-1.2-0.6c-0.9-1-1.7-2-2.6-3c-0.4-0.5-0.7-1.7-1.7-1c-1,0.7-2.5,1-1.9,3c0.8,2.4-0.3,5,0.3,7.4
		c-0.2,0-0.4,0.1-0.6,0.1c-0.3-1-0.8-2-1-3c-0.3-2.3-2.1-2.6-3.8-3c-1.6-0.3-1.9,1.1-2.5,2.1c-1,1.8-1.9,3.7-3,5.5
		c-0.1,0.2-0.2,0.6-0.3,0.9c-0.2,0.3-0.5,0.3-1-0.3c-0.5,0.6-0.7,1.4-1,2.1c-0.2,0.7-0.3,1.5-0.5,2.3c0,0.1,0.1,0.1,0.2,0.2
		c1.4-2.3,3.1-1.8,5-0.7c2.9,1.7,5.6-0.3,8.4-0.4c0.3,0,0.6-0.4,0.7-0.8c0-0.4-0.3-1,0.3-1.1c0.5-0.1,0.7,0.3,1,0.7
		c1.6,2,3.5,3.3,6.2,2.4c3-1,5.3-3,5.3-6.3c0-2.3,0.7-2.1,2.3-1.5c1.8,0.6,4.4-0.3,5.2-1.7c1-1.7,0.5-3.8-1.1-5.5
		c-0.5-0.5-1.1-1-1.9-1.6c3-0.5,5-2.3,6.2-5c2.5-5.5-0.8-10.4-6.8-10.4c-1.5,0-2.9,0.7-4.3,0.2c-0.4-0.2-1-0.2-1-0.8
		c0-0.6,0.6-0.5,1-0.6c1.3-0.3,2.7-0.3,3.9-0.1c1.8,0.4,2.1-0.7,2.3-1.9c0.7-5.3-4-11.6-11.6-9c-0.8,0.3-1.6,0.7-2.4,1.1
		c-0.5-1.8,1-2.7,1.5-4c-0.1-0.1-0.2-0.2-0.3-0.3l0,0C382.4,224.3,380.3,223,378.2,223.1z"/>
	<path fill="#F76C3B" d="M384.4,223.1L384.4,223.1L384.4,223.1z"/>
	<path fill="#B63C2D" d="M365.6,265.9c-0.5,0.6-0.7,1.4-1,2.1C364.9,267.3,365.2,266.5,365.6,265.9L365.6,265.9z"/>
	<path fill="#B63C2D" d="M383.2,227.3c0.9-0.3,1.7-0.8,2.4-1.1c7.6-2.7,12.3,3.7,11.6,9c-0.2,1.2-0.4,2.3-2.3,1.9
		c-1.3-0.3-2.6-0.2-3.9,0.1c-0.4,0.1-1,0.1-1,0.6c0,0.5,0.5,0.6,1,0.8c1.5,0.5,2.9-0.2,4.3-0.2c6,0.1,9.3,5,6.8,10.4
		c-1.2,2.6-3,4.4-6.2,5c0.8,0.7,1.4,1.1,1.9,1.6c1.7,1.7,2.1,3.7,1.1,5.5c-0.7,1.3-3.4,2.3-5.2,1.7c-1.7-0.6-2.3-0.9-2.3,1.5
		c-0.1,3.3-2.3,5.3-5.3,6.3c-2.7,0.9-4.6-0.4-6.2-2.4c-0.3-0.3-0.5-0.8-1-0.7c-0.6,0.2-0.3,0.7-0.3,1.1s-0.3,0.8-0.7,0.8
		c-2.8,0.2-5.6,2.1-8.4,0.4c-1.9-1.1-3.7-1.7-5,0.7c3.5,4.1,9.8,4,13.7-0.2c0.8-0.8,1.2-1.1,2.3-0.3c5.3,3.7,12.4,1.3,14.5-4.9
		c0.3-0.9,0.7-1.3,1.6-1.6c3.6-1,5.2-3.5,4.8-7.2c-0.1-1,0.2-1.7,0.7-2.6c3.4-5,2.8-10.6-1.7-14.3c-1.3-1-1.5-1.9-1.1-3.5
		c1.7-7.2-4.1-13.5-11.5-12.6c-0.5,0.1-1,0.2-1.5,0.3c-0.5,0.1-1,0.1-1.5,0l0,0C384.2,224.7,382.7,225.5,383.2,227.3z"/>
	<path fill="#B63C2D" d="M386.2,223.3c-0.5,0.1-1,0.1-1.5,0l0,0C385.2,223.4,385.7,223.4,386.2,223.3z"/>
	<path fill="#522621" d="M353.5,266.2c-3.1-0.4-4.2-1.6-4.1-4.7c0.1-2.6-3.5-5-6.3-5c-3,0.2-4.7,2.1-4.7,5.6c0,0.3-0.2,1.2,0.3,1.7
		c1.7,2.1,2.3,4.5,3.1,7c0.1,0.3,0.4,0.6,0.7,0.9c2,1.7,3.6,3.7,4.9,6c1.1,2,3,2.5,5.2,2.2c3.3-0.5,6-3.7,6.2-7
		C358.9,270.1,356.7,266.7,353.5,266.2z"/>
	<path fill="#522621" d="M347.9,227.3c-1.6-1.6-5-1.7-6.8,0.5c-2.8,3.4-6.3,6-8.5,9.8c-2.8,4.9,0.3,10.9,5.7,10.9
		c5.6,0,8.8-3.7,8.1-9.5c-0.2-1.7-0.2-3,1.2-4.3C349.4,233.1,349.3,228.8,347.9,227.3z"/>
	<path fill="#522621" d="M321.9,242.7c-2.1,0.9-3.5,3.9-2.1,6.5c2.1,3.8,3.1,8.2,5.8,11.6c3.5,4.4,10.2,3.8,12.3-1.1
		c2.1-5.1,0-9.5-5.6-11.1c-1.7-0.4-2.8-1-3.5-2.8C327.8,243.5,323.8,241.9,321.9,242.7z"/>
	<path fill="#522621" d="M402.1,261.2c-2.9-1.6-7.4-1.1-9,1.7c-1.7,3.2-3.6,4.8-7.5,4.6c-2.3-0.1-3.7,2.3-3.8,4.8
		c-0.1,1.7,0.3,3.3,2.4,3.7c2.2,0.5,4.5,0.8,6.5-0.5c2.2-1.4,4.2-2.8,6.9-1.8c1.9,0.5,3.1-0.3,4.3-1.7c0.3-0.4,1.3-1,1.7-0.9
		c1.6,0.4,1.7-0.7,1.9-1.6C406.6,266.3,405.2,262.8,402.1,261.2z"/>
	<path fill="#522621" d="M391.1,299.5c-2.9-1.6-7.4-1.1-9,1.7c-1.7,3.2-3.6,4.8-7.5,4.6c-2.3-0.1-3.7,2.3-3.8,4.8
		c-0.1,1.7,0.3,3.3,2.4,3.7c2.2,0.5,4.5,0.8,6.5-0.5c2.2-1.4,4.2-2.8,6.9-1.8c1.9,0.5,3.1-0.3,4.3-1.7c0.3-0.4,1.3-1,1.7-0.9
		c1.6,0.4,1.7-0.7,1.9-1.6C395.5,304.4,394.1,301.1,391.1,299.5z"/>
	<path fill="#522621" d="M382,218.3c0-3.5-3-6-7-6c-5.5,0-6.3,0.9-6.3,6.3c0,3.7,2.2,5.7,6.3,5.8C378.7,224.4,382,221.6,382,218.3z"
		/>
	<path fill="#B63C2D" d="M372.5,224.6c1.9-0.5,3.7-1.4,5.7-1.5c2.1-0.1,4.1,1.3,6.2,0c-0.4-0.7-1.1-1.3-1.8-1.7
		c-0.5-0.3-1-0.6-1.6-0.8c-2.3-0.8-5-0.3-7.2,1.3c-0.5,0.4-1,1-1.7,1l0,0C371.9,223.4,372.5,223.9,372.5,224.6z"/>
	<path fill="#B63C2D" d="M384.4,223.1c-0.4-0.7-1.1-1.3-1.8-1.7C383.3,221.7,384,222.3,384.4,223.1L384.4,223.1z"/>
	<path fill="#B63C2D" d="M373.8,221.8c-0.5,0.4-1,1-1.7,1l0,0C372.8,222.8,373.3,222.1,373.8,221.8z"/>
	<path fill="#522621" d="M355.2,221c-3.2-0.2-5.1,1.1-5.2,3.7c-0.1,3.6,1.4,5.4,4.4,5.5c3.1,0.1,5.3-1.7,5.4-4.3
		C360,223,358.1,221.2,355.2,221z"/>
	<path fill="#522621" d="M360.8,265.3c-1.8,0.1-3,0.9-3,2.7c-0.1,2.2,1.4,3.1,3.2,3.3c2.2,0.2,2.6-1.8,2.8-3.3
		C363.9,266.2,362.3,265.6,360.8,265.3z"/>
	<path fill="#522621" d="M362.7,273.4c-1.8,0.1-3,0.9-3,2.7c-0.1,2.2,1.4,3.1,3.2,3.3c2.2,0.2,2.6-1.8,2.8-3.3
		C365.8,274.3,364.2,273.7,362.7,273.4z"/>
	<path fill="#522621" d="M351.7,281.9c-1.8,0.1-3,0.9-3,2.7c-0.1,2.2,1.4,3.1,3.2,3.3c2.2,0.2,2.6-1.8,2.8-3.3
		C354.9,282.8,353.4,282.2,351.7,281.9z"/>
	<path fill="#FCD97B" d="M371.6,224.5c0.3,1,0.3,2.2,0.4,3.2c0,1.1,0,2.2,0.3,3.3c0.2,0.7,0.2,1.5,0.3,2.3c0.3,2.2-0.1,2.9-2.2,3.5
		c-0.6,0.2-1-0.1-1.3-0.5c-0.4-0.6-1-1-1.8-1.4c-0.3,2.3,2.5,3.2,1.9,5.4c-2.2,0.3-4.1-0.6-6.1-1.4c-0.5-0.2-1.1-0.5-1.5,0.2
		c-0.3,0.5,0.3,0.9,0.7,1.1c0.2,0.2,0.4,0.3,0.6,0.4c0.8,0.9,3,1.2,2.5,2.3c-0.8,1.4-1.9,2.9-3.9,3.4c-3,0.9-6.3,1.1-9.8,2.3
		c2.8,0.5,5-0.3,7.1-0.2c1.1,0,2.4-0.3,2.3,2.3c1-1.5,1.5-3,3-1.8c1,0.7,1,2.9,0.1,4c-0.4,0.5-0.9,1-1.4,1.6c-0.3,0.3-1.2,0.3-0.7,1
		c0.3,0.4,1,0.1,1.4-0.2c0.8-0.3,1.7-0.7,2.3-1.2c1.1-0.9,2-0.2,2.9,0.3c1,0.6,0.5,1.5,0.3,2.2c-0.7,2.3-1.5,4.5-2.2,6.8
		c-0.3,1-0.7,1.9-1,2.9c0.5,0.6,0.8,0.5,1,0.3c0.2-0.3,0.3-0.7,0.3-0.9c1-1.8,1.9-3.7,3-5.5c0.5-1,0.9-2.3,2.5-2.1
		c1.7,0.3,3.5,0.7,3.8,3c0.2,1,0.6,2,1,3c0.2,0,0.4-0.1,0.6-0.1c-0.7-2.5,0.4-5-0.3-7.4c-0.6-1.9,1-2.3,1.9-3c1-0.7,1.2,0.4,1.7,1
		c0.9,1,1.7,2,2.6,3c0.3,0.3,0.8,1,1.2,0.6c0.6-0.4,0.3-1-0.1-1.5c-0.7-1-1.5-1.8-2.3-2.8c-0.5-0.6-0.6-1,0.2-1.8
		c1.5-1.4,2.9-1.8,4.6-0.9c0.2,0.1,0.3,0.1,0.5,0.2c0.4,0.1,0.9,0.3,1.1-0.2c0.2-0.4-0.3-0.7-0.6-0.9c-0.8-0.4-1.6-0.9-2.3-1.3
		c-1-0.6-1.9-1.6-1.8-2.7c0.1-1,1.3-1.6,2.4-1.7c2.3-0.4,4.6-0.5,6.9-0.9c1.6-0.2,2.5-1.2,4-1.2c-0.2-0.5-0.4-0.6-0.7-0.6
		c-3.7,0.7-7.6,0.4-11.4,1c-1.1,0.2-1.9-0.3-2.3-1.1c-0.4-0.7,0.5-1,1-1.3c1.3-1,2.6-2.2,3.9-3.2c0.3-0.2,0.6-0.3,0.3-0.7
		c-0.3-0.4-0.6-0.3-1,0c-1.7,1.2-3.7,1.7-5.8,2.3c-2.3,0.6-1.8-0.8-2.1-1.8c-0.1-0.5,0.2-1.1,0.3-1.7c0.7-2.6,1.5-5.2,2.2-7.9
		c-1.6,2.2-2.8,4.4-3.9,6.8c-0.4,0.9-1,1.4-1.8,1.7c-0.7,0.3-1,0.3-1.4-0.6c-1.4-3.5-1.9-7.1-2.5-10.8c0-0.6-0.6-1.1-0.4-1.7
		c-0.1-0.4-0.2-0.9-0.3-1.2c-0.2,0.5-0.2,1-0.3,1.5C371.5,223.5,371.5,224,371.6,224.5z"/>
	<rect x="329" y="197.4" fill="none" width="86.1" height="80"/>
	<path fill="none" d="M375.3,225.2c-0.5-0.1-1.1,0.1-1.6,0.7c-0.1,0.1-0.1,0.1-0.1,0.2c0-0.1,0-0.1,0.1-0.2
		C374.2,225.3,374.7,225.1,375.3,225.2z"/>
	<path fill="none" d="M396,265.1c0.4-0.1,0.8-0.3,1.2-0.3C396.7,264.8,396.4,264.9,396,265.1L396,265.1z"/>
	<path fill="none" d="M383.4,229c0.2-0.2,0.3-0.3,0.3-0.5C383.7,228.6,383.6,228.8,383.4,229L383.4,229z"/>
	<path fill="none" d="M382.9,225.2c0.8-0.8,1.6-1.6,2.6-2.1C384.5,223.6,383.7,224.5,382.9,225.2z"/>
	<path fill="#B63C2D" d="M362.1,264.2c-0.4-0.5-1.1-1.2-1-1.7c0.3-3.4-2.5-5.6-3-8.6c-0.1-0.5-0.3-1-0.6-1.4c-1.7-1.8-1.6-4-1.1-6.2
		c0.2-0.9,0.2-1.7-0.1-2.6c-1.7-5.6,1.7-10.1,7.6-9.9c1,0,1.7-0.2,2-1c0.9-2.2,2.7-2.7,4.8-3s3-1.5,3-3.6c-0.9,0.3-1.7,0.3-2.6,0.3
		s-1.7-0.3-2.6-0.8c-3.4-1.7-10.8-0.1-12.6,4.2c-0.5,1.3-1.4,2.4-2.1,3.7c-0.3,0.3-0.6,0.8-1,1.1c-0.7,2.7-0.1,5.4,0.1,8.2
		c0,0.5,0.5,1.1,0.2,1.7c-2.1,2.5-0.3,4.9,0.5,7.1c0.3,0.9,0.3,1.4-0.2,2.1c-3.2,5-2.4,9.1,2.3,12.6c0.6,0.4,1.2,1,1.8,1.5
		c0.7,0.1,1.4,0.1,2.2,0.2c0.3-0.3,0.5-0.5,1-0.3l0,0c0.9-0.3,1.8-0.6,2.7-1l0,0c0.3-0.1,0.5-0.1,0.9-0.2
		C363.5,265.7,362.8,265,362.1,264.2z"/>
	<path fill="#B63C2D" d="M360.7,267.6L360.7,267.6L360.7,267.6c0.9-0.3,1.8-0.6,2.7-1l0,0C362.5,267,361.5,267.3,360.7,267.6z"/>
	<path fill="#B63C2D" d="M394.5,230.7c-0.1-2.6-1.7-4.3-3.6-5.8c-1.1-0.9-1.9-2-3.7-2.1c-0.6,0-1.2,0.1-1.7,0.3
		c-1,0.4-1.8,1.3-2.6,2.1c-0.3,0.3-0.6,0.5-1,0.8c0.1,0.3,0.3,0.6,0.5,0.8c0.3,0.2,0.5,0.3,0.8,0.5c0.2,0.1,0.3,0.3,0.3,0.3
		c0.3,0.3,0.3,0.5,0.3,0.9c-0.1,0.2-0.2,0.3-0.3,0.5c0.2,0.5,0.3,1.1,0.4,1.7c1-0.2,2-0.3,3-0.4c2.3-0.3,5.2,1.1,6.4,3
		c0.8,1.3-0.1,2.5-0.2,3.7c-0.1,1,0.1,1.4,1.2,1.5c2.8,0.2,3.5,1.1,3.1,4c-0.2,1.7,0.7,3.1,2.2,3.4c1.2-0.3,2.2-1.2,2.9-2.3
		c0.6-1.1,1-2.5,0.7-3.9c-0.3-1.6-0.9-3-1.5-4.5c-1.2-0.8-2.3-1.9-3.8-2.2c-0.4,0.2-0.8-0.1-1-0.3l0,0c-0.2,0-0.4-0.1-0.6-0.1
		C395.2,232.5,394.5,232,394.5,230.7z"/>
	<path fill="#522621" d="M368.4,225.7c0.9,0.4,1.7,0.7,2.6,0.8s1.7,0,2.6-0.3v-0.1c0-0.1,0-0.1,0.1-0.2c0.4-0.7,1-0.8,1.6-0.7
		c0.2,0,0.3,0.1,0.5,0.1c0.3,0.1,0.5,0.2,0.8,0.3c1.8-0.3,3.6,0,5.3,0.4c0.3-0.3,0.6-0.5,1-0.8c0.8-0.8,1.6-1.7,2.6-2.1
		c0.5-0.2,1-0.3,1.7-0.3c1.7,0.1,2.6,1.2,3.7,2.1c1.9,1.5,3.5,3.2,3.6,5.8c0,1.2,0.7,1.7,1.8,1.7c0-2.4,0-4.8-1.7-7
		c-3.4-4.4-9.8-4.9-13.3-2.2c-0.8,0.6-1.4,0.6-2.3,0.1c-2.6-1.7-5.3-1.2-7.6,0.5c-1.3,1-2.2,0.9-3.4,0.2c-3.3-1.7-6.6-1.8-9.9,0.2
		c-3.2,1.9-5.4,6.3-4.4,9.4c0.7-1.2,1.6-2.3,2.1-3.7C357.6,225.6,365.1,224,368.4,225.7z"/>
	<path fill="#522621" d="M371,226.5c0.9,0.1,1.7,0,2.6-0.3l0,0C372.8,226.4,371.9,226.5,371,226.5z"/>
	<path fill="#522621" d="M382.9,225.2c-0.3,0.3-0.6,0.5-1,0.8l0,0C382.3,225.8,382.6,225.5,382.9,225.2z"/>
	<path fill="#522621" d="M355.4,253.6c0.5-0.8,0.5-1.3,0.2-2.3c-1-2.4-2.8-5-0.6-7.6c0.4-0.5-0.2-1.2-0.2-1.8
		c-0.2-3-0.9-5.8-0.1-8.8c-2,1.1-3,3-3.2,5.2c-0.3,3.4,0.5,6.8-0.3,10.2c-0.2,0.6,0.1,1.4,0.3,2c0.5,1.2,0.3,2.3-0.3,3.6
		c-1.9,4.2-1.3,8.2,1.7,11.6c1.7,2,4,3.7,7,3.1c-0.6-0.5-1.3-1-1.9-1.6C352.8,263.4,351.9,259,355.4,253.6z"/>
	<path fill="#522621" d="M390.7,304.5c-0.2,1.2-1,2.2-1.9,3c-0.9,0.8-2,1.5-2.8,2.3c-2.1,2.3-5.7,2.9-8.3,1c0.4-0.6,1.2-0.1,1.7-0.5
		c-0.1-0.1-0.1-0.1-0.2-0.2c-1.8-1-4.3-1.2-4.7-3.9c-0.1-0.4-1.1-1.3-1.9-0.7c-0.5,0.4-1,0.7-1.5,0.8c-0.4,0.1-1,0.1-1.4,0
		c-0.9-0.2-1.7-0.7-2.5-1.1l-0.1-0.1c-1,0.2-1.9,0.2-2.9,0c-1-0.2-1.9-0.4-2.8-0.8c-0.3,0.1-0.5,0.1-0.9,0.2l0,0
		c0.3,0.1,0.5,0.3,0.8,0.4s0.4,0.3,0.6,0.6c2.7,3.5,6.2,4.3,10.3,3c0.9-0.3,1.4,0,2,0.7c1,1.2,1.9,2.3,3.4,3c6.7,3,13-0.1,14.6-7.2
		c0.2-0.6,0.3-1.3,0.7-1.7c0.1-0.1,0.1-0.2,0.2-0.3l0,0C391.9,302.8,390.9,303,390.7,304.5z"/>
	<path fill="#522621" d="M395.8,265.3c-0.4,0.5-0.6,1.1-0.7,1.7C395.2,266.5,395.3,265.8,395.8,265.3z"/>
	<path fill="#522621" d="M364.2,266.5c-0.3,0.1-0.5,0.1-0.9,0.2l0,0C363.6,266.5,364,266.5,364.2,266.5z"/>
	<path fill="#522621" d="M359.7,267.9c0.2,0.1,0.3,0.1,0.5,0c0.2-0.1,0.3-0.2,0.4-0.3C360.2,267.3,360,267.5,359.7,267.9z"/>
	<path fill="#522621" d="M360.2,267.9c0.2-0.1,0.3-0.2,0.4-0.3l0,0C360.5,267.8,360.4,267.9,360.2,267.9z"/>
	<path fill="#F76C3B" d="M399.7,245.8c-1.4-0.3-2.3-1.7-2.2-3.4c0.3-2.9-0.3-3.8-3.1-4c-1.1-0.1-1.3-0.4-1.2-1.5
		c0.1-1.2,1-2.3,0.2-3.7c-1.2-2-4.1-3.5-6.4-3c-1,0.2-2,0.3-3,0.4c-2.3,1.7-2.9,5.6-1,7.8c0.4,0.5,0.8,0.2,1.2,0
		c0.8-0.3,1.7-0.6,2.3,0.1c0.5,0.6,0.1,1.5-0.3,2.1c-0.9,1.1,0,1.6,0.9,1.9c1.6,0.7,3.1-0.4,4.9,0.2c-0.8,0.6-1.7,0.7-2.3,1
		c-1.8,1.1-3.9,0.3-5.7,1c-0.5,0.2-1.4,0-1.3,0.8c0,0.6,0.8,0.5,1.3,0.6c0.8,0.2,1.7,0.3,2.4,0.6c1.6,0.4,2.3,2.1,1.1,3.2
		c-2.3,2.4-2.3,4.4,0.3,6.4c0.3,0.3,0.6,0.6,0.5,1.5c-1.7-0.8-2.5-2.2-3.7-3.2c-0.6-0.5-1-1.7-1.9-1.3c-1,0.4-2.2,1-2.6,2.1
		c-1.2,3.4-1.1,3.4-4.4,2.6c-0.3-0.1-0.5-0.2-0.7-0.3c-0.9-0.3-1.4-1.7-2.5-1c-0.8,0.4-0.8,1.6-1,2.4c-0.6,1.7-1.9,3.1-2.1,5.1
		c0,0.4-0.9,1-1.3,0.7c-0.3-0.3-0.7-1.1-0.3-1.6c1.7-1.8,1.7-4.3,2.8-6.3c0.9-1.6,0-4-2-4.5c-2-0.5-2.2-2-2.3-3.2
		c-0.1-1.8-1-2.1-2.5-2.1c-1.6,0-3.1,0-4.6,0c-0.1,0-0.2-0.2-0.3-0.3c1.5-0.8,3.1-0.8,4.6-1c2.3-0.3,3.1-2.3,4.9-3.2
		c0.5-0.3,0.1-1-0.4-1.4c-0.8-0.5-1.6-1.1-2.7-1.9c2.1-0.3,3.4,0.6,4.8,0.9c1.7,0.3,1.3-0.3,1.2-1.2c-0.1-1-0.3-1.8-1.1-2.6
		c-0.7-0.7-1.3-1.5-1.8-2.8c1.3,0.6,1.8,1.4,2.3,2.2c0.8,1.2,1.8,1,2.9,0.5s1.5-1.1,1.3-2.3c-0.2-1.2-0.2-2.5,0-3.8
		c1,1,1.2,2.3,1.4,3.7c0.2,1.2,0.6,1.3,1.8,1c2.9-0.8,3.7-2.9,3.9-5.2c0.2-1.4,1-0.9,1.7-0.9c0.2-0.2,0.3-0.3,0.3-0.5
		c0.1-0.3,0-0.6-0.3-0.9c-0.1-0.1-0.3-0.3-0.3-0.3c-0.3-0.2-0.5-0.3-0.8-0.5c-0.3-0.2-0.4-0.4-0.5-0.8l0,0c-1.7-0.5-3.5-0.8-5.3-0.4
		c-0.8,1.1-1.7,1.8-2.9,0.4c-0.1,0.1-0.1,0.1-0.1,0.2v0.1c0,2.2-1,3.3-3,3.6c-2.1,0.3-3.9,0.8-4.8,3c-0.3,0.9-1,1-2,1
		c-5.9-0.2-9.3,4.3-7.6,9.9c0.3,0.9,0.3,1.7,0.1,2.6c-0.4,2.2-0.5,4.3,1.1,6.2c0.3,0.3,0.5,0.9,0.6,1.4c0.5,3,3.4,5.3,3,8.6
		c-0.1,0.5,0.6,1.2,1,1.7c0.6,0.8,1.4,1.5,2.1,2.3l0,0c1,0.3,1.8,0.6,2.8,0.8c1,0.2,1.9,0.2,2.9,0l0,0c1.1-0.9,2.4-1.3,3.4-2.5
		c0.5-0.7,1.4-1,2.4-0.5c2.6,1.4,5.1,1,7.3-0.9c0.6-0.5,1.3-0.9,2.1-0.3c2.3,1.7,4.7,0.7,6.8-0.3c2.3-1,5-4.7,3.8-7.6
		c-0.4-0.9-0.4-1.5-0.2-1.9c0.3-0.4,0.9-0.7,1.7-0.9c0.2-0.3,0.3-0.8,0.5-1.1c0.2-0.3-0.1-0.8,0.5-0.9c0.8-0.2,1.5-0.3,1.9-0.6
		c0.3-0.2,0.6-0.4,0.8-0.7c0.2-0.3,0.2-0.5,0.2-0.9C401,247.5,400.6,246.7,399.7,245.8L399.7,245.8z"/>
	<path fill="#F76C3B" d="M362.1,264.2c0.6,0.8,1.4,1.5,2.1,2.3l0,0C363.5,265.7,362.8,265,362.1,264.2z"/>
	<path fill="#F76C3B" d="M397.2,252.3L397.2,252.3c-0.9,0.2-1.4,0.4-1.7,0.9C395.8,252.7,396.3,252.5,397.2,252.3z"/>
	<path fill="#F76C3B" d="M382.4,226.7c-0.3-0.2-0.4-0.4-0.5-0.8l0,0l0,0C382,226.4,382.2,226.6,382.4,226.7z"/>
	<path fill="#F76C3B" d="M383.5,227.7c0.3,0.3,0.3,0.5,0.3,0.9C383.9,228.2,383.8,228,383.5,227.7z"/>
	<path fill="#F76C3B" d="M373.6,226.1L373.6,226.1C373.6,226.1,373.7,226.1,373.6,226.1C373.7,226.1,373.6,226.1,373.6,226.1z"/>
	<path fill="#F76C3B" d="M367,267.2c1,0.2,1.9,0.2,2.9,0l0,0C368.9,267.3,368,267.3,367,267.2z"/>
	<path fill="#FCD97B" d="M383.8,224.3c-0.3,3,0.9-4.8-2.7-3.8c-1.6,0.4-4.3,10.9-4.6,9.3c-0.3-1.7-2.3-32.3-3.5-33.7
		c-0.2,1.7,1.6,32.3,1.7,33.9c0.2,1.5-0.3,2.3-1.7,2.9c-1.4,0.5-2.7,0.8-3.7-0.7c-0.7-1-19.9-29.3-21.6-30.1
		c0.6,1.7,20,30.1,20.9,30.9c1,1,1.3,2.1,1.4,3.3c0.1,1,0.5,2-1.6,1.6c-1.7-0.3-43.6-15-46.2-14.4c1.5,1,42.6,15.1,43.5,15.8
		c0.7,0.5-17.4-4.8-18.1-4.4c-2.2,1.2,15.4,10.1,12.4,10.4c-1.9,0.3-24.3-2.3-26.2-1.2c0.3,0.3,20.9,3,20.8,3
		c-13.7,2.9-30.5,6.3,5.9,0c1.8-0.3,3,0.3,3.2,2.6c0.1,1.7,0.4,3.5,3,4.2c2.5,0.7,3.7,3.7,2.5,5.8c-1.4,2.6-1.5,5.7-3.6,8
		c-0.5,0.6-0.2,1.7,0.3,2c0.6,0.4,1.7-0.3,1.7-0.9c0.2-2.5,1.9-4.3,2.7-6.5c0.3-1,0.3-2.4,1.3-3c1.4-0.9,2.1,1,3.2,1.3
		c0.3,0.1,0.6,0.3,1,0.3c4.2,1,11.2,21.7,12.8,17.4c0.5-1.5-5-22.8-3.8-23.4c1.2-0.6,1.7,0.9,2.4,1.7c1.5,1.4,2.6,3.1,4.7,4.2
		c0.2-1-0.3-1.6-0.7-1.9c-3.5-2.6-3.5-5.2-0.4-8.3c1.5-1.5,0.5-3.6-1.5-4.2c-1-0.3-2.1-0.5-3.1-0.8c-0.6-0.2-1.7,0-1.7-0.8
		c-0.1-1,1.1-0.8,1.7-1c2.3-0.7,5,0.3,7.4-1.2c0.8-0.5,20.6-8,21.6-8.8c-2.3-0.8-22.9,8-24.9,7.1c-1.1-0.5,14.3-11.7,15.4-13.3
		c0.6-0.9-15.4,9-16,8.1c-0.8-1,15.6-17.6,14.6-17.1c-0.5,0.2-18.5,17.6-19.1,16.9c-2.3-2.7-1.7-7.7,1.4-10
		c-0.2-0.7-0.3-1.4-0.5-2.1l0,0l13.7-33.5C398.7,189.7,384,222.6,383.8,224.3z M382.7,244.8c-0.8,1.4-1,3.3-3.2,3.6
		c-0.7,0.1-1.6,0.7-2,1.4c-0.8,1.3-2,1.6-3.4,1.5c-1.3,0.5-1.5-0.1-1.7-1.3c-0.3-2.1,0.3-4.3-0.3-6.3c-0.3-0.7,0.3-1.3,0.8-1.7
		c1-0.9,8.3-0.9,9.3,0.1C382.9,242.6,383.2,243.9,382.7,244.8z"/>
	<path fill="#FCD97B" d="M383.9,230.6c-0.2-0.5-0.3-1.1-0.4-1.7l0,0C383.5,229.6,383.7,230.1,383.9,230.6z"/>
	<path fill="#B63C2D" d="M373.8,225.9c1.2,1.5,2.1,0.7,2.9-0.4c-0.3-0.1-0.5-0.2-0.8-0.3c-0.2-0.1-0.3-0.1-0.5-0.1
		C374.7,225.1,374.2,225.3,373.8,225.9z"/>
	<path fill="#29101D" d="M373.3,243.6c-0.3,0.3-0.8,0.8-0.6,1.3c0.5,1.7,0,3.3,0.3,5c0.2,1,0.3,1.5,1.3,1c1.1,0.1,2-0.1,2.6-1.1
		c0.3-0.5,1-1,1.6-1c1.7-0.2,1.9-1.7,2.5-2.8c0.4-0.7,0.2-1.7-0.4-2.3C379.8,242.9,374.1,242.9,373.3,243.6z"/>
	<circle fill="#FCD97B" cx="317.8" cy="212.2" r="2"/>
	<circle fill="#FCD97B" cx="348.2" cy="216.3" r="2"/>
	<circle fill="#FCD97B" cx="416.5" cy="243.3" r="1.9"/>
	<circle fill="#FCD97B" cx="413.5" cy="220.3" r="1.4"/>
	<circle fill="#FCD97B" cx="408.6" cy="208.7" r="0.7"/>
	<circle fill="#FCD97B" cx="326.8" cy="241.2" r="0.7"/>
	<circle fill="#FCD97B" cx="377.6" cy="270.5" r="2.2"/>
	<circle fill="#FCD97B" cx="352.8" cy="275.2" r="1.2"/>
	<circle fill="#FCD97B" cx="394.2" cy="266.7" r="1.7"/>
	<circle fill="#FCD97B" cx="358.6" cy="255.1" r="1.9"/>
	<circle fill="#FCD97B" cx="400.3" cy="249" r="1.9"/>
	<circle fill="#FCD97B" cx="407" cy="184.1" r="1"/>
	<circle fill="#FCD97B" cx="379.7" cy="190.9" r="1.2"/>
	<circle fill="#FCD97B" cx="411.9" cy="198.8" r="1.5"/>
	<circle fill="#FCD97B" cx="425.4" cy="210.8" r="1.4"/>
	<path fill="#840F1D" d="M374.2,300c-2.8,0.5-1.3,2.7-1.7,4.3c-0.2,1-0.3,1.8-0.5,2.8c-0.4,0-1-0.1-1.4-0.1
		c-0.2-2.1-0.4-4.1-0.6-6.3c-2.8,0.1-5.4,0.2-8.3,0.3c0.1,2.4,0.2,4.5,0.3,6.7c-0.4,0.1-0.9,0.1-1.3,0.2c-0.4-2-1-4-1.5-6.2
		c-2.5,0.1-5,0.2-7.9,0.3c-0.1,2.3-0.1,4.5-0.1,6.8c-0.3,0.1-0.7,0.1-1,0.2c-0.3-1-1-1.9-1-3c-0.1-3.4-0.2-4.1-5.4-3.6
		c-1,0.1-2,0.4-3,0.7c-0.2,2.3-0.3,4.3-0.4,6.4c-0.5,0-1,0-1.5,0c-0.2-1.5-0.4-3-0.4-4.4c0-1.7-0.7-2.3-2.5-2.1
		c-2,0.3-3.9,0.4-6,0.6c0.1,1.9,0.2,3.7,0.1,5.6c0,0.4-0.8,0.8-1.1,1.2c-0.3-0.3-0.9-0.7-1-1.1c-0.2-1.7-0.2-3.4-0.3-5.6
		c-3.1,0.3-5.8,0.4-8.3,0.7c-1.6,2.3,1.4,4.9-0.4,6.7c-0.4-0.1-0.9-0.2-1.3-0.3c-0.4-1.9-1-3.9-1.5-6.2c-2.4,0.2-5,0.3-7.6,0.6
		c-0.2,2.3-0.3,4.4-0.3,6.5c-0.4,0-0.9,0.1-1.2,0.1c-0.3-1.2-0.6-2.3-0.6-3.6c-0.1-4-3.3-2.5-5.6-2.7c-2.7-0.2-3.2,1.1-3,3.2
		c0.2,1.2,0.1,2.5,0.2,4.6c-3.6-2.2-1.5-5-3-7.5c-2.3,0.1-5,0.2-7.6,0.3c0-0.3-0.1-0.8-0.1-1.1c2.5-0.3,5-0.6,7.9-1
		c-0.1-2.3-0.2-4.4-0.2-6.6c0.3-0.1,0.7-0.2,1-0.3c0.3,0.8,1,1.7,1,2.3c-0.3,3.6,1.7,4.4,5.1,3.9c1.1-0.2,2.3-0.1,4.1-0.2
		c-0.1-2.5-0.2-4.8-0.3-7c0.3,0,0.8-0.1,1.1-0.1c0.4,2.3,0.9,4.5,1.4,6.9c2.7-0.3,5.2-0.6,7.9-1c0.2-2.3,0.3-4.4,0.5-6.6
		c0.5,0,1,0,1.5,0c0.3,2.1,0.5,4.2,0.8,6.5c1.7-0.1,3.3-0.1,4.9-0.2c2.9-0.2,3.9-1.4,3.1-4c-0.3-0.9,0.5-2,0.8-3
		c0.5,0.9,1.1,1.7,1.5,2.7c0.3,1,0.3,2.1,0.3,3.3c2.7-0.1,5.2-0.2,8.2-0.3c-0.1-2.3-0.2-4.5-0.3-6.7c0.3-0.1,0.7-0.2,1-0.3
		c0.3,0.6,0.9,1.2,1,1.8c0.6,5.5,0.6,4.5,6,4.4c0.8,0,1.6-0.2,2.8-0.3c0.1-1.2,0.1-2.3,0.1-3.4c0-1-0.1-2.1-0.1-3.8
		c3.3,1.9,1.6,4.9,2.9,7.1c2.4-0.3,5-0.5,7.9-0.9c0.1-2.3,0.1-4.3,0.2-6.4c0.4-0.1,0.9-0.2,1.3-0.3c0.4,2.1,0.9,4.2,1.4,6.7
		c2.5-0.3,5.1-0.5,7.8-0.8c-0.1-2.3-0.2-4.3-0.3-6.8c3.9,1.2,1.6,4.3,3.2,6.5c1.3,0,2.8,0,4.3-0.1l-0.7-9.4
		c-30.4,2.3-60.6,4.7-90.3,7c0.2,6,0.4,11.5,0.5,17c0.1,2.7,1.2,3.7,4.3,3.5c8.3-0.8,16.7-1.5,25.1-2.1c7.6-0.5,15.4-1,23.1-1.5
		c5-0.3,10-0.7,15-1.1c7.9-0.7,15.9-1.4,23.9-2.1l-0.7-9.3C376.3,299.7,375.3,299.8,374.2,300z"/>
	<path fill="#330000" d="M557.7,343.6c-4.2-1.1-8.1-2.4-12.1-3.3c-11.4-2.6-22.8-5-34.2-7.6c-12.3-2.8-24.7-5.8-37.1-8.5
		c-1.2-0.3-2.3-0.5-3.1-0.7l-2,8.6c1.8,0.5,3.7,1,5.6,1.6c0.5-1.8,0.9-3.5,1.4-5c0.2-0.5,0.8-1,1.2-1.4c0.2,0.5,0.6,1,0.6,1.6
		c-0.2,1.7-0.4,3.4-0.8,5.6c2.4,0.4,4.8,0.8,6.9,1.1c3-0.9-0.1-5.6,4.6-5.6c-0.6,2.3-1.1,4-1.7,6.2c2.7,0.7,5,1.4,7.5,2.1
		c0.5-1.9,1-3.6,1.5-5.3c0.2-0.4,0.7-0.6,1.1-1c0.3,0.4,1,1,1,1.4c-0.1,1.6-0.5,3.1-0.8,5c2.4,0.7,4.8,1.3,7.6,2.1
		c0.6-2.2,1.2-4.3,1.7-6.4c0.4,0.1,1,0.1,1.4,0.2c-0.3,2.2-0.4,4.3-0.7,6.8c2.5,0.5,4.9,1,7.4,1.6c0.9-2.3,1.7-4.3,2.3-6.4
		c0.4,0.1,1,0.3,1.4,0.3c-0.3,2.2-0.7,4.3-1.1,7c2.4,0.4,4.9,0.8,7.5,1.2c0.5-2,1-3.7,1.5-5.5c2.2-0.2,2.2-0.2,1.1,5.9
		c2.4,0.7,5,1.4,7.7,2.1c0.2-1.7,0.2-3,0.5-4.1c0.3-0.9,1.1-1.5,1.7-2.2c0.2,0.8,0.6,1.7,0.6,2.4c0,1.2-0.3,2.5-0.5,4.3
		c2.3,0.5,5.1,2,7,1.3c1.5-0.5,1.7-3.7,2.6-6.3c2.6,2.4-0.3,5,0.9,7.4c1.5,0.3,3.3,0.6,5,1.1c0.6,0.2,1,1,1.4,1.4
		c-0.6,0.3-1.3,0.9-1.8,0.8c-1.7-0.3-3.2-0.9-5.2-1.4c-0.8,2.3-1.6,4.4-2.3,6.6c-0.4-0.1-0.8-0.1-1.2-0.2c0.1-2.1,0.3-4.2,0.4-6.6
		c-2.1-0.6-4.4-1.2-7.1-2c-0.8,2.2-1.5,4.3-2.3,6.9c-2.8-2.9,0.4-5-0.8-7.6c-2-0.4-4.4-0.9-7.2-1.5c-0.3,1.7-0.5,3.1-1,4.4
		c-0.2,0.6-1,1-1.5,1.6c-0.3-0.7-0.8-1.4-0.7-2.1c0.2-1.3,0.7-2.6,1-4.1c-2.8-0.8-5.2-1.4-7.8-2.2c-0.6,2.3-1.2,4.3-1.7,6.3
		c-0.3,0-0.8,0-1.1,0c0-2.2-0.1-4.3-0.1-6.7c-2.1-0.6-4.3-1.2-6.7-1.8c-0.9,2.3-1.7,4.3-2.5,6.3c-0.4-0.2-0.9-0.3-1.3-0.4
		c0.3-1.9,0.7-3.8,1.1-6.3c-2.3-0.5-5.2-2-6.9-1.3c-1.7,0.8-2,3.8-3,5.8c-0.4-0.1-0.9-0.2-1.3-0.3c0.3-2.2,0.7-4.3,1-6.9
		c-2.6-0.5-5.1-1-8-1.6c-0.4,2.2-0.8,4.1-1.2,6.1c-2.6,0.2-1.9-1.3-1.7-2.7c0.2-1.3,0.6-3.7,0.2-3.8c-2-0.9-4.3-1.2-6.4-1.5
		c-0.3-0.1-1,1-1.1,1.6c-0.5,1.4-0.9,3-1.2,4.3c-0.4-0.1-0.9-0.1-1.3-0.2c0.1-2.2,0.2-4.3,0.3-6.5c-1.7-0.4-3.4-1-5.1-1.4l-2.1,9
		c3.5,0.7,7,1.7,10.4,2.4c15.6,3.5,31.1,6.9,46.7,10.3c7.1,1.6,14.2,3.5,21.2,5.1c2.7,0.6,5.5,0.9,8.5,1.3
		C554.8,356.4,556.2,350.2,557.7,343.6z"/>
	<path fill="#49121A" d="M484.7,279.1c0.9-2.3,1.6-4.5,2.3-6.6c0.4,0.1,0.9,0.3,1.3,0.3c-0.2,1.2-0.2,2.6-0.7,3.7
		c-1,2.3,0,3.4,2.3,3.7c1.6,0.2,3,0.4,4.9,0.7c0.5-2,1.1-4,1.8-6.7c2.5,2.6,0.8,5,0.9,7.4c1.7,0.5,3.7,1.1,5.6,1.4
		c0.6,0.1,1.6-0.8,2-1.5c0.5-0.9,0.5-2.1,1-3c0.3-0.5,1-0.8,1.6-1.1c0.2,0.5,0.6,1.1,0.6,1.7c-0.2,1.5-0.5,2.9-0.9,4.6
		c2.4,0.7,4.6,1.3,7.1,2c0.7-2.1,1.4-4.2,2.2-6.3c0.4,0.1,1,0.2,1.4,0.3c-0.3,2-0.4,4.1-0.7,6.3c2.3,0.6,4.7,1.3,7.3,2
		c0.8-2.3,1.5-4.4,2.2-6.5c0.4,0.1,0.9,0.2,1.3,0.3c-0.3,2.3-0.4,4.5-0.7,7c2.4,0.4,4.7,0.8,7.5,1.2c0.5-2,1-3.9,1.7-6.2
		c3.2,2.4,0.3,4.7,1,7c0.8,0.3,1.7,0.5,2.6,1c3,1.4,4.9,0.7,5.1-2.7c0.1-0.6,0.3-1.3,0.6-1.8c0.3-0.3,0.8-0.5,1.2-0.8
		c0.3,0.5,0.9,1,0.9,1.5c-0.1,1.6-0.4,3.1-0.8,5c2.4,0.7,4.7,1.3,7.3,2c0.4-1.7,0.7-3.4,1.2-5c0.2-0.5,1-0.9,1.5-1.3
		c0.3,0.6,0.8,1.3,0.7,1.8c-0.3,1.5-0.7,2.9-1.2,4.6c2.3,0.6,4.1,1,5.8,1.7c0.5,0.2,1,1,1.4,1.5c-0.6,0.3-1.3,0.7-1.9,0.7
		c-1.7-0.2-3.5-0.5-5.5-1c-0.4,1.6-0.7,3-1.2,4.2c-0.3,0.7-1,1.1-1.6,1.7c-0.2-0.8-0.7-1.7-0.6-2.4c0.1-1.2,0.6-2.4,1-3.8
		c-2.8-0.8-5.2-1.4-7.6-2.1c-0.4,1.6-0.6,3-1.2,4.2c-0.3,0.8-1.2,1.4-1.8,2.1c-0.2-0.9-0.4-1.7-0.3-2.5c0.2-1.2,0.6-2.4,1-3.9
		c-2.6-0.7-5-1.4-7-1.9c-2.7,1.4-0.3,5.6-4.3,6.4c0.4-2.7,0.8-4.8,1.1-7.3c-2.4-0.5-4.8-1-7.3-1.5c-0.5,1.9-0.9,3.5-1.5,5.1
		c-0.1,0.3-0.8,0.5-1.1,0.9c-0.3-0.4-0.9-0.8-0.9-1.2c0.1-1.7,0.3-3.4,0.6-5.2c-2.2-0.6-4.3-1.2-6.6-1.8c-0.9,2.1-1.7,4.3-2.6,6.3
		c-0.4-0.2-0.9-0.3-1.3-0.4c0.2-1,0.1-2,0.4-2.9c1.2-2.7,0.1-3.9-2.7-4.3c-1.4-0.3-2.8-0.7-4.4-1.2c-0.3,2-0.5,3.6-1,5
		c-0.2,0.6-1.1,1-1.7,1.5c-0.2-0.6-0.5-1.3-0.5-1.9c0.2-1.7,0.6-3.3,1-5c-2.7-0.4-5-0.9-7.5-1.3c-0.8,2.1-1.6,4.1-2.3,6.1
		c-0.4-0.2-0.9-0.3-1.3-0.4c0.3-2.1,0.7-4.3,1-6.9c-2.5-0.4-5-0.8-7.5-1.1c-0.6,2.3-1.1,4.1-1.8,6.4c-3-2.4-0.3-4.8-0.9-7
		c-1.5-0.4-3-0.9-4.7-1.3l-2.1,9c16.7,3.7,33.4,7.5,50.2,11.2c11,2.4,21.9,4.9,32.8,7.4c1.6,0.3,2.5,0.3,2.9-1.5
		c1-5,1.9-10.1,3.1-15c0.7-2.6-0.6-3.1-2.8-3.7c-10.2-2.3-20.3-4.4-30.5-6.8c-16.9-3.8-34-7.7-50.9-11.6l-2,8.6
		C481.6,278.2,483.1,278.6,484.7,279.1z"/>
	<path fill="#49121A" d="M371.4,327.4c-0.6,0.5,0.1,2.3,0.2,3.7c0.1,1,0.3,2.1,0.5,3c-0.4,0.1-0.9,0.2-1.3,0.3
		c-0.9-1.7-1.7-3.6-2.7-5.5c-2.6,1-5,2.2-7.9,3.3c1,2.3,1.7,4.2,2.6,6.2c-0.3,0.2-0.7,0.3-1,0.5c-1.1-1.7-2.3-3.4-3.5-5.2
		c-2.3,1-4.6,1.9-7.4,3.1c0.9,2.1,1.7,4.1,2.6,6.2c-0.3,0.2-0.6,0.4-1,0.6c-0.6-0.8-1.4-1.5-1.8-2.3c-1.2-2.4-2.5-4-5.6-1.6
		c-1,0.8-2.3,1-3.7,1.6c0.7,2.3,1.3,4.4,1.9,6.4c-0.3,0.2-0.7,0.3-1,0.5c-0.6-0.9-1.2-1.7-1.7-2.5c-0.5-1-1-1.9-1.5-3
		c-2.3,1-4.4,1.7-6.3,2.8c-0.5,0.3-0.5,1.9-0.3,2.8c0.3,1.5,0.9,2.9,1.3,4.3c-0.5,0.2-1,0.3-1.5,0.5c-1-1.8-1.9-3.6-3-5.6
		c-2.5,1-5,2.1-7.7,3.2c1,2.2,2,4.1,3,6c-0.4,0.3-0.9,0.5-1.4,0.8c-1.2-1.7-2.4-3.5-3.7-5.3c-2.3,1-4.7,1.9-7.4,3.1
		c0.9,2.2,1.7,4.2,2.6,6.2c-0.3,0.2-0.6,0.4-1,0.6c-0.8-1-1.9-1.7-2.3-2.8c-1-3-3-2.7-5.3-1.3c-1.1,0.6-2.2,1.3-3.4,2.1
		c0.6,2.1,1.2,4.2,1.8,6.3c-0.4,0.2-0.9,0.3-1.3,0.4c-1-1.8-2-3.7-3-5.6c-2.7,0.9-5.1,1.7-7.6,2.6c-0.2-0.4-0.3-0.8-0.4-1.2
		c2.3-1.1,4.6-2.3,7.2-3.5c-0.9-2.2-1.7-4.2-2.6-6.3c0.3-0.2,0.7-0.3,1-0.5c1.2,1.8,2.4,3.6,3.6,5.3c2.6-1,4.9-2.1,7.5-3.1
		c-0.8-2.3-1.5-4.3-2.2-6.4c0.3-0.2,0.7-0.3,1-0.4c1.2,1.9,2.3,3.7,3.7,5.9c2.3-1.2,4.6-2.4,7-3.7c-0.7-2.2-1.4-4.1-2.1-6.1
		c0.3-0.2,0.7-0.4,1-0.6c0.6,0.9,1.4,1.6,1.8,2.5c1.7,3.7,1.7,3.7,5.7,1.6c1.1-0.6,2.3-1.1,3.5-1.8c-1-2-1.9-3.8-3.1-6.3
		c4.3-0.1,3.2,3.7,5.4,5c2.3-1,4.6-1.9,7.4-3c-1-2.2-1.7-4.2-2.6-6.2c0.3-0.2,0.6-0.4,1-0.6c1.4,1.7,2.7,3.6,4.3,5.6
		c2.2-1,4.3-2.1,6.7-3.2c-0.6-2.2-1.2-4.3-1.7-6.3c0.4-0.2,0.8-0.3,1.2-0.5c1,1.8,2,3.7,3.1,5.7c2.3-1.1,5.6-1.8,6.6-3.6
		c0.9-1.6-0.7-4.3-1.2-6.4c0.3-0.2,0.8-0.4,1.1-0.6c1,1.8,2.1,3.7,3.3,5.9c2.4-1.1,4.9-2.3,7.7-3.7c-1-1.7-2-2.9-2.6-4.3
		c-0.3-0.4,0.3-1.3,0.4-1.9c0.6,0.3,1.5,0.3,1.8,0.9c0.8,1.3,1.4,2.8,2.1,4.2c1.5-0.6,2.8-1.2,4.2-1.7l-3.9-8.3
		c-2.8,1.3-5.6,2.6-8.3,3.9c-5.8,2.7-11.7,5.3-17.5,8.1c-12.3,5.8-24.6,11.6-36.9,17.6c-5.6,2.7-11.4,5.5-17,8.2
		c-1.5,0.7-2.5,1.6-1.7,3.4c2.3,4.8,4.6,9.6,7,14.3c0.3,0.7,2.3,1.3,3.1,1c3.5-1.4,6.7-3.2,10.1-4.8c13.2-6.3,26.3-12.5,39.5-18.7
		c10.1-4.7,20.3-9.3,30.3-14.1l-4-8.5C373.2,326.2,372.2,326.7,371.4,327.4z"/>
	<path fill="#840F1D" d="M479.6,306.4c0.7-2.3,1.2-4.5,1.8-6.6c0.4,0.1,0.8,0.1,1.2,0.2c-0.2,2.3-0.3,4.4-0.6,7c2.3,0.4,4.4,1,6.6,1
		c0.6,0,1.4-1.5,1.9-2.4c0.5-1,0.6-2.2,1-3.2c0.4,0.1,1,0.1,1.4,0.2c0,1.2,0.3,2.5-0.2,3.6c-1.3,3.2,1.1,3.4,3.3,4.2
		c2.5,0.9,3.9,0.3,4.3-2.3c0.3-1.3,1-2.4,1.5-3.7c0.4,0.2,0.9,0.3,1.3,0.4c-0.3,2-0.4,4-0.7,6.3c2.4,0.7,4.8,1.3,7.5,2.1
		c0.6-2.2,1.2-4.3,1.8-6.4c1.5,1,1.5,1,0.7,6.5c2.5,0.7,5,1.4,7.7,2.2c0.6-2.3,1.2-4.3,1.7-6.4c0.4,0,0.9,0.1,1.4,0.1
		c-0.1,2.3-0.2,4.5-0.3,7.3c2.3,0.3,4.7,0.7,7.3,1.1c0.5-1.9,1-3.8,1.6-5.6c2.1,0.5,2.1,0.5,1.2,6.3c2.4,0.7,4.9,1.3,7.2,2
		c0.5-1.8,0.9-3.4,1.4-4.9c0.2-0.5,1-0.9,1.5-1.3c0.3,0.6,0.7,1.2,0.7,1.8c-0.1,1.5-0.4,3-0.7,4.6c1,0.3,2,0.7,3,1
		c4.7,1.4,4.7,1.4,5.7-3.3c0.2-0.7,1-1.3,1.7-1.9c0.2,0.9,0.7,1.7,0.5,2.4c-0.9,3-0.9,5.3,3.5,5.3c0.8,0,1.6,0.3,2.3,0.7
		c0.3,0.2,0.6,0.9,0.6,1.3c0,0.3-0.8,0.7-1,0.6c-5.6-2.4-7.5,0.6-8.7,4.8c0,0.1-0.2,0.1-1.2,0.3c0.1-1.4-0.1-2.7,0.3-3.7
		c1.2-2.9-0.7-3.5-3-4.1c-2.4-0.6-4.5-1.3-5,2c-0.2,1.2-0.6,2.3-1.2,4.4c-3-3.1,0.1-5.5-0.9-8c-2.3-0.5-4.7-1-7-1.6
		c-2.7,1,0.3,5.6-4.2,6.2c0.4-2.7,0.8-4.7,1.1-7c-2.7-0.5-5-1-7.5-1.6c-0.9,2.3-1.6,4.3-2.3,6.3c-0.4-0.1-0.9-0.2-1.2-0.3
		c0.1-2.2,0.2-4.3,0.3-6.5c-2.2-0.6-4.4-1.2-7.1-2c-0.5,1.9-0.9,3.6-1.5,5.2c-0.2,0.4-1,0.6-1.4,1c-0.2-0.5-0.6-1-0.6-1.6
		c0.1-1.6,1.1-4,0.4-4.4c-1.7-1.2-4-1.6-6-2.2c-0.4-0.1-0.9,0-1.2-0.1c-0.5,1.9-1,3.8-1.6,5.6c-0.1,0.3-0.4,0.4-1.1,1
		c-2.1-2.5,0.7-4.7-0.2-7.3c-2.3-0.5-4.7-1-7.4-1.6c-0.6,2.1-1.1,4-1.8,6.7c-0.7-1-1.7-1.6-1.7-2.2c-0.1-1.7,1-4.5,0.3-5
		c-1.7-1.3-4.3-1.5-7.4-2.3c-0.7,2.7-1.2,4.5-1.7,6.4c-0.4-0.1-0.9-0.2-1.3-0.3c0.3-2,0.4-3.9,0.7-6.2c-0.9-0.3-1.7-0.7-2.7-1
		c-1-0.3-1.8-0.5-2.4-0.7l-2.2,9.1c29.1,6.6,58.5,13.3,88.1,20c1.5-7,2.9-13.4,4.3-19.8c-9.5-2.3-18.3-4.3-27.1-6.3
		c-12.3-2.8-24.5-5.6-36.8-8.4c-7.6-1.7-15.4-3.7-23-5.4c-0.3-0.1-0.5-0.1-0.7-0.2l-2.1,8.8C475.8,305.3,477.6,305.8,479.6,306.4z"
		/>
	<path fill="#A5192A" d="M437.2,288.8c-6.7-2.3-11.3,2.5-12.6,6.6c-1.4,4.3,2,9.6,6.5,10.9c6.1,1.7,10.4-0.7,12.1-6.6
		C444.5,295.2,441.5,290.3,437.2,288.8z"/>
	<polygon fill="#541119" points="326.6,232.3 314.5,237.2 330.9,247.5 	"/>
	<polygon fill="#330000" points="404.2,253.9 384.6,263.2 398.4,247.6 	"/>
	<polygon fill="none" points="393,276.5 372.9,281.6 392.6,272.2 	"/>
	<polygon fill="none" points="427.3,268.5 417,272.6 425,284 	"/>
	<polygon fill="none" points="372.9,281.6 389.3,294.5 393,276.5 	"/>
	<polygon fill="#23090C" points="375.1,308.8 376.4,302.8 393.5,310.5 	"/>
	<polygon fill="#590E18" points="377.7,326.3 393.5,310.5 375.1,308.8 	"/>
	<polygon fill="none" points="407.3,305.3 408,288.8 418.8,293 	"/>
	<polygon fill="#A5192A" points="425,284 408,288.8 418.8,293 	"/>
	<polygon fill="#3D0E13" points="427.3,268.5 437,281.5 425,284 	"/>
	<polygon fill="#A5192A" points="430.3,260.5 439.9,263.2 427.3,268.5 	"/>
	<polygon fill="#330000" points="437,281.5 439.9,263.2 427.3,268.5 	"/>
	<path fill="#23090C" d="M377.1,336.7c0.2-0.9,0.6-10.3,0.6-10.3l11.5,7.5L377.1,336.7z"/>
	<polygon fill="#840F1D" points="384.4,341.6 377.1,336.7 389.2,333.8 	"/>
	<polygon fill="#840F1D" points="397.3,229.1 390,224 402.1,221.3 	"/>
	<polygon fill="#3D0E13" points="390.8,325.9 389.2,333.8 377.7,326.3 	"/>
	<polygon fill="#840F1D" points="393.5,310.5 390.8,325.9 377.7,326.3 	"/>
	<polygon fill="#A5192A" points="402.4,309.9 394.8,316.4 402,302.4 	"/>
	<polygon fill="#A5192A" points="408.1,339.7 391.8,346.3 389.4,338.7 	"/>
	<polygon fill="#590E18" points="430.3,260.5 436.3,256.2 439.9,263.2 	"/>
	<polygon fill="#3D0E13" points="399.9,319 411.4,323.5 396.9,333.6 	"/>
	<polygon fill="#A5192A" points="416.6,319.6 415.5,345.7 407.6,341.1 	"/>
	<polygon fill="#840F1D" points="415.1,346.3 393.5,378.9 407.2,351.2 	"/>
	<polygon fill="none" points="424.2,339.4 430.7,345.3 436.1,374 	"/>
	<polygon fill="#840F1D" points="417.7,403.5 415.9,368.6 418.5,346.8 421.3,369.7 	"/>
	<polygon fill="none" points="411.3,396.8 409.3,399.3 409.5,404.9 413.3,400 	"/>
	<polygon fill="#840F1D" points="421.9,224.6 420.7,235.3 448.9,230 	"/>
	<polygon fill="#330000" points="436.3,256.2 448.9,230 420.7,235.3 	"/>
	<polygon fill="#A5192A" points="439.9,263.2 448.9,230 436.3,256.2 	"/>
	<polygon fill="#A5192A" points="421.9,224.6 447.9,212.3 437.6,214 	"/>
	<polygon fill="none" points="448.9,230 447.9,212.3 457.7,215.4 	"/>
	<polygon fill="#330000" points="413,256.6 404,272.7 421,267.9 	"/>
	<polygon fill="#590E18" points="376.4,302.8 389.3,294.5 393.5,310.5 	"/>
	<polygon fill="#840F1D" points="486.2,264.5 479.9,289.8 468.3,272.5 	"/>
	<polygon fill="#590E18" points="474.4,257.9 486.2,264.5 468.3,272.5 	"/>
	<polygon fill="#A5192A" points="461.7,277.9 479.9,289.8 468.3,272.5 	"/>
	<polygon fill="none" points="460.6,282.1 479.9,289.8 461.7,277.9 	"/>
	<polygon fill="#23090C" points="453,274.1 460.6,282.1 448.6,289.1 	"/>
	<polygon fill="#3D0E13" points="479.9,289.8 462,300.5 460.6,282.1 	"/>
	<polygon fill="#3D0E13" points="474.3,316.5 473.8,310.4 455.7,315.8 	"/>
	<polygon fill="#330000" points="469.4,333.6 455.7,315.8 474.3,316.5 	"/>
	<polygon fill="none" points="455.7,315.8 462,300.5 450.5,299.7 	"/>
	<polygon fill="#3D0E13" points="448.6,289.1 462,300.5 450.5,299.7 	"/>
	<polygon fill="#3D0E13" points="453,274.1 437.4,281.6 448.6,289.1 	"/>
	<polygon fill="#840F1D" points="453.6,265.6 443.9,263.9 453,274.1 	"/>
	<polygon fill="#330000" points="437.7,281.8 443.9,263.9 453,274.1 	"/>
	<polygon fill="#840F1D" points="443.2,312.2 455.7,315.8 450.5,299.7 	"/>
	<path fill="#3D0E13" d="M468.6,343.9c0-0.9,0.7-10.3,0.7-10.3l-12.3,5.9L468.6,343.9z"/>
	<polygon fill="#23090C" points="460.8,347.9 468.6,343.9 457,339.5 	"/>
	<polygon fill="#590E18" points="456.4,331.5 457,339.5 469.4,333.6 	"/>
	<polygon fill="#840F1D" points="455.7,315.8 456.4,331.5 469.4,333.6 	"/>
	<polygon fill="#01141C" points="452.2,322.4 456.4,331.5 455.7,315.8 	"/>
	<polygon fill="#23090C" points="443.2,312.2 452.2,322.4 455.7,315.8 	"/>
	<polygon fill="#01141C" points="453.6,265.6 450,259.1 443.9,263.9 	"/>
	<polygon fill="#590E18" points="443.2,312.2 430.9,313.9 442.8,327.1 	"/>
	<polygon fill="#330000" points="452.2,322.4 442.8,327.1 443.2,312.2 	"/>
	<polygon fill="#330000" points="422.6,321 422.5,321 421.3,347.2 431.3,342.7 	"/>
	<polygon fill="#840F1D" points="434.7,319.1 437.6,331.5 417,320.4 	"/>
	<polygon fill="#590E18" points="476.3,236.4 472.9,246.6 449.4,230.1 	"/>
	<polygon fill="#330000" points="450,259.1 449.4,230.1 472.9,246.6 	"/>
	<polygon fill="#23090C" points="443.9,263.9 449.4,230.1 450,259.1 	"/>
	<polygon fill="#590E18" points="476.3,236.4 457.8,214.4 466.5,220.2 	"/>
	<polygon fill="#330000" points="460.6,282.1 462,300.5 448.6,289.1 	"/>
	<polygon fill="#23090C" points="473.8,310.4 462,300.5 455.7,315.8 	"/>
	<polygon fill="#A5192A" points="479.9,289.8 462,300.5 473.8,310.4 	"/>
	<polygon fill="#840F1D" points="372.9,281.6 376.4,302.8 389.3,294.5 	"/>
	<polygon fill="#23090C" points="393,276.5 372.9,281.6 392.6,272.2 	"/>
	<polygon fill="#590E18" points="427.3,268.5 417,272.6 425,284 	"/>
	<polygon fill="#A5192A" points="421.8,347.4 429.4,351.8 440.5,378.8 	"/>
	<polygon fill="#3D0E13" points="418.8,406.1 417.3,409.1 418.7,414.5 421.5,408.9 	"/>
	<polygon fill="#23090C" points="448.9,230 447.9,212.3 457.7,215.4 	"/>
	<polygon fill="#840F1D" points="450,204.6 447.9,212.3 457.7,215.4 	"/>
	<polygon fill="#330000" points="458.8,205.5 450,204.6 457.7,215.4 	"/>
	<polygon fill="#3D0E13" points="372.9,281.6 389.3,294.5 393,276.5 	"/>
	<polygon fill="#23090C" points="418.8,293 407.3,305.3 408,288.8 	"/>
	<polygon fill="#23090C" points="345.5,200.3 334.2,212.7 334.8,196.2 	"/>
	<polygon fill="#23090C" points="450.5,299.7 462,300.5 455.7,315.8 	"/>
	<polygon fill="#23090C" points="461.7,277.9 460.6,282.1 479.9,289.8 	"/>
	<path fill="none" d="M323.7,267.6c0.1,2,0.2,4,0.2,5.9c-1.6,0.4-2.7,0.9-3.9,1c-1.3,0.2-2.6,0.1-3.9,0.2c-0.9-5.7-0.9-5.7-2.3-6.9
		c-0.3,2.3,0.3,5.4-1,6.5c-1.5,1.2-4.7,0.7-7.3,1c-0.5-2.3-1-4.5-1.5-6.7c-0.3,0.1-0.8,0.2-1.1,0.3c0,0.9-0.2,1.7-0.1,2.5
		c0.1,2.4,0.2,3.5-0.7,4l3.7,7.3c0.1-1.7,0.1-3.3,0.2-5.3c2.5-0.3,5-0.4,7.3-0.6c0.7,2.5,1.2,4.6,1.7,6.7c0.4-0.1,0.8-0.2,1.2-0.2
		c-0.1-2.1-0.2-4.3-0.2-6.5c2.9-0.3,5.4-0.6,8.1-0.9c0.1,0.3,0.1,0.7,0.2,1.1l2.4-3.7c-0.5-2.2-1-4.2-1.6-6.2
		C324.6,267.4,324.2,267.5,323.7,267.6z"/>
	<path fill="none" d="M285.4,268.4c-1.2-2.5-0.7-3.7,1.6-4.6c1-0.4,1.8-1.2,2.7-1.8c-0.2-0.3-0.3-0.7-0.5-1
		c-0.9,0.3-1.7,0.4-2.5,0.7c-4,1.6-3.9,1.6-6-2.5c-0.4-0.9-1.2-1.5-1.8-2.3c-0.3,0.2-0.5,0.4-0.8,0.6c1,2.3,2.1,4.6,3.1,7
		c-2.1,1.2-3.9,2.3-5.6,3.3c0.2,0.4,0.4,0.8,0.6,1.2c2-0.9,4.1-1.8,6.2-2.8c1.2,2.7,2.2,5,3.2,7.3c-1.8,1.3-3.6,2.5-5.2,3.7
		c0.3,0.3,0.4,0.7,0.7,1c0.3-0.2,0.8-0.3,1.2-0.4l5.4-6.1C286.9,271.3,286.4,270.3,285.4,268.4z"/>
	<path fill="#330000" d="M373.1,272.2c-1.6,0.2-3.2,0.3-4.7,0.4c-0.8,2.3,1,5-0.9,6.9c-0.3,0-0.8-0.1-1.1-0.1
		c-0.2-2.1-0.3-4.1-0.5-6.6c-2.8,0.3-5.3,0.4-8.3,0.7c0.2,1.6,0.4,2.9,0.4,4.3c0,0.8-0.3,1.6-0.5,2.4c-0.5-0.7-1.2-1.4-1.5-2.2
		c-0.4-1.3-0.6-2.7-1-4.3c-2.4,0.2-4.7,0.3-7.3,0.5c-0.2,2.3-0.4,4.5-0.6,6.7c-0.3,0-0.8,0-1.1-0.1c-0.2-0.8-0.3-1.6-0.5-2.3
		c-0.3-1.3-0.5-3.6-1.1-3.7c-2-0.4-4.3-0.2-6.3,0.2c-0.4,0.1-0.6,1.7-0.8,2.5c-0.2,1.4-0.2,2.8-0.3,4.3c-0.4,0-0.9,0-1.3,0
		c-0.3-2.1-0.5-4.2-0.8-6.3c-2.7,0.1-5.3,0.2-8.6,0.3c0.1,2.5,0.2,4.8,0.3,7c-0.4,0-0.9,0-1.3,0c-0.3-1.8-0.5-3.7-0.8-5.7l-5.8,8.7
		c9.9-0.7,19.8-1.4,29.7-2.2c6.3-0.4,12.4-1.3,18.7-1.8c2.3-0.2,4.7-0.3,7-0.3L373.1,272.2z"/>
	<path fill="#330000" d="M326.6,273.6c2.3-0.1,4.8-0.2,7.4-0.3c0.1-2.3,0.1-4.5,0.2-6.8c0.3-0.1,0.7-0.1,1-0.2
		c0.3,0.7,0.8,1.4,0.9,2.2c0.4,4.3,0.4,4.3,5,4.1c1.1-0.1,2.2-0.2,3.8-0.3c-0.1-2.4-0.2-4.6-0.3-6.8c0.4-0.1,0.8-0.1,1.2-0.2
		c0.4,2.2,0.8,4.3,1.2,6.7c2.6-0.3,5.1-0.5,7.8-0.8c0.1-2.3,0.2-4.3,0.3-6.4c0.4-0.1,0.9-0.2,1.2-0.3c0.4,2.1,0.9,4.3,1.5,6.8
		c2.1-0.3,4.3-0.3,6.2-1c0.8-0.3,0.9-2.3,1.2-3.7c0.3-0.9,0.5-1.7,0.8-2.7c0.5,0.8,1.3,1.6,1.5,2.4c0.3,1.1,0.2,2.3,0.2,3.9
		c1.7-0.1,3-0.2,4.3-0.1c0.3,0,0.6,0,0.9,0l-0.7-9.4c-5.8,0.5-11.7,1-17.6,1.4c-7.3,0.5-14.5,1.1-21.8,1.7l-6.3,9.4
		C326.6,273.5,326.6,273.5,326.6,273.6z"/>
	<path fill="#330000" d="M291,272.7c-0.4-0.1-0.8-0.3-1.2-0.3c0.5-2,1-4.1,1.5-6.3c-2.3-1.1-4.6-2.1-7.2-3.4c-1,2.1-1.9,4.1-2.9,6.2
		c-0.4-0.2-0.9-0.3-1.3-0.5c0.7-2,1.3-4,2.1-6.3c-2.3-1.1-4.6-2.2-7-3.2c0.1-0.3,0.2-0.7,0.2-1c1,0.2,2,0.1,2.9,0.4
		c4.3,1.7,4.3,1.7,6.2-2c0.4-0.8,1-1.5,1.4-2.2c0.3,0.2,0.7,0.3,1,0.4c-0.3,1-0.3,2.2-0.9,3.1c-1,2.2-0.8,3.4,1.8,4.5
		c2,0.8,3,1.3,3.8,1.2v-9.8c-0.3-0.2-0.8-0.3-1.1-0.4c-4.2-1.7-8.3-3.3-11.7-4.6c-2.5,5.5-5,10.6-7.3,15.7c-1,2-0.5,3.4,1.9,4.3
		c3.6,1.2,7,2.7,10.5,4.1c2.6,1,5.1,2.2,7.7,3.2v-4.3C291.5,271.9,291.3,272.4,291,272.7z"/>
	<path fill="#330000" d="M324.1,275.9c-2.8,0.3-5.2,0.5-8.1,0.9c0.1,2.3,0.2,4.3,0.2,6.5c-0.4,0.1-0.8,0.2-1.2,0.2
		c-0.5-2.1-1.1-4.2-1.7-6.7c-2.3,0.2-4.7,0.4-7.3,0.6c-0.1,1.9-0.1,3.7-0.2,5.3l1.9,3.8c3.6-0.3,7.1-0.5,10.7-0.8l5.8-8.7
		C324.2,276.7,324.1,276.4,324.1,275.9z"/>
	<path fill="#330000" d="M294.1,260.2c0.3-0.8,0.8-1.5,1.2-2.2c0.3,0.1,0.8,0.2,1.1,0.3c-0.5,2.2-1,4.3-1.7,6.6c2.4,1,5,2.9,7,2.4
		c1.7-0.4,2.5-3.5,3.8-5.4c0.8,1.6,0.8,1.6-1,7.1c1.1,0.5,2.3,1.2,3.6,1.7c1.1,0.4,2.4,0.5,4,0.9c0.8-1.7,1.7-3.6,2.5-5.4
		c0.4,0.1,0.9,0.3,1.3,0.3c-0.4,2-0.9,4-1.4,6.2l9.8-5.6c-10.9-4.5-21.7-9-32.6-13.5v9.8C292.6,263.4,293,262.5,294.1,260.2z"/>
</g>
</svg>
