<?xml version="1.0" encoding="utf-8"?>
<!-- Generator: Adobe Illustrator 20.1.0, SVG Export Plug-In . SVG Version: 6.00 Build 0)  -->
<svg version="1.1" id="Calque_1" xmlns="http://www.w3.org/2000/svg" xmlns:xlink="http://www.w3.org/1999/xlink" x="0px" y="0px"
	 viewBox="0 0 841.9 595.3" enable-background="new 0 0 841.9 595.3" xml:space="preserve">
<g>
	<path fill="#022B42" stroke="#0071BC" stroke-miterlimit="10" d="M274.2,152.5c-3.4,1.8-6.9,3-10.5,3.8s-7.4,1.2-11.2,1.2
		c-4,0-7.8-0.6-11.2-1.9c-3.4-1.3-6.4-3.1-8.8-5.4c-2.5-2.4-4.4-5.2-5.8-8.6s-2.1-7.1-2.1-11.2s0.7-7.9,2.1-11.2s3.3-6.2,5.8-8.6
		s5.4-4.2,8.8-5.4c3.4-1.3,7.1-1.9,11.2-1.9s7.9,0.5,11.4,1.5s6.5,2.7,9.2,5.1l-8,8.8c-1.6-1.6-3.3-2.8-5.3-3.6
		c-1.9-0.8-4.4-1.2-7.3-1.2c-2.4,0-4.6,0.4-6.6,1.2c-2,0.8-3.7,2-5.1,3.5c-1.4,1.5-2.5,3.2-3.2,5.3c-0.8,2-1.1,4.3-1.1,6.6
		c0,2.4,0.4,4.7,1.1,6.7c0.8,2,1.8,3.8,3.2,5.3s3.1,2.6,5.1,3.5c2,0.8,4.2,1.2,6.6,1.2c2.5,0,4.6-0.3,6.4-0.8
		c1.8-0.6,3.2-1.1,4.3-1.7V136H254v-10.5h20.2V152.5z"/>
	<path fill="#022B42" stroke="#0071BC" stroke-miterlimit="10" d="M305.1,151.7H305c-1.2,1.9-2.8,3.3-4.9,4.1
		c-2,0.8-4.1,1.2-6.4,1.2c-1.7,0-3.2-0.2-4.8-0.7c-1.5-0.5-2.9-1.2-4.1-2.1c-1.2-0.9-2.1-2.1-2.8-3.4c-0.7-1.4-1-2.9-1-4.7
		c0-2,0.4-3.8,1.1-5.2c0.8-1.4,1.8-2.6,3.1-3.5c1.3-0.9,2.8-1.6,4.4-2.2c1.7-0.5,3.4-0.9,5.1-1.1c1.8-0.2,3.6-0.4,5.3-0.4
		c1.8,0,3.4-0.1,4.9-0.1c0-1.9-0.7-3.5-2.1-4.6c-1.4-1.1-3-1.7-4.9-1.7c-1.8,0-3.4,0.4-4.9,1.1c-1.5,0.8-2.8,1.8-4,3.1l-5.8-6
		c2-1.9,4.4-3.3,7.2-4.3c2.7-0.9,5.5-1.4,8.5-1.4c3.2,0,5.9,0.4,7.9,1.2c2.1,0.8,3.7,2,5,3.5c1.2,1.6,2.1,3.5,2.6,5.7
		c0.5,2.3,0.7,4.9,0.7,7.8v18H305L305.1,151.7L305.1,151.7z M302.4,140.6c-0.8,0-1.9,0-3.1,0.1s-2.4,0.3-3.6,0.6
		c-1.1,0.3-2.1,0.9-2.9,1.5c-0.8,0.7-1.2,1.6-1.2,2.8c0,1.3,0.6,2.3,1.7,2.9c1.1,0.6,2.3,0.9,3.5,0.9c1.1,0,2.1-0.1,3.1-0.4
		c1-0.3,1.9-0.7,2.7-1.2c0.8-0.5,1.4-1.2,1.9-2s0.7-1.8,0.7-2.9v-2.3L302.4,140.6L302.4,140.6z"/>
	<path fill="#022B42" stroke="#0071BC" stroke-miterlimit="10" d="M322,120.7h10.5v4.8h0.1c0.3-0.7,0.8-1.4,1.5-2
		c0.6-0.7,1.4-1.3,2.3-1.8s1.9-1,3-1.3s2.3-0.5,3.6-0.5c2.5,0,4.7,0.5,6.6,1.5s3.4,2.6,4.3,4.8c1.3-2.3,2.8-3.9,4.6-4.9
		c1.8-1,4-1.5,6.6-1.5c2.4,0,4.4,0.4,6,1.2c1.6,0.8,2.9,1.9,3.9,3.3c0.9,1.4,1.6,3,2,4.9s0.6,3.9,0.6,6v21h-11v-20.7
		c0-1.7-0.4-3.1-1.1-4.3s-2-1.8-3.8-1.8c-1.3,0-2.3,0.2-3.2,0.6c-0.9,0.4-1.5,1-2,1.7s-0.9,1.6-1.1,2.6s-0.3,2-0.3,3.1v18.8h-11
		v-18.8c0-0.6,0-1.4-0.1-2.3c0-0.9-0.2-1.8-0.5-2.6s-0.8-1.5-1.4-2.1c-0.7-0.6-1.6-0.9-2.9-0.9c-1.4,0-2.6,0.3-3.4,0.8
		c-0.9,0.5-1.5,1.2-2,2c-0.5,0.9-0.8,1.8-0.9,2.9c-0.1,1.1-0.2,2.2-0.2,3.4v17.7H322V120.7z"/>
	<path fill="#022B42" stroke="#0071BC" stroke-miterlimit="10" d="M419.1,150c-1.8,2.2-4,4-6.6,5.2c-2.7,1.2-5.5,1.8-8.3,1.8
		c-2.7,0-5.3-0.4-7.7-1.3c-2.4-0.9-4.5-2.1-6.3-3.8c-1.8-1.6-3.2-3.6-4.2-5.9c-1-2.3-1.5-4.8-1.5-7.7c0-2.8,0.5-5.4,1.5-7.7
		s2.4-4.2,4.2-5.9c1.8-1.6,3.9-2.9,6.3-3.8s5-1.3,7.7-1.3c2.5,0,4.8,0.4,6.9,1.3s3.8,2.1,5.3,3.8c1.4,1.6,2.5,3.6,3.3,5.9
		s1.2,4.8,1.2,7.7v3.4h-25.4c0.4,2.1,1.4,3.8,2.8,5c1.5,1.2,3.3,1.9,5.4,1.9c1.8,0,3.3-0.4,4.6-1.2c1.2-0.8,2.3-1.8,3.2-3.1
		L419.1,150z M409.8,134.4c0-1.8-0.6-3.4-1.8-4.7c-1.3-1.3-2.9-2-4.9-2c-1.2,0-2.3,0.2-3.2,0.6c-0.9,0.4-1.7,0.9-2.4,1.5
		c-0.7,0.6-1.2,1.3-1.5,2.1c-0.4,0.8-0.6,1.6-0.6,2.5L409.8,134.4L409.8,134.4z"/>
	<path fill="#022B42" stroke="#0071BC" stroke-miterlimit="10" d="M447.6,130.3c0-4.1,0.7-7.9,2.1-11.2c1.4-3.4,3.3-6.2,5.8-8.6
		s5.4-4.2,8.8-5.4c3.4-1.3,7.1-1.9,11.2-1.9c4,0,7.8,0.6,11.2,1.9c3.4,1.3,6.4,3.1,8.8,5.4c2.5,2.4,4.4,5.2,5.8,8.6
		s2.1,7.1,2.1,11.2c0,4.1-0.7,7.9-2.1,11.2s-3.3,6.2-5.8,8.6c-2.5,2.4-5.4,4.2-8.8,5.4c-3.4,1.3-7.1,1.9-11.2,1.9
		c-4,0-7.8-0.6-11.2-1.9c-3.4-1.3-6.4-3.1-8.8-5.4c-2.5-2.4-4.4-5.2-5.8-8.6C448.3,138.2,447.6,134.5,447.6,130.3z M459.5,130.3
		c0,2.4,0.4,4.7,1.1,6.7c0.8,2,1.8,3.8,3.2,5.3c1.4,1.5,3.1,2.6,5.1,3.5c2,0.8,4.2,1.2,6.6,1.2s4.6-0.4,6.6-1.2s3.7-2,5.1-3.5
		s2.5-3.2,3.2-5.3c0.8-2,1.1-4.2,1.1-6.7c0-2.4-0.4-4.6-1.1-6.6c-0.8-2-1.8-3.8-3.2-5.3c-1.4-1.5-3.1-2.6-5.1-3.5
		c-2-0.8-4.2-1.2-6.6-1.2s-4.6,0.4-6.6,1.2c-2,0.8-3.7,2-5.1,3.5s-2.5,3.2-3.2,5.3C459.8,125.7,459.5,128,459.5,130.3z"/>
	<path fill="#022B42" stroke="#0071BC" stroke-miterlimit="10" d="M506,120.7h11.8l9,24.1h0.1l8.3-24.1h11l-14,35.5h-11.6L506,120.7
		z"/>
	<path fill="#022B42" stroke="#0071BC" stroke-miterlimit="10" d="M583.9,150c-1.8,2.2-4,4-6.6,5.2c-2.7,1.2-5.5,1.8-8.3,1.8
		c-2.7,0-5.3-0.4-7.7-1.3s-4.5-2.1-6.3-3.8c-1.8-1.6-3.2-3.6-4.2-5.9c-1-2.3-1.5-4.8-1.5-7.7c0-2.8,0.5-5.4,1.5-7.7s2.4-4.2,4.2-5.9
		c1.8-1.6,3.9-2.9,6.3-3.8s5-1.3,7.7-1.3c2.5,0,4.8,0.4,6.9,1.3c2.1,0.9,3.8,2.1,5.3,3.8c1.4,1.6,2.5,3.6,3.3,5.9s1.2,4.8,1.2,7.7
		v3.4h-25.4c0.4,2.1,1.4,3.8,2.8,5c1.5,1.2,3.3,1.9,5.4,1.9c1.8,0,3.3-0.4,4.6-1.2c1.2-0.8,2.3-1.8,3.2-3.1L583.9,150z M574.7,134.4
		c0-1.8-0.6-3.4-1.8-4.7s-2.9-2-4.9-2c-1.2,0-2.3,0.2-3.2,0.6c-0.9,0.4-1.7,0.9-2.4,1.5s-1.2,1.3-1.5,2.1c-0.4,0.8-0.6,1.6-0.6,2.5
		L574.7,134.4L574.7,134.4z"/>
	<path fill="#022B42" stroke="#0071BC" stroke-miterlimit="10" d="M592.3,120.7h11v5.7h0.1c1.2-2.2,2.6-3.8,4.2-4.9
		c1.6-1.1,3.6-1.6,6.1-1.6c0.6,0,1.3,0,1.9,0.1c0.6,0,1.2,0.1,1.8,0.3v10c-0.8-0.2-1.5-0.4-2.3-0.5s-1.5-0.2-2.4-0.2
		c-2.1,0-3.7,0.3-5,0.9c-1.2,0.6-2.2,1.4-2.8,2.4c-0.7,1-1.1,2.3-1.3,3.8s-0.3,3.1-0.3,4.8v14.8h-11V120.7z"/>
</g>
<g>
	<g>
		<path fill="none" d="M400.2,330.7c-0.4-0.1-0.7-0.3-1.2-0.4C399.5,330.5,399.9,330.6,400.2,330.7L400.2,330.7z"/>
		<path fill="none" d="M399.4,297.7c-0.4,0.2-0.9,0.3-1.5,0.2c-0.5,0.1-1,0-1.4,0.1c0.5-0.1,1,0,1.4-0.1
			C398.5,298,398.9,297.9,399.4,297.7z"/>
		<path fill="none" d="M421.3,304.3L421.3,304.3L421.3,304.3z"/>
		<path fill="#F76C3B" d="M395.9,303.9c-4.7-0.7-8,2.5-8.3,5.8c0,0.1,0,0.2,0,0.3c0.7,1.9,2.4,3.1,3.5,5.1c-1.8-1.2-2.1,0.1-2.8,1.1
			c-2.5,3.8,1.6,10.1,5.8,9.4c-0.6,1.4-0.1,2.3,1.6,3.5c1,0.7,2.3,0.9,3.4,1.2c0.4,0.1,0.8,0.2,1.2,0.4c0.3-1.1,0.6-2.2,1-3.4
			c0.2-0.8,0.2-1.3-0.7-1.6c-0.5-0.1-1-0.3-0.8-0.9c0.1-0.7,0.7-0.3,1.1-0.4c0.3-0.1,0.6-0.1,0.8-0.2c0.3-0.5,0.8-0.9,0.5-1.4
			c-0.3-0.5-1-0.2-1.4,0c-1.9,0.9-3.4,2.4-5.8,3.3c1.2-1.2,1.7-2.2,1-3.6c0.7,0.6,1.3,0.9,2.1,0c0.9-1,1.6-2.1,1.5-3.5
			c-0.1-0.5-0.5-0.3-0.8-0.3c-0.5-0.1-1-0.2-1.2-0.7c-0.1-0.6,0.2-1,0.7-1.2c1.2-0.5,0.4-0.8,0-1.4c-0.8-0.9-2.3-0.6-3.1-2.4
			c2,1.3,3.4-0.4,5,0c-0.4-0.9-0.8-2-1.2-3.3c1.4,0.5,2.4-0.3,3.4-0.8c1.3-0.6-0.4-2.1,0.5-3.1c0.9,0.6,0.8,1.6,1.1,2.3
			c0.2,0.5,0.4,1.6,1,1.4c1-0.5,2.6,0.5,3.1-1.3c0.3-1.1,0.8-2.1,1.6-3.1c0.2,0.1,0.3,0.2,0.3,0.3c0.1,0.8-0.7,1.7,0,2.3
			c0.7,0.8,1.8,1.3,2.6,2c0.6,0.5,1.1-0.1,1.3-0.9c0.1-0.4-0.5-0.6-0.2-1.2c2.1,1.9,3-1.3,5-0.9c-1.6,1.7-3.1,3.2-4.7,4.6
			c-0.8,0.7-0.9,1.1-0.6,1.9c0.4,0.9,0.5,1.7,1.7,1.5c0.5-0.1,1.1-0.1,1.2,0.6c0,0.6-0.6,0.5-1,0.5c-1.2,0.1-1.2,1.2-1.2,1.9
			c-0.1,0.9,0.2,1.8,1.2,2.1c1.1,0.4,2.2,0.8,3.2,1.7c-0.8,0.7-1.3,0.3-2,0.1c-1.6-0.5-3.3-1-5-0.3c-0.9,0.4-1.1,0.7-0.7,1.4
			c0.2,0.5,0.6,1.1,0.8,1.6c0.2,0.4,0.7,1,0.2,1.4c-0.5,0.4-0.8-0.2-1.2-0.5c-0.4-0.6-0.9-1.1-1.4-1.7c-0.5-0.5-0.9-1.1-1.6-0.7
			c-0.6,0.3-0.4,1-0.2,1.7c0.2,0.8,0.6,1.7-0.2,2.6c-0.7-0.4-0.7-1.2-0.9-1.9c-0.2-0.5-0.2-1.2-1.1-1.2c-0.8,0-1.3,0.3-1.8,1
			c-1,1.8-1.3,3.8-2.3,5.6c1.8,1.5,3.4,3,5.8,3.5c1.8,0.4,3.5,0.2,5-0.8c0.9-0.6,1.6-0.8,2.3,0c0.4,0.3,0.8,0.4,1.4,0.4
			c2.9-0.3,5.8-3.7,5.5-6.6c-0.1-0.9,0.1-1.5,0.8-2.2c0.8-0.9,1.1-1.9,1.6-3.1c0.9,0.7,0.1,1.6,0.8,2.3c0.1-2.7,2.5-4.3,3-6.9
			c-0.9,0.8-1.6,1.7-2.5,2.5c-0.4,0.4-1,1.3-1.4,0.7c-0.5-0.6,0.5-0.9,0.9-1.2c1.9-1.6,3.1-3.5,2.9-6.1c-0.3-3.4-2-5.2-5.5-5.5
			c-0.6-0.1-1.3,0.1-1.6-0.5c-0.3-0.7,0.2-1.2,0.6-1.6c0.3-0.3,0.4-0.6,0.7-0.9l0-0.1c-1.5,0.8-2.5,0.2-3.4-1.2
			c-1.4-2-3.7-2.2-5.8-2.7c-0.8-0.2-1.5-0.6-1.7-1.3c-1-3-6.5-3-8.2-0.2c-0.9,1.5-1.5,1.4-2.5,0.3c-0.4-0.6-1.2-0.8-1.8-1.2
			c-0.5,0.1-1,0-1.4,0.1C394.8,299.8,393.9,301.6,395.9,303.9z"/>
		<path fill="#B63C2D" d="M420.6,305.3c-0.5,0.5-0.9,1-0.6,1.6c0.3,0.7,1.1,0.6,1.6,0.5c3.3,0.3,5.1,2,5.5,5.5
			c0.2,2.6-1,4.5-2.9,6.1c-0.4,0.3-1.4,0.6-0.9,1.2c0.4,0.6,1.1-0.4,1.4-0.7c0.9-0.8,1.7-1.6,2.5-2.5c-0.5,2.6-2.9,4.2-3,6.9
			c-0.7-0.8,0.1-1.6-0.8-2.3c-0.5,1.1-0.8,2.2-1.6,3.1c-0.6,0.6-0.8,1.3-0.8,2.2c0.3,2.9-2.6,6.4-5.5,6.6c-0.5,0-1-0.1-1.4-0.4
			c-0.9-0.8-1.5-0.6-2.3,0c-1.5,1-3.2,1.2-5,0.8c-2.4-0.5-4-2-5.8-3.5c-0.2,0.2-0.2,0.8-0.8,0.7c-0.1,0,0-0.3-0.1-0.5
			c-0.4-0.1-0.7-0.3-1.2-0.4c-1.2-0.3-2.4-0.5-3.4-1.2c-1.7-1.1-2.1-2.1-1.6-3.5c-4.2,0.6-8.3-5.7-5.8-9.4c0.7-1,1-2.3,2.8-1.1
			c-1-2-2.7-3.2-3.5-5.1c-0.3,0.5-0.1,1,0.2,1.5c0.9,1.4,0.5,2.4-0.5,3.6c-3.2,4-1.3,9.8,3.5,11.5c1,0.3,1.6,0.8,2,1.8
			c1,2.4,2.8,3.5,5.5,3.7c1.5,0.2,3.1,0.2,4.3,1.7c2.5,2.9,6.8,3.2,9.9,1c1-0.7,1.9-0.9,3.1-0.7c3,0.6,6.4-1.2,7.3-4.1
			c0.6-2,0.9-4.1,2.4-5.7c0.5-0.5,0.4-1.4,0.4-2.1c-0.1-0.8,0.2-1.4,0.8-1.9c4.5-4.5,3.4-10.6-2.3-13.1c-0.8-0.3-1.4-0.6-1.8-1
			c-0.5-0.5-0.7-1-1-1.8l0,0l0,0C421,304.7,420.8,305,420.6,305.3z"/>
		<path fill="#B63C2D" d="M422.2,306.2c-0.5-0.5-0.7-1-1-1.8l0,0C421.4,305.1,421.8,305.7,422.2,306.2z"/>
		<path fill="#B63C2D" d="M399.7,299.2c1,1.2,1.6,1.2,2.5-0.3c1.7-2.8,7.2-2.8,8.2,0.2c0.2,0.8,0.9,1.1,1.7,1.3
			c2,0.5,4.4,0.7,5.8,2.7c0.9,1.2,1.9,1.8,3.4,1.2c-0.6-3.5-4.2-5.6-8.2-4.7c-1.1,0.3-1.8,0.4-2.5-0.8c-2-3.6-6.8-4.4-10-1.8
			c-0.4,0.4-0.9,0.6-1.3,0.8c-0.4,0.2-0.9,0.3-1.5,0.2C398.5,298.3,399.2,298.6,399.7,299.2z"/>
		<path fill="#B63C2D" d="M395.9,303.9c-1.9-2.3-1-4.1,0.5-5.9c-1.3-0.1-2.3,0.7-2.8,1.8c-0.7,1.5-1.6,2.3-3,3.1
			c-2.5,1.5-3.7,4.4-3.1,6.9C387.8,306.4,391.2,303.3,395.9,303.9z"/>
		<path fill="#FCD97B" d="M400.3,331.1c0.5,0.2,0.5-0.5,0.8-0.7c1-1.8,1.3-3.8,2.3-5.6c0.4-0.7,0.9-1,1.8-1c0.8,0,0.9,0.7,1.1,1.2
			c0.2,0.6,0.2,1.5,0.9,1.9c0.8-0.9,0.4-1.7,0.2-2.6c-0.2-0.6-0.3-1.3,0.2-1.7c0.8-0.4,1.3,0.2,1.6,0.7c0.4,0.6,0.9,1.1,1.4,1.7
			c0.3,0.4,0.8,0.9,1.2,0.5c0.5-0.4,0-1-0.2-1.4c-0.2-0.5-0.6-1.1-0.8-1.6c-0.4-0.7-0.1-1.1,0.7-1.4c1.8-0.6,3.4-0.2,5,0.3
			c0.6,0.2,1.2,0.5,2-0.1c-1-0.9-2.1-1.3-3.2-1.7c-1.1-0.4-1.4-1.2-1.2-2.1c0.1-0.7,0-1.8,1.2-1.9c0.5-0.1,1,0.1,1-0.5
			c0-0.6-0.7-0.7-1.2-0.6c-1.3,0.2-1.5-0.7-1.7-1.5c-0.3-0.9-0.1-1.3,0.6-1.9c1.6-1.4,3-3,4.7-4.6c-2-0.3-3,3-5,0.9
			c-0.4,0.5,0.2,0.8,0.2,1.2c-0.1,0.8-0.7,1.4-1.3,0.9c-0.9-0.8-1.9-1.3-2.6-2c-0.5-0.6,0.2-1.5,0-2.3c0-0.1-0.1-0.2-0.3-0.3
			c-0.8,0.9-1.3,1.9-1.6,3.1c-0.5,1.7-2.1,0.8-3.1,1.3c-0.6,0.3-0.7-0.8-1-1.4c-0.4-0.7-0.2-1.8-1.1-2.3c-0.9,1,0.8,2.5-0.5,3.1
			c-1,0.4-2,1.3-3.4,0.8c0.5,1.3,0.9,2.4,1.2,3.3c-1.6-0.4-3.1,1.2-5,0c0.8,1.8,2.4,1.6,3.1,2.4c0.5,0.5,1.2,0.9,0,1.4
			c-0.5,0.2-0.9,0.6-0.7,1.2c0.1,0.6,0.7,0.7,1.2,0.7c0.3,0,0.8-0.1,0.8,0.3c0.1,1.4-0.6,2.5-1.5,3.5c-0.7,0.8-1.4,0.6-2.1,0
			c0.6,1.4,0.1,2.4-1,3.6c2.3-1,3.9-2.4,5.8-3.3c0.4-0.2,1.1-0.5,1.4,0c0.4,0.5-0.1,1.1-0.5,1.4c-0.2,0.1-0.5,0.3-0.8,0.2
			c-0.4,0.1-1-0.2-1.1,0.4c-0.1,0.6,0.4,0.7,0.8,0.9c0.8,0.3,0.9,0.9,0.7,1.6c-0.3,1.1-0.6,2.2-1,3.4l0,0
			C400.2,330.9,400.2,331.1,400.3,331.1z"/>
	</g>
	<path fill="#522621" d="M363.2,341.8c0.5,1.3,0.2,2.4-1.1,3.2c-2.5,1.7-2.7,3.3-0.3,5c1.2,0.9,1.4,1.5,0.8,2.9
		c-1.1,3,0.6,7.1,3.1,8.3c3.4,1.7,6.9,0.9,9.5-2.3c1.8-2.2,1.9-6.3-0.1-8.9c-2.3-3.1-2.3-3.1,1.3-4.3c1.5-0.5,2.2-1.6,2.2-3.1
		c0-1.5-0.7-2.4-2.4-2.5c-1-0.1-1.7-0.7-2.1-1.5c-0.6-1.1-1.5-1.8-2.6-2.4c-0.8-0.3-1.5-0.6-2.3-0.8c-2.8-0.7-4.3,1.3-6.1,2.8
		C361.6,339.3,362.8,340.5,363.2,341.8z"/>
	<path fill="#522621" d="M354.7,361.5c1.1,0.9,1.4,1.9,0.8,3.4c-1.2,2.7-0.6,4.1,2.3,4.5c1.5,0.2,1.9,0.6,2.1,2
		c0.6,3.2,4.2,5.8,6.9,5.6c3.9-0.3,6.3-2.8,7-6.8c0.4-2.8-1.6-6.4-4.7-7.6c-3.5-1.5-3.5-1.5-1.1-4.4c1-1.2,1.1-2.5,0.3-3.8
		c-0.7-1.2-1.9-1.6-3.3-1c-0.9,0.5-1.8,0.3-2.6-0.2c-1-0.7-2.2-0.8-3.4-0.7c-0.8,0.2-1.6,0.3-2.4,0.5c-2.7,0.8-3,3.4-3.8,5.5
		C352.1,360.2,353.8,360.6,354.7,361.5z"/>
	<path fill="none" d="M388.9,367.4c-0.2,0.4-0.4,0.8-0.7,1.2C388.6,368.3,388.8,367.9,388.9,367.4c0.1-1.1,0.6-2,1.1-2.9
		C389.6,365.4,389.2,366.4,388.9,367.4z"/>
	<path fill="#F76C3B" d="M382.8,365.7c1.7,0.8,3.7,0.9,5.5,1.3c1-3.4,2.2-6.6,2.6-10.1c0.1-0.8-0.1-1.1-0.9-1.1
		c-0.8,0-1.6,0.1-2.4,0.7c-2,1.5-4,2.8-6.2,3.9c1.7-1.9,3.6-3.7,5.3-5.6c0.3-0.4,0.8-0.7,0.9-1.2c0.3-0.9,1.2-1.9-1-2.4
		c-2-0.5-3.8-1-5.9-0.7c-0.3,0-0.8,0-0.8-0.4c0-0.4,0.3-0.4,0.6-0.4c1.6-0.3,3.1-0.6,4.7-0.9c0.6-0.1,1.5,0,1.4-0.6
		c-0.1-0.9-0.4-1.6-1.5-2c-3.4-1.2-6.5-3.1-10-4.2c-0.2-0.1-0.4-0.2-0.3-0.8c1.2,0.7,2.6,0.2,3.9,0.7c2,0.8,4,1.7,6.1,2.3
		c1,0.3,2.2,0.4,2.8-0.4s0.3-2-0.3-3c-0.5-0.7-1-1.4-1.3-2.1c-0.2-0.3-0.4-0.6-0.1-1c0.4-0.4,0.7,0.1,1,0.3c0.2,0.1,0.3,0.3,0.3,0.4
		c1.1,1.6,2.4,1.9,4.3,1.3c1-0.3,1.1-0.7,1-1.4c-0.2-1.1-0.5-2.1-0.7-3.3c0-0.5-0.1-1.2,0.6-1.3c0.5,0,0.7,0.6,0.8,1.1
		c0.3,1.2,0.6,2.4,0.8,3.6c0.2,0.6-0.2,1.7,1,1.5c1.1-0.1,2.5,0.3,2.8-1.6c0.4-2.4,2.5-4,3-6.3c0.2,0.1,0.3,0.2,0.5,0.2
		c-0.2,1-0.2,2-0.5,3c-0.7,2.1,0.6,3.1,1.9,4.2c1.2,0.9,2.1,0,3-0.7c1.6-1.1,3.2-2.2,4.9-3.3c0.1,0,0.4-0.4,0.7-0.5
		c0.3-0.2,0.5,0,0.7,0.7c0.7-0.3,1.2-0.9,1.7-1.3c0.5-0.5,0.9-1.1,1.4-1.6c0-0.1,0-0.1-0.1-0.3c-2.2,1.3-3.4,0.1-4.5-1.6
		c-1.7-2.7-4.9-2.2-7.3-3.3c-0.3-0.2-0.7,0.1-0.9,0.4c-0.2,0.3-0.2,1-0.8,0.7c-0.5-0.1-0.4-0.6-0.5-1c-0.5-2.4-1.5-4.3-4.1-4.7
		c-3-0.5-5.7,0.3-7.3,2.9c-1,2-1.5,1.4-2.6,0.2c-1.3-1.4-3.9-1.7-5.1-0.9c-1.6,1.1-2.2,3-1.5,5c0.2,0.6,0.6,1.4,1,2.2
		c-2.8-0.9-5.2-0.2-7.3,1.4c-4.5,3.5-3.9,9.1,1,11.8c1.2,0.6,2.7,0.7,3.6,1.8c0.3,0.3,0.7,0.6,0.5,1.1c-0.3,0.5-0.8,0.2-1.1,0.1
		c-1.2-0.3-2.4-0.8-3.4-1.7c-1.3-1.1-2-0.3-2.7,0.6c-2.9,4.1-1.7,11.5,5.8,12.6c0.8,0.1,1.6,0.1,2.6,0.2c-0.4,1.7-2.1,1.8-3,2.7
		c0,0.1,0.1,0.3,0.1,0.4l0,0C379.9,362.9,381,364.8,382.8,365.7z"/>
	<path fill="#F76C3B" d="M377.6,363L377.6,363L377.6,363z"/>
	<path fill="#B63C2D" d="M412.2,335.4c0.7-0.3,1.2-0.9,1.7-1.3C413.4,334.6,412.8,335.1,412.2,335.4L412.2,335.4z"/>
	<path fill="#B63C2D" d="M380.5,360c-0.9-0.1-1.7,0-2.6-0.2c-7.5-1.1-8.6-8.4-5.8-12.6c0.7-1,1.3-1.7,2.7-0.6
		c0.9,0.8,2.2,1.3,3.4,1.7c0.4,0.1,0.9,0.4,1.1-0.1c0.3-0.5-0.2-0.8-0.5-1.1c-0.9-1-2.5-1.1-3.6-1.8c-5-2.7-5.5-8.3-1-11.8
		c2.1-1.6,4.5-2.4,7.3-1.4c-0.4-0.9-0.7-1.5-1-2.2c-0.7-2.1-0.1-4,1.5-5c1.2-0.9,3.8-0.4,5.1,0.9c1.1,1.2,1.5,1.7,2.6-0.2
		c1.5-2.7,4.3-3.5,7.3-2.9c2.6,0.4,3.6,2.4,4.1,4.7c0.1,0.4,0.1,0.9,0.5,1c0.5,0.2,0.6-0.4,0.8-0.7c0.2-0.3,0.6-0.5,0.9-0.4
		c2.4,1.1,5.6,0.7,7.3,3.3c1.2,1.8,2.3,3,4.5,1.6c-1.1-4.9-6.5-7.6-11.6-5.9c-1,0.3-1.5,0.4-2.1-0.7c-2.8-5.5-9.8-6.6-14.2-2.3
		c-0.6,0.6-1.1,0.8-2,0.6c-3.5-0.7-5.8,0.6-7.2,4c-0.4,0.9-1,1.4-1.7,1.9c-5,2.7-7,7.6-4.8,12.7c0.6,1.5,0.4,2.3-0.6,3.4
		c-4.6,5.2-2.5,13.1,4.1,15.6c0.5,0.1,0.9,0.3,1.4,0.4c0.5,0.1,0.9,0.4,1.2,0.7l0,0C378.5,361.8,380.1,361.7,380.5,360z"/>
	<path fill="#B63C2D" d="M376.2,362c0.5,0.1,0.9,0.4,1.2,0.7l0,0C377.1,362.3,376.7,362.1,376.2,362z"/>
	<path fill="#522621" d="M422.4,340.5c2.4,1.8,2.8,3.1,1.3,5.7c-1.2,2.1,0.7,5.8,3,6.9c2.5,1.1,4.9,0.4,6.4-2.5
		c0.1-0.2,0.7-0.9,0.6-1.5c-0.5-2.5,0-4.9,0.4-7.2c0-0.3-0.1-0.7-0.2-1.1c-0.9-2.4-1.3-4.7-1.4-7.2c-0.1-2.3-1.5-3.4-3.4-4.1
		c-3-0.9-6.6,0.4-8.2,3.2C419.6,334.9,419.9,338.7,422.4,340.5z"/>
	<path fill="#522621" d="M410.1,375.6c0.6,2,3.4,3.6,5.9,2.5c3.8-1.6,7.9-2.2,11.5-4.5c4.5-2.8,4.5-9.3-0.1-11.6
		c-4.6-2.4-8.9-0.8-10.9,4.3c-0.6,1.5-1.1,2.6-2.9,3C411.3,370.1,409.5,373.7,410.1,375.6z"/>
	<path fill="#522621" d="M438.5,374c2.1,0.3,4.6-1.7,4.6-4.5c-0.1-4.1,1-8.2,0.2-12.3c-0.9-5.3-6.8-7.7-10.7-4.5
		c-4,3.4-4.2,8-0.2,11.8c1.2,1.2,1.9,2.1,1.7,3.8C433.9,370.7,436.6,373.9,438.5,374z"/>
	<path fill="#522621" d="M379.6,323.3c1.7,2.5,5.7,4.2,8.2,2.5c2.9-2,5.1-2.4,8.2-0.5c1.9,1.1,4.1-0.4,5.3-2.3
		c0.8-1.4,1.2-3-0.3-4.2c-1.6-1.4-3.5-2.7-5.7-2.5c-2.4,0.2-4.7,0.5-6.5-1.5c-1.4-1.2-2.8-1.1-4.3-0.5c-0.5,0.2-1.5,0.3-1.8-0.1
		c-1.2-1-1.6-0.1-2.2,0.4C378,317.1,377.8,320.7,379.6,323.3z"/>
	<path fill="#522621" d="M405.7,296.2c1.7,2.5,5.7,4.2,8.2,2.5c2.9-2,5.1-2.4,8.2-0.5c1.9,1.1,4.1-0.4,5.3-2.3
		c0.8-1.4,1.2-3-0.3-4.2c-1.6-1.4-3.5-2.7-5.7-2.5c-2.4,0.2-4.7,0.5-6.5-1.5c-1.4-1.2-2.8-1.1-4.3-0.5c-0.5,0.2-1.5,0.3-1.8-0.1
		c-1.2-1-1.6-0.1-2.2,0.4C404.1,290.1,403.8,293.5,405.7,296.2z"/>
	<path fill="#522621" d="M377.6,368.1c-1.5,2.9-0.1,6.3,3.2,8.2c4.6,2.4,5.7,2.1,8.1-2.4c1.6-3.1,0.7-5.8-2.6-7.6
		C383,364.4,379.1,365.3,377.6,368.1z"/>
	<path fill="#B63C2D" d="M388.2,367c-1.8-0.4-3.8-0.5-5.5-1.3c-1.8-0.8-2.8-2.9-5.1-2.7c0.1,0.8,0.3,1.6,0.7,2.3
		c0.3,0.5,0.6,0.9,1,1.4c1.6,1.7,4.1,2.6,6.6,2.1c0.6-0.1,1.2-0.5,1.8-0.1l0,0C388.3,368.2,387.9,367.5,388.2,367z"/>
	<path fill="#B63C2D" d="M377.6,363c0.1,0.8,0.3,1.6,0.7,2.3C377.9,364.6,377.7,363.8,377.6,363L377.6,363z"/>
	<path fill="#B63C2D" d="M385.9,368.8c0.6-0.1,1.2-0.5,1.8-0.1l0,0C387.2,368.3,386.6,368.7,385.9,368.8z"/>
	<path fill="#522621" d="M401.1,377.6c2.6,1.6,4.8,1.3,5.9-0.8c1.7-2.9,1.2-5.1-1.3-6.5c-2.6-1.5-5.2-0.9-6.5,1.2
		C398.1,373.8,398.7,376.2,401.1,377.6z"/>
	<path fill="#522621" d="M416,338.1c1.5,0.7,2.9,0.6,3.8-1c1-1.8,0.2-3.3-1.2-4.1c-1.7-1.1-2.9,0.4-3.8,1.5
		C413.7,336,414.8,337.2,416,338.1z"/>
	<path fill="#522621" d="M418,330.5c1.5,0.7,2.9,0.6,3.8-1c1-1.8,0.2-3.3-1.2-4.1c-1.7-1.1-2.9,0.4-3.8,1.5
		C415.7,328.5,416.8,329.6,418,330.5z"/>
	<path fill="#522621" d="M430.8,328.1c1.5,0.7,2.9,0.6,3.8-1c1-1.8,0.2-3.3-1.2-4.1c-1.7-1.1-2.9,0.4-3.8,1.5
		C428.6,326.1,429.6,327.2,430.8,328.1z"/>
	<path fill="#FCD97B" d="M388.9,367.4c0.1-1.1,0.6-2,1.1-2.9c0.5-0.9,1-1.8,1.2-2.9c0.1-0.7,0.5-1.3,0.7-2c0.6-2,1.3-2.4,3.4-1.9
		c0.6,0.1,0.8,0.5,0.9,1c0.2,0.7,0.5,1.3,1,2c1.3-1.7-0.8-3.8,0.8-5.3c2,0.7,3.2,2.3,4.4,3.8c0.3,0.4,0.8,0.9,1.3,0.5
		c0.4-0.4,0.1-0.9-0.1-1.3c-0.1-0.3-0.3-0.4-0.3-0.6c-0.3-1.1-2-2.4-1.1-3c1.3-0.8,2.8-1.6,4.8-1.1c3,0.6,5.7,1.8,9.2,2.4
		c-2.1-1.6-4.2-2-6.1-3c-0.9-0.5-2.2-0.9-0.9-2.8c-1.5,0.8-2.6,1.8-3.3,0.2c-0.5-1,0.4-2.8,1.7-3.4c0.5-0.2,1.2-0.4,1.9-0.7
		c0.4-0.1,1.1,0.3,1-0.5c0-0.5-0.8-0.4-1.2-0.5c-0.8,0-1.6-0.1-2.4,0c-1.3,0.3-1.7-0.7-2.3-1.5c-0.6-0.9,0.2-1.4,0.7-2
		c1.6-1.6,3.2-3.1,4.8-4.7c0.8-0.7,1.4-1.3,2.2-1.9c-0.2-0.7-0.4-0.8-0.7-0.7c-0.3,0.2-0.6,0.4-0.7,0.5c-1.7,1-3.2,2.2-4.9,3.3
		c-0.9,0.6-1.8,1.6-3,0.7c-1.4-1-2.6-2.1-1.9-4.2c0.3-1,0.4-2,0.5-3c-0.2-0.1-0.3-0.2-0.5-0.2c-0.5,2.4-2.5,4-3,6.3
		c-0.3,1.8-1.8,1.5-2.8,1.6c-1.1,0.1-0.8-0.9-1-1.5c-0.3-1.2-0.5-2.4-0.8-3.6c-0.1-0.5-0.3-1.1-0.8-1.1c-0.7,0.1-0.6,0.7-0.6,1.3
		c0.1,1.1,0.4,2.2,0.7,3.3c0.1,0.8,0.1,1.1-1,1.4c-1.9,0.5-3.2,0.2-4.3-1.3c-0.1-0.2-0.3-0.3-0.3-0.4c-0.3-0.3-0.6-0.7-1-0.3
		c-0.3,0.2-0.1,0.7,0.1,1c0.4,0.8,0.9,1.4,1.3,2.1c0.7,1,0.9,2.2,0.3,3c-0.5,0.8-1.8,0.8-2.8,0.4c-2.1-0.7-4.1-1.5-6.1-2.3
		c-1.4-0.5-2.7-0.1-3.9-0.7c-0.1,0.5,0.2,0.7,0.3,0.8c3.5,1.1,6.6,3,10,4.2c1.1,0.4,1.4,1.2,1.5,2c0,0.8-0.9,0.6-1.4,0.6
		c-1.6,0.3-3.1,0.6-4.7,0.9c-0.3,0.1-0.7,0.1-0.6,0.4c0.1,0.5,0.4,0.4,0.8,0.4c2-0.2,3.9,0.2,5.9,0.7c2.2,0.5,1.2,1.5,1,2.4
		c-0.1,0.5-0.6,0.8-0.9,1.2c-1.7,1.9-3.5,3.8-5.3,5.6c2.3-1.1,4.3-2.5,6.2-3.9c0.7-0.6,1.5-0.7,2.4-0.7c0.8,0,1,0.3,0.9,1.1
		c-0.4,3.5-1.6,6.8-2.6,10.1c-0.3,0.5,0,1.2-0.5,1.7c-0.1,0.4-0.3,0.7-0.4,1.2c0.3-0.4,0.6-0.7,0.9-1.1
		C388.6,368.3,388.8,367.9,388.9,367.4z"/>
	
		<rect x="356.5" y="315.9" transform="matrix(0.4658 -0.8849 0.8849 0.4658 -104.8957 539.3346)" fill="none" width="75.5" height="81.3"/>
	<path fill="none" d="M386.2,365.2c0.5,0.3,1,0.4,1.6,0.1c0,0,0.1,0,0.2-0.1c0,0.1,0,0.1-0.2,0.1
		C387.1,365.7,386.6,365.5,386.2,365.2z"/>
	<path fill="none" d="M386.4,322.9c-0.4-0.1-0.8-0.2-1.2-0.2C385.7,322.7,386.1,322.8,386.4,322.9L386.4,322.9z"/>
	<path fill="none" d="M381,358.5c-0.3,0.1-0.4,0.1-0.5,0.2C380.7,358.6,380.8,358.5,381,358.5L381,358.5z"/>
	<path fill="none" d="M379.8,361.9c-1,0.3-2,0.6-3.1,0.6C377.9,362.5,378.8,362.2,379.8,361.9z"/>
	<path fill="#B63C2D" d="M414.4,338.4c0.1,0.6,0.4,1.5,0.1,2c-1.7,2.7-0.4,5.7-1.2,8.6c-0.1,0.5-0.2,1-0.1,1.4
		c0.5,2.3-0.4,4-1.8,5.6c-0.6,0.7-1,1.4-1.1,2.3c-1.1,5.5-5.8,7.6-10.7,4.8c-0.8-0.4-1.5-0.6-2.1,0c-1.7,1.4-3.4,1.1-5.3,0.4
		c-1.9-0.7-3.2-0.1-4.1,1.7c0.9,0.1,1.7,0.5,2.3,0.9c0.7,0.5,1.3,1,1.8,1.8c2.1,2.9,9,4.8,12.4,2.1c1.1-0.8,2.2-1.4,3.4-2.2
		c0.4-0.2,0.8-0.3,1.2-0.5c1.8-1.9,2.5-4.5,3.5-6.8c0.3-0.5,0-1.3,0.6-1.5c2.9-1.2,2.4-3.9,2.6-6.2c0.1-0.9,0.4-1.3,1.1-1.7
		c4.8-2.7,6-6.6,3.6-11.5c-0.3-0.7-0.6-1.4-0.9-1.9c-0.5-0.4-1.1-0.7-1.7-1.1c-0.3,0.2-0.7,0.3-1-0.2l0,0c-0.9-0.1-1.8-0.2-2.8-0.4
		l0,0c-0.3,0-0.5-0.2-0.8-0.2C413.9,336.6,414.1,337.5,414.4,338.4z"/>
	<path fill="#B63C2D" d="M417.1,336.3L417.1,336.3L417.1,336.3c-0.9-0.1-1.8-0.2-2.8-0.4l0,0C415.3,335.9,416.1,336.1,417.1,336.3z"
		/>
	<path fill="#B63C2D" d="M372.6,352.2c-1.1,2.2-0.6,4.3,0.4,6.5c0.6,1.1,0.7,2.5,2.2,3.4c0.6,0.3,1,0.4,1.5,0.5
		c1.1,0.1,2.1-0.3,3.1-0.6c0.4-0.1,0.8-0.2,1.1-0.3c0.2-0.3,0.1-0.6-0.1-0.9c-0.1-0.3-0.3-0.5-0.3-0.8c0-0.1-0.2-0.3-0.2-0.5
		c0-0.3-0.1-0.6,0.2-0.8c0.2-0.1,0.3-0.2,0.5-0.2c0.1-0.5,0.2-1,0.4-1.5c-0.9-0.3-1.9-0.7-2.8-0.9c-2.1-0.7-3.9-3.2-4-5.4
		c-0.1-1.4,1.2-2,1.7-3c0.6-0.9,0.5-1.2-0.4-1.8c-2.2-1.4-2.4-2.5-0.8-4.7c0.9-1.3,0.8-2.9-0.3-3.8c-1.2-0.2-2.3,0-3.5,0.7
		c-1,0.7-1.8,1.7-2.3,2.9c-0.5,1.4-0.6,3-0.8,4.5c0.6,1.2,1,2.7,2.2,3.5c0.5,0.1,0.6,0.4,0.7,0.8l0,0c0.2,0.1,0.3,0.3,0.5,0.4
		C372.8,350.4,373.2,351.1,372.6,352.2z"/>
	<path fill="#522621" d="M392.1,367.8c-0.5-0.8-1.1-1.3-1.8-1.8c-0.7-0.5-1.4-0.7-2.3-0.9l0,0.1c0,0.1,0,0.1-0.2,0.1
		c-0.7,0.4-1.2,0.2-1.6-0.1c-0.2-0.1-0.3-0.3-0.5-0.3c-0.2-0.2-0.3-0.4-0.6-0.5c-1.6-0.5-3-1.6-4.3-2.8c-0.3,0-0.7,0.2-1.1,0.3
		c-1,0.3-2,0.6-3.1,0.6c-0.5-0.1-1-0.2-1.5-0.5c-1.4-0.9-1.6-2.1-2.2-3.4c-0.9-2.1-1.5-4.3-0.4-6.5c0.6-1.1,0.2-1.7-0.9-2.2
		c-1.1,2.1-2.1,4-1.7,6.6c0.9,5.2,6.1,8.4,10.2,7.7c0.9-0.1,1.4,0.1,2,0.9c1.5,2.6,3.9,3.3,6.6,2.9c1.5-0.3,2.2,0.3,2.9,1.3
		c2,2.8,4.8,4.4,8.3,4.3c3.6-0.1,7.4-2.9,7.8-5.8c-1.1,0.7-2.4,1.3-3.4,2.2C401.1,372.7,394.2,370.8,392.1,367.8z"/>
	<path fill="#522621" d="M390.3,366.1c-0.7-0.5-1.4-0.7-2.3-0.9l0,0C388.9,365.4,389.6,365.6,390.3,366.1z"/>
	<path fill="#522621" d="M379.8,361.9c0.4-0.1,0.8-0.2,1.1-0.3l0,0C380.6,361.6,380.2,361.7,379.8,361.9z"/>
	<path fill="#522621" d="M415.3,350.3c-0.8,0.4-1,0.9-1.2,1.8c-0.3,2.5,0.1,5.4-2.9,6.6c-0.5,0.2-0.4,1-0.6,1.6
		c-1.1,2.5-1.8,5.3-3.8,7.3c2.3-0.1,3.8-1.2,5-3c1.7-2.7,2.6-5.9,4.8-8.3c0.4-0.4,0.5-1.2,0.6-1.8c0.2-1.3,0.8-2,1.7-2.9
		c3.4-2.7,4.7-6.2,3.7-10.4c-0.6-2.4-1.7-4.8-4.5-5.8c0.4,0.7,0.6,1.5,1,2.2C421.8,343.2,420.6,347.3,415.3,350.3z"/>
	<path fill="#522621" d="M408.2,292.1c0.7-0.9,1.8-1.4,3-1.6c1.1-0.3,2.3-0.3,3.4-0.8c2.8-1.1,6.1,0.1,7.4,2.8
		c-0.6,0.3-1-0.4-1.6-0.3c0,0.1,0,0.1,0.1,0.3c1.1,1.6,3,2.9,2.2,5.4c-0.1,0.4,0.3,1.6,1.3,1.4c0.6-0.1,1.1-0.1,1.6,0
		c0.5,0.1,0.8,0.3,1.2,0.6c0.7,0.6,1.1,1.3,1.6,2c0,0,0.1,0,0,0.1c0.9,0.4,1.7,0.8,2.4,1.3c0.8,0.5,1.4,1.2,2,1.8
		c0.3,0,0.5,0.2,0.8,0.2l0,0c-0.2-0.2-0.3-0.5-0.4-0.6s-0.3-0.5-0.2-0.8c-0.7-4.1-3.2-6.4-7.4-6.9c-0.9-0.1-1.2-0.6-1.4-1.5
		c-0.3-1.4-0.5-2.8-1.5-4.1c-4.3-5.5-10.9-5.6-15.4-0.4c-0.3,0.5-0.8,0.9-1.4,1.2c-0.1,0-0.2,0.1-0.3,0.2l0,0
		C406.5,293.1,407.3,293.4,408.2,292.1z"/>
	<path fill="#522621" d="M386.7,322.7c0.6-0.2,1-0.7,1.4-1.2C387.6,322,387.3,322.5,386.7,322.7z"/>
	<path fill="#522621" d="M413.6,335.6c0.3,0,0.5,0.2,0.8,0.2l0,0C414.1,335.8,413.8,335.7,413.6,335.6z"/>
	<path fill="#522621" d="M418,336.4c-0.1-0.2-0.3-0.3-0.4-0.2c-0.2-0.1-0.3,0-0.5,0.1C417.3,336.6,417.7,336.6,418,336.4z"/>
	<path fill="#522621" d="M417.6,336.2c-0.2-0.1-0.3,0-0.5,0.1l0,0C417.3,336.2,417.4,336.1,417.6,336.2z"/>
	<path fill="#F76C3B" d="M374.9,337.2c1,0.9,1.2,2.5,0.3,3.8c-1.6,2.2-1.4,3.4,0.8,4.7c1,0.6,0.9,0.9,0.4,1.8c-0.6,1-1.9,1.6-1.7,3
		c0.1,2.2,2,4.7,4,5.4c0.9,0.3,1.9,0.7,2.8,0.9c2.8-0.4,4.9-3.5,4.4-6.1c-0.1-0.6-0.6-0.5-1-0.5c-0.8-0.1-1.8-0.3-1.9-1.1
		c-0.1-0.8,0.6-1.3,1.2-1.6c1.3-0.6,0.7-1.3,0.1-2c-1-1.3-2.8-1.1-4-2.3c0.8-0.2,1.6,0.1,2.4,0.1c2.1-0.2,3.4,1.4,5.2,1.8
		c0.5,0.1,1.2,0.6,1.5-0.1c0.3-0.5-0.4-0.8-0.8-1.1c-0.6-0.5-1.2-1.1-1.8-1.6c-1.1-1.1-1-2.7,0.4-3.3c3-0.9,4-2.7,2.5-5.6
		c-0.2-0.3-0.3-0.8,0.2-1.5c1,1.4,1.2,3,1.6,4.4c0.2,0.8,0.1,1.8,1,1.9c1,0,2.3,0.1,3.1-0.6c2.5-2.3,2.5-2.3,4.9-0.2
		c0.2,0.2,0.3,0.4,0.5,0.5c0.7,0.6,0.4,2,1.6,1.9c0.9-0.1,1.3-1,1.9-1.6c1.2-1.1,3.1-1.8,4-3.4c0.2-0.4,1.1-0.5,1.4,0
		c0.2,0.3,0.1,1.2-0.5,1.4c-2.2,0.8-3.3,2.8-5.1,4c-1.4,0.9-1.7,3.3-0.3,4.7c1.4,1.3,1,2.6,0.5,3.7c-0.7,1.5,0,2.2,1.2,2.8
		c1.3,0.7,2.6,1.4,3.9,2.1c0.1,0,0.1,0.3,0.2,0.5c-1.6,0-2.9-0.7-4.3-1.2c-2-0.8-3.6,0.6-5.5,0.6c-0.5,0-0.5,0.8-0.3,1.3
		c0.4,0.8,0.8,1.6,1.4,2.8c-1.9-0.6-2.6-2-3.6-2.8c-1.2-0.9-1.3-0.2-1.5,0.5c-0.4,0.9-0.5,1.7-0.2,2.6c0.3,0.9,0.4,1.8,0.3,3.1
		c-0.8-1.1-1-2-1-2.9c-0.1-1.3-1.1-1.6-2.1-1.8s-1.7,0.3-2.1,1.3c-0.5,1.1-0.9,2.2-1.7,3.2c-0.3-1.3,0.1-2.5,0.5-3.7
		c0.4-1.1,0.1-1.3-1.1-1.6c-2.7-0.7-4.3,0.8-5.6,2.6c-0.8,1.1-1.2,0.3-1.7,0c-0.3,0.1-0.4,0.1-0.5,0.2c-0.2,0.2-0.3,0.5-0.2,0.8
		c0,0.1,0,0.3,0.2,0.5c0.1,0.3,0.2,0.5,0.3,0.8c0.1,0.3,0.2,0.5,0.1,0.9l0,0c1.3,1.2,2.6,2.2,4.3,2.8c1.1-0.6,2.2-0.8,2.6,0.9
		c0,0,0.1,0,0.2-0.1l0-0.1c1-1.8,2.2-2.4,4.1-1.7c1.9,0.7,3.6,1,5.3-0.4c0.6-0.5,1.3-0.4,2.1,0c4.9,2.8,9.7,0.5,10.7-4.8
		c0.1-0.9,0.6-1.5,1.1-2.3c1.3-1.6,2.3-3.4,1.8-5.6c-0.1-0.5,0-1,0.1-1.4c0.9-2.8-0.5-5.9,1.2-8.6c0.3-0.5,0-1.3-0.1-2
		c-0.1-0.9-0.5-1.9-0.7-2.8l0,0c-0.6-0.7-1.3-1.3-2-1.8c-0.8-0.5-1.5-0.9-2.4-1.3l0,0c-1.3,0.2-2.7,0.1-3.9,0.6
		c-0.8,0.3-1.6,0.3-2.2-0.6c-1.5-2.3-3.8-3.1-6.5-2.5c-0.8,0.2-1.6,0.1-1.9-0.6c-1.2-2.5-3.6-2.6-5.8-2.7c-2.3-0.2-6.3,1.7-6.5,4.6
		c-0.1,0.9-0.3,1.4-0.7,1.7c-0.4,0.2-1,0.2-1.8,0c-0.3,0.2-0.7,0.5-1,0.7c-0.3,0.2-0.3,0.7-0.8,0.5c-0.8-0.2-1.4-0.3-1.8-0.3
		c-0.3,0-0.7,0.1-1,0.2c-0.3,0.2-0.4,0.3-0.6,0.7C374.5,335.3,374.6,336.1,374.9,337.2L374.9,337.2z"/>
	<path fill="#F76C3B" d="M414.4,338.4c-0.1-0.9-0.5-1.9-0.7-2.8l0,0C413.9,336.6,414.1,337.5,414.4,338.4z"/>
	<path fill="#F76C3B" d="M379.9,333L379.9,333c0.8,0.2,1.3,0.3,1.8,0C381.2,333.3,380.6,333.2,379.9,333z"/>
	<path fill="#F76C3B" d="M380.9,360.8c0.1,0.3,0.2,0.5,0.1,0.9l0,0l0,0C381.1,361.3,381,361,380.9,360.8z"/>
	<path fill="#F76C3B" d="M380.4,359.5c0-0.3-0.1-0.6,0.2-0.8C380.3,358.9,380.4,359.2,380.4,359.5z"/>
	<path fill="#F76C3B" d="M388,365.1L388,365.1C388,365.2,387.9,365.2,388,365.1C387.9,365.2,388,365.2,388,365.1z"/>
	<path fill="#F76C3B" d="M411.6,333.8c-0.8-0.5-1.5-0.9-2.4-1.3l0,0C410,332.8,410.9,333.2,411.6,333.8z"/>
	<path fill="#FCD97B" d="M378.7,362.3c1.7-2.4-2.9,3.7,0.6,4.5c1.5,0.4,8.4-7.1,8-5.7c-0.5,1.5-12.3,28-11.9,29.7
		c0.9-1.3,12.9-27.7,13.5-29.1c0.5-1.3,1.3-1.9,2.7-1.7c1.4,0.2,2.6,0.5,2.8,2.2c0.1,1.1,3.8,33.2,4.8,34.6c0.2-1.7-3.4-33.9-3.8-35
		c-0.4-1.2-0.2-2.3,0.3-3.3c0.4-0.9,0.5-1.9,2-0.6c1.3,1.1,29.9,31.6,32.3,32.4c-0.8-1.6-28.9-31.3-29.5-32.3
		c-0.4-0.7,12.5,11.7,13.2,11.7c2.3,0-8.4-15.1-5.9-14.2c1.7,0.7,19.3,12.6,21.4,12.5c0-0.3-16.1-11.6-16-11.6
		c12.7,3.6,28.2,8.2-5-2.6c-1.6-0.5-2.4-1.6-1.5-3.6c0.7-1.5,1.2-3.1-0.7-4.8c-1.8-1.7-1.3-4.7,0.4-5.9c2.3-1.5,3.8-4.2,6.5-5.1
		c0.7-0.3,0.9-1.3,0.6-1.8c-0.3-0.6-1.5-0.5-1.8,0c-1.3,2-3.5,2.8-5.1,4.3c-0.8,0.7-1.3,1.9-2.4,2c-1.6,0.1-1.3-1.7-2.1-2.5
		c-0.2-0.2-0.4-0.4-0.7-0.7c-3-2.7,0.2-23.1-3.1-20.1c-1.1,1-5.8,21.3-7.1,21.2c-1.3,0-1-1.5-1.4-2.4c-0.5-1.8-0.8-3.8-2.1-5.5
		c-0.6,0.8-0.4,1.5-0.2,1.9c1.8,3.7,0.6,5.8-3.3,7.2c-1.9,0.6-2,2.8-0.6,4.1c0.7,0.7,1.5,1.3,2.2,2c0.4,0.4,1.3,0.7,1.1,1.4
		c-0.4,0.8-1.3,0.2-1.8,0.1c-2.3-0.5-4-2.4-6.7-2.2c-0.9,0.1-20.7-2.3-21.8-2.2c1.5,1.6,22.7,3.4,24,5c0.7,0.9-17.1,3.6-18.7,4.3
		c-0.8,0.4,16.8-0.7,17,0.3c0.2,1.2-20.7,7.8-19.7,7.9c0.5,0.1,23.2-6.5,23.5-5.8c0.8,3.3-2,7.2-5.6,7.8c-0.1,0.7-0.3,1.3-0.4,2l0,0
		l-26.2,22C351,384.5,377.8,363.7,378.7,362.3z M388.6,345.7c1.3-0.8,2.3-2.4,4.3-1.5c0.6,0.2,1.6,0.1,2.3-0.3
		c1.3-0.8,2.4-0.5,3.5,0.2c1.3,0.2,1.2,0.7,0.8,1.8c-0.7,1.9-2.2,3.4-2.5,5.4c-0.1,0.7-0.8,0.9-1.4,1.1c-1.3,0.2-7.4-2.9-7.8-4.2
		C387.5,347.3,387.8,346.2,388.6,345.7z"/>
	<path fill="#FCD97B" d="M381.5,356.9c-0.1,0.5-0.2,1-0.4,1.5l0,0C381.2,357.9,381.3,357.4,381.5,356.9z"/>
	<path fill="#B63C2D" d="M387.7,365.3c-0.3-1.8-1.4-1.5-2.6-0.9c0.2,0.2,0.3,0.4,0.6,0.5c0.1,0.2,0.3,0.3,0.5,0.3
		C386.6,365.5,387.1,365.7,387.7,365.3z"/>
	<path fill="#29101D" d="M395.9,350.8c0.5-0.1,1-0.3,1.1-0.8c0.3-1.5,1.4-2.7,2-4.2c0.3-0.9,0.4-1.4-0.6-1.4
		c-0.9-0.6-1.7-0.8-2.7-0.3c-0.5,0.3-1.3,0.4-1.7,0.3c-1.6-0.6-2.3,0.6-3.4,1.2c-0.6,0.4-0.9,1.3-0.7,2.1
		C390.3,348.4,395,350.9,395.9,350.8z"/>
	
		<ellipse transform="matrix(0.4658 -0.8849 0.8849 0.4658 -126.2588 593.559)" fill="#FCD97B" cx="428.5" cy="401.4" rx="1.9" ry="1.9"/>
	
		<ellipse transform="matrix(0.4658 -0.8849 0.8849 0.4658 -124.0366 563.6447)" fill="#FCD97B" cx="404.8" cy="384.6" rx="2" ry="2"/>
	
		<ellipse transform="matrix(0.4658 -0.8849 0.8849 0.4658 -101.6364 495.6802)" fill="#FCD97B" cx="359.7" cy="332" rx="1.8" ry="1.8"/>
	
		<ellipse transform="matrix(0.4658 -0.8849 0.8849 0.4658 -123.8 499.8913)" fill="#FCD97B" cx="352.1" cy="352.5" rx="1.3" ry="1.3"/>
	
		<ellipse transform="matrix(0.4658 -0.8849 0.8849 0.4658 -134.8339 505.2925)" fill="#FCD97B" cx="351.1" cy="364.3" rx="0.7" ry="0.7"/>
	
		<ellipse transform="matrix(0.4658 -0.8849 0.8849 0.4658 -98.538 583.2008)" fill="#FCD97B" cx="433.8" cy="373.2" rx="0.7" ry="0.7"/>
	
		<ellipse transform="matrix(0.4658 -0.8849 0.8849 0.4658 -72.8246 532.0198)" fill="#FCD97B" cx="404.2" cy="326.3" rx="2.1" ry="2.1"/>
	
		<ellipse transform="matrix(0.4658 -0.8849 0.8849 0.4658 -66.8621 555.9239)" fill="#FCD97B" cx="427" cy="333.3" rx="1.1" ry="1.1"/>
	
		<ellipse transform="matrix(0.4658 -0.8849 0.8849 0.4658 -77.5483 515.9983)" fill="#FCD97B" cx="388.6" cy="322.2" rx="1.6" ry="1.6"/>
	
		<ellipse transform="matrix(0.4658 -0.8849 0.8849 0.4658 -86.8178 551.468)" fill="#FCD97B" cx="413.3" cy="347.6" rx="1.8" ry="1.8"/>
	
		<ellipse transform="matrix(0.4658 -0.8849 0.8849 0.4658 -95.104 511.1105)" fill="#FCD97B" cx="375.8" cy="334.3" rx="1.8" ry="1.8"/>
	
		<ellipse transform="matrix(0.4658 -0.8849 0.8849 0.4658 -158.7148 508.3431)" fill="#FCD97B" cx="341.7" cy="385.6" rx="0.9" ry="0.9"/>
	
		<ellipse transform="matrix(0.4658 -0.8849 0.8849 0.4658 -150.4835 534.5395)" fill="#FCD97B" cx="367.5" cy="391.9" rx="1.2" ry="1.2"/>
	
		<ellipse transform="matrix(0.4658 -0.8849 0.8849 0.4658 -144.6894 502.6693)" fill="#FCD97B" cx="344" cy="371.2" rx="1.4" ry="1.4"/>
	
		<ellipse transform="matrix(0.4658 -0.8849 0.8849 0.4658 -133.7624 488.834)" fill="#FCD97B" cx="338" cy="355.2" rx="1.3" ry="1.3"/>
	<path fill="#035E91" d="M477.5,282.4c2.6-0.7,1-2.7,1.1-4.2c0.1-0.9,0.2-1.7,0.2-2.6c0.4,0,0.9-0.1,1.3-0.1
		c0.4,1.9,0.8,3.8,1.2,5.8c2.6-0.3,5-0.7,7.8-1.1c-0.3-2.3-0.6-4.2-0.8-6.3c0.4-0.1,0.8-0.2,1.2-0.3c0.6,1.8,1.3,3.6,2,5.7
		c2.3-0.4,4.7-0.6,7.3-1c-0.2-2.2-0.4-4.3-0.6-6.3c0.3,0,0.6-0.2,1-0.2c0.4,0.8,1.1,1.7,1.2,2.6c0.4,3.2,0.6,3.8,5.4,2.8
		c1-0.2,1.8-0.6,2.8-0.9c0-2.1-0.2-4.1-0.2-6.1c0.5-0.1,0.9-0.1,1.4-0.1c0.3,1.4,0.7,2.8,0.8,4.1c0.1,1.6,0.9,2.2,2.6,1.7
		c1.8-0.4,3.7-0.7,5.6-1.2c-0.3-1.7-0.6-3.5-0.7-5.3c0-0.4,0.6-0.8,1-1.3c0.4,0.3,0.9,0.6,1,0.9c0.3,1.6,0.5,3.1,0.8,5.2
		c2.9-0.6,5.4-1.1,7.7-1.5c1.3-2.4-1.8-4.4-0.2-6.4c0.4,0,0.8,0.1,1.2,0.1c0.6,1.8,1.3,3.6,2,5.7c2.2-0.4,4.6-0.9,7.1-1.4
		c-0.1-2.2-0.2-4.2-0.3-6.2c0.4-0.1,0.8-0.1,1.2-0.2c0.3,1.1,0.8,2.1,0.9,3.2c0.5,3.8,3.4,2,5.5,2c2.5-0.1,2.8-1.4,2.4-3.3
		c-0.3-1.1-0.4-2.3-0.7-4.4c3.6,1.7,1.9,4.6,3.7,6.7c2.2-0.3,4.7-0.6,7.2-1c0,0.3,0.2,0.7,0.2,1.1c-2.3,0.6-4.7,1-7.3,1.6
		c0.3,2.2,0.6,4.1,0.9,6.2c-0.3,0.1-0.6,0.2-0.9,0.3c-0.4-0.7-1.1-1.4-1.2-2.2c-0.1-3.4-2-4-5.2-3.2c-1,0.3-2.2,0.3-3.8,0.5
		c0.3,2.4,0.6,4.5,0.9,6.6c-0.3,0-0.7,0.2-1.1,0.2c-0.7-2.1-1.3-4.2-2-6.3c-2.5,0.6-4.8,1.2-7.3,1.6c0,2.1,0.1,4.2,0.2,6.2
		c-0.5,0.1-0.9,0.1-1.3,0.1c-0.5-1.9-0.9-3.9-1.4-6c-1.6,0.2-3.1,0.4-4.6,0.7c-2.6,0.4-3.5,1.6-2.6,4.1c0.3,0.8-0.2,1.9-0.4,2.8
		c-0.5-0.8-1.3-1.5-1.7-2.5c-0.4-0.9-0.5-1.9-0.7-3.1c-2.5,0.4-4.8,0.7-7.6,1.1c0.2,2.1,0.6,4.2,0.9,6.3c-0.3,0.2-0.6,0.2-0.9,0.4
		c-0.4-0.5-0.9-1-1.1-1.6c-1.2-5.1-1-4.1-6-3.6c-0.8,0.1-1.5,0.3-2.6,0.5c0.1,1.1,0.1,2.2,0.2,3.2c0.1,1,0.3,1.9,0.5,3.7
		c-3.2-1.5-2-4.4-3.4-6.4c-2.3,0.5-4.7,1-7.3,1.6c0.2,2.1,0.3,4.1,0.5,6.1c-0.4,0.1-0.8,0.2-1.2,0.3c-0.6-1.9-1.3-3.8-2-6.1
		c-2.4,0.5-4.8,1-7.3,1.4c0.3,2.2,0.6,4.1,0.9,6.4c-3.7-0.8-1.9-3.9-3.7-5.9c-1.2,0.2-2.7,0.3-4.1,0.5l1.6,8.8
		c28.3-5.2,56.5-10.5,84.1-15.6c-0.8-5.6-1.5-10.8-2.2-15.9c-0.4-2.5-1.5-3.4-4.3-2.8c-7.7,1.6-15.5,3.1-23.4,4.5
		c-7.2,1.3-14.4,2.4-21.5,3.7c-4.7,0.8-9.3,1.6-14,2.6c-7.4,1.4-14.8,2.9-22.2,4.4l1.6,8.7C475.6,282.8,476.6,282.7,477.5,282.4z"/>
	<path fill="#023E60" d="M377.5,319.6c-0.5,2.4-1,4.3-1.5,6.4c-0.4-0.1-0.9-0.1-1.3-0.2c0.1-1.2-0.1-2.5,0.2-3.6
		c0.7-2.3-0.4-3.2-2.6-3.3c-1.5,0-2.9-0.1-4.6-0.1c-0.3,2-0.6,3.8-1,6.5c-2.6-2.2-1.2-4.6-1.6-6.8c-1.8-0.3-3.5-0.7-5.4-0.7
		c-0.5,0-1.4,1-1.7,1.6c-0.4,0.9-0.2,2-0.6,3c-0.2,0.5-0.9,0.8-1.4,1.2c-0.3-0.5-0.7-1-0.7-1.4c0-1.4,0.2-2.8,0.3-4.4
		c-2.3-0.4-4.4-0.6-6.9-1.1c-0.4,2-0.9,4.1-1.3,6.2c-0.4,0-0.8,0-1.3-0.1c0-1.9,0-3.9,0-6c-2.2-0.3-4.5-0.7-7.1-1.1
		c-0.4,2.2-0.9,4.3-1.3,6.4c-0.4,0-0.8-0.1-1.2-0.1c0-2.1,0-4.4-0.1-6.7c-2.4-0.1-4.6-0.2-7.1-0.4c-0.2,1.9-0.6,3.8-0.9,6
		c-3.2-1.9-0.8-4.3-1.8-6.4c-0.8-0.2-1.6-0.3-2.5-0.6c-3-0.9-4.7-0.1-4.6,3.1c0,0.6-0.1,1.2-0.4,1.7c-0.2,0.3-0.7,0.6-1.1,0.9
		c-0.3-0.4-0.9-0.8-0.9-1.2c-0.1-1.5,0.1-3,0.1-4.7c-2.3-0.4-4.6-0.7-7.1-1.1c-0.2,1.7-0.2,3.3-0.6,4.8c-0.1,0.6-0.8,0.9-1.2,1.4
		c-0.3-0.6-0.9-1.1-0.8-1.6c0.1-1.4,0.4-2.8,0.6-4.4c-2.2-0.3-4-0.5-5.6-1c-0.6-0.1-0.9-0.8-1.5-1.2c0.6-0.3,1.1-0.8,1.7-0.8
		c1.6,0,3.3,0.2,5.1,0.3c0.3-1.5,0.3-2.8,0.7-4.1c0.2-0.6,0.8-1.2,1.3-1.8c0.2,0.8,0.8,1.5,0.8,2.2c0,1.2-0.3,2.4-0.5,3.6
		c2.7,0.5,5,0.7,7.4,1.1c0.2-1.5,0.3-2.8,0.6-4c0.2-0.8,1-1.4,1.6-2.1c0.2,0.8,0.6,1.6,0.6,2.3c0,1.2-0.3,2.4-0.5,3.8
		c2.5,0.4,4.8,0.7,6.9,1.1c2.4-1.6-0.3-5.2,3.4-6.5c-0.1,2.6-0.2,4.6-0.3,7c2.3,0.2,4.6,0.4,7,0.6c0.3-1.8,0.5-3.3,0.8-5
		c0.1-0.4,0.6-0.6,1-0.9c0.3,0.4,0.9,0.7,0.9,1c0.1,1.6,0,3.2,0,5c2,0.3,4.1,0.7,6.3,1c0.6-2.1,1.2-4.1,1.8-6.2
		c0.4,0.1,0.8,0.2,1.3,0.2c-0.1,0.9,0.2,1.9-0.1,2.7c-0.9,2.7,0.3,3.7,3,3.8c1.3,0.1,2.7,0.3,4.3,0.7c0.2-1.9,0.1-3.4,0.4-4.9
		c0.1-0.6,0.9-1,1.5-1.6c0.2,0.5,0.6,1.2,0.7,1.7c0,1.6-0.2,3.2-0.3,4.8c2.6,0.1,4.9,0.2,7.2,0.4c0.5-2,1-4,1.5-6
		c0.4,0.1,0.9,0.1,1.3,0.2c-0.1,2-0.1,4.1-0.3,6.5c2.5,0.1,4.8,0.2,7.2,0.3c0.3-2.2,0.6-3.9,1-6.3c3,1.9,0.7,4.4,1.6,6.4
		c1.5,0.2,2.9,0.5,4.5,0.7l1-8.6c-16.1-1.6-32.1-3.4-48.3-5.1c-10.5-1.1-21.1-2.2-31.6-3.4c-1.5-0.2-2.4,0.1-2.5,1.7
		c-0.4,4.8-0.6,9.6-1.3,14.4c-0.4,2.5,0.9,2.9,2.9,3.1c9.7,1,19.6,2,29.4,3.1c16.4,1.7,32.7,3.6,49,5.4l1-8.3
		C380.5,320.1,379,319.8,377.5,319.6z"/>
	<path fill="#023E60" d="M472.9,256.3c0.7-0.3,0.5-2.2,0.7-3.3c0.2-1,0.2-1.9,0.3-2.9c0.4,0,0.8,0,1.3,0c0.3,1.8,0.7,3.7,1.1,5.7
		c2.6-0.4,5.1-0.7,8-1.1c-0.3-2.3-0.6-4.2-0.9-6.2c0.3,0,0.7-0.2,1.1-0.2c0.6,1.8,1.3,3.6,1.9,5.6c2.3-0.4,4.7-0.7,7.5-1
		c-0.3-2.1-0.6-4.1-0.9-6.2c0.4-0.1,0.6-0.2,1-0.3c0.4,0.8,0.9,1.7,1.1,2.6c0.5,2.5,1.3,4.3,4.7,2.8c1.1-0.4,2.3-0.4,3.7-0.6
		c0-2.3-0.2-4.3-0.2-6.3c0.3,0,0.7-0.2,1.1-0.2c0.3,0.9,0.6,1.8,0.9,2.7c0.2,1,0.4,1.9,0.6,3.2c2.3-0.3,4.5-0.4,6.5-1
		c0.5-0.2,0.9-1.7,1-2.5c0.1-1.4-0.1-2.8-0.2-4.2c0.5-0.1,1-0.1,1.5-0.2c0.4,1.8,0.9,3.7,1.3,5.9c2.6-0.3,5.1-0.7,7.9-1.1
		c-0.4-2.2-0.9-4.2-1.2-6.1c0.5-0.1,1-0.2,1.4-0.3c0.7,1.9,1.3,3.7,2.1,5.7c2.4-0.3,4.7-0.7,7.5-1c-0.3-2.2-0.5-4.2-0.9-6.2
		c0.4-0.1,0.6-0.2,1-0.3c0.5,1,1.3,2.1,1.4,3.2c0.2,3,2,3.2,4.5,2.5c1.1-0.4,2.4-0.7,3.6-1.1c-0.1-2.1-0.2-4.1-0.2-6.2
		c0.5-0.1,0.9-0.1,1.3-0.2c0.5,1.9,0.9,3.9,1.4,5.7c2.6-0.2,5.2-0.4,7.6-0.6c0,0.4,0.1,0.8,0.1,1.2c-2.4,0.5-4.7,0.9-7.4,1.5
		c0.3,2.2,0.6,4.2,0.9,6.3c-0.4,0.1-0.7,0.2-1,0.3c-0.7-1.9-1.3-3.9-2-5.7c-2.6,0.3-5,0.6-7.6,1.1c0.2,2.2,0.4,4.3,0.5,6.4
		c-0.3,0-0.7,0.2-1.1,0.2c-0.6-2-1.3-4-2-6.3c-2.4,0.5-4.8,1.1-7.3,1.6c0.2,2.1,0.3,4.1,0.4,6c-0.4,0.1-0.8,0.2-1.1,0.4
		c-0.4-0.9-0.8-1.8-1-2.7c-0.7-3.7-0.7-3.7-4.9-2.8c-1.2,0.2-2.3,0.6-3.6,0.8c0.4,2,0.8,3.9,1.3,6.5c-4-0.9-2.1-4.2-3.7-5.8
		c-2.3,0.3-4.7,0.7-7.4,1.1c0.3,2.2,0.6,4.2,0.8,6.3c-0.4,0.1-0.6,0.2-1,0.3c-0.8-1.9-1.6-3.9-2.5-6.1c-2.2,0.4-4.5,0.8-6.9,1.4
		c0,2.1,0,4.2,0.1,6.3c-0.5,0.1-0.8,0.1-1.3,0.2c-0.5-1.9-0.9-3.9-1.5-6.1c-2.5,0.5-5.6,0.3-6.9,1.7c-1.2,1.2-0.3,4.1-0.4,6.2
		c-0.4,0.1-0.8,0.2-1.2,0.2c-0.5-1.9-1-3.8-1.6-6.2c-2.5,0.5-5,0.9-8,1.5c0.5,1.8,1.1,3.1,1.4,4.6c0.1,0.5-0.6,1.1-0.9,1.7
		c-0.5-0.4-1.3-0.7-1.5-1.2c-0.4-1.4-0.6-2.9-0.9-4.4c-1.5,0.2-2.9,0.4-4.2,0.6l1.5,8.5c2.8-0.5,5.6-1.1,8.5-1.6
		c6-1.1,12-2.1,18-3.1c12.7-2.3,25.3-4.8,38-7.1c5.9-1.1,11.7-2.2,17.5-3.4c1.6-0.3,2.7-0.8,2.4-2.7c-1-4.9-1.9-9.9-3-14.8
		c-0.2-0.7-1.9-1.7-2.6-1.6c-3.5,0.4-6.9,1.3-10.4,2c-13.5,2.5-27.1,5.1-40.6,7.5c-10.3,1.9-20.8,3.7-31.1,5.6l1.6,8.8
		C471.1,257,472.1,256.7,472.9,256.3z"/>
	<path fill="#022B42" d="M485.8,307.5c0.5-2.3-1.4-4.6,0.1-6.5c0.3,0,0.8,0,1.1-0.1c0.4,1.9,0.7,3.9,1.2,6.1
		c2.6-0.4,4.9-0.9,7.7-1.5c-0.3-1.4-0.7-2.7-0.8-3.9c-0.1-0.8,0.2-1.5,0.3-2.3c0.5,0.6,1.3,1.2,1.6,1.9c0.6,1.1,0.8,2.4,1.3,4
		c2.2-0.4,4.5-0.8,6.8-1.3c0-2.2-0.1-4.3-0.1-6.4c0.3,0,0.8,0,1.1-0.1c0.3,0.7,0.4,1.4,0.7,2.1c0.4,1.2,0.8,3.3,1.4,3.3
		c1.9,0.2,4.1-0.3,6-0.8c0.4-0.1,0.4-1.6,0.4-2.4c0.1-1.3-0.1-2.7-0.1-4c0.5-0.1,0.8-0.1,1.3-0.2c0.5,1.9,0.9,3.9,1.3,5.9
		c2.5-0.4,4.9-0.7,8-1.2c-0.3-2.4-0.6-4.5-1-6.6c0.5-0.1,0.8-0.1,1.3-0.2c0.5,2.1,1,4,1.5,6.3c2.5-0.6,4.8-1.1,7.5-1.6
		c-0.2-2.1-0.6-4.1-0.8-6.1c0.4-0.1,0.8-0.2,1.1-0.3c0.7,1.9,1.5,3.8,2.4,6.1c2.1-0.5,4.4-0.9,6.7-1.3c-0.2-2.3-0.3-4.2-0.5-6.2
		c0.4-0.1,0.8-0.2,1.1-0.4c0.6,1.8,1.3,3.8,2,5.7c2.4-0.3,4.7-0.7,7.4-1.1c-0.3-2.2-0.6-4.2-0.9-6.3c0.5-0.1,0.8-0.2,1.3-0.3
		c0.5,1.9,1,3.8,1.6,6c2.4-0.3,4.8-0.7,7.2-1c0.2,0.3,0.2,0.5,0.4,0.9c-0.8,0.4-1.7,0.9-2.5,1.1c-4.3,0.8-4.3,0.7-3.9,4.7
		c0.1,0.8,0,1.6,0,2.4c-0.4,0.1-0.7,0.2-1.1,0.3c-0.3-1-0.8-1.9-0.9-2.9c-0.3-2.3-1.2-3-3.8-2.6c-4.5,0.8-4.5,0.7-3.9,4.7
		c0.1,0.8,0.1,1.6,0.2,2.3c-0.4,0.1-0.7,0.3-1,0.3c-0.7-1.9-1.4-4-2.1-6.1c-2.4,0.5-5.5,0.3-6.7,1.7c-1.2,1.2-0.3,4.1-0.3,6.2
		c-1.4-0.9-1.4-0.9-2.9-6.2c-1.1,0.1-2.4,0.2-3.7,0.5c-1.1,0.3-2.2,0.9-3.6,1.4c0.2,1.8,0.5,3.7,0.8,5.5c-0.4,0.1-0.8,0.2-1.2,0.4
		c-0.6-1.8-1.3-3.7-2.1-5.7c-2.2,0.3-4.5,0.6-6.9,0.9c0.1,2.2,0.4,4.2,0.6,6.3c-0.4,0.1-0.6,0.2-1,0.3c-0.3-0.6-0.8-1.3-1-1.9
		c-0.9-4-0.8-4-5.1-3.3c-1.1,0.2-2,0.4-3.5,0.7c0.3,2.3,0.6,4.3,0.9,6.3c-0.4,0.1-0.7,0.2-1.1,0.3c-0.5-2-1.2-4-1.8-6.2
		c-2.5,0.5-4.8,1-7.3,1.4c0.2,2.1,0.3,4.1,0.4,6c-0.4,0.1-0.8,0.2-1.1,0.4c-0.7-1.9-1.3-4-2-6.2c-1.9,0.5-4,0.6-5.7,1.6
		c-0.7,0.4-0.6,2.3-0.8,3.5c-0.1,0.9-0.3,1.8-0.5,2.6c-0.6-0.7-1.3-1.3-1.6-2.1c-0.3-1-0.4-2.1-0.6-3.6c-1.6,0.2-2.8,0.5-4.1,0.5
		c-0.3,0-0.5,0-0.8,0.1l1.6,8.8c5.4-1.1,10.9-2.1,16.4-3.1c18-3.3,36.1-6.6,54.2-10c4.2-0.8,8.3-1.7,11.7-2.4
		c-0.8-5.7-1.5-11-2.3-16.2c-0.3-2.1-1.3-2.9-3.7-2.4c-3.4,0.9-6.9,1.5-10.4,2.1c-15.1,2.7-30.3,5.4-45.4,8.3
		c-5.8,1.1-11.6,2.5-17.3,3.6c-2.1,0.5-4.4,0.7-6.6,1l1.6,8.7C482.8,308.1,484.4,307.8,485.8,307.5z"/>
	<path fill="#035E91" d="M379.4,293.5c-0.4,2.3-0.7,4.3-1,6.3c-0.4,0-0.7-0.1-1.1-0.1c0-2.1-0.1-4.2-0.3-6.7
		c-2.1-0.2-4.3-0.5-6.3-0.3c-0.6,0.1-1.2,1.6-1.5,2.5c-0.3,1-0.4,2.1-0.5,3.1c-0.4,0-0.8,0-1.3-0.1c-0.1-1.1-0.5-2.4-0.2-3.4
		c0.9-3.2-1.4-3.1-3.5-3.6c-2.5-0.6-3.6,0.1-3.9,2.5c-0.1,1.2-0.6,2.4-1,3.6c-0.4-0.1-0.9-0.1-1.3-0.2c0-1.9,0-3.8,0-6
		c-2.3-0.4-4.6-0.7-7.2-1.2c-0.3,2-0.7,4.1-1,6.3c-1.4-0.9-1.4-0.9-1.4-6c-2.4-0.4-4.8-0.7-7.5-1.2c-0.3,2.3-0.6,4.2-1,6.3
		c-0.4,0-0.8,0-1.3,0.1c-0.2-2.1-0.3-4.3-0.5-6.9c-2.2-0.1-4.4-0.2-7-0.3c-0.3,1.8-0.5,3.6-0.9,5.5c-2.1-0.3-2.1-0.3-1.9-5.7
		c-2.3-0.4-4.7-0.8-6.9-1.1c-0.3,1.8-0.4,3.3-0.8,4.8c-0.2,0.5-0.8,0.9-1.3,1.4c-0.3-0.6-0.8-1.1-0.8-1.6c-0.1-1.4,0.1-2.8,0.2-4.4
		c-1-0.2-1.9-0.5-2.8-0.6c-4.6-0.8-4.6-0.8-5,3.7c-0.1,0.7-0.8,1.4-1.3,2c-0.2-0.8-0.9-1.5-0.7-2.3c0.5-2.9,0.2-5.1-3.8-4.6
		c-0.7,0.1-1.5-0.2-2.2-0.4c-0.3-0.2-0.7-0.8-0.7-1.1c0-0.2,0.6-0.7,0.8-0.7c5.5,1.7,7-1.4,7.6-5.4c0-0.1,0.2-0.1,1.2-0.4
		c0,1.4,0.4,2.5,0.1,3.5c-0.8,2.9,1,3.2,3.2,3.5c2.3,0.4,4.4,0.7,4.5-2.4c0-1.2,0.3-2.3,0.6-4.2c3.1,2.6,0.6,5.2,1.6,7.4
		c2.1,0.2,4.5,0.5,6.7,0.7c2.4-1.3-1-5.2,3.2-6.3c-0.1,2.6-0.3,4.5-0.3,6.7c2.6,0.2,4.9,0.4,7.2,0.6c0.5-2.3,1-4.1,1.4-6.1
		c0.4,0,0.8,0.1,1.2,0.1c0.1,2,0.3,4.1,0.5,6.2c2.1,0.4,4.3,0.7,6.9,1.1c0.2-1.9,0.4-3.5,0.9-5.1c0.1-0.4,0.8-0.7,1.2-1.1
		c0.3,0.5,0.7,0.9,0.7,1.4c0.1,1.5-0.7,3.9,0,4.2c1.6,1,3.9,1,5.8,1.4c0.4,0.1,0.9-0.1,1.1-0.1c0.2-1.9,0.5-3.6,0.9-5.5
		c0-0.2,0.4-0.4,0.9-1c2.3,2.1-0.1,4.5,1,6.8c2.1,0.2,4.5,0.5,7.2,0.7c0.3-2,0.6-3.8,1-6.5c0.7,0.8,1.6,1.3,1.8,1.9
		c0.2,1.6-0.5,4.3,0.3,4.8c1.8,1,4.3,0.9,7.1,1.3c0.4-2.5,0.7-4.4,1-6.3c0.4,0,0.8,0,1.3,0c0,1.9,0,3.7,0,5.9
		c0.8,0.2,1.7,0.5,2.6,0.6c1,0.2,1.8,0.3,2.3,0.4l1-8.8c-28.1-3-56.3-6.1-84.8-9.3c-0.6,6.7-1.3,12.9-1.9,19
		c9.2,1,17.6,2.1,26.1,3.1c11.8,1.3,23.6,2.6,35.4,3.9c7.4,0.8,14.8,1.8,22.2,2.6c0.2,0,0.5,0.1,0.7,0.1l1-8.5
		C383.1,294,381.3,293.7,379.4,293.5z"/>
	<path fill="#0071BC" d="M438.7,300c6.6-0.5,8.9-6.4,8.5-10.5c-0.4-4.2-5.3-7.6-9.8-7c-6,0.9-8.7,4.5-7.9,10.2
		C430.1,297.1,434.4,300.3,438.7,300z"/>
	<polygon fill="#035E91" points="485.6,323.7 480.6,299.7 469,315.6 	"/>
	<polygon fill="#035E91" points="474.8,329.5 485.6,323.7 469.2,315.7 	"/>
	<polygon fill="#022B42" points="463.1,310.4 480.6,299.6 469.2,315.7 	"/>
	<polygon fill="none" points="462.3,306.4 480.6,299.6 463.1,310.4 	"/>
	<polygon fill="none" points="454.9,313.8 462.3,306.4 451.1,299.6 	"/>
	<polygon fill="none" points="480.6,299.6 464,289.1 462.3,306.4 	"/>
	<polygon fill="#01141C" points="475.9,274.3 475.3,280.1 458.3,274.4 	"/>
	<polygon fill="#034D77" points="471.7,258 458.3,274.4 475.9,274.3 	"/>
	<polygon fill="none" points="458.3,274.4 464,289.1 453.1,289.5 	"/>
	<polygon fill="#0071BC" points="451.1,299.6 464,289.1 453.1,289.5 	"/>
	<polygon fill="#023E60" points="454.9,313.8 441.6,306.2 451.1,299.6 	"/>
	<polygon fill="#0071BC" points="455.3,321.9 446,323.2 454.9,313.8 	"/>
	<polygon fill="#022B42" points="441.6,306.2 446,323.2 454.9,313.8 	"/>
	<polygon fill="#023E60" points="446.4,277.6 458.3,274.4 453.1,289.5 	"/>
	<path fill="#031F2B" d="M471.1,248.3c0,0.8,0.5,9.7,0.5,9.7l-11.5-5.9L471.1,248.3z"/>
	<polygon fill="#035E91" points="463.8,244.3 471.1,248.3 460.1,252.2 	"/>
	<polygon fill="#023E60" points="459.3,259.7 460.1,252.2 471.7,258 	"/>
	<polygon fill="#035E91" points="458.3,274.4 459.3,259.7 471.7,258 	"/>
	<polygon fill="#0071BC" points="455.2,268.1 459.3,259.7 458.3,274.4 	"/>
	<polygon fill="#0071BC" points="446.4,277.6 455.2,268.1 458.3,274.4 	"/>
	<polygon fill="#035E91" points="455.3,321.9 451.8,327.9 446,323.2 	"/>
	<polygon fill="#023E60" points="446.4,277.6 434.9,275.7 446.4,263.5 	"/>
	<polygon fill="#022B42" points="455.2,268.1 446.4,263.5 446.4,277.6 	"/>
	<polygon fill="#0071BC" points="434.9,275.7 430.9,251.2 439.2,254 	"/>
	<polygon fill="#031F2B" points="446.4,263.5 439.2,254 434.9,275.7 	"/>
	<polygon fill="#035E91" points="430.9,251.2 444.7,217 437.4,245.2 	"/>
	<polygon fill="none" points="430.9,251.2 423.1,248.7 407.6,225.7 	"/>
	<polygon fill="#035E91" points="420.9,198.6 429.3,230.6 430.9,251.2 424,230.6 	"/>
	<polygon fill="none" points="420.5,196.7 421.4,193.8 419,189 417.6,194.7 	"/>
	<polygon fill="#035E91" points="476.1,349.9 473,340.2 450.6,355.3 	"/>
	<polygon fill="#022B42" points="451.8,327.9 450.6,355.3 473,340.2 	"/>
	<polygon fill="#0071BC" points="446,323.2 450.6,355.3 451.8,327.9 	"/>
	<polygon fill="#0071BC" points="476.1,349.9 458.2,370.3 466.5,365.1 	"/>
	<polygon fill="none" points="450.6,355.3 458.2,370.3 448.5,371.3 	"/>
	<polygon fill="#022B42" points="462.3,306.4 464,289.1 451.1,299.6 	"/>
	<polygon fill="#022B42" points="475.3,280.1 464,289.1 458.3,274.4 	"/>
	<polygon fill="#035E91" points="371.9,366.5 375,342.1 387.7,357 	"/>
	<polygon fill="#035E91" points="418,340.7 405.5,339.5 417.9,325.8 	"/>
	<polygon fill="#0071BC" points="421.6,318.6 401.4,315.2 417.9,325.8 	"/>
	<polygon fill="none" points="399.7,314.2 380.9,309.1 399.3,318.2 	"/>
	<polygon fill="#01141C" points="430.6,318.7 420.9,314.6 428.7,304 	"/>
	<polygon fill="#023E60" points="380.9,309.1 396.4,297 399.7,314.2 	"/>
	<polygon fill="#034D77" points="383.3,283.4 384.4,289.1 400.7,282 	"/>
	<polygon fill="#023E60" points="386,266.8 400.7,282 383.3,283.4 	"/>
	<polygon fill="none" points="412.6,283.5 412.8,299.2 423,295.5 	"/>
	<polygon fill="#023E60" points="428.7,304 412.8,299.2 423,295.5 	"/>
	<polygon fill="#023E60" points="430.6,318.7 441.2,306.3 428.7,304 	"/>
	<polygon fill="#034D77" points="433.2,326.3 442.3,324 430.6,318.7 	"/>
	<polygon fill="#022B42" points="440.9,306.3 442.3,324 430.6,318.7 	"/>
	<polygon fill="#035E91" points="412.9,284.1 400.7,282 407.3,296.5 	"/>
	<path fill="#034D77" d="M371.9,261.4c0.1,0.8,0.4,9.7,0.4,9.7l10.9-6.9L371.9,261.4z"/>
	<polygon fill="#022B42" points="392.5,252.5 385.6,257.1 396.9,259.9 	"/>
	<polygon fill="#035E91" points="329.8,377 336.6,373.7 327.4,367.5 	"/>
	<polygon fill="#035E91" points="387.4,409 387.1,401.5 377.8,407.6 	"/>
	<polygon fill="#035E91" points="400.7,282 398.4,267.4 386,266.8 	"/>
	<polygon fill="#01141C" points="403.3,275.4 398.4,267.4 400.7,282 	"/>
	<polygon fill="#031F2B" points="412.9,284.1 403.3,275.4 400.7,282 	"/>
	<polygon fill="#01141C" points="433.2,326.3 438.8,330.5 442.3,324 	"/>
	<polygon fill="#034D77" points="412.9,284.1 424.2,281.1 411.6,270.1 	"/>
	<polygon fill="#022B42" points="407,254.3 415.3,248.9 416.6,263 	"/>
	<polygon fill="#022B42" points="434.7,275.8 434.9,275.7 430.9,251.2 422.6,257.4 	"/>
	<polygon fill="#035E91" points="419.5,268.9 422.6,257.4 434.7,275.8 	"/>
	<polygon fill="#023E60" points="424.6,360.1 423.6,350 450.2,355.5 	"/>
	<polygon fill="#022B42" points="438.8,330.5 450.2,355.5 423.6,350 	"/>
	<polygon fill="#031F2B" points="442.3,324 450.2,355.5 438.8,330.5 	"/>
	<polygon fill="#023E60" points="424.6,360.1 448.9,372.3 439.1,370.5 	"/>
	<polygon fill="#022B42" points="420.9,314.6 412.8,299.2 428.7,304 	"/>
	<polygon fill="#031F2B" points="384.4,289.1 396.4,297 400.7,282 	"/>
	<polygon fill="#0071BC" points="380.9,309.1 396.4,297 384.4,289.1 	"/>
	<polygon fill="#035E91" points="480.6,299.6 475.3,280.1 464,289.1 	"/>
	<polygon fill="#031F2B" points="462.3,306.4 480.6,299.6 463.1,310.4 	"/>
	<polygon fill="#034D77" points="454.9,313.8 462.3,306.4 451.1,299.6 	"/>
	<polygon fill="#0071BC" points="430.9,251.2 423.1,248.7 407.6,225.7 	"/>
	<polygon fill="#035E91" points="420.5,196.7 421.4,193.8 419,189 417.6,194.7 	"/>
	<polygon fill="#031F2B" points="450.6,355.3 458.2,370.3 448.5,371.3 	"/>
	<polygon fill="#034D77" points="459.2,377.7 458.2,370.3 448.5,371.3 	"/>
	<polygon fill="#022B42" points="451.2,380.3 459.2,377.7 448.5,371.3 	"/>
	<polygon fill="#023E60" points="480.6,299.6 464,289.1 462.3,306.4 	"/>
	<polygon fill="#031F2B" points="453.1,289.5 458.3,274.4 464,289.1 	"/>
	<polygon fill="#031F2B" points="407.3,296.5 396.4,297 400.7,282 	"/>
	<polygon fill="#031F2B" points="421.6,318.6 420.9,314.6 401.4,315.2 	"/>
	<path fill="none" d="M345.9,224.1c-0.4-0.1-0.7-0.1-1-0.2c-0.9,1.7-1.8,3.5-2.9,5.5c-2.2-1.2-4.3-2.3-6.7-3.5
		c0.7-1.2,1.3-2.4,1.8-3.6c0.2-0.6-0.1-1.3-0.2-2c-0.6,0.3-1.4,0.6-1.7,1.1c-0.7,1.2-1.1,2.5-1.8,3.9c-2.4-1.1-4.6-2-6.4-2.8
		c-0.6-2.7,2.8-4,0.8-7.2c-1.4,2.2-2.4,4-3.6,5.8c-2.3-1.2-4.3-2.3-6.1-3.2c0.6-2.2,1.2-4,1.7-6c-0.4-0.1-0.7-0.3-1.1-0.4
		c-1.1,1.9-2.2,3.6-3.5,5.6c-1.7-0.9-3.1-1.7-4.5-2.3c-0.5-0.2-1.3,0.2-1.9,0.4c0.4,0.5,0.6,1.4,1.1,1.6c1.5,0.8,3.1,1.4,4.3,2.1
		c0.5,2.5-2.6,4.2-0.7,7c1.4-2.1,2.2-5,3.7-5.2c1.9-0.3,4.1,1.6,6.1,2.6c-0.6,1.5-1.1,2.6-1.3,3.7c-0.2,0.8,0,1.6,0,2.3
		c0.7-0.6,1.6-1,2-1.7c0.6-1,0.8-2.2,1.3-3.7c2.4,1.3,4.6,2.4,6.7,3.5c-2.2,5.3-2.2,5.3-0.1,5.7c0.8-1.5,1.6-3,2.5-4.7
		c2.3,0.9,4.4,1.8,6.7,2.7c-0.9,2.4-1.7,4.3-2.4,6.2c0.4,0.2,0.8,0.4,1.2,0.7c1.1-1.7,2.3-3.5,3.5-5.5c1,0.4,2,1,3.1,1.4l1.2-1.9
		c-1.1-0.6-2.1-1.1-3-1.6C345,228.1,345.5,226.1,345.9,224.1z"/>
	<path fill="#022B42" d="M350.4,233.4c1.3-1.9,2.4-3.6,3.6-5.3c0.4,0.2,0.7,0.5,1.1,0.7c-0.7,1.7-1.4,3.4-2.3,5.6
		c2,1,4.4,2.9,6.1,2.6s2.7-3,3.9-4.8c0.3,0.2,0.8,0.3,1.1,0.5c-0.7,2-1.5,3.9-2.3,6.1c2.3,1,4.5,1.9,7,3c0.8-1.9,1.6-3.6,2.3-5.4
		c2.5,0.3,1.5,1.5,1.1,2.8c-0.5,1.1-1.3,3.2-1,3.5c1.7,1.2,3.6,1.9,5.7,2.7c0.2,0.1,1.1-0.7,1.4-1.2c0.7-1.2,1.4-2.6,2-3.8
		c0.4,0.1,0.8,0.3,1.2,0.4c-0.5,2-1,4-1.5,6c1.5,0.8,2.9,1.5,4.5,2.4l3.7-7.9c-3.1-1.3-6.1-2.9-9.1-4.3c-8.8-4.1-17.8-8.2-26.6-12.3
		l-4.7,7.3C348.5,232.4,349.4,232.9,350.4,233.4z"/>
	<path fill="#022B42" d="M344.4,242.2c10.9,5.1,21.7,10.3,32.5,15.3c1.1,0.5,2,0.9,2.7,1.2l3.6-7.6c-1.6-0.8-3.2-1.7-4.9-2.6
		c-0.8,1.6-1.5,3-2.3,4.4c-0.3,0.5-0.9,0.7-1.4,1.1c0-0.5-0.4-1.1-0.2-1.6c0.5-1.5,1.2-3,1.9-5c-2.1-0.8-4.3-1.7-6.1-2.5
		c-2.9,0.3-1.1,5.3-5.4,4.2c1-1.9,1.8-3.5,2.8-5.3c-2.3-1.2-4.4-2.3-6.6-3.4c-0.9,1.7-1.5,3.1-2.4,4.6c-0.2,0.3-0.8,0.4-1.2,0.6
		c-0.2-0.5-0.7-1.1-0.6-1.5c0.4-1.5,1.1-2.8,1.7-4.4c-2.2-1.1-4.1-2.2-6.6-3.4c-1,1.8-2,3.7-2.9,5.6c-0.5-0.1-0.8-0.3-1.2-0.4
		c0.6-2,1.3-4,2.1-6.1c-1.2-0.5-2.3-1-3.4-1.6l-4.6,7.2C342.7,241.4,343.5,241.9,344.4,242.2z"/>
	<path fill="#022B42" d="M313.5,195.3c1.8,3.7,3.4,7.3,5.2,10.7c4.8,8.9,9.7,17.6,14.6,26.4l8-3.1c-0.6-0.9-1.1-2-1.7-2.9
		c-2.1,0.8-4.1,1.5-6.1,2.3c-0.2-0.4-0.4-0.8-0.6-1.3c1.7-1.1,3.5-2.2,5.7-3.6c-1.2-2-2.5-3.9-3.8-6.1c-1.8,0.8-3.3,1.6-4.8,2.3
		c-1.4-1.5-1.4-1.5,3.4-4.5c-1.1-2.2-2.1-4.4-3.3-6.8c-1.3,0.9-2.2,1.7-3.3,2.2c-0.8,0.3-1.8,0.1-2.6,0.2c0.5-0.7,0.8-1.5,1.3-1.9
		c0.9-0.8,2-1.4,3.3-2.3c-1-2-1.8-4.9-3.4-5.7c-1.3-0.7-3.7,1.1-6,2c0.1-3.4,3.7-2.9,4.8-5.2c-0.7-1.2-1.7-2.7-2.3-4.2
		c-0.2-0.5,0-1.3,0.1-1.8c0.6,0.3,1.4,0.3,1.7,0.8c0.8,1.3,1.4,2.8,2.3,4.6c2.2-0.9,4.1-1.6,6.1-2.5c0.2,0.3,0.4,0.6,0.7,1
		c-1.6,1.2-3.1,2.5-4.9,3.8c0.9,1.9,1.8,3.9,3.1,6.3c2-0.8,3.9-1.6,6.3-2.6c-0.3,3.8-3.8,2.9-4.9,5.3c1,1.7,2.1,3.8,3.5,6.1
		c1.4-0.8,2.5-1.5,3.8-2.1c0.5-0.2,1.3,0.1,2,0.1c-0.3,0.6-0.5,1.4-1,1.8c-1,0.7-2.3,1.1-3.6,1.8c1.2,2.4,2.3,4.6,3.4,6.9
		c2-1,3.8-1.8,5.5-2.7c0.3,0.3,0.4,0.6,0.7,0.8c-1.5,1.3-3,2.7-4.7,4.3c0.4,1,1,2,1.5,3l8-3.1c-2.5-4.6-5.1-9.2-7.6-13.9
		c-3.3-6.1-6.4-12.2-9.6-18.3c-1.3-2.2-2.8-4.5-4.4-6.9C324.4,189.3,319.1,192.3,313.5,195.3z"/>
</g>
<g>
	<path fill="#0071BC" d="M436.9,506.4c0,6,0,12,0,18.1c0,1.3-0.1,2.5-0.2,3.8c-0.1,1.2-1.1,2.2-2.1,2.2c-3.5,0-6.9,0-10.4,0
		c-1.2,0-2.1-1.1-2.2-2.4c-0.2-1.8-0.1-3.6-0.1-5.4c0-5.8,0-11.6,0-17.4c0-0.2,0-0.4,0-0.6c-0.1-0.4-0.3-0.6-0.7-0.6
		c-1.7,0-3.3,0-4.9,0c-1.7,0.1-2.7-1-2.8-2.8c-0.3-5-0.1-10-0.1-15c0-0.7,0.1-1.4,0.2-2c0.2-1.1,1.2-2,2.4-2c1.3,0,2.5,0,3.8,0
		c4.8,0,9.5,0,14.3,0c1.2,0,1.8,0.6,2.4,1.5c0.4,0.6,0.4,1.3,0.5,1.9c0.1,0.6,0.1,1.1,0.1,1.7C436.9,493.7,436.9,500,436.9,506.4z
		 M436.2,505.5c0-6.8,0-13.7,0-20.5c0-1.5-0.7-2.2-2.1-2.2c-6.1,0-12.1,0-18.2,0c-1.4,0-2.1,0.7-2.1,2.2c0,4.8,0,9.7,0,14.5
		c0,1.5,0.7,2.2,2.1,2.2c2,0,3.8,0,5.8,0c0.7,0,0.7-0.1,0.7,0.7c0,7.8,0,15.6,0,23.4c0,1.7,0.7,2.4,2.2,2.4c3.2,0,6.3,0,9.5,0
		c1.4,0,2.1-0.7,2.1-2.3C436.2,519,436.2,512.3,436.2,505.5z M422.5,527.4c-0.1,1.5,0.6,2.5,1.8,2.5c3.5,0,6.8,0,10.3,0
		c1.2,0,2-1.2,1.7-2.4c-0.5,0.7-1.2,1-2.1,1c-3.1,0-6.3,0-9.3,0C423.9,528.4,423,528.3,422.5,527.4z M414,501.2
		c-0.3,1.2,0.5,2.3,1.6,2.3c2.1,0.1,4.1,0,6.2,0c0.1,0,0.3,0,0.4-0.1c0.3-0.6-0.1-1.2-0.7-1.2c-1.6,0-3.3,0-4.9,0
		C415.6,502.1,414.6,502,414,501.2z"/>
	<path fill="#0071BC" stroke="#0071BC" stroke-miterlimit="10" d="M422.9,495c-0.4-0.1-0.7-0.4-0.9-0.6c-0.7-0.5-1.2-1.1-2-1.5
		c-0.3-0.2-0.5-0.4-0.1-0.7c0.8-0.8,1.7-1.6,2.4-2.4c0.1-0.1,0.2-0.1,0.3-0.1c0.1,0.2-0.1,0.3-0.2,0.5c-0.6,0.6-1.1,1.1-1.6,1.7
		c-0.1,0.1-0.3,0.2-0.2,0.4c0.1,0.2,0.2,0.1,0.4,0.1c2.8,0,5.6,0,8.4,0c0.3,0,0.4-0.1,0.4-0.4c0-0.9,0-1.8,0-2.7c0-0.1,0-0.3,0-0.4
		s0-0.3,0.2-0.3s0.1,0.2,0.1,0.3c0,1.1,0,2.3,0,3.4c0,0.5-0.3,0.4-0.6,0.4c-2.6,0-5.2,0-7.8,0c-0.3,0-0.6,0-0.8,0
		c-0.1,0-0.3,0-0.3,0.2c0,0.1,0.1,0.2,0.2,0.3c0.6,0.5,1.1,0.9,1.6,1.4C422.7,494.5,422.9,494.6,422.9,495z"/>
</g>
<g>
	<path fill="#0071BC" d="M360.8,448.9h3c0.5,0,1,0.1,1.3,0.2c0.4,0.1,0.6,0.3,0.8,0.6c0.2,0.2,0.3,0.5,0.4,0.8
		c0.1,0.3,0.1,0.6,0.1,0.8s0,0.5-0.1,0.8c-0.1,0.3-0.2,0.5-0.4,0.8c-0.2,0.2-0.5,0.4-0.8,0.6c-0.4,0.1-0.8,0.2-1.3,0.2h-1.8v3.7
		h-1.2V448.9z M361.9,452.7h1.5c0.2,0,0.4,0,0.7-0.1s0.4-0.1,0.6-0.2c0.2-0.1,0.3-0.2,0.4-0.4s0.2-0.4,0.2-0.7s-0.1-0.5-0.2-0.7
		c-0.1-0.2-0.2-0.3-0.4-0.4c-0.2-0.1-0.4-0.2-0.6-0.2c-0.2,0-0.4-0.1-0.7-0.1h-1.5V452.7z"/>
	<path fill="#0071BC" d="M367.6,451.8h1.1v0.9h0c0.1-0.2,0.2-0.3,0.3-0.4s0.3-0.2,0.4-0.3s0.3-0.2,0.5-0.2c0.2-0.1,0.4-0.1,0.5-0.1
		c0.2,0,0.3,0,0.5,0.1l0,1.2c-0.1,0-0.2,0-0.3-0.1c-0.1,0-0.2,0-0.3,0c-0.5,0-0.9,0.1-1.2,0.4c-0.3,0.3-0.4,0.8-0.4,1.4v2.9h-1.1
		V451.8z"/>
	<path fill="#0071BC" d="M372.6,455c0,0.2,0.1,0.5,0.2,0.7c0.1,0.2,0.2,0.4,0.4,0.5c0.2,0.1,0.4,0.3,0.6,0.3s0.5,0.1,0.7,0.1
		c0.3,0,0.6-0.1,0.9-0.2c0.2-0.2,0.5-0.4,0.7-0.6l0.8,0.6c-0.6,0.8-1.4,1.2-2.5,1.2c-0.4,0-0.9-0.1-1.2-0.2
		c-0.4-0.2-0.7-0.4-0.9-0.6c-0.3-0.3-0.4-0.6-0.6-0.9c-0.1-0.4-0.2-0.8-0.2-1.2s0.1-0.8,0.2-1.2c0.1-0.4,0.4-0.7,0.6-0.9
		c0.3-0.3,0.6-0.5,0.9-0.6c0.4-0.2,0.8-0.2,1.2-0.2c0.5,0,0.9,0.1,1.3,0.3c0.3,0.2,0.6,0.4,0.9,0.7c0.2,0.3,0.4,0.6,0.5,1
		c0.1,0.4,0.1,0.7,0.1,1.1v0.4H372.6z M376,454.1c0-0.2,0-0.5-0.1-0.7s-0.2-0.4-0.3-0.5c-0.1-0.1-0.3-0.3-0.5-0.3s-0.4-0.1-0.7-0.1
		c-0.3,0-0.5,0-0.7,0.1c-0.2,0.1-0.4,0.2-0.6,0.4s-0.3,0.3-0.4,0.5c-0.1,0.2-0.1,0.4-0.1,0.6H376z"/>
	<path fill="#0071BC" d="M381.5,453.2c-0.1-0.2-0.3-0.3-0.5-0.4c-0.2-0.1-0.4-0.2-0.7-0.2c-0.3,0-0.5,0.1-0.7,0.2
		c-0.2,0.1-0.3,0.3-0.3,0.5c0,0.2,0.1,0.3,0.2,0.4c0.1,0.1,0.2,0.2,0.4,0.3c0.1,0.1,0.3,0.1,0.5,0.1s0.3,0.1,0.4,0.1
		c0.2,0.1,0.4,0.1,0.7,0.2s0.4,0.2,0.5,0.3s0.3,0.3,0.3,0.5c0.1,0.2,0.1,0.4,0.1,0.7c0,0.3-0.1,0.6-0.2,0.8
		c-0.1,0.2-0.3,0.4-0.5,0.6c-0.2,0.1-0.5,0.2-0.7,0.3c-0.3,0.1-0.6,0.1-0.8,0.1c-0.5,0-0.9-0.1-1.2-0.2c-0.4-0.1-0.7-0.4-1-0.8
		l0.8-0.7c0.2,0.2,0.4,0.3,0.6,0.5c0.2,0.1,0.5,0.2,0.8,0.2c0.1,0,0.3,0,0.4,0c0.1,0,0.3-0.1,0.4-0.1c0.1-0.1,0.2-0.1,0.3-0.2
		s0.1-0.2,0.1-0.3c0-0.2-0.1-0.3-0.1-0.4c-0.1-0.1-0.2-0.2-0.4-0.2c-0.1-0.1-0.3-0.1-0.4-0.1c-0.2,0-0.3-0.1-0.4-0.1
		c-0.2-0.1-0.5-0.1-0.7-0.2c-0.2-0.1-0.4-0.2-0.6-0.3c-0.2-0.1-0.3-0.3-0.4-0.5c-0.1-0.2-0.1-0.4-0.1-0.7c0-0.3,0.1-0.6,0.2-0.8
		c0.1-0.2,0.3-0.4,0.5-0.5c0.2-0.1,0.4-0.3,0.7-0.3c0.3-0.1,0.5-0.1,0.8-0.1c0.4,0,0.8,0.1,1.1,0.2c0.4,0.1,0.6,0.4,0.8,0.7
		L381.5,453.2z"/>
	<path fill="#0071BC" d="M386.8,453.2c-0.1-0.2-0.3-0.3-0.5-0.4c-0.2-0.1-0.4-0.2-0.7-0.2c-0.3,0-0.5,0.1-0.7,0.2
		c-0.2,0.1-0.3,0.3-0.3,0.5c0,0.2,0.1,0.3,0.2,0.4c0.1,0.1,0.2,0.2,0.4,0.3c0.1,0.1,0.3,0.1,0.5,0.1s0.3,0.1,0.4,0.1
		c0.2,0.1,0.4,0.1,0.7,0.2s0.4,0.2,0.5,0.3s0.3,0.3,0.3,0.5c0.1,0.2,0.1,0.4,0.1,0.7c0,0.3-0.1,0.6-0.2,0.8
		c-0.1,0.2-0.3,0.4-0.5,0.6c-0.2,0.1-0.5,0.2-0.7,0.3c-0.3,0.1-0.6,0.1-0.8,0.1c-0.5,0-0.9-0.1-1.2-0.2c-0.4-0.1-0.7-0.4-1-0.8
		l0.8-0.7c0.2,0.2,0.4,0.3,0.6,0.5c0.2,0.1,0.5,0.2,0.8,0.2c0.1,0,0.3,0,0.4,0c0.1,0,0.3-0.1,0.4-0.1c0.1-0.1,0.2-0.1,0.3-0.2
		s0.1-0.2,0.1-0.3c0-0.2-0.1-0.3-0.1-0.4c-0.1-0.1-0.2-0.2-0.4-0.2c-0.1-0.1-0.3-0.1-0.4-0.1c-0.2,0-0.3-0.1-0.4-0.1
		c-0.2-0.1-0.5-0.1-0.7-0.2c-0.2-0.1-0.4-0.2-0.6-0.3c-0.2-0.1-0.3-0.3-0.4-0.5c-0.1-0.2-0.1-0.4-0.1-0.7c0-0.3,0.1-0.6,0.2-0.8
		c0.1-0.2,0.3-0.4,0.5-0.5c0.2-0.1,0.4-0.3,0.7-0.3c0.3-0.1,0.5-0.1,0.8-0.1c0.4,0,0.8,0.1,1.1,0.2c0.4,0.1,0.6,0.4,0.8,0.7
		L386.8,453.2z"/>
	<path fill="#0071BC" d="M392.8,448.9h5.5v1.1h-4.3v2.5h4v1.1h-4v2.7h4.5v1.1h-5.7V448.9z"/>
	<path fill="#0071BC" d="M400.1,448.9h1.5l4.7,7h0v-7h1.2v8.5H406l-4.7-7h0v7h-1.2V448.9z"/>
	<path fill="#0071BC" d="M411.4,450h-2.7v-1.1h6.6v1.1h-2.7v7.4h-1.2V450z"/>
	<path fill="#0071BC" d="M416.5,448.9h5.5v1.1h-4.3v2.5h4v1.1h-4v2.7h4.5v1.1h-5.7V448.9z"/>
	<path fill="#0071BC" d="M423.9,448.9h3c0.5,0,1,0.1,1.3,0.2c0.4,0.1,0.6,0.3,0.8,0.6c0.2,0.2,0.3,0.5,0.4,0.8
		c0.1,0.3,0.1,0.6,0.1,0.8c0,0.3,0,0.5-0.1,0.8s-0.2,0.5-0.4,0.7c-0.2,0.2-0.4,0.4-0.7,0.5s-0.5,0.2-0.9,0.3l2.4,3.9h-1.4l-2.2-3.7
		H425v3.7h-1.2V448.9z M425,452.7h1.5c0.2,0,0.4,0,0.7-0.1c0.2,0,0.4-0.1,0.6-0.2c0.2-0.1,0.3-0.2,0.4-0.4c0.1-0.2,0.2-0.4,0.2-0.7
		s-0.1-0.5-0.2-0.7c-0.1-0.2-0.2-0.3-0.4-0.4c-0.2-0.1-0.4-0.2-0.6-0.2c-0.2,0-0.4-0.1-0.7-0.1H425V452.7z"/>
	<path fill="#0071BC" d="M437.3,452.7h-1.5v2.6c0,0.2,0,0.3,0,0.5c0,0.2,0,0.3,0.1,0.4s0.1,0.2,0.2,0.3c0.1,0.1,0.3,0.1,0.5,0.1
		c0.1,0,0.3,0,0.4,0c0.1,0,0.3-0.1,0.4-0.1v1c-0.1,0.1-0.3,0.1-0.5,0.1c-0.2,0-0.4,0-0.5,0c-0.4,0-0.7-0.1-1-0.2
		c-0.2-0.1-0.4-0.3-0.5-0.5c-0.1-0.2-0.2-0.4-0.2-0.6c0-0.2,0-0.5,0-0.7v-3h-1.2v-0.9h1.2v-1.6h1.1v1.6h1.5V452.7z"/>
	<path fill="#0071BC" d="M438.4,454.6c0-0.4,0.1-0.8,0.2-1.2c0.2-0.4,0.4-0.7,0.6-0.9c0.3-0.3,0.6-0.5,1-0.6
		c0.4-0.2,0.8-0.2,1.2-0.2s0.8,0.1,1.2,0.2c0.4,0.2,0.7,0.4,1,0.6c0.3,0.3,0.5,0.6,0.6,0.9c0.2,0.4,0.2,0.7,0.2,1.2
		s-0.1,0.8-0.2,1.2c-0.2,0.4-0.4,0.7-0.6,0.9c-0.3,0.3-0.6,0.5-1,0.6s-0.8,0.2-1.2,0.2s-0.8-0.1-1.2-0.2c-0.4-0.2-0.7-0.4-1-0.6
		c-0.3-0.3-0.5-0.6-0.6-0.9C438.5,455.4,438.4,455,438.4,454.6z M439.6,454.6c0,0.3,0,0.6,0.1,0.8c0.1,0.2,0.2,0.5,0.4,0.6
		s0.4,0.3,0.6,0.4c0.2,0.1,0.5,0.1,0.8,0.1s0.5,0,0.8-0.1c0.2-0.1,0.4-0.2,0.6-0.4s0.3-0.4,0.4-0.6s0.1-0.5,0.1-0.8s0-0.6-0.1-0.8
		s-0.2-0.5-0.4-0.6s-0.4-0.3-0.6-0.4c-0.2-0.1-0.5-0.2-0.8-0.2s-0.5,0-0.8,0.2c-0.2,0.1-0.4,0.2-0.6,0.4s-0.3,0.4-0.4,0.6
		C439.6,454,439.6,454.3,439.6,454.6z"/>
	<path fill="#0071BC" d="M449.2,451.8h1.1v0.8h0c0.2-0.3,0.5-0.5,0.9-0.7c0.4-0.2,0.7-0.3,1.1-0.3c0.4,0,0.8,0.1,1.2,0.2
		c0.4,0.2,0.7,0.4,0.9,0.6c0.3,0.3,0.4,0.6,0.6,1s0.2,0.8,0.2,1.2c0,0.4-0.1,0.8-0.2,1.2s-0.3,0.7-0.6,0.9c-0.3,0.3-0.6,0.5-0.9,0.6
		c-0.4,0.2-0.8,0.2-1.2,0.2c-0.4,0-0.8-0.1-1.2-0.3s-0.6-0.4-0.8-0.7h0v4.2h-1.1V451.8z M452.1,452.6c-0.3,0-0.5,0-0.8,0.2
		c-0.2,0.1-0.4,0.2-0.6,0.4c-0.2,0.2-0.3,0.4-0.4,0.6c-0.1,0.2-0.1,0.5-0.1,0.8s0,0.6,0.1,0.8c0.1,0.2,0.2,0.5,0.4,0.6
		c0.2,0.2,0.4,0.3,0.6,0.4c0.2,0.1,0.5,0.1,0.8,0.1c0.3,0,0.5,0,0.8-0.1c0.2-0.1,0.4-0.2,0.6-0.4s0.3-0.4,0.4-0.6s0.1-0.5,0.1-0.8
		s0-0.6-0.1-0.8s-0.2-0.5-0.4-0.6s-0.4-0.3-0.6-0.4C452.7,452.7,452.4,452.6,452.1,452.6z"/>
	<path fill="#0071BC" d="M456.6,448.4h1.1v9.1h-1.1V448.4z"/>
	<path fill="#0071BC" d="M459.4,452.5c0.3-0.3,0.7-0.5,1.1-0.6c0.4-0.1,0.8-0.2,1.2-0.2c0.4,0,0.8,0.1,1.1,0.2
		c0.3,0.1,0.5,0.2,0.7,0.4c0.2,0.2,0.3,0.4,0.4,0.6c0.1,0.2,0.1,0.5,0.1,0.7v2.9c0,0.2,0,0.4,0,0.6c0,0.2,0,0.3,0,0.5h-1
		c0-0.3,0-0.6,0-0.9h0c-0.2,0.4-0.5,0.6-0.9,0.8c-0.3,0.2-0.7,0.2-1.1,0.2c-0.3,0-0.5,0-0.8-0.1s-0.5-0.2-0.6-0.3
		c-0.2-0.1-0.3-0.3-0.4-0.5c-0.1-0.2-0.2-0.5-0.2-0.7c0-0.4,0.1-0.7,0.2-0.9c0.2-0.2,0.4-0.4,0.7-0.6s0.6-0.3,1-0.3
		c0.4-0.1,0.8-0.1,1.2-0.1h0.8v-0.2c0-0.1,0-0.3-0.1-0.4c-0.1-0.1-0.1-0.3-0.3-0.4s-0.3-0.2-0.4-0.3c-0.2-0.1-0.4-0.1-0.6-0.1
		c-0.2,0-0.4,0-0.5,0.1c-0.2,0-0.3,0.1-0.4,0.2c-0.1,0.1-0.2,0.1-0.3,0.2c-0.1,0.1-0.2,0.2-0.3,0.2L459.4,452.5z M462.4,454.7
		c-0.3,0-0.5,0-0.8,0c-0.3,0-0.5,0.1-0.7,0.2c-0.2,0.1-0.4,0.2-0.5,0.3c-0.1,0.1-0.2,0.3-0.2,0.6c0,0.3,0.1,0.6,0.3,0.7
		c0.2,0.1,0.5,0.2,0.9,0.2c0.3,0,0.5,0,0.8-0.2c0.2-0.1,0.4-0.2,0.5-0.4s0.2-0.3,0.3-0.5s0.1-0.4,0.1-0.6v-0.4H462.4z"/>
	<path fill="#0071BC" d="M464.9,451.8h1.2l1.7,4.4h0l1.6-4.4h1.2l-2.7,6.9c-0.1,0.2-0.2,0.5-0.3,0.7s-0.2,0.4-0.4,0.5
		c-0.1,0.1-0.3,0.3-0.5,0.3s-0.5,0.1-0.7,0.1c-0.2,0-0.3,0-0.5,0c-0.2,0-0.3-0.1-0.5-0.1l0.1-1c0.2,0.1,0.4,0.1,0.6,0.1
		c0.2,0,0.3,0,0.4-0.1s0.2-0.1,0.3-0.2c0.1-0.1,0.2-0.2,0.2-0.3c0.1-0.1,0.1-0.2,0.2-0.4l0.3-0.9L464.9,451.8z"/>
	<path fill="#0071BC" d="M475,452.5c0.3-0.3,0.7-0.5,1.1-0.6c0.4-0.1,0.8-0.2,1.2-0.2c0.4,0,0.8,0.1,1.1,0.2
		c0.3,0.1,0.5,0.2,0.7,0.4c0.2,0.2,0.3,0.4,0.4,0.6c0.1,0.2,0.1,0.5,0.1,0.7v2.9c0,0.2,0,0.4,0,0.6c0,0.2,0,0.3,0,0.5h-1
		c0-0.3,0-0.6,0-0.9h0c-0.2,0.4-0.5,0.6-0.9,0.8c-0.3,0.2-0.7,0.2-1.1,0.2c-0.3,0-0.5,0-0.8-0.1s-0.5-0.2-0.6-0.3
		c-0.2-0.1-0.3-0.3-0.4-0.5c-0.1-0.2-0.2-0.5-0.2-0.7c0-0.4,0.1-0.7,0.2-0.9c0.2-0.2,0.4-0.4,0.7-0.6s0.6-0.3,1-0.3
		c0.4-0.1,0.8-0.1,1.2-0.1h0.8v-0.2c0-0.1,0-0.3-0.1-0.4c-0.1-0.1-0.1-0.3-0.3-0.4s-0.3-0.2-0.4-0.3c-0.2-0.1-0.4-0.1-0.6-0.1
		c-0.2,0-0.4,0-0.5,0.1c-0.2,0-0.3,0.1-0.4,0.2c-0.1,0.1-0.2,0.1-0.3,0.2c-0.1,0.1-0.2,0.2-0.3,0.2L475,452.5z M478,454.7
		c-0.3,0-0.5,0-0.8,0c-0.3,0-0.5,0.1-0.7,0.2c-0.2,0.1-0.4,0.2-0.5,0.3c-0.1,0.1-0.2,0.3-0.2,0.6c0,0.3,0.1,0.6,0.3,0.7
		c0.2,0.1,0.5,0.2,0.9,0.2c0.3,0,0.5,0,0.8-0.2c0.2-0.1,0.4-0.2,0.5-0.4s0.2-0.3,0.3-0.5s0.1-0.4,0.1-0.6v-0.4H478z"/>
	<path fill="#0071BC" d="M486.9,457.4c0,0.4-0.1,0.8-0.2,1.2c-0.1,0.4-0.4,0.7-0.6,0.9c-0.3,0.3-0.6,0.5-1,0.6
		c-0.4,0.1-0.8,0.2-1.3,0.2c-0.5,0-1-0.1-1.5-0.2c-0.5-0.2-0.9-0.4-1.3-0.8l0.7-0.9c0.3,0.3,0.6,0.5,0.9,0.7
		c0.3,0.2,0.7,0.2,1.1,0.2c0.4,0,0.7-0.1,1-0.2c0.3-0.1,0.5-0.3,0.6-0.5c0.2-0.2,0.3-0.4,0.3-0.6c0.1-0.2,0.1-0.5,0.1-0.7v-0.8h0
		c-0.2,0.3-0.5,0.6-0.8,0.8c-0.4,0.2-0.7,0.2-1.1,0.2c-0.4,0-0.8-0.1-1.2-0.2c-0.4-0.1-0.7-0.4-0.9-0.6c-0.3-0.3-0.5-0.6-0.6-0.9
		c-0.1-0.4-0.2-0.7-0.2-1.2s0.1-0.8,0.2-1.2c0.1-0.4,0.3-0.7,0.6-1c0.3-0.3,0.6-0.5,0.9-0.6c0.4-0.2,0.8-0.2,1.2-0.2
		c0.4,0,0.8,0.1,1.1,0.3s0.7,0.4,0.9,0.7h0v-0.8h1.1V457.4z M483.9,452.6c-0.3,0-0.5,0-0.8,0.2c-0.2,0.1-0.4,0.2-0.6,0.4
		c-0.2,0.2-0.3,0.4-0.4,0.6s-0.1,0.5-0.1,0.8c0,0.6,0.2,1,0.5,1.4s0.8,0.5,1.4,0.5c0.6,0,1-0.2,1.4-0.5s0.5-0.8,0.5-1.4
		c0-0.3,0-0.6-0.1-0.8s-0.2-0.5-0.4-0.6s-0.4-0.3-0.6-0.4C484.5,452.7,484.2,452.6,483.9,452.6z"/>
	<path fill="#0071BC" d="M488.5,452.5c0.3-0.3,0.7-0.5,1.1-0.6c0.4-0.1,0.8-0.2,1.2-0.2c0.4,0,0.8,0.1,1.1,0.2
		c0.3,0.1,0.5,0.2,0.7,0.4c0.2,0.2,0.3,0.4,0.4,0.6c0.1,0.2,0.1,0.5,0.1,0.7v2.9c0,0.2,0,0.4,0,0.6c0,0.2,0,0.3,0,0.5h-1
		c0-0.3,0-0.6,0-0.9h0c-0.2,0.4-0.5,0.6-0.9,0.8c-0.3,0.2-0.7,0.2-1.1,0.2c-0.3,0-0.5,0-0.8-0.1s-0.5-0.2-0.6-0.3
		c-0.2-0.1-0.3-0.3-0.4-0.5c-0.1-0.2-0.2-0.5-0.2-0.7c0-0.4,0.1-0.7,0.2-0.9c0.2-0.2,0.4-0.4,0.7-0.6s0.6-0.3,1-0.3
		c0.4-0.1,0.8-0.1,1.2-0.1h0.8v-0.2c0-0.1,0-0.3-0.1-0.4c-0.1-0.1-0.1-0.3-0.3-0.4s-0.3-0.2-0.4-0.3c-0.2-0.1-0.4-0.1-0.6-0.1
		c-0.2,0-0.4,0-0.5,0.1c-0.2,0-0.3,0.1-0.4,0.2c-0.1,0.1-0.2,0.1-0.3,0.2c-0.1,0.1-0.2,0.2-0.3,0.2L488.5,452.5z M491.6,454.7
		c-0.3,0-0.5,0-0.8,0c-0.3,0-0.5,0.1-0.7,0.2c-0.2,0.1-0.4,0.2-0.5,0.3c-0.1,0.1-0.2,0.3-0.2,0.6c0,0.3,0.1,0.6,0.3,0.7
		c0.2,0.1,0.5,0.2,0.9,0.2c0.3,0,0.5,0,0.8-0.2c0.2-0.1,0.4-0.2,0.5-0.4s0.2-0.3,0.3-0.5s0.1-0.4,0.1-0.6v-0.4H491.6z"/>
	<path fill="#0071BC" d="M494.6,449.7c0-0.2,0.1-0.4,0.2-0.6s0.3-0.2,0.6-0.2c0.2,0,0.4,0.1,0.6,0.2s0.2,0.3,0.2,0.6
		c0,0.2-0.1,0.4-0.2,0.6s-0.3,0.2-0.6,0.2c-0.2,0-0.4-0.1-0.6-0.2S494.6,449.9,494.6,449.7z M494.8,451.8h1.1v5.7h-1.1V451.8z"/>
	<path fill="#0071BC" d="M497.6,451.8h1.1v0.9h0c0.1-0.3,0.4-0.6,0.7-0.7c0.3-0.2,0.7-0.3,1.2-0.3c0.3,0,0.5,0,0.8,0.1
		s0.5,0.2,0.7,0.4c0.2,0.2,0.3,0.4,0.5,0.7c0.1,0.3,0.2,0.6,0.2,1v3.7h-1.1v-3.4c0-0.3,0-0.5-0.1-0.7c-0.1-0.2-0.2-0.3-0.3-0.5
		s-0.3-0.2-0.4-0.3s-0.3-0.1-0.5-0.1c-0.2,0-0.4,0-0.6,0.1c-0.2,0.1-0.4,0.2-0.5,0.3c-0.1,0.2-0.3,0.4-0.3,0.6
		c-0.1,0.2-0.1,0.5-0.1,0.9v2.9h-1.1V451.8z"/>
</g>
</svg>
