<?xml version="1.0" encoding="utf-8"?>
<!-- Generator: Adobe Illustrator 20.1.0, SVG Export Plug-In . SVG Version: 6.00 Build 0)  -->
<svg version="1.1" id="Calque_1" xmlns="http://www.w3.org/2000/svg" xmlns:xlink="http://www.w3.org/1999/xlink" x="0px" y="0px"
	 viewBox="0 0 141.7 141.7" enable-background="new 0 0 141.7 141.7" xml:space="preserve">
<g>
	<polygon fill="none" stroke="#1A71B7" stroke-miterlimit="10" points="44.5,31.9 68.2,71.3 92.9,33.4 75.6,27.3 62.4,28 55.2,27.3 
			"/>
	<polygon fill="none" stroke="#841F21" stroke-miterlimit="10" points="42.6,105.7 68.3,71.3 91,108 80.9,112.6 72,111.9 
		59.4,111.2 54,110.2 	"/>
	<polygon fill="#244F75" points="66.2,11.5 68.3,6.6 70.5,11.5 	"/>
	<polygon fill="#1E2C3E" points="59.5,13.9 64.7,17 66.2,11.5 	"/>
	<polygon fill="#243F5C" points="70.5,11.5 64.7,17 66.2,11.5 	"/>
	<polygon fill="#1E2C3E" points="72.5,17.2 70.5,11.5 64.7,17 	"/>
	<polygon fill="#244F75" points="56.1,15.8 59.5,13.9 64.7,17 	"/>
	<polygon fill="#1A71B7" points="68,18.9 64.7,17 72.5,17.2 	"/>
	<polygon fill="#243F5C" points="64.7,17 61.7,23.1 56.1,15.8 	"/>
	<polygon fill="#244F75" points="68,18.9 61.7,23.1 64.7,17 	"/>
	<polygon fill="#243F5C" points="72.5,25.4 61.7,23.1 68,18.9 	"/>
	<polygon fill="#1A71B7" points="77.6,14.3 72.5,17.2 70.5,11.5 	"/>
	<polygon fill="#244F75" points="56.1,15.8 50.4,18 61.7,23.1 	"/>
	<polygon fill="#1A71B7" points="72.5,25.4 62.9,28.9 61.7,23.1 	"/>
	<polygon fill="#1E2C3E" points="55.3,28.9 61.7,23.1 62.9,28.9 	"/>
	<polygon fill="#243F5C" points="46.3,21.7 46.5,26.2 61.7,23.1 	"/>
	<polygon fill="#1A71B7" points="50.4,18 46.3,21.7 61.8,23.1 	"/>
	<polygon fill="#244F75" points="43.7,27 46.3,21.7 46.5,26.2 	"/>
	<polygon fill="#1E2C3E" points="44.5,31.9 43.7,27 46.5,26.2 	"/>
	<polygon fill="#1A71B7" points="55.3,28.9 46.5,26.2 44.5,31.9 	"/>
	<polygon fill="#244F75" points="72.5,25.4 75.2,29.5 62.9,28.9 	"/>
	<polygon fill="#1E2C3E" points="72.5,17.2 72.5,25.4 68,18.9 	"/>
	<polygon fill="#243F5C" points="77.6,14.3 84.6,17.6 72.5,17.2 	"/>
	<polygon fill="#1A71B7" points="80.9,23.1 72.5,17.2 72.5,25.4 	"/>
	<polygon fill="#244F75" points="84.6,17.6 80.9,23.1 72.5,17.2 	"/>
	<polygon fill="#1A71B7" points="90.6,23.1 80.9,23.1 84.6,17.6 	"/>
	<polygon fill="#243F5C" points="92.2,28.1 90.6,23.1 80.9,23.1 	"/>
	<polygon fill="#243F5C" points="80.9,30.5 80.9,23.1 72.5,25.4 	"/>
	<polygon fill="#1E2C3E" points="92.2,28.1 80.9,30.5 80.9,23.1 	"/>
	<polygon fill="#244F75" points="92.9,33.4 80.9,30.5 92.2,28.1 	"/>
	<polygon fill="#1A71B7" points="75.2,29.5 80.9,30.5 72.5,25.4 	"/>
	<polygon fill="#244F75" points="43.7,27 41.6,32.9 44.5,31.9 	"/>
	<polygon fill="#244F75" points="39.9,28.1 41.6,32.9 43.7,27 	"/>
	<polygon fill="#244F75" points="46.3,21.7 39.9,28.1 44.5,26.8 	"/>
	<polygon fill="#244F75" points="90.6,23.1 94.3,26.8 92.2,28.1 	"/>
	<polygon fill="#243F5C" points="92.9,33.4 95.9,30.8 92.2,28.1 	"/>
	<polygon fill="#1A71B7" points="94.3,26.8 95.9,30.8 92.2,28.1 	"/>
	<polygon fill="#1A71B7" points="44.5,31.9 43.1,37.7 41.6,32.9 	"/>
	<polygon fill="#1A71B7" points="92.9,33.4 92.2,38.5 94.3,38.5 	"/>
	<polygon fill="#244F75" points="92.2,38.5 93.2,44.2 94.3,38.5 	"/>
	<polygon fill="#1E2C3E" points="95.9,30.8 94.3,38.5 92.9,33.4 	"/>
	<polygon fill="#243F5C" points="43.1,37.7 41.8,43.6 45.1,43.6 	"/>
	<polygon fill="#244F75" points="43.1,50.3 41.8,43.6 45.1,43.6 	"/>
	<polygon fill="#1E2C3E" points="93.2,44.2 91.5,51.4 95.9,51.4 	"/>
	<polygon fill="#1A71B7" points="43.1,50.3 41.6,56.4 45.6,56.4 	"/>
	<polygon fill="#1A71B7" points="91.5,51.4 93.2,57.5 95.9,51.4 	"/>
	<polygon fill="#244F75" points="41.6,56.4 43.7,62.6 45.6,56.4 	"/>
	<polygon fill="#841F21" points="69,128.1 66.9,132.9 64.8,128 	"/>
	<polygon fill="#301618" points="75.8,125.8 70.6,122.5 69,128.1 	"/>
	<polygon fill="#49171E" points="64.8,128 70.6,122.5 69,128.1 	"/>
	<polygon fill="#201113" points="62.9,122.3 64.8,128 70.6,122.5 	"/>
	<polygon fill="#49171E" points="79.2,123.9 75.8,125.8 70.6,122.5 	"/>
	<polygon fill="#301618" points="67.3,120.6 70.6,122.5 62.9,122.3 	"/>
	<polygon fill="#201113" points="70.6,122.5 73.7,116.5 79.2,123.9 	"/>
	<polygon fill="#49171E" points="67.3,120.6 73.7,116.5 70.6,122.5 	"/>
	<polygon fill="#201113" points="63,114.1 73.7,116.5 67.3,120.6 	"/>
	<polygon fill="#49171E" points="57.7,125.1 62.9,122.3 64.8,128 	"/>
	<polygon fill="#841F21" points="79.2,123.9 84.9,121.8 73.7,116.5 	"/>
	<polygon fill="#301618" points="63,114.1 72.6,110.7 73.7,116.5 	"/>
	<polygon fill="#49171E" points="80.1,110.8 73.7,116.5 72.6,110.7 	"/>
	<polygon fill="#841F21" points="89.1,118.2 89,113.6 73.7,116.5 	"/>
	<polygon fill="#49171E" points="84.9,121.8 89.1,118.2 73.7,116.5 	"/>
	<polygon fill="#49171E" points="91.8,112.9 89.1,118.2 89,113.6 	"/>
	<polygon fill="#201113" points="91,108 91.8,112.9 89,113.6 	"/>
	<polygon fill="#301618" points="80.1,110.8 89,113.6 91,108 	"/>
	<polygon fill="#49171E" points="63,114.1 60.3,109.9 72.6,110.7 	"/>
	<polygon fill="#841F21" points="62.9,122.3 63,114.1 67.3,120.6 	"/>
	<polygon fill="#201113" points="57.7,125.1 50.7,121.7 62.9,122.3 	"/>
	<polygon fill="#201113" points="54.5,116.2 62.9,122.3 63,114.1 	"/>
	<polygon fill="#301618" points="50.7,121.7 54.5,116.2 62.9,122.3 	"/>
	<polygon fill="#841F21" points="44.9,116.1 54.5,116.2 50.7,121.7 	"/>
	<polygon fill="#49171E" points="43.3,111 44.9,116.1 54.5,116.2 	"/>
	<polygon fill="#49171E" points="54.6,108.9 54.5,116.2 63,114.1 	"/>
	<polygon fill="#301618" points="43.3,111 54.6,108.9 54.5,116.2 	"/>
	<polygon fill="#841F21" points="42.6,105.7 54.6,108.9 43.3,111 	"/>
	<polygon fill="#841F21" points="60.3,109.9 54.6,108.9 63,114.1 	"/>
	<polygon fill="#49171E" points="91.8,112.9 93.9,107 91,108 	"/>
	<polygon fill="#49171E" points="95.6,111.8 93.9,107 91.8,112.9 	"/>
	<polygon fill="#49171E" points="89.1,118.2 95.6,111.8 90.9,113.1 	"/>
	<polygon fill="#301618" points="44.9,116.1 41.2,112.4 43.3,111 	"/>
	<polygon fill="#201113" points="42.6,105.7 39.6,108.3 43.3,111 	"/>
	<polygon fill="#49171E" points="41.2,112.4 39.6,108.3 43.3,111 	"/>
	<polygon fill="#49171E" points="91,108 92.5,102.2 93.9,107 	"/>
	<polygon fill="#49171E" points="42.6,105.7 43.5,100.7 41.3,100.7 	"/>
	<polygon fill="#841F21" points="43.5,100.7 42.6,95 41.3,100.7 	"/>
	<polygon fill="#49171E" points="39.6,108.3 41.3,100.7 42.6,105.7 	"/>
	<polygon fill="#201113" points="92.5,102.2 93.9,96.3 90.6,96.3 	"/>
	<polygon fill="#841F21" points="92.7,89.6 93.9,96.3 90.6,96.3 	"/>
	<polygon fill="#49171E" points="42.6,95 44.3,87.8 39.9,87.7 	"/>
	<polygon fill="#49171E" points="92.7,89.6 94.3,83.5 90.3,83.5 	"/>
	<polygon fill="#243F5C" points="44.3,87.8 42.7,81.7 39.9,87.7 	"/>
	<polygon fill="#301618" points="94.3,83.5 92.3,77.3 90.3,83.5 	"/>
	<polygon fill="#244F75" points="92.3,77.3 91,71.6 95.9,71.6 	"/>
	<polygon fill="#244F75" points="93.2,57.5 92.2,61.3 95.9,61.3 	"/>
	<polygon fill="#49171E" points="91,71.6 94,66.7 95.9,71.6 	"/>
	<polygon fill="#1E2C3E" points="92.2,61.3 94,66.7 95.9,61.3 	"/>
	<polygon fill="#243F5C" points="43.7,62.6 42.4,68 46.1,68 	"/>
	<polygon fill="#49171E" points="42.7,81.7 42.4,77.3 46.6,77.3 	"/>
	<polygon fill="#1E2C3E" points="42.4,68 44.5,74.4 46.1,68 	"/>
	<polygon fill="#1E2C3E" points="42.4,77.3 44.5,74.4 46.6,77.3 	"/>
	<polygon fill="#49171E" points="55.4,49.4 59.2,47.2 62.8,50.2 	"/>
	<polygon fill="#49171E" points="66.1,53 61.8,60.5 62.8,50.2 	"/>
	<polygon fill="#201113" points="55.4,49.4 61.8,60.5 62.8,50.2 	"/>
	<polygon fill="#841F21" points="59.2,47.2 66.2,46.1 62.8,50.2 	"/>
	<polygon fill="#301618" points="66.1,53 65.3,66.2 61.8,60.5 	"/>
	<polygon fill="#201113" points="62.8,50.2 66.2,46.1 66.1,53 	"/>
	<polygon fill="#301618" points="73.7,47.9 66.2,46.1 66.1,53 	"/>
	<polygon fill="#201113" points="78.8,46.6 73.7,47.9 78.8,55.2 	"/>
	<polygon fill="#49171E" points="83.1,48.1 78.8,46.6 78.8,55.2 	"/>
	<polygon fill="#841F21" points="73.7,47.9 71.3,57.9 66.1,53 	"/>
	<polygon fill="#49171E" points="78.8,55.2 71.3,57.9 73.7,47.9 	"/>
	<polygon fill="#201113" points="73.8,62.6 71.3,57.9 78.8,55.2 	"/>
	<polygon fill="#49171E" points="65.3,66.2 71.3,57.9 66.1,53 	"/>
	<polygon fill="#301618" points="73.8,62.6 65.3,66.2 71.3,57.9 	"/>
	<polygon fill="#841F21" points="68.3,71.3 65.3,66.2 73.8,62.6 	"/>
	<polygon fill="#301618" points="68.3,71.3 65.4,75.2 70.5,75.1 	"/>
	<polygon fill="#49171E" points="67.9,78.8 65.4,75.2 70.5,75.1 	"/>
	<polygon fill="#49171E" points="65.3,66.2 70.8,67.2 68.3,71.3 	"/>
	<polygon fill="#1A71B7" points="68.6,97.2 71,94 65.1,94.8 	"/>
	<polygon fill="#1A71B7" points="59.1,97.1 64.1,100.3 58.6,101.7 	"/>
	<polygon fill="#1A71B7" points="78.4,96.2 74.7,97.6 77,103.9 	"/>
	<polygon fill="#1E2C3E" points="84.7,97.8 82.6,98.9 83.1,106.3 	"/>
	<polygon fill="#1E2C3E" points="51,101.5 59.1,97.1 58.6,101.7 	"/>
	<polygon fill="#1A71B7" points="64.1,100.3 71.3,102.6 68.6,97.2 	"/>
	<polygon fill="#1E2C3E" points="80.1,110.8 83.1,106.3 72.6,110.7 	"/>
	<polygon fill="#244F75" points="46.5,26.2 61.8,23.1 55.3,28.9 	"/>
	<polygon fill="#201113" points="80.1,110.8 73.7,116.5 89,113.6 	"/>
	<polygon fill="#243F5C" points="42.6,105.7 50.9,101.3 51,101.5 54.6,108.9 	"/>
	<polygon fill="#1E2C3E" points="65.1,94.8 67.8,89.9 71,94 	"/>
	<path fill="#243F5C" d="M64.1,100.3c0-0.8,1-5.5,1-5.5l3.5,2.4L64.1,100.3z"/>
	<polygon fill="#244F75" points="71,94 74.7,97.6 68.6,97.2 	"/>
	<path fill="#243F5C" d="M82.6,98.9l-4.2-2.7c0,0-1.9,8.2-1.4,7.7S82.6,98.9,82.6,98.9z"/>
	<polygon fill="#244F75" points="77,103.9 83.1,106.3 82.6,98.9 	"/>
	<polygon fill="#244F75" points="65.1,94.8 59.1,97.1 64.1,100.3 	"/>
	<polygon fill="#243F5C" points="51,101.5 53.6,97.4 59.1,97.1 	"/>
	<polygon fill="#244F75" points="58.6,101.7 54.6,108.9 51,101.5 	"/>
	<polygon fill="#244F75" points="64.2,110.2 58.6,101.7 64.1,100.3 	"/>
	<polygon fill="#1A71B7" points="54.6,108.9 58.6,101.7 64.2,110.1 60.3,109.9 	"/>
	<polygon fill="#1E2C3E" points="64.2,110.1 71,103 71.3,102.6 64.1,100.3 	"/>
	<polygon fill="#243F5C" points="74.7,97.6 71.3,102.6 68.6,97.2 	"/>
	<polygon fill="#243F5C" points="83.1,106.3 91,108 84.7,97.8 	"/>
	<polygon fill="#1A71B7" points="77,103.9 72.6,110.7 83.1,106.3 	"/>
	<polygon fill="#1E2C3E" points="71.3,102.6 77,103.9 74.7,97.6 	"/>
	<path fill="#244F75" d="M72.6,110.7c-0.3-0.1-1.3-8.1-1.3-8.1l5.6,1.3L72.6,110.7z"/>
	<polygon fill="#243F5C" points="64.2,110.1 71.3,102.6 72.6,110.7 	"/>
	<polygon fill="#244F75" points="80.1,110.8 91,108 83.1,106.3 	"/>
</g>
</svg>
