<?xml version="1.0" encoding="utf-8"?>
<!-- Generator: Adobe Illustrator 20.1.0, SVG Export Plug-In . SVG Version: 6.00 Build 0)  -->
<svg version="1.1" id="Calque_1" xmlns="http://www.w3.org/2000/svg" xmlns:xlink="http://www.w3.org/1999/xlink" x="0px" y="0px"
	 viewBox="0 0 841.9 595.3" enable-background="new 0 0 841.9 595.3" xml:space="preserve">
<line fill="none" x1="843" y1="-18.1" x2="843" y2="922.9"/>
<polygon fill="#0071BC" points="311.2,595.8 385.5,595.8 386.8,595.3 311.4,595.3 "/>
<polygon fill="#011723" points="294.1,595.3 294.2,595.8 311.2,595.8 311.4,595.3 "/>
<polygon fill="#011723" stroke="#000000" stroke-width="0.25" stroke-miterlimit="10" points="268,595.3 268.5,595.8 294.2,595.8 
	294.1,595.3 "/>
<polygon fill="#2B080E" points="717.1,296.9 679,302.8 663.4,334.5 "/>
<polygon fill="#2B080E" points="640.9,296.9 615.9,302.8 663.4,334.5 "/>
<polygon fill="#2B080E" points="552.1,491.4 552.1,582.1 430.3,535.8 487.7,595.3 681.4,595.3 581.7,521.6 "/>
<polygon fill="#2B080E" points="552.1,491.4 426.7,459.8 430.3,535.8 "/>
<polygon fill="#160608" points="571.9,412.9 441,396.4 426.7,459.8 "/>
<polygon fill="#2B080E" points="539.7,360.3 483.8,352.5 571.9,412.9 "/>
<polygon fill="#2B080E" points="363.6,545.6 316.7,595.3 332.9,595.3 430.3,535.8 "/>
<polygon fill="#2B080E" points="635.2,430.2 695.8,448.7 770.2,418.4 725.4,377.2 647.9,380.6 "/>
<polygon fill="#2B080E" points="581.7,521.6 677.1,526.2 581.7,486.8 "/>
<polygon fill="#2B080E" points="725.4,377.2 841.9,387.2 841.9,385.9 788.5,315.5 726.8,351.8 "/>
<polygon fill="#2B080E" points="841.9,385.9 841.9,387.2 843,387.3 "/>
<polygon fill="#2B080E" points="677.1,526.2 765.3,504.8 695.8,448.7 "/>
<polygon fill="#2B080E" points="770.2,418.4 765.3,504.8 841.9,388.9 841.9,387.7 "/>
<polygon fill="#2B080E" points="749.2,284.3 717.1,296.9 788.5,315.5 "/>
<polygon fill="#440202" points="426.7,459.8 377.9,424.7 350.5,489 363.6,545.6 "/>
<polygon fill="#2B080E" points="841.9,388.9 843,387.3 841.9,387.7 "/>
<polygon fill="#2B080E" points="841.9,561.7 841.9,509.8 765.3,504.8 "/>
<polygon fill="#541119" points="237.5,541.7 244.6,579.7 363.6,545.6 "/>
<polygon fill="#440202" points="363.6,545.6 244.6,579.7 264.6,595.3 316.7,595.3 "/>
<polygon fill="#440202" points="726.8,351.8 663.4,334.5 647.9,380.6 "/>
<polygon fill="#2B080E" points="572.8,413.2 571.9,412.9 633.8,469.5 "/>
<linearGradient id="SVGID_1_" gradientUnits="userSpaceOnUse" x1="571.9" y1="233.6501" x2="635.2753" y2="233.6501" gradientTransform="matrix(1 0 0 1 0 207.5499)">
	<stop  offset="0" style="stop-color:#0071BC"/>
	<stop  offset="1" style="stop-color:#ED1C24"/>
</linearGradient>
<polygon fill="url(#SVGID_1_)" points="572.8,413.2 571.9,412.9 633.8,469.5 "/>
<path fill="#2B080E" d="M635.2,430.2l-1.4,39.3L635.2,430.2z"/>
<linearGradient id="SVGID_2_" gradientUnits="userSpaceOnUse" x1="571.8636" y1="242.3001" x2="635.2382" y2="242.3001" gradientTransform="matrix(1 0 0 1 0 207.5499)">
	<stop  offset="0" style="stop-color:#0071BC"/>
	<stop  offset="1" style="stop-color:#ED1C24"/>
</linearGradient>
<path fill="url(#SVGID_2_)" d="M635.2,430.2l-1.4,39.3L635.2,430.2z"/>
<polygon fill="#330000" points="677.1,526.2 711.5,595.3 739.1,595.3 765.3,504.8 "/>
<polygon fill="#440202" points="841.9,387.7 841.9,387.2 725.4,377.2 770.2,418.4 "/>
<polygon fill="#7C2930" points="843,387.3 841.9,387.2 841.9,387.7 "/>
<polygon fill="#3D0E13" points="572,412.5 571.9,412.3 572.1,412.4 606.4,330.1 663.4,334.5 615.9,302.8 539.7,360.3 571.9,412.9 
	"/>
<polygon fill="#23090C" points="441,396.4 377.9,424.7 426.7,459.8 "/>
<polygon fill="#3D0E13" points="571.9,412.9 426.7,459.8 552.1,491.4 "/>
<polygon fill="#160608" points="679,302.8 640.9,296.9 663.4,334.5 "/>
<polygon fill="#23090C" points="726.8,351.8 717.1,296.9 663.4,334.5 "/>
<polygon fill="#3D0E13" points="663.4,334.5 606.4,330.1 647.9,380.6 "/>
<polygon fill="#2B080E" points="581.7,486.8 571.9,412.9 552.1,491.4 "/>
<polygon fill="#23090C" points="633.8,469.5 571.9,412.9 581.7,486.8 "/>
<polygon fill="#541119" points="572.8,413.2 633.8,469.5 635.2,430.2 "/>
<polygon fill="#7F1320" points="571.9,412.3 572,412.5 572.1,412.4 "/>
<polygon fill="#440202" points="635.2,430.2 633.8,469.5 695.8,448.7 "/>
<polygon fill="#440202" points="581.7,486.8 677.1,526.2 633.8,469.5 "/>
<polygon fill="#4C1E22" points="572.3,412.7 571.9,412.9 572.8,413.2 "/>
<polygon fill="#3D0E13" points="635.2,430.2 635.2,430.2 647.9,380.6 572.7,412.6 635.2,429.8 "/>
<polygon fill="#541119" points="635.2,429.8 572.7,412.6 572.3,412.7 572.8,413.2 635.2,430.2 "/>
<polygon fill="#160608" points="633.8,469.5 677.1,526.2 695.8,448.7 "/>
<polygon fill="#2B080E" points="552.1,491.4 581.7,521.6 581.7,486.8 "/>
<polygon fill="#160608" points="552.1,582.1 552.1,491.4 430.3,535.8 "/>
<polygon fill="#160608" points="332.9,595.3 487.7,595.3 430.3,535.8 "/>
<polygon fill="#160608" points="739.1,595.3 841.9,595.3 841.9,561.7 765.3,504.8 "/>
<polygon fill="#23090C" points="695.8,448.7 765.3,504.8 770.2,418.4 "/>
<polygon fill="#541119" points="788.5,315.5 717.1,296.9 726.8,351.8 "/>
<polygon fill="#330000" points="647.9,380.6 606.4,330.1 572.1,412.4 572.7,412.6 "/>
<polygon fill="#7C2930" points="572,412.5 571.9,412.9 572.3,412.7 "/>
<polygon fill="#7C2930" points="572.7,412.6 572.1,412.4 572,412.5 572.3,412.7 "/>
<polygon fill="#440202" points="725.4,377.2 726.8,351.8 647.9,380.6 "/>
<polygon fill="#160608" points="841.9,300.9 788.5,315.5 841.9,385.9 "/>
<polygon fill="#160608" points="581.7,521.6 681.4,595.3 711.5,595.3 677.1,526.2 "/>
<polygon fill="#23090C" points="765.3,504.8 841.9,509.8 841.9,388.9 "/>
<polygon fill="#541119" points="483.8,352.5 441,396.4 571.9,412.9 "/>
<polygon fill="#2B080E" points="350.5,489 237.5,541.7 363.6,545.6 "/>
<polygon fill="#23090C" points="426.7,459.8 363.6,545.6 430.3,535.8 "/>
<polygon fill="#010A0F" points="621.4,216.8 655.9,181.3 596.1,165 "/>
<polygon fill="#010E16" points="595.8,59.3 596.1,165 609.6,100.9 "/>
<polygon fill="none" points="609.6,100.9 655.9,181.3 741.9,185.4 743.2,131.5 705.5,81.2 689.7,115.5 658.8,61.9 "/>
<polygon fill="#032A3F" points="655.9,181.3 689.7,115.5 741.9,185.4 "/>
<polygon fill="#010E16" points="755.4,87.9 736.2,81.8 743.2,131.5 "/>
<polygon fill="#013B5B" points="705.5,81.2 736.2,81.8 743.2,131.5 "/>
<polygon fill="#032A3F" points="658.8,61.9 705.5,81.2 689.7,115.5 "/>
<polygon fill="#032A3F" points="741.9,185.4 689.7,115.5 743.2,131.5 "/>
<polygon fill="#03202D" points="621.4,216.8 741.9,185.4 655.9,181.3 "/>
<polygon fill="#013B5B" points="609.6,100.9 596.1,165 655.9,181.3 "/>
<polygon fill="#03202D" points="609.6,100.9 689.7,115.5 655.9,181.3 "/>
<polygon fill="#032A3F" points="609.6,100.9 595.8,59.3 658.8,61.9 "/>
<polygon fill="#010E16" points="658.8,61.9 609.6,100.9 689.7,115.5 "/>
<polygon fill="#010A0F" points="705.5,81.2 689.7,115.5 743.2,131.5 "/>
</svg>
