<?xml version="1.0" encoding="utf-8"?>
<!-- Generator: Adobe Illustrator 20.1.0, SVG Export Plug-In . SVG Version: 6.00 Build 0)  -->
<svg version="1.1" id="Calque_1" xmlns="http://www.w3.org/2000/svg" xmlns:xlink="http://www.w3.org/1999/xlink" x="0px" y="0px"
	 viewBox="0 0 141.7 141.7" enable-background="new 0 0 141.7 141.7" xml:space="preserve">
<path fill="#330000" d="M71.2,48.8c-0.1-1.5-1.4-0.8-2.1-1c-0.5-0.1-0.9-0.3-1.4-0.4c0-0.2,0.1-0.5,0.1-0.7c1.1,0,2.1,0,3.3-0.1
	c0.1-1.4,0.1-2.8,0.2-4.3c-1.2-0.1-2.4-0.1-3.5-0.2c0-0.2,0-0.5,0-0.7c1.1-0.2,2.1-0.3,3.3-0.5c0.1-1.3,0.1-2.6,0.2-4.1
	c-1.2-0.1-2.4-0.2-3.5-0.3c0-0.2,0-0.4,0-0.5c0.5-0.1,1-0.4,1.5-0.4c1.8,0.1,2.1,0.1,2.1-2.6c0-0.5-0.1-1.1-0.2-1.6
	c-1.1-0.2-2.2-0.3-3.3-0.5c0-0.3,0-0.5,0.1-0.8c0.8,0,1.6-0.1,2.3,0c0.9,0.1,1.2-0.3,1.2-1.2c-0.1-1,0-2.1-0.1-3.1c-1,0-2,0-2.9-0.2
	c-0.2,0-0.4-0.4-0.6-0.7c0.2-0.2,0.4-0.4,0.6-0.4c0.9,0,1.7,0.1,2.9,0.1c0-1.6,0-3,0-4.3c-1.2-0.9-2.6,0.5-3.5-0.5
	c0.1-0.2,0.1-0.4,0.2-0.6c1-0.2,2.1-0.3,3.3-0.5c0-1.3,0-2.6,0-4c-1.2-0.2-2.3-0.3-3.4-0.5c0-0.2,0-0.4,0-0.6
	c0.6-0.1,1.2-0.2,1.9-0.2c2.1,0.1,1.4-1.6,1.6-2.8C71.7,9.2,71,8.9,70,9c-0.6,0-1.3,0-2.4-0.1c1.3-1.7,2.7-0.6,4-1.3
	c0.1-1.2,0.1-2.6,0.2-4c0.2,0,0.4,0,0.6,0c0.1,1.3,0.1,2.6,0.2,4.1c1.2,0.1,2.3,0.1,3.4,0.2c0,0.2,0.1,0.3,0.1,0.5
	c-0.4,0.1-0.9,0.5-1.3,0.4c-1.8-0.3-2.4,0.7-2.2,2.5c0,0.6,0,1.2-0.1,2.1c1.3,0.1,2.5,0.1,3.6,0.2c0,0.2,0,0.4,0,0.6
	c-1.2,0.1-2.4,0.3-3.6,0.4c0.1,1.4,0.1,2.7,0.2,4.1c1.2,0.2,2.3,0.3,3.4,0.5c0,0.2,0,0.5-0.1,0.7c-1.1,0-2.2,0.1-3.4,0.1
	c0,0.9-0.1,1.7-0.1,2.5c0,1.5,0.5,2.1,1.9,1.8c0.5-0.1,1,0.3,1.5,0.5c-0.5,0.2-1,0.5-1.5,0.6s-1.1,0-1.7,0.1
	c-0.1,1.4-0.1,2.7-0.2,4.2c1.2,0.1,2.3,0.1,3.5,0.2c0,0.2,0.1,0.4,0.1,0.5c-0.3,0.1-0.7,0.4-1,0.4c-2.8,0.1-2.4,0.1-2.5,2.9
	c0,0.4,0,0.8,0,1.5c0.6,0.1,1.2,0.2,1.8,0.2c0.5,0,1.1,0.1,2,0.1c-1.1,1.6-2.6,0.6-3.8,1.2c0,1.3,0.1,2.6,0.1,4.1
	c1.2,0.1,2.2,0.2,3.3,0.4c0,0.2,0,0.5,0.1,0.7c-1.1,0.1-2.2,0.3-3.5,0.5c0,1.3,0,2.7,0.1,4.1c1.2,0.1,2.3,0.1,3.5,0.2
	c-0.8,2-2.3,0.7-3.5,1.4c0,0.7-0.1,1.5-0.1,2.3h4.9c0-15.8,0-31.5,0-47c-3.1-0.1-6-0.2-8.8-0.4c-1.4-0.1-2,0.5-1.9,2.1
	c0.1,4.4,0.1,8.7,0.1,13.1c0,4-0.1,8-0.2,12c0,2.6,0,5.2,0,7.8c0,4.1,0.1,8.3,0.1,12.4h4.8C71.3,49.8,71.3,49.3,71.2,48.8z"/>
<path fill="#840F1D" d="M63,138.8c0.1-2.2,0.3-4.4,0.3-6.5c0-6-0.1-12.1-0.1-18.1c0-6.6,0.1-13.2,0-19.7c0-0.7,0-1.2,0-1.6h-4.6
	c0,1-0.1,2-0.1,3c1,0,1.9,0,2.7,0.1c0.3,0,0.6,0.3,0.8,0.5c-0.2,0.2-0.5,0.4-0.7,0.5c-0.9,0.1-1.8,0.2-2.9,0.2
	c0.1,1.3,0.1,2.5,0.2,3.6c0.8,1.4,2.8-0.7,3.3,1.7c-1.2-0.1-2.2-0.1-3.3-0.1c-0.1,1.4-0.1,2.7-0.2,4c1,0,1.9,0.1,2.8,0.1
	c0.2,0,0.4,0.3,0.6,0.4c-0.2,0.2-0.4,0.6-0.6,0.6c-0.8,0.1-1.6,0.1-2.6,0.2c-0.1,1.3-0.1,2.6-0.2,4.1c1.2,0.1,2.3,0.1,3.5,0.2
	c0,0.2,0,0.5,0.1,0.7c-1.1,0.1-2.3,0.3-3.5,0.4c0,1.3,0,2.6,0.1,3.9c1.2,0.2,2.4,0.3,3.5,0.5c0,0.3,0,0.5,0,0.8
	c-1.1,0.1-2.3,0.1-3.7,0.2c0.1,1.3,0.1,2.5,0.2,3.9c1.1,0,2,0.1,2.9,0.1c0.3,1.1,0.3,1.1-2.8,1.3c-0.1,1.3-0.1,2.7-0.2,4.1
	c0.8-0.1,1.5-0.3,2.1-0.2c0.5,0,0.9,0.4,1.3,0.6c-0.4,0.2-0.8,0.5-1.2,0.6c-0.6,0.1-1.3,0.1-2.2,0.2c0,1.3-0.4,2.8,0.1,3.7
	c0.5,0.7,2.1,0.4,3.5,0.6c-0.9,1.6-2.5,0.4-3.7,1.3c0,0.8,0.1,1.7,0,2.6c0,0.3-0.4,0.6-0.5,0.9c-0.2-0.3-0.6-0.6-0.6-0.8
	c-0.1-0.9,0-1.7,0.1-2.8c-1.3-0.1-2.4-0.3-3.6-0.4c0-0.2,0-0.4-0.1-0.6c1.1-0.2,2.1-0.4,3.4-0.6c0.1-1.1,0.1-2.4,0.2-3.8
	c-1.2-0.1-2.3-0.3-3.7-0.4c1.1-1.7,2.6-0.4,3.8-1.3c0-1.1-0.1-2.4-0.1-3.8c-0.9,0-1.6,0.1-2.4,0c-0.3,0-0.6-0.4-0.9-0.6
	c0.3-0.2,0.6-0.6,1-0.6c0.7-0.1,1.4,0,2.2,0.1c0.1-1.5,0.1-2.8,0.2-4.2c-1.2-0.1-2.3-0.1-3.4-0.2c0-0.2-0.1-0.4-0.1-0.6
	c1.1-0.3,2.2-0.5,3.4-0.8c0-1.1,0.1-2.3,0.2-3.6c-1.2-0.2-2.4-0.4-3.5-0.5c0-0.2,0-0.5,0.1-0.7c1-0.1,2-0.1,3.3-0.2
	c0-1.2,0.4-2.9-0.2-3.6c-0.6-0.7-2.2-0.6-3.3-0.8c0-0.2,0-0.4,0-0.7c1.1-0.1,2.3-0.2,3.6-0.3c0-1.4-0.1-2.7-0.1-4.2
	c-1.1,0-2.2,0.1-3.2,0.1c-0.4-1.3,0.4-1.1,1.1-1.2c0.7,0,1.9-0.1,2-0.3c0.2-1.1,0.1-2.3,0-3.4c0-0.2-0.6-0.4-0.9-0.4
	c-0.8-0.1-1.6-0.1-2.4-0.1c0-0.2,0-0.5-0.1-0.7c1.1-0.2,2.2-0.4,3.3-0.6c0-0.9,0.1-1.8,0.1-2.8h-4.8c0.1,1.8,0,3.7,0,5.5
	c0.1,8.3,0.1,16.5,0.2,24.8c0,3.8-0.1,7.6-0.1,11.3c0,1.4,0.2,2.9,0.3,4.5C56.2,138.8,59.6,138.8,63,138.8z"/>
<path fill="#840F1D" d="M87.2,94.4c1.3,0.1,2.4,0.3,3.6,0.4c0,0.2,0,0.5,0,0.7c-0.7,0-1.3,0.2-2,0.1c-1.3-0.2-1.7,0.4-1.6,1.6
	c0.1,0.8,0.1,1.6,0.2,2.5c1.1,0,2.1,0.1,3.6,0.2c-1,1.6-2.4,1-3.6,1.3c0,1-0.2,2-0.1,3c0,0.3,0.6,0.7,1,0.8c0.5,0.2,1.1,0,1.6,0.2
	c0.3,0.1,0.5,0.4,0.7,0.7c-0.3,0.2-0.5,0.5-0.8,0.5c-0.8,0.1-1.5,0.1-2.4,0.1c-0.1,1.3-0.1,2.5-0.2,3.8c1.1,0.1,2.3,0.2,3.5,0.4
	c0,0.2,0,0.5,0,0.7c-1.1,0.1-2.1,0.2-3.3,0.4c-0.1,1.2-0.1,2.5-0.2,3.9c1.2,0.1,2.4,0.2,3.6,0.4c0,0.2,0,0.5,0,0.7
	c-1.2,0.1-2.4,0.3-3.7,0.5c0.1,1.3,0.2,2.5,0.3,3.9c1.1,0,2.1,0.1,3.3,0.1c-0.8,1.9-2.3,0.7-3.4,1.3c0,0.4-0.1,0.9-0.2,1.4
	c-0.3,1.7,0.2,2.5,2,2.3c0.3,0,0.7,0,1,0.1c0.2,0.1,0.4,0.3,0.5,0.5c-0.2,0.2-0.4,0.6-0.6,0.6c-0.8,0.1-1.6,0.1-2.6,0.2
	c-0.1,1.3-0.1,2.5-0.2,3.9c0.9,0,1.8-0.1,2.6,0c0.3,0,0.6,0.4,0.8,0.6c-0.3,0.2-0.6,0.5-0.8,0.6c-0.8,0.1-1.5,0-2.5-0.1
	c-0.1,1.2-0.1,2.2-0.2,3.2c0,0.3-0.4,0.6-0.6,0.9c-0.2-0.3-0.5-0.6-0.5-0.9c-0.1-0.9-0.1-1.8-0.2-2.9c-0.8,0-1.6,0-2.3-0.1
	c-0.4-0.1-0.7-0.4-1-0.6c0.4-0.2,0.8-0.5,1.2-0.6c0.6-0.1,1.3,0,2,0.1c0.1-1.5,0.1-2.8,0.2-4.1c-0.8,0-1.6,0-2.2-0.1
	c-0.4-0.1-0.8-0.5-1.3-0.7c0.4-0.2,0.8-0.4,1.2-0.5c0.7-0.1,1.3,0,2.1,0.1c0.1-1.4,0.1-2.7,0.2-3.8c-1-1.2-2.8,0.5-3.8-1.5
	c1.4-0.1,2.5-0.2,3.8-0.3c0-1.3-0.1-2.5-0.1-3.8c-1,0-1.9-0.1-2.7-0.1c-0.2,0-0.4-0.3-0.6-0.5c0.2-0.2,0.3-0.5,0.5-0.6
	c0.9-0.1,1.7-0.2,2.7-0.3c0.1-1.2,0.1-2.3,0.2-3.5c-1.2-0.2-2.3-0.4-3.5-0.6c0-0.2,0-0.5,0.1-0.7c0.5,0,1-0.2,1.5-0.1
	c1.5,0.3,2-0.4,1.9-1.9c0-0.7,0.1-1.5,0.1-2.4c-1,0-1.9,0.1-2.7,0.1c-0.3,0-0.6-0.4-0.9-0.7c0.3-0.2,0.6-0.4,0.9-0.5
	c0.9-0.1,1.7-0.1,2.7-0.1c-0.1-1.4-0.2-2.7-0.2-3.9c-1.2-0.2-2.3-0.3-3.4-0.5c0-0.2,0-0.5,0.1-0.7c1.1-0.1,2.2-0.2,3.6-0.3
	c-0.1-1.3-0.2-2.6-0.3-3.9c-1.2-0.1-2.2-0.1-3.5-0.2c0.9-1.8,2.4-0.7,3.4-1.2c0-0.8,0.1-1.6,0.1-2.5H81c0.1,8.9,0.1,17.8,0.1,26.6
	c0,5.8,0.1,11.6,0.1,17.4c0,0.8,0.2,1.3,1.1,1.3c2.6-0.1,5.3-0.2,7.9-0.2c1.4,0,1.5-0.7,1.5-1.8c-0.1-5.4-0.1-10.8-0.1-16.2
	c0-9,0-18.1,0-27.1H87C87.3,92.7,87.3,93.6,87.2,94.4z"/>
<path fill="#840F1D" d="M56.7,48.6c-0.1-0.4-1.1-0.5-1.7-0.7c-0.5-0.2-1-0.3-1.6-0.5c0-0.2,0.1-0.5,0.1-0.7c1,0,2,0,3.2,0
	c0.1-1.5,0.1-2.9,0.2-4.4c-1.3-0.1-2.4-0.1-3.4-0.2c0-0.2,0-0.4,0-0.6c1-0.2,2.1-0.3,3.2-0.5c0.1-1.3,0.1-2.6,0.2-4.2
	c-1.2-0.1-2.3-0.1-3.4-0.2c0-0.2,0-0.4-0.1-0.6c0.5-0.1,1-0.3,1.5-0.3c1.4,0,2.4-0.3,2-2.3c-0.1-0.6,0-1.3,0.1-2
	c-1.3-0.2-2.3-0.4-3.4-0.5c0-0.2,0-0.4,0-0.6c0.5-0.1,1-0.2,1.6-0.2c0.5,0,1.1,0,1.8,0c0.1-1.2,0.2-2.4,0.1-3.6
	c0-0.3-0.8-0.6-1.2-0.8c-0.7-0.2-1.5-0.2-2.3-0.3c0-0.3,0-0.5,0.1-0.8c1,0,2.1-0.1,3.3-0.1c0.1-1.4,0.1-2.8,0.2-4.3
	c-1.2,0-2.3,0-3.4,0c0-0.3,0-0.5,0-0.8c1.1-0.2,2.1-0.4,3.3-0.6c0.1-1.3,0.1-2.6,0.2-4.2c-1.2-0.1-2.3-0.1-3.5-0.2
	c0-0.2-0.1-0.4-0.1-0.6c0.6-0.2,1.2-0.5,1.8-0.4c1.6,0.2,1.9-0.8,1.8-2.2c-0.1-0.7-0.1-1.3-0.2-2.1c-1.1-0.2-2.2-0.3-3.3-0.5
	c0-0.2,0-0.5,0.1-0.7c0.6,0.1,1.7,0.1,2.8,0c0.2-1.4,0.3-2.8,0.5-4.2c0.2,0,0.4,0,0.7,0.1c0,1.3,0,2.7,0,4.2c1.2,0,2.3,0,3.5,0.1
	c0,0.2,0,0.4,0,0.6c-1.1,0.2-2.2,0.3-3.3,0.5C58,10.6,58,12,57.9,13.4c1.2,0.1,2.4,0.3,3.5,0.4c0,0.2,0,0.4,0,0.6
	c-1.1,0.1-2.3,0.3-3.6,0.4c0.1,1.3,0.1,2.7,0.2,4.1c1.2,0.1,2.2,0.3,3.3,0.4c0,0.2,0.1,0.4,0.1,0.6c-0.5,0.1-1,0.3-1.6,0.3
	c-2.1,0-2.1,0-2,2.3c0,0.7,0.1,1.3,0.1,2.1c1.1,0,2.2,0,3.7,0c-0.9,2-2.5,0.7-3.5,1.5c-0.1,1.2-0.1,2.6-0.2,4.1
	c1.2,0.1,2.3,0.1,3.5,0.2c0,0.2,0.1,0.4,0.1,0.6c-1.1,0.2-2.3,0.5-3.5,0.8c0,1.2,0,2.5,0,3.8c1.1,0.2,2.3,0.4,3.4,0.6
	c0,0.2,0,0.5,0,0.7C60.3,37,59.2,37,58,37.1c0,1.4-0.4,3.1,0.2,3.9c0.5,0.8,2.2,0.6,3.3,0.9c0,0.2,0,0.4,0,0.7
	c-1.1,0.1-2.2,0.2-3.5,0.3c0,1.4,0,2.8,0,4.5c1-0.1,1.8-0.3,2.6-0.3c0.3,0,0.5,0.4,0.8,0.6c-0.3,0.2-0.5,0.6-0.8,0.7
	c-0.8,0.1-1.6,0-2.4,0c0,0.8-0.1,1.6-0.1,2.3h4.8c0-1.6,0-3.2,0-4.7c0-3.3,0.1-6.7,0.1-10c0-7.1,0-14.1,0-21.2c0-3.3,0-6.5-0.1-9.8
	c0-0.9-0.2-1.5-1.2-1.5c-2.8,0.1-5.5,0-8.3,0.1c-0.4,0-1.1,0.8-1.1,1.3c-0.1,1.9,0,3.9,0,5.8c0,7.6,0,15.1,0,22.7
	c0,5.8-0.1,11.6-0.1,17.3h4.9C56.9,49.7,56.8,49.2,56.7,48.6z"/>
<path fill="#840F1D" d="M85.6,46.8c-1.2-0.5-2.6,0.3-3.5-0.7c0-0.2,0.1-0.4,0.1-0.6c1.1,0,2.1,0,3.4,0c0-1.4,0-2.8,0-4.3
	c-0.8,0-1.5,0.1-2.2,0c-0.4,0-0.8-0.2-1.2-0.4c0.4-0.2,0.8-0.6,1.2-0.7c0.7-0.2,1.4-0.2,2.3-0.3c0-1.3,0-2.5,0-3.8
	c-1.2-0.2-2.3-0.4-3.5-0.6c0-0.2,0.1-0.4,0.1-0.6c0.4-0.1,0.8-0.1,1.2-0.2c0.7-0.1,1.8-0.1,1.9-0.5c0.3-1,0.3-2.2,0.2-3.3
	c0-0.2-0.8-0.4-1.3-0.5c-0.7-0.2-1.5-0.2-2.2-0.3c0-0.2,0-0.5,0.1-0.7c1.1-0.1,2.2-0.1,3.3-0.2c0.1-1.4,0.1-2.7,0.2-4.5
	c-1.3-0.1-2.5-0.1-3.7-0.2c0-0.2,0-0.4,0-0.7c1.1-0.1,2.3-0.1,3.6-0.2c0-1.4-0.1-2.7-0.1-4.2c-1.2-0.1-2.3-0.1-3.4-0.1
	c0-0.2,0-0.4-0.1-0.6c1.1-0.2,2.2-0.4,3.5-0.6c0-1.2,0-2.5,0-3.8c-1.2-0.1-2.3-0.2-3.4-0.4c0-0.2,0-0.4-0.1-0.6
	c1.1-0.2,2.1-0.3,3.3-0.5c0.1-1.3,0.1-2.6,0.2-4.1c-1.2-0.1-2.4-0.1-3.5-0.2c0-0.2,0-0.5,0-0.7c1.1-0.1,2.2-0.1,3.4-0.2
	c0.1-1.3,0.1-2.7,0.2-4c0.2,0,0.3-0.1,0.5-0.1c0.1,0.5,0.3,1,0.3,1.5c0,2.4,0,2.4,2.2,2.6c0.4,0,0.9,0.2,1.3,0.2c0,0.2,0,0.4,0,0.6
	c-0.6,0.1-1.1,0.3-1.7,0.2c-1.2-0.1-1.8,0.3-1.8,1.8c0,2.5-0.1,2.5,2.2,2.6c0.4,0,0.9,0.1,1.3,0.2c0,0.2,0.1,0.4,0.1,0.6
	c-1.1,0.2-2.3,0.3-3.5,0.5c0,1.4-0.4,3,0.2,3.8c0.5,0.7,2.2,0.5,3.3,0.8c-0.6,0.7-0.6,0.7-3.6,0.9c0,0.7-0.1,1.3-0.1,2
	c0,0.6,0.2,1.3,0.4,2.1c1,0,2,0.1,3.1,0.1c0,0.2,0.1,0.5,0.1,0.7C89,24.8,88,25,86.8,25.2c-0.1,1.2-0.1,2.5-0.2,3.8
	c1.2,0.1,2.3,0.2,3.5,0.3c0,0.2,0,0.4,0.1,0.6c-0.4,0.1-0.8,0.3-1.2,0.3c-2.2,0.1-2.2,0.1-2.3,2.4c0,0.6,0,1.2,0,2
	c1.2,0.1,2.4,0.1,3.5,0.2c0,0.2,0,0.4,0,0.6c-1.1,0.1-2.3,0.2-3.5,0.4c0,1.4,0.1,2.7,0.1,4.1c1.2,0.1,2.2,0.3,3.3,0.4
	c0,0.2,0,0.4,0.1,0.6c-1.1,0.1-2.2,0.3-3.6,0.5c0.1,1.1-0.1,2.3,0.3,3.2c0.1,0.4,1.2,0.5,1.8,0.8c0.4,0.2,0.9,0.3,1.3,0.5
	c-0.4,0.2-0.9,0.6-1.3,0.7c-0.6,0.1-1.2,0-2-0.1c0,0.9,0,1.6-0.1,2.2c0,0.2,0,0.3,0,0.4h4.9c0-3,0-6.1,0-9.1c0-10.1,0-20.2,0-30.3
	c0-2.3-0.1-4.7-0.1-6.5c-3.1-0.1-6.1-0.3-9-0.4c-1.1-0.1-1.7,0.4-1.7,1.8c0.1,1.9,0.1,3.9,0.1,5.8c0,8.4-0.1,16.9-0.1,25.3
	c0,3.2,0.2,6.5,0.2,9.7c0,1.2-0.1,2.4-0.1,3.6h4.8C85.6,48.5,85.6,47.6,85.6,46.8z"/>
<path fill="#330000" d="M72.8,95c1.3,0.1,2.4,0.1,3.5,0.2c0,0.2,0,0.4,0,0.6c-1.2,0.2-2.3,0.3-3.6,0.5c0.1,1.2,0,2.4,0.2,3.5
	c0.1,0.3,0.9,0.5,1.5,0.7c0.6,0.1,1.2,0.1,1.7,0.1c0,0.2,0,0.5,0.1,0.7c-0.6,0.1-1.3,0.4-1.8,0.3c-1.8-0.3-1.6,1-1.7,2.2
	c-0.1,1.4,0.3,2,1.6,1.9c0.7,0,1.3,0.2,2,0.3c0,0.2,0,0.5-0.1,0.7c-1,0.1-2.1,0.2-3.2,0.4c-0.1,1.3-0.1,2.6-0.2,4
	c1.2,0.1,2.3,0.1,3.5,0.2c-0.4,0.9-0.4,0.9-3.2,1.1c-0.1,1.3-0.1,2.7-0.2,4.2c1.2,0.1,2.3,0.1,3.5,0.2c0,0.2,0.1,0.5,0.1,0.7
	c-1.2,0.2-2.3,0.4-3.7,0.7c0.1,1.2,0.2,2.4,0.3,3.8c1,0,2,0.1,3,0.1c0,1.1,0,1.1-3,1.3c-0.1,1.3-0.1,2.6-0.2,3.9c1,0,1.8,0,2.6,0.1
	c0.3,0,0.6,0.4,0.8,0.6c-0.3,0.2-0.5,0.5-0.8,0.6c-0.8,0.1-1.5,0.1-2.4,0.2c-0.1,0.6-0.1,1.1-0.2,1.6c-0.2,2.5-0.2,2.5,2.3,2.5
	c0.4,0,0.8,0.4,1.2,0.6c-0.4,0.2-0.8,0.6-1.2,0.6c-1.6-0.1-2.8,0.2-2.3,2.4c0.1,0.4,0,0.8-0.1,1.2c-0.1,0.2-0.4,0.4-0.6,0.5
	c-0.1,0-0.4-0.3-0.4-0.4c0.6-3.1-1.2-3.7-3.4-3.9c0,0-0.1-0.1-0.3-0.6c0.7-0.1,1.3-0.3,1.9-0.2c1.6,0.3,1.7-0.7,1.7-2
	s0.1-2.4-1.6-2.3c-0.6,0.1-1.3,0-2.4-0.1c1.2-1.9,2.8-0.6,3.9-1.3c0-1.2,0-2.5,0-3.7c-0.9-1.2-2.8,0.8-3.6-1.4
	c1.4-0.1,2.5-0.2,3.7-0.2c0-1.4-0.1-2.7-0.1-3.9c-1.3-0.2-2.3-0.3-3.4-0.4c0-0.2,0-0.4,0-0.7c1.1-0.2,2.2-0.4,3.3-0.6
	c0.1-1.2,0.1-2.4,0.2-3.8c-1,0-1.9,0-2.8-0.2c-0.2,0-0.4-0.4-0.6-0.6c0.2-0.2,0.5-0.4,0.7-0.5c0.8-0.1,2.1,0.1,2.3-0.3
	c0.4-1,0.3-2.2,0.4-3.3c0-0.2-0.1-0.5-0.1-0.6c-1,0-2-0.1-3-0.1c-0.1,0-0.3-0.2-0.6-0.4c1-1.3,2.5-0.2,3.7-0.9c0-1.2,0-2.5,0-3.9
	c-1.1,0-2.1-0.1-3.6-0.2c0.4-0.5,0.6-1,0.9-1.1c0.9-0.2,2.4,0,2.6-0.5c0.4-1,0.2-2.4,0.3-4c-1.4-0.1-2.4-0.1-3.5-0.2
	c0-0.2,0-0.5,0-0.7c1-0.1,2-0.2,3.2-0.4c0.1-0.5,0.2-1,0.2-1.5c0-0.6,0.1-1,0.1-1.3H67c0,15.5,0.1,31.1,0.1,46.8
	c3.7-0.1,7.1-0.1,10.5-0.1c0-5.1,0.1-9.7,0.1-14.4c0-6.5,0-13,0-19.6c0-4.1,0.1-8.2,0-12.3c0-0.1,0-0.3,0-0.4L73,92
	C72.9,92.9,72.9,93.9,72.8,95z"/>
<path fill="#A5192A" d="M76.8,71.5c0.4-3.6-2.6-5.4-4.8-5.6c-2.3-0.2-4.6,2.1-4.7,4.6c-0.1,3.3,1.6,5.2,4.7,5.3
	C74.4,75.9,76.5,73.9,76.8,71.5z"/>
<polygon fill="#840F1D" points="94.4,48.6 80.9,48.9 88.3,56.7 "/>
<polygon fill="#541119" points="96.4,55 94.4,48.6 88.4,56.6 "/>
<polygon fill="#330000" points="84.9,59.4 80.8,48.8 88.4,56.6 "/>
<polygon fill="none" points="82.7,59.4 80.8,48.8 84.9,59.4 "/>
<polygon fill="none" points="85.9,64.2 82.7,59.4 77.8,64.8 "/>
<polygon fill="none" points="80.8,48.8 73.4,56.8 82.7,59.4 "/>
<polygon fill="#23090C" points="66.6,48.9 69.7,49.8 65,58.3 "/>
<polygon fill="#590E18" points="57.4,49.5 65,58.3 66.6,48.9 "/>
<polygon fill="none" points="65,58.3 73.4,56.8 72.6,62.7 "/>
<polygon fill="#A5192A" points="77.8,64.8 73.4,56.8 72.6,62.7 "/>
<polygon fill="#3D0E13" points="85.9,64.2 80.5,70.6 77.8,64.8 "/>
<polygon fill="#A5192A" points="90.3,64.8 90.1,69.9 85.9,64.2 "/>
<polygon fill="#330000" points="80.5,70.6 90.1,69.9 85.9,64.2 "/>
<polygon fill="#3D0E13" points="65.5,65.1 65,58.3 72.6,62.7 "/>
<path fill="#23090C" d="M52.2,48.8c0.4,0.1,5.3,0.7,5.3,0.7l-4.3,5.6L52.2,48.8z"/>
<polygon fill="#840F1D" points="49.3,52.4 52.2,48.8 53.1,55.2 "/>
<polygon fill="#3D0E13" points="57.1,56.3 53.1,55.2 57.4,49.5 "/>
<polygon fill="#840F1D" points="65,58.3 57.1,56.3 57.4,49.5 "/>
<polygon fill="#A5192A" points="61.3,59.4 57.1,56.3 65,58.3 "/>
<polygon fill="#A5192A" points="65.5,65.1 61.3,59.4 65,58.3 "/>
<polygon fill="#590E18" points="90.3,64.8 93.2,67.3 90.1,69.9 "/>
<polygon fill="#3D0E13" points="65.5,65.1 63.3,71.1 57.9,63.7 "/>
<polygon fill="#330000" points="61.3,59.4 57.9,63.7 65.5,65.1 "/>
<polygon fill="#A5192A" points="63.3,71.1 49.7,70.8 52.1,66.6 "/>
<polygon fill="#23090C" points="57.9,63.7 52.1,66.6 63.3,71.1 "/>
<polygon fill="#840F1D" points="49.7,70.8 32.6,59.9 47.1,66.7 "/>
<polygon fill="none" points="49.7,70.8 47.5,74.8 33.6,80.8 "/>
<polygon fill="#840F1D" points="20.3,70.9 38.4,69.6 49.7,70.8 37.9,72.4 "/>
<polygon fill="none" points="19.3,70.9 17.7,70.2 14.9,71 17.9,72.3 "/>
<polygon fill="#840F1D" points="107.5,56.4 102,57 107.9,70.6 "/>
<polygon fill="#330000" points="93.2,67.3 107.9,70.6 102,57 "/>
<polygon fill="#A5192A" points="90.1,69.9 107.9,70.6 93.2,67.3 "/>
<polygon fill="#A5192A" points="107.5,56.4 116.7,68.1 114.7,63 "/>
<polygon fill="none" points="107.9,70.6 116.7,68.1 116.3,73.3 "/>
<polygon fill="#330000" points="82.7,59.4 73.4,56.8 77.8,64.8 "/>
<polygon fill="#590E18" points="69.7,49.8 73.4,56.8 65,58.3 "/>
<polygon fill="#840F1D" points="94.8,93.4 81.3,93.2 88.7,85.3 "/>
<polygon fill="#590E18" points="96.7,86.8 94.8,93.4 88.7,85.3 "/>
<polygon fill="#A5192A" points="85.1,82.6 81.3,93.2 88.7,85.3 "/>
<polygon fill="none" points="82.9,82.6 81.3,93.2 85.1,82.6 "/>
<polygon fill="#23090C" points="86.1,77.8 82.9,82.6 78,77.3 "/>
<polygon fill="#3D0E13" points="81.3,93.2 73.7,85.4 82.9,82.6 "/>
<polygon fill="#3D0E13" points="67.1,93.4 70.1,92.5 65.3,84 "/>
<polygon fill="#330000" points="57.9,93 65.3,84 67.1,93.4 "/>
<polygon fill="none" points="65.3,84 73.7,85.4 72.8,79.5 "/>
<polygon fill="#3D0E13" points="78,77.3 73.7,85.4 72.8,79.5 "/>
<polygon fill="#3D0E13" points="86.1,77.8 80.5,70.8 78,77.3 "/>
<polygon fill="#840F1D" points="90.5,77.1 90.1,72 86.1,77.8 "/>
<polygon fill="#330000" points="80.4,70.9 90.1,72 86.1,77.8 "/>
<polygon fill="#840F1D" points="65.7,77.2 65.3,84 72.8,79.5 "/>
<path fill="#3D0E13" d="M52.6,93.8c0.4-0.1,5.3-0.8,5.3-0.8l-4.4-5.6L52.6,93.8z"/>
<polygon fill="#23090C" points="49.7,90.2 52.6,93.8 53.5,87.4 "/>
<polygon fill="#590E18" points="57.5,86.1 53.5,87.4 57.9,93 "/>
<polygon fill="#840F1D" points="65.3,84 57.5,86.1 57.9,93 "/>
<polygon fill="#01141C" points="61.5,83 57.5,86.1 65.3,84 "/>
<polygon fill="#23090C" points="65.7,77.2 61.5,83 65.3,84 "/>
<polygon fill="#01141C" points="90.5,77.1 93.3,74.6 90.1,72 "/>
<polygon fill="#590E18" points="65.7,77.2 63.4,71.2 58.1,78.8 "/>
<polygon fill="#330000" points="61.5,83 58.1,78.8 65.7,77.2 "/>
<polygon fill="#330000" points="63.4,71.2 63.3,71.1 49.7,70.8 52.2,75.9 "/>
<polygon fill="#840F1D" points="58.1,78.8 52.2,75.9 63.4,71.2 "/>
<polygon fill="#590E18" points="107.8,85.2 102.3,84.7 107.9,70.9 "/>
<polygon fill="#330000" points="93.3,74.6 107.9,70.9 102.3,84.7 "/>
<polygon fill="#23090C" points="90.1,72 107.9,70.9 93.3,74.6 "/>
<polygon fill="#590E18" points="107.8,85.2 116.8,73.3 114.9,78.4 "/>
<polygon fill="#330000" points="82.9,82.6 73.7,85.4 78,77.3 "/>
<polygon fill="#23090C" points="70.1,92.5 73.7,85.4 65.3,84 "/>
<polygon fill="#A5192A" points="81.3,93.2 73.7,85.4 70.1,92.5 "/>
<polygon fill="#840F1D" points="80.8,48.8 69.7,49.8 73.4,56.8 "/>
<polygon fill="#23090C" points="82.7,59.4 80.8,48.8 84.9,59.4 "/>
<polygon fill="#590E18" points="85.9,64.2 82.7,59.4 77.8,64.8 "/>
<polygon fill="#A5192A" points="49.7,70.8 47.5,74.8 33.6,80.8 "/>
<polygon fill="#3D0E13" points="19.3,70.9 17.7,70.2 14.9,71 17.9,72.3 "/>
<polygon fill="#23090C" points="107.9,70.6 116.7,68.1 116.3,73.3 "/>
<polygon fill="#840F1D" points="120.9,68.3 116.7,68.1 116.3,73.3 "/>
<polygon fill="#330000" points="121.4,72.8 120.9,68.3 116.3,73.3 "/>
<polygon fill="#3D0E13" points="80.8,48.8 73.4,56.8 82.7,59.4 "/>
<polygon fill="#23090C" points="72.6,62.7 65,58.3 73.4,56.8 "/>
<polygon fill="#23090C" points="72.8,79.5 73.7,85.4 65.3,84 "/>
<polygon fill="#23090C" points="85.1,82.6 82.9,82.6 81.3,93.2 "/>
</svg>
