<?xml version="1.0" encoding="utf-8"?>
<!-- Generator: Adobe Illustrator 20.1.0, SVG Export Plug-In . SVG Version: 6.00 Build 0)  -->
<svg version="1.1" id="Calque_1" xmlns="http://www.w3.org/2000/svg" xmlns:xlink="http://www.w3.org/1999/xlink" x="0px" y="0px"
	 viewBox="0 0 141.7 141.7" enable-background="new 0 0 141.7 141.7" xml:space="preserve">
<path fill="#022B42" d="M71.3,48.7c-0.1-1.5-1.3-0.8-2.1-1c-0.5-0.1-0.9-0.2-1.4-0.4c0-0.2,0.1-0.5,0.1-0.7c1.1,0,2.1,0,3.2-0.1
	c0.1-1.4,0.1-2.8,0.2-4.3c-1.2-0.1-2.3-0.1-3.4-0.1c0-0.2,0-0.4,0-0.7c1-0.2,2.1-0.3,3.2-0.5c0.1-1.3,0.1-2.6,0.2-4
	c-1.2-0.1-2.3-0.2-3.5-0.3c0-0.2,0-0.4,0-0.5c0.5-0.1,1-0.4,1.5-0.4c1.7,0.1,2.1,0.1,2-2.6c0-0.5-0.1-1-0.2-1.6
	c-1.1-0.2-2.2-0.3-3.3-0.5c0-0.3,0-0.5,0.1-0.8c0.8,0,1.5-0.1,2.3,0c0.9,0.1,1.2-0.3,1.1-1.2c-0.1-1,0-2-0.1-3.1c-1,0-1.9,0-2.9-0.2
	c-0.2,0-0.4-0.4-0.6-0.6c0.2-0.1,0.4-0.4,0.6-0.4c0.9,0,1.7,0.1,2.8,0.1c0-1.6,0-3,0-4.2c-1.1-0.9-2.5,0.5-3.4-0.5
	c0.1-0.2,0.1-0.4,0.2-0.6c1-0.2,2-0.3,3.2-0.5c0-1.3,0-2.5,0-3.9C70,15,69,14.8,67.9,14.7c0-0.2,0-0.4,0-0.6
	c0.6-0.1,1.2-0.2,1.8-0.2c2,0.1,1.4-1.6,1.6-2.8c0.2-1.4-0.5-1.7-1.5-1.6c-0.6,0-1.3,0-2.4-0.1c1.2-1.7,2.6-0.6,3.9-1.3
	c0-1.2,0.1-2.6,0.2-3.9c0.2,0,0.4,0,0.6,0c0.1,1.3,0.1,2.6,0.2,4.1c1.2,0,2.3,0.1,3.4,0.1c0,0.2,0.1,0.3,0.1,0.5
	c-0.4,0.1-0.9,0.5-1.3,0.4c-1.8-0.3-2.3,0.7-2.2,2.5c0.1,0.6,0,1.2-0.1,2.1c1.3,0.1,2.4,0.1,3.6,0.2c0,0.2,0,0.4,0,0.6
	c-1.2,0.1-2.3,0.3-3.5,0.4c0.1,1.4,0.1,2.7,0.2,4.1c1.1,0.2,2.2,0.3,3.3,0.5c0,0.2,0,0.5-0.1,0.7c-1.1,0-2.1,0.1-3.4,0.1
	c0,0.9-0.1,1.7-0.1,2.5c0,1.5,0.5,2,1.9,1.7c0.5-0.1,1,0.3,1.5,0.5c-0.5,0.2-0.9,0.5-1.5,0.6c-0.5,0.1-1.1,0-1.7,0.1
	c-0.1,1.4-0.1,2.7-0.2,4.2c1.2,0,2.3,0.1,3.4,0.1c0,0.2,0.1,0.3,0.1,0.5c-0.3,0.1-0.6,0.4-1,0.4c-2.8,0.1-2.3,0.1-2.5,2.9
	c0,0.4,0,0.8,0,1.4c0.6,0.1,1.2,0.1,1.7,0.2c0.5,0,1.1,0,2,0.1c-1.1,1.6-2.5,0.6-3.8,1.2c0,1.3,0.1,2.6,0.1,4.1
	c1.2,0.1,2.2,0.2,3.3,0.3c0,0.2,0,0.4,0.1,0.7c-1.1,0.1-2.2,0.3-3.5,0.5c0,1.3,0.1,2.6,0.1,4c1.2,0,2.2,0.1,3.5,0.1
	c-0.8,1.9-2.2,0.7-3.5,1.4c0,0.7-0.1,1.4-0.1,2.2h4.8C77.1,34.7,77,19.2,77,4c-3-0.1-5.9-0.2-8.7-0.4c-1.4-0.1-2,0.5-1.9,2
	c0.1,4.3,0.1,8.6,0.1,12.9c0,3.9-0.1,7.9-0.1,11.8c0,2.6,0,5.1,0,7.7c0,4.1,0.1,8.2,0.2,12.2h4.8C71.3,49.8,71.3,49.2,71.3,48.7z"/>
<path fill="#035E91" d="M63.4,137.5c0.1-2.2,0.3-4.3,0.3-6.4c0-6-0.1-11.9-0.2-17.9c0-6.5,0-13,0-19.5c0-0.7,0-1.2,0-1.6H59
	c0,1-0.1,1.9-0.1,3c1,0,1.8,0,2.7,0.1c0.3,0,0.6,0.3,0.8,0.5c-0.2,0.2-0.5,0.4-0.7,0.5c-0.9,0.1-1.7,0.2-2.9,0.2
	c0.1,1.2,0.2,2.5,0.2,3.6c0.8,1.4,2.8-0.7,3.3,1.7c-1.2,0-2.1-0.1-3.3-0.1c-0.1,1.4-0.1,2.7-0.2,4c1,0,1.9,0.1,2.8,0.1
	c0.2,0,0.4,0.3,0.6,0.4c-0.2,0.2-0.4,0.6-0.6,0.6c-0.8,0.1-1.6,0.1-2.5,0.2c-0.1,1.3-0.1,2.5-0.2,4c1.1,0,2.3,0.1,3.4,0.1
	c0,0.2,0,0.5,0.1,0.7c-1.1,0.1-2.2,0.3-3.4,0.4c0,1.3,0,2.6,0.1,3.9c1.2,0.2,2.3,0.3,3.5,0.5c0,0.2,0,0.5,0,0.7
	c-1.1,0.1-2.2,0.2-3.6,0.2c0.1,1.3,0.2,2.5,0.2,3.9c1.1,0,2,0.1,2.9,0.1c0.3,1.1,0.3,1.1-2.8,1.3c-0.1,1.3-0.1,2.6-0.2,4.1
	c0.8-0.1,1.5-0.3,2.1-0.2c0.4,0,0.9,0.4,1.3,0.6c-0.4,0.2-0.8,0.5-1.2,0.6c-0.6,0.1-1.3,0.1-2.2,0.2c0,1.2-0.4,2.8,0.2,3.6
	c0.4,0.7,2.1,0.4,3.4,0.6c-0.9,1.6-2.5,0.4-3.6,1.3c0,0.8,0.1,1.7,0,2.6c0,0.3-0.3,0.6-0.5,0.9c-0.2-0.3-0.6-0.5-0.6-0.8
	c-0.1-0.8,0-1.7,0.1-2.8c-1.3-0.1-2.4-0.3-3.5-0.4c0-0.2,0-0.4-0.1-0.6c1.1-0.2,2.1-0.4,3.3-0.6c0-1.1,0.1-2.4,0.2-3.8
	c-1.2-0.1-2.3-0.2-3.7-0.4c1.1-1.7,2.6-0.4,3.7-1.3c0-1.1-0.1-2.3-0.1-3.8c-0.9,0-1.6,0.1-2.3,0c-0.3,0-0.6-0.4-0.9-0.6
	c0.3-0.2,0.6-0.6,1-0.6c0.7-0.1,1.4,0,2.2,0.1c0.1-1.5,0.1-2.7,0.2-4.1c-1.2-0.1-2.3-0.1-3.3-0.1c0-0.2-0.1-0.4-0.1-0.6
	c1.1-0.3,2.1-0.5,3.3-0.8c0-1.1,0.1-2.3,0.1-3.5c-1.2-0.2-2.3-0.4-3.4-0.5c0-0.2,0-0.5,0.1-0.7c1-0.1,2-0.1,3.3-0.2
	c0-1.2,0.4-2.8-0.2-3.6c-0.6-0.7-2.1-0.6-3.2-0.8c0-0.2,0-0.4,0-0.7c1.1-0.1,2.2-0.2,3.5-0.3c0-1.4-0.1-2.7-0.1-4.1
	c-1.1,0-2.1,0.1-3.2,0.1c-0.4-1.3,0.4-1.1,1.1-1.2c0.7,0,1.9-0.1,1.9-0.3c0.2-1.1,0.1-2.3,0-3.4c0-0.2-0.6-0.4-0.9-0.4
	c-0.8-0.1-1.6-0.1-2.3-0.1c0-0.2,0-0.5-0.1-0.7c1.1-0.2,2.2-0.4,3.3-0.6c0-0.9,0.1-1.8,0.1-2.7h-4.7c0.1,1.8,0,3.6,0,5.5
	c0.1,8.1,0.2,16.3,0.2,24.4c0,3.7-0.1,7.4-0.1,11.2c0,1.4,0.2,2.8,0.3,4.4C56.7,137.5,60,137.5,63.4,137.5z"/>
<path fill="#035E91" d="M87.2,93.6c1.3,0.1,2.4,0.3,3.5,0.4c0,0.2,0,0.5,0,0.7c-0.7,0-1.3,0.2-2,0.1c-1.3-0.2-1.7,0.4-1.6,1.6
	c0.1,0.8,0.1,1.6,0.2,2.5c1.1,0,2.1,0.1,3.5,0.1c-1,1.5-2.4,0.9-3.6,1.3c0,0.9-0.2,1.9-0.1,2.9c0,0.3,0.6,0.7,1,0.8
	c0.5,0.2,1.1,0,1.6,0.1c0.3,0.1,0.5,0.4,0.7,0.6c-0.3,0.2-0.5,0.4-0.8,0.5c-0.7,0.1-1.5,0.1-2.4,0.1c-0.1,1.3-0.1,2.4-0.2,3.8
	c1.1,0.1,2.3,0.2,3.4,0.3c0,0.2,0,0.5,0,0.7c-1,0.1-2.1,0.2-3.2,0.4c-0.1,1.2-0.1,2.5-0.2,3.9c1.2,0.1,2.4,0.2,3.5,0.3
	c0,0.2,0,0.4,0,0.7c-1.2,0.1-2.3,0.3-3.6,0.5c0.1,1.3,0.2,2.4,0.3,3.9c1,0,2.1,0.1,3.3,0.1c-0.8,1.9-2.3,0.7-3.4,1.3
	c0,0.4-0.1,0.9-0.2,1.4c-0.3,1.7,0.2,2.5,1.9,2.3c0.3,0,0.7,0,1,0.1c0.2,0.1,0.4,0.3,0.5,0.5c-0.2,0.2-0.4,0.5-0.6,0.6
	c-0.8,0.1-1.6,0.1-2.5,0.2c-0.1,1.3-0.1,2.5-0.2,3.9c0.9,0,1.8-0.1,2.6,0c0.3,0,0.6,0.4,0.8,0.6c-0.3,0.2-0.5,0.5-0.8,0.5
	c-0.8,0.1-1.5,0-2.4-0.1c-0.1,1.2,0,2.2-0.2,3.1c0,0.3-0.4,0.6-0.6,0.9c-0.2-0.3-0.5-0.6-0.5-0.9c-0.1-0.9-0.1-1.8-0.2-2.8
	c-0.8,0-1.5,0-2.2-0.1c-0.4-0.1-0.7-0.4-1-0.6c0.4-0.2,0.7-0.5,1.1-0.6c0.6-0.1,1.3,0,2,0.1c0.1-1.5,0.1-2.7,0.2-4
	c-0.8,0-1.5,0-2.2-0.1c-0.4-0.1-0.8-0.5-1.2-0.7c0.4-0.2,0.8-0.4,1.2-0.5c0.6-0.1,1.3,0,2.1,0.1c0.1-1.4,0.1-2.6,0.2-3.7
	c-1-1.2-2.8,0.5-3.7-1.4c1.4-0.1,2.5-0.2,3.8-0.3c0-1.3-0.1-2.5-0.1-3.8c-1,0-1.9,0-2.7-0.1c-0.2,0-0.4-0.3-0.5-0.5
	c0.2-0.2,0.3-0.5,0.5-0.6c0.9-0.1,1.7-0.2,2.7-0.3c0-1.1,0.1-2.3,0.1-3.5c-1.2-0.2-2.3-0.4-3.5-0.6c0-0.2,0-0.5,0.1-0.7
	c0.5,0,1-0.2,1.5-0.1c1.5,0.3,2-0.4,1.9-1.8c0-0.7,0-1.4,0.1-2.4c-1,0-1.8,0.1-2.6,0.1c-0.3,0-0.6-0.4-0.9-0.7
	c0.3-0.2,0.6-0.4,0.9-0.5c0.8-0.1,1.7-0.1,2.6-0.1c-0.1-1.4-0.2-2.6-0.2-3.9c-1.1-0.2-2.2-0.3-3.3-0.4c0-0.2,0-0.5,0.1-0.7
	c1.1-0.1,2.2-0.2,3.5-0.3c-0.1-1.3-0.2-2.6-0.3-3.9c-1.2,0-2.2-0.1-3.4-0.1c0.9-1.8,2.3-0.7,3.4-1.2c0-0.8,0.1-1.6,0.1-2.5h-4.7
	c0.1,8.8,0.1,17.5,0.2,26.3c0,5.7,0.1,11.5,0.1,17.2c0,0.8,0.2,1.3,1.1,1.3c2.6-0.1,5.2-0.2,7.8-0.2c1.4,0,1.5-0.7,1.5-1.8
	c-0.1-5.3-0.1-10.7-0.2-16c0-8.9-0.1-17.8-0.1-26.7h-4.5C87.2,92,87.2,92.8,87.2,93.6z"/>
<path fill="#035E91" d="M56.9,48.6c-0.1-0.4-1.1-0.5-1.7-0.7c-0.5-0.2-1-0.3-1.5-0.4c0-0.2,0.1-0.4,0.1-0.7c1,0,2,0,3.1,0
	c0.1-1.4,0.1-2.8,0.2-4.4c-1.2-0.1-2.3-0.1-3.4-0.1c0-0.2,0-0.4,0-0.6c1-0.2,2-0.3,3.2-0.5c0.1-1.3,0.1-2.6,0.2-4.1
	c-1.1,0-2.3-0.1-3.4-0.1c0-0.2,0-0.4-0.1-0.6c0.5-0.1,1-0.3,1.5-0.3c1.4,0,2.4-0.3,1.9-2.2c-0.1-0.6,0-1.3,0.1-2
	c-1.2-0.2-2.3-0.3-3.4-0.5c0-0.2,0-0.4,0-0.6c0.5-0.1,1-0.2,1.5-0.2s1.1,0,1.7,0c0.1-1.2,0.2-2.4,0.1-3.5c0-0.3-0.8-0.6-1.2-0.8
	c-0.7-0.2-1.5-0.2-2.3-0.3c0-0.3,0-0.5,0.1-0.8c1,0,2.1-0.1,3.3-0.1c0.1-1.4,0.1-2.8,0.2-4.3c-1.2,0-2.3,0-3.4,0.1
	c0-0.3,0-0.5,0-0.8c1.1-0.2,2.1-0.4,3.3-0.6c0.1-1.3,0.1-2.6,0.2-4.1c-1.2,0-2.3-0.1-3.4-0.1c0-0.2-0.1-0.4-0.1-0.6
	c0.6-0.2,1.2-0.5,1.8-0.4c1.6,0.2,1.9-0.8,1.7-2.2c-0.1-0.6-0.1-1.3-0.2-2c-1.1-0.2-2.2-0.3-3.3-0.5c0-0.2,0-0.5,0.1-0.7
	c1.1-0.1,2.1-0.1,3.2-0.2c0-1.7,0.2-3,0.3-4.4c0.2,0,0.4,0,0.7,0.1c0,1.3,0,2.6,0,4.1c1.2,0.1,2.3,0.1,3.5,0.1c0,0.2,0,0.4,0,0.6
	c-1.1,0.2-2.2,0.3-3.2,0.5c-0.1,1.4-0.1,2.7-0.2,4.1c1.2,0.1,2.3,0.3,3.5,0.4c0,0.2,0,0.4,0,0.6c-1.1,0.1-2.3,0.3-3.5,0.4
	c0.1,1.3,0.1,2.7,0.2,4.1c1.2,0.1,2.2,0.2,3.3,0.4c0,0.2,0.1,0.4,0.1,0.6c-0.5,0.1-1,0.3-1.5,0.3c-2.1,0-2.1,0-2,2.3
	c0,0.6,0.1,1.3,0.1,2c1.1,0,2.2,0,3.6-0.1c-0.9,2-2.4,0.7-3.5,1.4c-0.1,1.2-0.1,2.6-0.2,4.1c1.2,0.1,2.3,0.1,3.4,0.1
	c0,0.2,0.1,0.4,0.1,0.6c-1.1,0.2-2.2,0.5-3.5,0.8c0,1.2,0,2.5,0.1,3.8c1.1,0.2,2.2,0.4,3.3,0.6c0,0.2,0,0.4,0,0.7
	c-1.1,0.1-2.1,0.1-3.4,0.2c0,1.4-0.4,3,0.2,3.8c0.5,0.7,2.1,0.6,3.2,0.8c0,0.2,0,0.4,0,0.6c-1.1,0.1-2.1,0.2-3.4,0.3
	c0,1.4,0,2.8,0,4.4c1-0.1,1.8-0.3,2.6-0.3c0.3,0,0.5,0.4,0.8,0.6c-0.3,0.2-0.5,0.6-0.8,0.7c-0.8,0.1-1.6,0-2.4,0
	c0,0.8-0.1,1.6-0.1,2.3H63c0-1.6,0-3.1,0-4.7c0-3.3,0.1-6.6,0.1-9.9c0-7-0.1-13.9-0.1-20.9c0-3.2-0.1-6.4-0.1-9.7
	c0-0.9-0.2-1.5-1.2-1.5c-2.7,0.1-5.4,0-8.2,0.2c-0.4,0-1.1,0.8-1.1,1.2c-0.1,1.9,0,3.8,0,5.7c0,7.5,0.1,14.9,0,22.4
	c0,5.7-0.1,11.4-0.1,17.1h4.8C57.1,49.7,57.1,49.1,56.9,48.6z"/>
<path fill="#035E91" d="M85.5,46.8c-1.2-0.5-2.6,0.3-3.5-0.7c0-0.2,0.1-0.4,0.1-0.6c1.1,0,2.1,0,3.4,0c0-1.4,0-2.7,0-4.2
	c-0.8,0-1.5,0.1-2.2,0c-0.4,0-0.8-0.2-1.2-0.4c0.4-0.2,0.7-0.6,1.1-0.7c0.7-0.2,1.4-0.2,2.3-0.3c0-1.2,0-2.4,0-3.7
	c-1.2-0.2-2.3-0.4-3.4-0.6c0-0.2,0-0.4,0.1-0.6c0.4-0.1,0.8-0.1,1.2-0.2c0.7-0.1,1.8-0.1,1.9-0.5c0.3-1,0.3-2.2,0.2-3.3
	c0-0.2-0.8-0.4-1.3-0.5c-0.7-0.2-1.4-0.2-2.1-0.3c0-0.2,0-0.5,0-0.7c1.1-0.1,2.2-0.1,3.3-0.2c0.1-1.4,0.1-2.7,0.2-4.4
	c-1.4,0.1-2.6,0.1-3.7,0c0-0.2,0-0.4,0-0.7c1.1-0.1,2.3-0.1,3.5-0.2c0-1.4-0.1-2.7-0.1-4.2c-1.2,0-2.2-0.1-3.3-0.1
	c0-0.2,0-0.4-0.1-0.6c1.1-0.2,2.2-0.4,3.5-0.6c0-1.2,0-2.4,0-3.7c-1.2-0.1-2.3-0.2-3.3-0.3c0-0.2,0-0.4-0.1-0.6
	c1.1-0.2,2.1-0.3,3.2-0.5c0.1-1.3,0.1-2.6,0.2-4.1c-1.2,0-2.3-0.1-3.5-0.1c0-0.2,0-0.5,0-0.7C83,8.4,84,8.4,85.3,8.3
	c0.1-1.3,0.1-2.6,0.2-3.9c0.2,0,0.3-0.1,0.5-0.1c0.1,0.5,0.3,1,0.3,1.5c0,2.4,0,2.3,2.2,2.5c0.4,0,0.9,0.2,1.3,0.2
	c0,0.2,0,0.4,0,0.6c-0.6,0.1-1.1,0.3-1.7,0.2c-1.2-0.1-1.8,0.3-1.8,1.8c0,2.5-0.1,2.5,2.2,2.5c0.4,0,0.8,0.1,1.3,0.2
	c0,0.2,0.1,0.4,0.1,0.6c-1.1,0.2-2.3,0.3-3.5,0.5c0,1.3-0.4,3,0.2,3.7c0.5,0.7,2.1,0.5,3.3,0.8c-0.6,0.7-0.6,0.7-3.6,0.9
	c0,0.6-0.1,1.3-0.1,2c0,0.6,0.2,1.2,0.4,2.1c1,0,2,0.1,3,0.1c0,0.2,0.1,0.5,0.1,0.7c-1,0.2-2.1,0.4-3.3,0.6c0,1.2-0.1,2.4-0.2,3.8
	c1.2,0.1,2.3,0.2,3.4,0.3c0,0.2,0,0.4,0.1,0.6c-0.4,0.1-0.8,0.3-1.1,0.3c-2.2,0.1-2.2,0.1-2.3,2.4c0,0.6,0,1.1,0,2
	c1.2,0.1,2.3,0.1,3.5,0.1c0,0.2,0,0.4,0,0.6c-1.1,0.1-2.2,0.2-3.5,0.4c0,1.3,0.1,2.6,0.1,4c1.2,0.1,2.2,0.2,3.3,0.4
	c0,0.2,0,0.4,0.1,0.6c-1.1,0.1-2.2,0.3-3.5,0.5c0.1,1.1,0,2.2,0.3,3.2c0.1,0.4,1.2,0.5,1.8,0.8c0.4,0.2,0.9,0.3,1.3,0.5
	c-0.4,0.2-0.8,0.6-1.3,0.7c-0.6,0.1-1.2,0-2-0.1c0,0.9,0,1.5-0.1,2.2c0,0.1,0,0.3,0,0.4h4.8c-0.1-3,0-6-0.1-9c0-9.9,0-19.9,0-29.8
	c0-2.3-0.1-4.6-0.1-6.4c-3.1-0.1-6-0.3-8.8-0.4c-1.1,0-1.7,0.4-1.6,1.7c0.1,1.9,0.1,3.8,0.1,5.8c0,8.3-0.1,16.7,0,25
	c0,3.2,0.2,6.4,0.2,9.6c0,1.2,0,2.4-0.1,3.6h4.7C85.5,48.4,85.5,47.6,85.5,46.8z"/>
<path fill="#022B42" d="M73,94.2c1.3,0.1,2.4,0.1,3.5,0.1c0,0.2,0,0.4,0,0.6c-1.1,0.2-2.3,0.3-3.6,0.5c0.1,1.2,0,2.3,0.2,3.4
	c0.1,0.3,0.9,0.5,1.4,0.7c0.6,0.1,1.1,0.1,1.7,0.1c0,0.2,0,0.5,0.1,0.7c-0.6,0.1-1.2,0.4-1.8,0.3c-1.8-0.3-1.6,1-1.7,2.1
	c-0.1,1.4,0.3,2,1.6,1.9c0.7,0,1.3,0.2,2,0.3c0,0.2,0,0.5-0.1,0.7c-1,0.1-2.1,0.2-3.2,0.4c-0.1,1.3-0.1,2.5-0.2,4
	c1.2,0,2.3,0.1,3.4,0.1c-0.4,0.8-0.4,0.8-3.2,1.1c-0.1,1.3-0.1,2.6-0.2,4.1c1.2,0.1,2.3,0.1,3.4,0.1c0,0.2,0.1,0.5,0.1,0.7
	c-1.1,0.2-2.3,0.4-3.7,0.7c0.1,1.2,0.2,2.4,0.3,3.8c1,0,2,0.1,3,0.1c0,1.1,0,1.1-3,1.3c-0.1,1.3-0.1,2.6-0.2,3.8c1,0,1.8,0,2.6,0.1
	c0.3,0,0.6,0.4,0.8,0.6c-0.3,0.2-0.5,0.5-0.8,0.6c-0.7,0.1-1.5,0.1-2.4,0.2c-0.1,0.6-0.1,1.1-0.2,1.6c-0.2,2.5-0.1,2.5,2.3,2.5
	c0.4,0,0.8,0.4,1.2,0.6c-0.4,0.2-0.8,0.6-1.2,0.5c-1.6-0.1-2.7,0.2-2.2,2.4c0.1,0.4,0,0.8-0.1,1.2c-0.1,0.2-0.4,0.4-0.6,0.4
	c-0.1,0-0.4-0.3-0.4-0.4c0.6-3-1.2-3.7-3.4-3.8c0,0-0.1-0.1-0.3-0.6c0.7-0.1,1.3-0.3,1.9-0.2c1.6,0.3,1.7-0.7,1.7-2s0.1-2.4-1.6-2.2
	c-0.6,0.1-1.3,0-2.3-0.1c1.2-1.8,2.7-0.6,3.9-1.3c0-1.2,0-2.4,0-3.6c-0.8-1.2-2.7,0.8-3.6-1.3c1.4-0.1,2.4-0.2,3.6-0.2
	c0-1.4-0.1-2.6-0.1-3.9c-1.2-0.2-2.3-0.3-3.4-0.4c0-0.2,0-0.4,0-0.7c1.1-0.2,2.2-0.4,3.3-0.6c0-1.2,0.1-2.4,0.2-3.8
	c-1,0-1.9,0-2.8-0.1c-0.2,0-0.4-0.4-0.6-0.6c0.2-0.2,0.5-0.4,0.7-0.5c0.8-0.1,2.1,0.1,2.3-0.3c0.4-0.9,0.3-2.1,0.4-3.3
	c0-0.2-0.1-0.4-0.1-0.6c-1,0-2-0.1-3-0.1c-0.1,0-0.3-0.2-0.6-0.4c1-1.3,2.4-0.2,3.6-0.9c0-1.2,0-2.5-0.1-3.9c-1.1,0-2.1-0.1-3.5-0.1
	c0.4-0.5,0.6-1,0.9-1.1c0.9-0.2,2.4,0,2.6-0.5c0.4-1,0.2-2.4,0.3-3.9C70.4,95,69.4,95,68.4,95c0-0.2,0-0.5,0-0.7
	c1-0.1,2-0.2,3.2-0.4c0.1-0.5,0.1-1,0.2-1.5c0-0.5,0.1-1,0.1-1.3h-4.8c0.1,15.3,0.1,30.7,0.2,46.2c3.6-0.1,7-0.1,10.4-0.2
	c0-5,0-9.6,0-14.2c0-6.4,0-12.9-0.1-19.3c0-4,0.1-8.1,0-12.1c0-0.1,0-0.3,0-0.4H73C73.1,92.2,73,93.2,73,94.2z"/>
<path fill="#0071BC" d="M76.8,71.1c0.4-3.6-2.5-5.3-4.7-5.5c-2.3-0.2-4.6,2.1-4.7,4.5c-0.1,3.2,1.5,5.1,4.7,5.2
	C74.5,75.5,76.6,73.4,76.8,71.1z"/>
<polygon fill="#035E91" points="94.1,48.5 80.8,48.8 88.1,56.5 "/>
<polygon fill="#023E60" points="96.1,54.8 94.1,48.5 88.2,56.4 "/>
<polygon fill="#031F2B" points="84.8,59.1 80.7,48.8 88.2,56.4 "/>
<polygon fill="none" points="82.6,59.2 80.7,48.8 84.8,59.1 "/>
<polygon fill="none" points="85.8,63.9 82.6,59.2 77.8,64.5 "/>
<polygon fill="none" points="80.7,48.8 73.5,56.6 82.6,59.2 "/>
<polygon fill="#01141C" points="66.8,48.8 69.8,49.7 65.2,58.2 "/>
<polygon fill="#023E60" points="57.7,49.5 65.2,58.2 66.8,48.8 "/>
<polygon fill="none" points="65.2,58.2 73.5,56.6 72.7,62.4 "/>
<polygon fill="#0071BC" points="77.8,64.5 73.5,56.6 72.7,62.4 "/>
<polygon fill="#022B42" points="85.8,63.9 80.4,70.2 77.8,64.5 "/>
<polygon fill="#035E91" points="90.1,64.4 89.9,69.5 85.8,63.9 "/>
<polygon fill="#031F2B" points="80.4,70.2 89.9,69.5 85.8,63.9 "/>
<polygon fill="#022B42" points="65.7,64.8 65.2,58.2 72.7,62.4 "/>
<path fill="#01141C" d="M52.5,48.8c0.4,0.1,5.2,0.7,5.2,0.7l-4.2,5.6L52.5,48.8z"/>
<polygon fill="#035E91" points="49.7,52.3 52.5,48.8 53.5,55.1 "/>
<polygon fill="#022B42" points="57.4,56.2 53.5,55.1 57.7,49.5 "/>
<polygon fill="#035E91" points="65.2,58.2 57.4,56.2 57.7,49.5 "/>
<polygon fill="#0071BC" points="61.5,59.2 57.4,56.2 65.2,58.2 "/>
<polygon fill="#0071BC" points="65.7,64.8 61.5,59.2 65.2,58.2 "/>
<polygon fill="#0071BC" points="90.1,64.4 93,66.9 89.9,69.5 "/>
<polygon fill="#022B42" points="65.7,64.8 63.5,70.8 58.2,63.5 "/>
<polygon fill="#031F2B" points="61.5,59.2 58.2,63.5 65.7,64.8 "/>
<polygon fill="#0071BC" points="63.5,70.8 50.2,70.5 52.4,66.4 "/>
<polygon fill="#01141C" points="58.2,63.5 52.4,66.4 63.5,70.8 "/>
<polygon fill="#035E91" points="50.2,70.5 33.2,59.8 47.5,66.5 "/>
<polygon fill="none" points="50.2,70.5 48,74.4 34.3,80.4 "/>
<polygon fill="#035E91" points="21.1,70.7 39,69.4 50.2,70.5 38.5,72.1 "/>
<polygon fill="none" points="20.1,70.7 18.6,70 15.8,70.7 18.7,72.1 "/>
<polygon fill="#035E91" points="107.1,56.1 101.6,56.8 107.4,70.2 "/>
<polygon fill="#031F2B" points="93,66.9 107.4,70.2 101.6,56.8 "/>
<polygon fill="#0071BC" points="89.9,69.5 107.4,70.2 93,66.9 "/>
<polygon fill="#0071BC" points="107.1,56.1 116.2,67.7 114.2,62.7 "/>
<polygon fill="none" points="107.4,70.2 116.2,67.7 115.8,72.8 "/>
<polygon fill="#031F2B" points="82.6,59.2 73.5,56.6 77.8,64.5 "/>
<polygon fill="#023E60" points="69.8,49.7 73.5,56.6 65.2,58.2 "/>
<polygon fill="#035E91" points="94.6,92.7 81.3,92.5 88.6,84.7 "/>
<polygon fill="#023E60" points="96.5,86.1 94.6,92.7 88.6,84.7 "/>
<polygon fill="#0071BC" points="85.1,82 81.3,92.5 88.6,84.7 "/>
<polygon fill="none" points="82.9,82 81.3,92.5 85.1,82 "/>
<polygon fill="#01141C" points="86,77.3 82.9,82 78,76.9 "/>
<polygon fill="#022B42" points="81.3,92.5 73.9,84.8 82.9,82 "/>
<polygon fill="#022B42" points="67.3,92.8 70.3,91.8 65.5,83.4 "/>
<polygon fill="#031F2B" points="58.2,92.3 65.5,83.4 67.3,92.8 "/>
<polygon fill="none" points="65.5,83.4 73.9,84.8 72.9,79 "/>
<polygon fill="#022B42" points="78,76.9 73.9,84.8 72.9,79 "/>
<polygon fill="#022B42" points="86,77.3 80.5,70.4 78,76.9 "/>
<polygon fill="#035E91" points="90.3,76.6 90,71.6 86,77.3 "/>
<polygon fill="#031F2B" points="80.4,70.6 90,71.6 86,77.3 "/>
<polygon fill="#035E91" points="65.9,76.8 65.5,83.4 72.9,79 "/>
<path fill="#01141C" d="M53,93.1c0.4-0.1,5.2-0.8,5.2-0.8l-4.4-5.5L53,93.1z"/>
<polygon fill="#031F2B" points="50.1,89.7 53,93.1 53.9,86.8 "/>
<polygon fill="#023E60" points="57.8,85.6 53.9,86.8 58.2,92.3 "/>
<polygon fill="#035E91" points="65.5,83.4 57.8,85.6 58.2,92.3 "/>
<polygon fill="#01141C" points="61.8,82.5 57.8,85.6 65.5,83.4 "/>
<polygon fill="#01141C" points="65.9,76.8 61.8,82.5 65.5,83.4 "/>
<polygon fill="#01141C" points="90.3,76.6 93.1,74.1 90,71.6 "/>
<polygon fill="#023E60" points="65.9,76.8 63.6,70.9 58.4,78.3 "/>
<polygon fill="#022B42" points="61.8,82.5 58.4,78.3 65.9,76.8 "/>
<polygon fill="#031F2B" points="63.6,70.9 63.5,70.8 50.2,70.5 52.6,75.5 "/>
<polygon fill="#035E91" points="58.4,78.3 52.6,75.5 63.6,70.9 "/>
<polygon fill="#023E60" points="107.4,84.5 102,84 107.5,70.4 "/>
<polygon fill="#031F2B" points="93.1,74.1 107.5,70.4 102,84 "/>
<polygon fill="#01141C" points="90,71.6 107.5,70.4 93.1,74.1 "/>
<polygon fill="#023E60" points="107.4,84.5 116.3,72.8 114.4,77.8 "/>
<polygon fill="#031F2B" points="82.9,82 73.9,84.8 78,76.9 "/>
<polygon fill="#01141C" points="70.3,91.8 73.9,84.8 65.5,83.4 "/>
<polygon fill="#0071BC" points="81.3,92.5 73.9,84.8 70.3,91.8 "/>
<polygon fill="#035E91" points="80.7,48.8 69.8,49.7 73.5,56.6 "/>
<polygon fill="#01141C" points="82.6,59.2 80.7,48.8 84.8,59.1 "/>
<polygon fill="#023E60" points="85.8,63.9 82.6,59.2 77.8,64.5 "/>
<polygon fill="#0071BC" points="50.2,70.5 48,74.4 34.3,80.4 "/>
<polygon fill="#023E60" points="20.1,70.7 18.6,70 15.8,70.7 18.7,72.1 "/>
<polygon fill="#031F2B" points="107.4,70.2 116.2,67.7 115.8,72.8 "/>
<polygon fill="#0071BC" points="120.3,67.8 116.2,67.7 115.8,72.8 "/>
<polygon fill="#023E60" points="120.8,72.3 120.3,67.8 115.8,72.8 "/>
<polygon fill="#022B42" points="80.7,48.8 73.5,56.6 82.6,59.2 "/>
<polygon fill="#01141C" points="72.7,62.4 65.2,58.2 73.5,56.6 "/>
<polygon fill="#01141C" points="72.9,79 73.9,84.8 65.5,83.4 "/>
<polygon fill="#01141C" points="85.1,82 82.9,82 81.3,92.5 "/>
</svg>
